<?xml version="1.0" encoding="UTF-8"?>
<!DOCTYPE score-partwise PUBLIC "-//Recordare//DTD MusicXML 3.0 Partwise//EN" "http://www.musicxml.org/dtds/partwise.dtd">
<score-partwise>
  <identification>
    <encoding>
      <software>MuseScore 2.1.0</software>
      <encoding-date>2018-01-01</encoding-date>
      <supports element="accidental" type="yes"/>
      <supports element="beam" type="yes"/>
      <supports element="print" attribute="new-page" type="yes" value="yes"/>
      <supports element="print" attribute="new-system" type="yes" value="yes"/>
      <supports element="stem" type="yes"/>
      </encoding>
    </identification>
  <defaults>
    <scaling>
      <millimeters>7.05556</millimeters>
      <tenths>40</tenths>
      </scaling>
    <page-layout>
      <page-height>1683.78</page-height>
      <page-width>1190.55</page-width>
      <page-margins type="even">
        <left-margin>56.6929</left-margin>
        <right-margin>56.6929</right-margin>
        <top-margin>56.6929</top-margin>
        <bottom-margin>113.386</bottom-margin>
        </page-margins>
      <page-margins type="odd">
        <left-margin>56.6929</left-margin>
        <right-margin>56.6929</right-margin>
        <top-margin>56.6929</top-margin>
        <bottom-margin>113.386</bottom-margin>
        </page-margins>
      </page-layout>
    <word-font font-family="FreeSerif" font-size="10"/>
    <lyric-font font-family="FreeSerif" font-size="11"/>
    </defaults>
  <part-list>
    <score-part id="P1">
      <part-name>Piano, Grand Piano</part-name>
      <part-abbreviation>Pno.</part-abbreviation>
      <score-instrument id="P1-I1">
        <instrument-name>Piano</instrument-name>
        </score-instrument>
      <midi-device id="P1-I1" port="1"></midi-device>
      <midi-instrument id="P1-I1">
        <midi-channel>1</midi-channel>
        <midi-program>1</midi-program>
        <volume>78.7402</volume>
        <pan>0</pan>
        </midi-instrument>
      </score-part>
    </part-list>
  <part id="P1">
    <measure number="1" width="449.42">
      <print>
        <system-layout>
          <system-margins>
            <left-margin>21.00</left-margin>
            <right-margin>0.00</right-margin>
            </system-margins>
          <top-system-distance>70.00</top-system-distance>
          </system-layout>
        <staff-layout number="2">
          <staff-distance>65.00</staff-distance>
          </staff-layout>
        </print>
      <attributes>
        <divisions>480</divisions>
        <key>
          <fifths>0</fifths>
          </key>
        <time>
          <beats>3</beats>
          <beat-type>4</beat-type>
          </time>
        <staves>2</staves>
        <clef number="1">
          <sign>F</sign>
          <line>4</line>
          </clef>
        <clef number="2">
          <sign>F</sign>
          <line>4</line>
          </clef>
        </attributes>
      <direction placement="above">
        <direction-type>
          <metronome parentheses="no">
            <beat-unit>quarter</beat-unit>
            <per-minute>60</per-minute>
            </metronome>
          </direction-type>
        <staff>1</staff>
        <sound tempo="60"/>
        </direction>
      <note default-x="78.29" default-y="-25.00" dynamics="58.89">
        <pitch>
          <step>C</step>
          <octave>3</octave>
          </pitch>
        <duration>160</duration>
        <tie type="start"/>
        <voice>1</voice>
        <type>16th</type>
        <dot/>
        <time-modification>
          <actual-notes>9</actual-notes>
          <normal-notes>8</normal-notes>
          </time-modification>
        <stem>down</stem>
        <staff>1</staff>
        <beam number="1">begin</beam>
        <beam number="2">begin</beam>
        <notations>
          <tied type="start"/>
          <tuplet type="start" bracket="no"/>
          </notations>
        </note>
      <note default-x="118.06" default-y="-25.00" dynamics="58.89">
        <pitch>
          <step>C</step>
          <octave>3</octave>
          </pitch>
        <duration>160</duration>
        <tie type="stop"/>
        <tie type="start"/>
        <voice>1</voice>
        <type>16th</type>
        <dot/>
        <time-modification>
          <actual-notes>9</actual-notes>
          <normal-notes>8</normal-notes>
          </time-modification>
        <stem>down</stem>
        <staff>1</staff>
        <beam number="1">continue</beam>
        <beam number="2">continue</beam>
        <notations>
          <tied type="stop"/>
          <tied type="start"/>
          </notations>
        </note>
      <note default-x="118.06" default-y="10.00" dynamics="54.44">
        <chord/>
        <pitch>
          <step>C</step>
          <octave>4</octave>
          </pitch>
        <duration>160</duration>
        <voice>1</voice>
        <type>16th</type>
        <dot/>
        <time-modification>
          <actual-notes>9</actual-notes>
          <normal-notes>8</normal-notes>
          </time-modification>
        <stem>down</stem>
        <staff>1</staff>
        </note>
      <note default-x="157.84" default-y="-25.00" dynamics="58.89">
        <pitch>
          <step>C</step>
          <octave>3</octave>
          </pitch>
        <duration>160</duration>
        <tie type="stop"/>
        <tie type="start"/>
        <voice>1</voice>
        <type>16th</type>
        <dot/>
        <time-modification>
          <actual-notes>9</actual-notes>
          <normal-notes>8</normal-notes>
          </time-modification>
        <stem>down</stem>
        <staff>1</staff>
        <beam number="1">end</beam>
        <beam number="2">end</beam>
        <notations>
          <tied type="stop"/>
          <tied type="start"/>
          </notations>
        </note>
      <note default-x="157.84" default-y="15.00" dynamics="54.44">
        <chord/>
        <pitch>
          <step>D</step>
          <octave>4</octave>
          </pitch>
        <duration>160</duration>
        <voice>1</voice>
        <type>16th</type>
        <dot/>
        <time-modification>
          <actual-notes>9</actual-notes>
          <normal-notes>8</normal-notes>
          </time-modification>
        <stem>down</stem>
        <staff>1</staff>
        </note>
      <note default-x="197.61" default-y="-25.00" dynamics="58.89">
        <pitch>
          <step>C</step>
          <octave>3</octave>
          </pitch>
        <duration>160</duration>
        <tie type="stop"/>
        <tie type="start"/>
        <voice>1</voice>
        <type>16th</type>
        <dot/>
        <time-modification>
          <actual-notes>9</actual-notes>
          <normal-notes>8</normal-notes>
          </time-modification>
        <stem>down</stem>
        <staff>1</staff>
        <beam number="1">begin</beam>
        <beam number="2">begin</beam>
        <notations>
          <tied type="stop"/>
          <tied type="start"/>
          </notations>
        </note>
      <note default-x="197.61" default-y="20.00" dynamics="55.56">
        <chord/>
        <pitch>
          <step>E</step>
          <octave>4</octave>
          </pitch>
        <duration>160</duration>
        <voice>1</voice>
        <type>16th</type>
        <dot/>
        <time-modification>
          <actual-notes>9</actual-notes>
          <normal-notes>8</normal-notes>
          </time-modification>
        <stem>down</stem>
        <staff>1</staff>
        </note>
      <note default-x="237.38" default-y="-25.00" dynamics="58.89">
        <pitch>
          <step>C</step>
          <octave>3</octave>
          </pitch>
        <duration>160</duration>
        <tie type="stop"/>
        <tie type="start"/>
        <voice>1</voice>
        <type>16th</type>
        <dot/>
        <time-modification>
          <actual-notes>9</actual-notes>
          <normal-notes>8</normal-notes>
          </time-modification>
        <stem>down</stem>
        <staff>1</staff>
        <beam number="1">continue</beam>
        <beam number="2">continue</beam>
        <notations>
          <tied type="stop"/>
          <tied type="start"/>
          </notations>
        </note>
      <note default-x="237.38" default-y="30.00" dynamics="54.44">
        <chord/>
        <pitch>
          <step>G</step>
          <octave>4</octave>
          </pitch>
        <duration>160</duration>
        <voice>1</voice>
        <type>16th</type>
        <dot/>
        <time-modification>
          <actual-notes>9</actual-notes>
          <normal-notes>8</normal-notes>
          </time-modification>
        <stem>down</stem>
        <staff>1</staff>
        </note>
      <note default-x="277.16" default-y="-25.00" dynamics="58.89">
        <pitch>
          <step>C</step>
          <octave>3</octave>
          </pitch>
        <duration>160</duration>
        <tie type="stop"/>
        <voice>1</voice>
        <type>16th</type>
        <dot/>
        <time-modification>
          <actual-notes>9</actual-notes>
          <normal-notes>8</normal-notes>
          </time-modification>
        <stem>down</stem>
        <staff>1</staff>
        <beam number="1">end</beam>
        <beam number="2">end</beam>
        <notations>
          <tied type="stop"/>
          </notations>
        </note>
      <note default-x="277.16" default-y="25.00" dynamics="54.44">
        <chord/>
        <pitch>
          <step>F</step>
          <octave>4</octave>
          </pitch>
        <duration>160</duration>
        <voice>1</voice>
        <type>16th</type>
        <dot/>
        <time-modification>
          <actual-notes>9</actual-notes>
          <normal-notes>8</normal-notes>
          </time-modification>
        <stem>down</stem>
        <staff>1</staff>
        </note>
      <attributes>
        <clef number="1">
          <sign>G</sign>
          <line>2</line>
          </clef>
        </attributes>
      <note default-x="328.50" default-y="-35.00" dynamics="57.78">
        <pitch>
          <step>F</step>
          <octave>4</octave>
          </pitch>
        <duration>160</duration>
        <voice>1</voice>
        <type>16th</type>
        <dot/>
        <time-modification>
          <actual-notes>9</actual-notes>
          <normal-notes>8</normal-notes>
          </time-modification>
        <stem>up</stem>
        <staff>1</staff>
        <beam number="1">begin</beam>
        <beam number="2">begin</beam>
        </note>
      <note default-x="368.27" default-y="-25.00" dynamics="54.44">
        <pitch>
          <step>A</step>
          <octave>4</octave>
          </pitch>
        <duration>160</duration>
        <voice>1</voice>
        <type>16th</type>
        <dot/>
        <time-modification>
          <actual-notes>9</actual-notes>
          <normal-notes>8</normal-notes>
          </time-modification>
        <stem>up</stem>
        <staff>1</staff>
        <beam number="1">continue</beam>
        <beam number="2">continue</beam>
        </note>
      <note default-x="408.04" default-y="-30.00" dynamics="54.44">
        <pitch>
          <step>G</step>
          <octave>4</octave>
          </pitch>
        <duration>160</duration>
        <voice>1</voice>
        <type>16th</type>
        <dot/>
        <time-modification>
          <actual-notes>9</actual-notes>
          <normal-notes>8</normal-notes>
          </time-modification>
        <stem>up</stem>
        <staff>1</staff>
        <beam number="1">end</beam>
        <beam number="2">end</beam>
        <notations>
          <tuplet type="stop"/>
          </notations>
        </note>
      <backup>
        <duration>1440</duration>
        </backup>
      <note>
        <rest/>
        <duration>480</duration>
        <voice>5</voice>
        <type>quarter</type>
        <staff>2</staff>
        </note>
      <note>
        <rest/>
        <duration>480</duration>
        <voice>5</voice>
        <type>quarter</type>
        <staff>2</staff>
        </note>
      <note default-x="328.50" default-y="-125.00" dynamics="57.78">
        <pitch>
          <step>D</step>
          <octave>3</octave>
          </pitch>
        <duration>480</duration>
        <voice>5</voice>
        <type>quarter</type>
        <stem>down</stem>
        <staff>2</staff>
        </note>
      </measure>
    <measure number="2" width="303.37">
      <note default-x="12.36" default-y="-30.00" dynamics="60.00">
        <pitch>
          <step>G</step>
          <octave>4</octave>
          </pitch>
        <duration>160</duration>
        <voice>1</voice>
        <type>16th</type>
        <dot/>
        <time-modification>
          <actual-notes>9</actual-notes>
          <normal-notes>8</normal-notes>
          </time-modification>
        <stem>up</stem>
        <staff>1</staff>
        <beam number="1">begin</beam>
        <beam number="2">begin</beam>
        <notations>
          <tuplet type="start" bracket="no"/>
          </notations>
        </note>
      <note default-x="44.52" default-y="-15.00" dynamics="54.44">
        <pitch>
          <step>C</step>
          <octave>5</octave>
          </pitch>
        <duration>160</duration>
        <voice>1</voice>
        <type>16th</type>
        <dot/>
        <time-modification>
          <actual-notes>9</actual-notes>
          <normal-notes>8</normal-notes>
          </time-modification>
        <stem>up</stem>
        <staff>1</staff>
        <beam number="1">continue</beam>
        <beam number="2">continue</beam>
        </note>
      <note default-x="76.68" default-y="-20.00" dynamics="54.44">
        <pitch>
          <step>B</step>
          <octave>4</octave>
          </pitch>
        <duration>160</duration>
        <voice>1</voice>
        <type>16th</type>
        <dot/>
        <time-modification>
          <actual-notes>9</actual-notes>
          <normal-notes>8</normal-notes>
          </time-modification>
        <stem>up</stem>
        <staff>1</staff>
        <beam number="1">end</beam>
        <beam number="2">end</beam>
        </note>
      <note default-x="108.83" default-y="-15.00" dynamics="55.56">
        <pitch>
          <step>C</step>
          <octave>5</octave>
          </pitch>
        <duration>160</duration>
        <voice>1</voice>
        <type>16th</type>
        <dot/>
        <time-modification>
          <actual-notes>9</actual-notes>
          <normal-notes>8</normal-notes>
          </time-modification>
        <stem>up</stem>
        <staff>1</staff>
        <beam number="1">begin</beam>
        <beam number="2">begin</beam>
        </note>
      <note default-x="140.99" default-y="-30.00" dynamics="54.44">
        <pitch>
          <step>G</step>
          <octave>4</octave>
          </pitch>
        <duration>160</duration>
        <voice>1</voice>
        <type>16th</type>
        <dot/>
        <time-modification>
          <actual-notes>9</actual-notes>
          <normal-notes>8</normal-notes>
          </time-modification>
        <stem>up</stem>
        <staff>1</staff>
        <beam number="1">continue</beam>
        <beam number="2">continue</beam>
        </note>
      <note default-x="173.15" default-y="-40.00" dynamics="54.44">
        <pitch>
          <step>E</step>
          <octave>4</octave>
          </pitch>
        <duration>160</duration>
        <voice>1</voice>
        <type>16th</type>
        <dot/>
        <time-modification>
          <actual-notes>9</actual-notes>
          <normal-notes>8</normal-notes>
          </time-modification>
        <stem>up</stem>
        <staff>1</staff>
        <beam number="1">end</beam>
        <beam number="2">end</beam>
        </note>
      <note default-x="205.30" default-y="-50.00" dynamics="57.78">
        <pitch>
          <step>C</step>
          <octave>4</octave>
          </pitch>
        <duration>160</duration>
        <voice>1</voice>
        <type>16th</type>
        <dot/>
        <time-modification>
          <actual-notes>9</actual-notes>
          <normal-notes>8</normal-notes>
          </time-modification>
        <stem>up</stem>
        <staff>1</staff>
        <beam number="1">begin</beam>
        <beam number="2">begin</beam>
        </note>
      <note default-x="237.46" default-y="-45.00" dynamics="54.44">
        <pitch>
          <step>D</step>
          <octave>4</octave>
          </pitch>
        <duration>160</duration>
        <voice>1</voice>
        <type>16th</type>
        <dot/>
        <time-modification>
          <actual-notes>9</actual-notes>
          <normal-notes>8</normal-notes>
          </time-modification>
        <stem>up</stem>
        <staff>1</staff>
        <beam number="1">continue</beam>
        <beam number="2">continue</beam>
        </note>
      <note default-x="269.62" default-y="-40.00" dynamics="54.44">
        <pitch>
          <step>E</step>
          <octave>4</octave>
          </pitch>
        <duration>160</duration>
        <voice>1</voice>
        <type>16th</type>
        <dot/>
        <time-modification>
          <actual-notes>9</actual-notes>
          <normal-notes>8</normal-notes>
          </time-modification>
        <stem>up</stem>
        <staff>1</staff>
        <beam number="1">end</beam>
        <beam number="2">end</beam>
        <notations>
          <tuplet type="stop"/>
          </notations>
        </note>
      <backup>
        <duration>1440</duration>
        </backup>
      <note default-x="12.00" default-y="-120.00" dynamics="60.00">
        <pitch>
          <step>E</step>
          <octave>3</octave>
          </pitch>
        <duration>1440</duration>
        <voice>5</voice>
        <type>half</type>
        <dot/>
        <stem>down</stem>
        <staff>2</staff>
        </note>
      </measure>
    <measure number="3" width="303.37">
      <note default-x="12.00" default-y="-35.00" dynamics="60.00">
        <pitch>
          <step>F</step>
          <octave>4</octave>
          </pitch>
        <duration>160</duration>
        <voice>1</voice>
        <type>16th</type>
        <dot/>
        <time-modification>
          <actual-notes>9</actual-notes>
          <normal-notes>8</normal-notes>
          </time-modification>
        <stem>up</stem>
        <staff>1</staff>
        <beam number="1">begin</beam>
        <beam number="2">begin</beam>
        <notations>
          <tuplet type="start" bracket="no"/>
          </notations>
        </note>
      <note default-x="44.20" default-y="-30.00" dynamics="54.44">
        <pitch>
          <step>G</step>
          <octave>4</octave>
          </pitch>
        <duration>160</duration>
        <voice>1</voice>
        <type>16th</type>
        <dot/>
        <time-modification>
          <actual-notes>9</actual-notes>
          <normal-notes>8</normal-notes>
          </time-modification>
        <stem>up</stem>
        <staff>1</staff>
        <beam number="1">continue</beam>
        <beam number="2">continue</beam>
        </note>
      <note default-x="76.39" default-y="-25.00" dynamics="54.44">
        <pitch>
          <step>A</step>
          <octave>4</octave>
          </pitch>
        <duration>160</duration>
        <voice>1</voice>
        <type>16th</type>
        <dot/>
        <time-modification>
          <actual-notes>9</actual-notes>
          <normal-notes>8</normal-notes>
          </time-modification>
        <stem>up</stem>
        <staff>1</staff>
        <beam number="1">end</beam>
        <beam number="2">end</beam>
        </note>
      <note default-x="108.59" default-y="-30.00" dynamics="55.56">
        <pitch>
          <step>G</step>
          <octave>4</octave>
          </pitch>
        <duration>160</duration>
        <voice>1</voice>
        <type>16th</type>
        <dot/>
        <time-modification>
          <actual-notes>9</actual-notes>
          <normal-notes>8</normal-notes>
          </time-modification>
        <stem>up</stem>
        <staff>1</staff>
        <beam number="1">begin</beam>
        <beam number="2">begin</beam>
        </note>
      <note default-x="140.79" default-y="-35.00" dynamics="54.44">
        <pitch>
          <step>F</step>
          <octave>4</octave>
          </pitch>
        <duration>160</duration>
        <voice>1</voice>
        <type>16th</type>
        <dot/>
        <time-modification>
          <actual-notes>9</actual-notes>
          <normal-notes>8</normal-notes>
          </time-modification>
        <stem>up</stem>
        <staff>1</staff>
        <beam number="1">continue</beam>
        <beam number="2">continue</beam>
        </note>
      <note default-x="172.99" default-y="-40.00" dynamics="54.44">
        <pitch>
          <step>E</step>
          <octave>4</octave>
          </pitch>
        <duration>160</duration>
        <voice>1</voice>
        <type>16th</type>
        <dot/>
        <time-modification>
          <actual-notes>9</actual-notes>
          <normal-notes>8</normal-notes>
          </time-modification>
        <stem>up</stem>
        <staff>1</staff>
        <beam number="1">end</beam>
        <beam number="2">end</beam>
        </note>
      <note default-x="205.18" default-y="-45.00" dynamics="57.78">
        <pitch>
          <step>D</step>
          <octave>4</octave>
          </pitch>
        <duration>160</duration>
        <voice>1</voice>
        <type>16th</type>
        <dot/>
        <time-modification>
          <actual-notes>9</actual-notes>
          <normal-notes>8</normal-notes>
          </time-modification>
        <stem>up</stem>
        <staff>1</staff>
        <beam number="1">begin</beam>
        <beam number="2">begin</beam>
        </note>
      <note default-x="237.38" default-y="-40.00" dynamics="54.44">
        <pitch>
          <step>E</step>
          <octave>4</octave>
          </pitch>
        <duration>160</duration>
        <voice>1</voice>
        <type>16th</type>
        <dot/>
        <time-modification>
          <actual-notes>9</actual-notes>
          <normal-notes>8</normal-notes>
          </time-modification>
        <stem>up</stem>
        <staff>1</staff>
        <beam number="1">continue</beam>
        <beam number="2">continue</beam>
        </note>
      <note default-x="269.58" default-y="-50.00" dynamics="54.44">
        <pitch>
          <step>C</step>
          <octave>4</octave>
          </pitch>
        <duration>160</duration>
        <voice>1</voice>
        <type>16th</type>
        <dot/>
        <time-modification>
          <actual-notes>9</actual-notes>
          <normal-notes>8</normal-notes>
          </time-modification>
        <stem>up</stem>
        <staff>1</staff>
        <beam number="1">end</beam>
        <beam number="2">end</beam>
        <notations>
          <tuplet type="stop"/>
          </notations>
        </note>
      <backup>
        <duration>1440</duration>
        </backup>
      <note default-x="12.00" default-y="-125.00" dynamics="60.00">
        <pitch>
          <step>D</step>
          <octave>3</octave>
          </pitch>
        <duration>480</duration>
        <voice>5</voice>
        <type>quarter</type>
        <stem>down</stem>
        <staff>2</staff>
        </note>
      <note default-x="108.59" default-y="-120.00" dynamics="55.56">
        <pitch>
          <step>E</step>
          <octave>3</octave>
          </pitch>
        <duration>480</duration>
        <voice>5</voice>
        <type>quarter</type>
        <stem>down</stem>
        <staff>2</staff>
        </note>
      <note default-x="205.18" default-y="-115.00" dynamics="57.78">
        <pitch>
          <step>F</step>
          <octave>3</octave>
          </pitch>
        <duration>480</duration>
        <voice>5</voice>
        <type>quarter</type>
        <stem>down</stem>
        <staff>2</staff>
        </note>
      </measure>
    <measure number="4" width="375.19">
      <print new-system="yes">
        <system-layout>
          <system-margins>
            <left-margin>21.00</left-margin>
            <right-margin>0.00</right-margin>
            </system-margins>
          <system-distance>150.00</system-distance>
          </system-layout>
        <staff-layout number="2">
          <staff-distance>65.00</staff-distance>
          </staff-layout>
        </print>
      <note default-x="51.25" default-y="-55.00" dynamics="60.00">
        <pitch>
          <step>B</step>
          <octave>3</octave>
          </pitch>
        <duration>160</duration>
        <voice>1</voice>
        <type>eighth</type>
        <time-modification>
          <actual-notes>3</actual-notes>
          <normal-notes>2</normal-notes>
          </time-modification>
        <stem>up</stem>
        <staff>1</staff>
        <beam number="1">begin</beam>
        <notations>
          <tuplet type="start" bracket="no"/>
          </notations>
        </note>
      <note default-x="80.11" default-y="-50.00" dynamics="54.44">
        <pitch>
          <step>C</step>
          <octave>4</octave>
          </pitch>
        <duration>160</duration>
        <voice>1</voice>
        <type>eighth</type>
        <time-modification>
          <actual-notes>3</actual-notes>
          <normal-notes>2</normal-notes>
          </time-modification>
        <stem>up</stem>
        <staff>1</staff>
        <beam number="1">continue</beam>
        </note>
      <note default-x="108.98" default-y="-45.00" dynamics="54.44">
        <pitch>
          <step>D</step>
          <octave>4</octave>
          </pitch>
        <duration>160</duration>
        <voice>1</voice>
        <type>eighth</type>
        <time-modification>
          <actual-notes>3</actual-notes>
          <normal-notes>2</normal-notes>
          </time-modification>
        <stem>up</stem>
        <staff>1</staff>
        <beam number="1">end</beam>
        <notations>
          <tuplet type="stop"/>
          </notations>
        </note>
      <note default-x="149.57" default-y="-65.00" dynamics="55.56">
        <pitch>
          <step>G</step>
          <octave>3</octave>
          </pitch>
        <duration>960</duration>
        <voice>1</voice>
        <type>half</type>
        <stem>up</stem>
        <staff>1</staff>
        </note>
      <backup>
        <duration>1440</duration>
        </backup>
      <note default-x="51.25" default-y="-110.00" dynamics="60.00">
        <pitch>
          <step>G</step>
          <octave>3</octave>
          </pitch>
        <duration>427</duration>
        <tie type="start"/>
        <voice>5</voice>
        <type>quarter</type>
        <time-modification>
          <actual-notes>9</actual-notes>
          <normal-notes>8</normal-notes>
          <normal-type>16th</normal-type>
          <normal-dot/>
          </time-modification>
        <stem>down</stem>
        <staff>2</staff>
        <notations>
          <tied type="start"/>
          <tuplet type="start" bracket="yes"/>
          </notations>
        </note>
      <note default-x="133.27" default-y="-110.00" dynamics="60.00">
        <pitch>
          <step>G</step>
          <octave>3</octave>
          </pitch>
        <duration>53</duration>
        <tie type="stop"/>
        <voice>5</voice>
        <type>32nd</type>
        <time-modification>
          <actual-notes>9</actual-notes>
          <normal-notes>8</normal-notes>
          <normal-type>16th</normal-type>
          <normal-dot/>
          </time-modification>
        <stem>down</stem>
        <staff>2</staff>
        <notations>
          <tied type="stop"/>
          </notations>
        </note>
      <note>
        <rest/>
        <duration>160</duration>
        <voice>5</voice>
        <type>16th</type>
        <dot/>
        <time-modification>
          <actual-notes>9</actual-notes>
          <normal-notes>8</normal-notes>
          <normal-type>16th</normal-type>
          <normal-dot/>
          </time-modification>
        <staff>2</staff>
        </note>
      <note default-x="178.80" default-y="-100.00" dynamics="54.44">
        <pitch>
          <step>B</step>
          <octave>3</octave>
          </pitch>
        <duration>160</duration>
        <voice>5</voice>
        <type>16th</type>
        <dot/>
        <time-modification>
          <actual-notes>9</actual-notes>
          <normal-notes>8</normal-notes>
          <normal-type>16th</normal-type>
          <normal-dot/>
          </time-modification>
        <stem>down</stem>
        <staff>2</staff>
        <beam number="1">begin</beam>
        <beam number="2">begin</beam>
        </note>
      <attributes>
        <clef number="2">
          <sign>G</sign>
          <line>2</line>
          </clef>
        </attributes>
      <note default-x="230.13" default-y="-150.00" dynamics="54.44">
        <pitch>
          <step>D</step>
          <octave>4</octave>
          </pitch>
        <duration>160</duration>
        <voice>5</voice>
        <type>16th</type>
        <dot/>
        <time-modification>
          <actual-notes>9</actual-notes>
          <normal-notes>8</normal-notes>
          <normal-type>16th</normal-type>
          <normal-dot/>
          </time-modification>
        <stem>down</stem>
        <staff>2</staff>
        <beam number="1">end</beam>
        <beam number="2">end</beam>
        </note>
      <note default-x="268.85" default-y="-140.00" dynamics="57.78">
        <pitch>
          <step>F</step>
          <octave>4</octave>
          </pitch>
        <duration>160</duration>
        <voice>5</voice>
        <type>16th</type>
        <dot/>
        <time-modification>
          <actual-notes>9</actual-notes>
          <normal-notes>8</normal-notes>
          <normal-type>16th</normal-type>
          <normal-dot/>
          </time-modification>
        <stem>up</stem>
        <staff>2</staff>
        <beam number="1">begin</beam>
        <beam number="2">begin</beam>
        </note>
      <note default-x="297.71" default-y="-145.00" dynamics="54.44">
        <pitch>
          <step>E</step>
          <octave>4</octave>
          </pitch>
        <duration>160</duration>
        <voice>5</voice>
        <type>16th</type>
        <dot/>
        <time-modification>
          <actual-notes>9</actual-notes>
          <normal-notes>8</normal-notes>
          <normal-type>16th</normal-type>
          <normal-dot/>
          </time-modification>
        <stem>up</stem>
        <staff>2</staff>
        <beam number="1">continue</beam>
        <beam number="2">continue</beam>
        </note>
      <note default-x="342.39" default-y="-150.00" dynamics="54.44">
        <pitch>
          <step>D</step>
          <octave>4</octave>
          </pitch>
        <duration>160</duration>
        <voice>5</voice>
        <type>16th</type>
        <dot/>
        <time-modification>
          <actual-notes>9</actual-notes>
          <normal-notes>8</normal-notes>
          <normal-type>16th</normal-type>
          <normal-dot/>
          </time-modification>
        <stem>up</stem>
        <staff>2</staff>
        <beam number="1">end</beam>
        <beam number="2">end</beam>
        <notations>
          <tuplet type="stop"/>
          </notations>
        </note>
      </measure>
    <measure number="5" width="352.72">
      <attributes>
        <clef number="2">
          <sign>F</sign>
          <line>4</line>
          </clef>
        </attributes>
      <note default-x="44.86" default-y="-40.00" dynamics="60.00">
        <pitch>
          <step>E</step>
          <octave>4</octave>
          </pitch>
        <duration>160</duration>
        <voice>1</voice>
        <type>16th</type>
        <dot/>
        <time-modification>
          <actual-notes>9</actual-notes>
          <normal-notes>8</normal-notes>
          </time-modification>
        <stem>up</stem>
        <staff>1</staff>
        <beam number="1">begin</beam>
        <beam number="2">begin</beam>
        <notations>
          <tuplet type="start" bracket="no"/>
          </notations>
        </note>
      <note default-x="96.76" default-y="-50.00" dynamics="54.44">
        <pitch>
          <step>C</step>
          <octave>4</octave>
          </pitch>
        <duration>160</duration>
        <voice>1</voice>
        <type>16th</type>
        <dot/>
        <time-modification>
          <actual-notes>9</actual-notes>
          <normal-notes>8</normal-notes>
          </time-modification>
        <stem>up</stem>
        <staff>1</staff>
        <beam number="1">continue</beam>
        <beam number="2">continue</beam>
        </note>
      <note default-x="128.55" default-y="-45.00" dynamics="54.44">
        <pitch>
          <step>D</step>
          <octave>4</octave>
          </pitch>
        <duration>160</duration>
        <voice>1</voice>
        <type>16th</type>
        <dot/>
        <time-modification>
          <actual-notes>9</actual-notes>
          <normal-notes>8</normal-notes>
          </time-modification>
        <stem>up</stem>
        <staff>1</staff>
        <beam number="1">end</beam>
        <beam number="2">end</beam>
        </note>
      <note default-x="160.35" default-y="-40.00" dynamics="55.56">
        <pitch>
          <step>E</step>
          <octave>4</octave>
          </pitch>
        <duration>160</duration>
        <voice>1</voice>
        <type>16th</type>
        <dot/>
        <time-modification>
          <actual-notes>9</actual-notes>
          <normal-notes>8</normal-notes>
          </time-modification>
        <stem>up</stem>
        <staff>1</staff>
        <beam number="1">begin</beam>
        <beam number="2">begin</beam>
        </note>
      <note default-x="192.14" default-y="-30.00" dynamics="54.44">
        <pitch>
          <step>G</step>
          <octave>4</octave>
          </pitch>
        <duration>160</duration>
        <voice>1</voice>
        <type>16th</type>
        <dot/>
        <time-modification>
          <actual-notes>9</actual-notes>
          <normal-notes>8</normal-notes>
          </time-modification>
        <stem>up</stem>
        <staff>1</staff>
        <beam number="1">continue</beam>
        <beam number="2">continue</beam>
        </note>
      <note default-x="223.94" default-y="-35.00" dynamics="54.44">
        <pitch>
          <step>F</step>
          <octave>4</octave>
          </pitch>
        <duration>160</duration>
        <voice>1</voice>
        <type>16th</type>
        <dot/>
        <time-modification>
          <actual-notes>9</actual-notes>
          <normal-notes>8</normal-notes>
          </time-modification>
        <stem>up</stem>
        <staff>1</staff>
        <beam number="1">end</beam>
        <beam number="2">end</beam>
        </note>
      <note default-x="255.73" default-y="-35.00" dynamics="57.78">
        <pitch>
          <step>F</step>
          <octave>4</octave>
          </pitch>
        <duration>160</duration>
        <voice>1</voice>
        <type>16th</type>
        <dot/>
        <time-modification>
          <actual-notes>9</actual-notes>
          <normal-notes>8</normal-notes>
          </time-modification>
        <stem>up</stem>
        <staff>1</staff>
        <beam number="1">begin</beam>
        <beam number="2">begin</beam>
        </note>
      <note default-x="287.53" default-y="-25.00" dynamics="54.44">
        <pitch>
          <step>A</step>
          <octave>4</octave>
          </pitch>
        <duration>160</duration>
        <voice>1</voice>
        <type>16th</type>
        <dot/>
        <time-modification>
          <actual-notes>9</actual-notes>
          <normal-notes>8</normal-notes>
          </time-modification>
        <stem>up</stem>
        <staff>1</staff>
        <beam number="1">continue</beam>
        <beam number="2">continue</beam>
        </note>
      <note default-x="319.32" default-y="-30.00" dynamics="54.44">
        <pitch>
          <step>G</step>
          <octave>4</octave>
          </pitch>
        <duration>160</duration>
        <voice>1</voice>
        <type>16th</type>
        <dot/>
        <time-modification>
          <actual-notes>9</actual-notes>
          <normal-notes>8</normal-notes>
          </time-modification>
        <stem>up</stem>
        <staff>1</staff>
        <beam number="1">end</beam>
        <beam number="2">end</beam>
        <notations>
          <tuplet type="stop"/>
          </notations>
        </note>
      <backup>
        <duration>1440</duration>
        </backup>
      <note default-x="44.50" default-y="-130.00" dynamics="58.89">
        <pitch>
          <step>C</step>
          <octave>3</octave>
          </pitch>
        <duration>960</duration>
        <voice>5</voice>
        <type>half</type>
        <stem>up</stem>
        <staff>2</staff>
        </note>
      <note default-x="255.73" default-y="-125.00" dynamics="57.78">
        <pitch>
          <step>D</step>
          <octave>3</octave>
          </pitch>
        <duration>480</duration>
        <voice>5</voice>
        <type>quarter</type>
        <stem>down</stem>
        <staff>2</staff>
        </note>
      </measure>
    <measure number="6" width="328.26">
      <note default-x="12.36" default-y="-30.00" dynamics="60.00">
        <pitch>
          <step>G</step>
          <octave>4</octave>
          </pitch>
        <duration>160</duration>
        <voice>1</voice>
        <type>16th</type>
        <dot/>
        <time-modification>
          <actual-notes>9</actual-notes>
          <normal-notes>8</normal-notes>
          </time-modification>
        <stem>up</stem>
        <staff>1</staff>
        <beam number="1">begin</beam>
        <beam number="2">begin</beam>
        <notations>
          <tuplet type="start" bracket="no"/>
          </notations>
        </note>
      <note default-x="47.28" default-y="-15.00" dynamics="54.44">
        <pitch>
          <step>C</step>
          <octave>5</octave>
          </pitch>
        <duration>160</duration>
        <voice>1</voice>
        <type>16th</type>
        <dot/>
        <time-modification>
          <actual-notes>9</actual-notes>
          <normal-notes>8</normal-notes>
          </time-modification>
        <stem>up</stem>
        <staff>1</staff>
        <beam number="1">continue</beam>
        <beam number="2">continue</beam>
        </note>
      <note default-x="82.20" default-y="-20.00" dynamics="54.44">
        <pitch>
          <step>B</step>
          <octave>4</octave>
          </pitch>
        <duration>160</duration>
        <voice>1</voice>
        <type>16th</type>
        <dot/>
        <time-modification>
          <actual-notes>9</actual-notes>
          <normal-notes>8</normal-notes>
          </time-modification>
        <stem>up</stem>
        <staff>1</staff>
        <beam number="1">end</beam>
        <beam number="2">end</beam>
        </note>
      <note default-x="117.13" default-y="-15.00" dynamics="55.56">
        <pitch>
          <step>C</step>
          <octave>5</octave>
          </pitch>
        <duration>160</duration>
        <voice>1</voice>
        <type>16th</type>
        <dot/>
        <time-modification>
          <actual-notes>9</actual-notes>
          <normal-notes>8</normal-notes>
          </time-modification>
        <stem>up</stem>
        <staff>1</staff>
        <beam number="1">begin</beam>
        <beam number="2">begin</beam>
        </note>
      <note default-x="152.05" default-y="-30.00" dynamics="54.44">
        <pitch>
          <step>G</step>
          <octave>4</octave>
          </pitch>
        <duration>160</duration>
        <voice>1</voice>
        <type>16th</type>
        <dot/>
        <time-modification>
          <actual-notes>9</actual-notes>
          <normal-notes>8</normal-notes>
          </time-modification>
        <stem>up</stem>
        <staff>1</staff>
        <beam number="1">continue</beam>
        <beam number="2">continue</beam>
        </note>
      <note default-x="186.97" default-y="-40.00" dynamics="54.44">
        <pitch>
          <step>E</step>
          <octave>4</octave>
          </pitch>
        <duration>160</duration>
        <voice>1</voice>
        <type>16th</type>
        <dot/>
        <time-modification>
          <actual-notes>9</actual-notes>
          <normal-notes>8</normal-notes>
          </time-modification>
        <stem>up</stem>
        <staff>1</staff>
        <beam number="1">end</beam>
        <beam number="2">end</beam>
        </note>
      <note default-x="221.89" default-y="-50.00" dynamics="57.78">
        <pitch>
          <step>C</step>
          <octave>4</octave>
          </pitch>
        <duration>160</duration>
        <voice>1</voice>
        <type>16th</type>
        <dot/>
        <time-modification>
          <actual-notes>9</actual-notes>
          <normal-notes>8</normal-notes>
          </time-modification>
        <stem>up</stem>
        <staff>1</staff>
        <beam number="1">begin</beam>
        <beam number="2">begin</beam>
        </note>
      <note default-x="256.81" default-y="-45.00" dynamics="54.44">
        <pitch>
          <step>D</step>
          <octave>4</octave>
          </pitch>
        <duration>160</duration>
        <voice>1</voice>
        <type>16th</type>
        <dot/>
        <time-modification>
          <actual-notes>9</actual-notes>
          <normal-notes>8</normal-notes>
          </time-modification>
        <stem>up</stem>
        <staff>1</staff>
        <beam number="1">continue</beam>
        <beam number="2">continue</beam>
        </note>
      <note default-x="291.73" default-y="-40.00" dynamics="54.44">
        <pitch>
          <step>E</step>
          <octave>4</octave>
          </pitch>
        <duration>160</duration>
        <voice>1</voice>
        <type>16th</type>
        <dot/>
        <time-modification>
          <actual-notes>9</actual-notes>
          <normal-notes>8</normal-notes>
          </time-modification>
        <stem>up</stem>
        <staff>1</staff>
        <beam number="1">end</beam>
        <beam number="2">end</beam>
        <notations>
          <tuplet type="stop"/>
          </notations>
        </note>
      <backup>
        <duration>1440</duration>
        </backup>
      <note default-x="12.00" default-y="-120.00" dynamics="60.00">
        <pitch>
          <step>E</step>
          <octave>3</octave>
          </pitch>
        <duration>1440</duration>
        <voice>5</voice>
        <type>half</type>
        <dot/>
        <stem>down</stem>
        <staff>2</staff>
        </note>
      </measure>
    <measure number="7" width="576.70">
      <print new-system="yes">
        <system-layout>
          <system-margins>
            <left-margin>21.00</left-margin>
            <right-margin>0.00</right-margin>
            </system-margins>
          <system-distance>150.00</system-distance>
          </system-layout>
        <staff-layout number="2">
          <staff-distance>65.00</staff-distance>
          </staff-layout>
        </print>
      <note default-x="51.89" default-y="-60.00" dynamics="60.00">
        <pitch>
          <step>A</step>
          <octave>3</octave>
          </pitch>
        <duration>960</duration>
        <voice>1</voice>
        <type>half</type>
        <stem>up</stem>
        <staff>1</staff>
        </note>
      <note>
        <rest/>
        <duration>160</duration>
        <voice>1</voice>
        <type>eighth</type>
        <time-modification>
          <actual-notes>3</actual-notes>
          <normal-notes>2</normal-notes>
          </time-modification>
        <staff>1</staff>
        <notations>
          <tuplet type="start" bracket="yes"/>
          </notations>
        </note>
      <note default-x="444.40" default-y="-50.00" dynamics="54.44">
        <pitch>
          <step>C</step>
          <octave>4</octave>
          </pitch>
        <duration>160</duration>
        <voice>1</voice>
        <type>eighth</type>
        <time-modification>
          <actual-notes>3</actual-notes>
          <normal-notes>2</normal-notes>
          </time-modification>
        <stem>up</stem>
        <staff>1</staff>
        <beam number="1">begin</beam>
        </note>
      <note default-x="500.42" default-y="-55.00" dynamics="54.44">
        <pitch>
          <step>B</step>
          <octave>3</octave>
          </pitch>
        <duration>160</duration>
        <voice>1</voice>
        <type>eighth</type>
        <time-modification>
          <actual-notes>3</actual-notes>
          <normal-notes>2</normal-notes>
          </time-modification>
        <stem>up</stem>
        <staff>1</staff>
        <beam number="1">end</beam>
        <notations>
          <tuplet type="stop"/>
          </notations>
        </note>
      <backup>
        <duration>1440</duration>
        </backup>
      <note>
        <rest/>
        <duration>160</duration>
        <voice>5</voice>
        <type>16th</type>
        <dot/>
        <time-modification>
          <actual-notes>9</actual-notes>
          <normal-notes>8</normal-notes>
          <normal-type>16th</normal-type>
          <normal-dot/>
          </time-modification>
        <staff>2</staff>
        <notations>
          <tuplet type="start" bracket="yes"/>
          </notations>
        </note>
      <attributes>
        <clef number="2">
          <sign>G</sign>
          <line>2</line>
          </clef>
        </attributes>
      <note default-x="108.27" default-y="-135.00" dynamics="54.44">
        <pitch>
          <step>G</step>
          <octave>4</octave>
          </pitch>
        <duration>160</duration>
        <voice>5</voice>
        <type>16th</type>
        <dot/>
        <time-modification>
          <actual-notes>9</actual-notes>
          <normal-notes>8</normal-notes>
          <normal-type>16th</normal-type>
          <normal-dot/>
          </time-modification>
        <stem>up</stem>
        <staff>2</staff>
        <beam number="1">begin</beam>
        <beam number="2">begin</beam>
        </note>
      <note default-x="164.30" default-y="-140.00" dynamics="54.44">
        <pitch>
          <step>F</step>
          <octave>4</octave>
          </pitch>
        <duration>160</duration>
        <voice>5</voice>
        <type>16th</type>
        <dot/>
        <time-modification>
          <actual-notes>9</actual-notes>
          <normal-notes>8</normal-notes>
          <normal-type>16th</normal-type>
          <normal-dot/>
          </time-modification>
        <stem>up</stem>
        <staff>2</staff>
        <beam number="1">end</beam>
        <beam number="2">end</beam>
        </note>
      <note default-x="220.32" default-y="-145.00" dynamics="55.56">
        <pitch>
          <step>E</step>
          <octave>4</octave>
          </pitch>
        <duration>160</duration>
        <voice>5</voice>
        <type>16th</type>
        <dot/>
        <time-modification>
          <actual-notes>9</actual-notes>
          <normal-notes>8</normal-notes>
          <normal-type>16th</normal-type>
          <normal-dot/>
          </time-modification>
        <stem>up</stem>
        <staff>2</staff>
        <beam number="1">begin</beam>
        <beam number="2">begin</beam>
        </note>
      <note default-x="276.34" default-y="-150.00" dynamics="54.44">
        <pitch>
          <step>D</step>
          <octave>4</octave>
          </pitch>
        <duration>160</duration>
        <voice>5</voice>
        <type>16th</type>
        <dot/>
        <time-modification>
          <actual-notes>9</actual-notes>
          <normal-notes>8</normal-notes>
          <normal-type>16th</normal-type>
          <normal-dot/>
          </time-modification>
        <stem>up</stem>
        <staff>2</staff>
        <beam number="1">continue</beam>
        <beam number="2">continue</beam>
        </note>
      <note default-x="332.36" default-y="-155.00" dynamics="54.44">
        <pitch>
          <step>C</step>
          <octave>4</octave>
          </pitch>
        <duration>160</duration>
        <voice>5</voice>
        <type>16th</type>
        <dot/>
        <time-modification>
          <actual-notes>9</actual-notes>
          <normal-notes>8</normal-notes>
          <normal-type>16th</normal-type>
          <normal-dot/>
          </time-modification>
        <stem>up</stem>
        <staff>2</staff>
        <beam number="1">end</beam>
        <beam number="2">end</beam>
        </note>
      <attributes>
        <clef number="2">
          <sign>F</sign>
          <line>4</line>
          </clef>
        </attributes>
      <note default-x="388.38" default-y="-110.00" dynamics="57.78">
        <pitch>
          <step>G</step>
          <octave>3</octave>
          </pitch>
        <duration>427</duration>
        <tie type="start"/>
        <voice>5</voice>
        <type>quarter</type>
        <time-modification>
          <actual-notes>9</actual-notes>
          <normal-notes>8</normal-notes>
          <normal-type>16th</normal-type>
          <normal-dot/>
          </time-modification>
        <stem>down</stem>
        <staff>2</staff>
        <notations>
          <tied type="start"/>
          </notations>
        </note>
      <note default-x="546.47" default-y="-110.00" dynamics="57.78">
        <pitch>
          <step>G</step>
          <octave>3</octave>
          </pitch>
        <duration>53</duration>
        <tie type="stop"/>
        <voice>5</voice>
        <type>32nd</type>
        <time-modification>
          <actual-notes>9</actual-notes>
          <normal-notes>8</normal-notes>
          <normal-type>16th</normal-type>
          <normal-dot/>
          </time-modification>
        <stem>down</stem>
        <staff>2</staff>
        <notations>
          <tied type="stop"/>
          <tuplet type="stop"/>
          </notations>
        </note>
      </measure>
    <measure number="8" width="479.46">
      <note default-x="12.36" default-y="-50.00" dynamics="60.00">
        <pitch>
          <step>C</step>
          <octave>4</octave>
          </pitch>
        <duration>160</duration>
        <voice>1</voice>
        <type>16th</type>
        <dot/>
        <time-modification>
          <actual-notes>9</actual-notes>
          <normal-notes>8</normal-notes>
          <normal-type>16th</normal-type>
          <normal-dot/>
          </time-modification>
        <stem>up</stem>
        <staff>1</staff>
        <beam number="1">begin</beam>
        <beam number="2">begin</beam>
        <notations>
          <tuplet type="start" bracket="yes"/>
          </notations>
        </note>
      <note default-x="70.57" default-y="-40.00" dynamics="54.44">
        <pitch>
          <step>E</step>
          <octave>4</octave>
          </pitch>
        <duration>160</duration>
        <voice>1</voice>
        <type>16th</type>
        <dot/>
        <time-modification>
          <actual-notes>9</actual-notes>
          <normal-notes>8</normal-notes>
          <normal-type>16th</normal-type>
          <normal-dot/>
          </time-modification>
        <stem>up</stem>
        <staff>1</staff>
        <beam number="1">continue</beam>
        <beam number="2">continue</beam>
        </note>
      <note default-x="128.77" default-y="-30.00" dynamics="54.44">
        <pitch>
          <step>G</step>
          <octave>4</octave>
          </pitch>
        <duration>160</duration>
        <voice>1</voice>
        <type>16th</type>
        <dot/>
        <time-modification>
          <actual-notes>9</actual-notes>
          <normal-notes>8</normal-notes>
          <normal-type>16th</normal-type>
          <normal-dot/>
          </time-modification>
        <stem>up</stem>
        <staff>1</staff>
        <beam number="1">end</beam>
        <beam number="2">end</beam>
        </note>
      <note default-x="186.97" default-y="-15.00" dynamics="55.56">
        <pitch>
          <step>C</step>
          <octave>5</octave>
          </pitch>
        <duration>160</duration>
        <voice>1</voice>
        <type>16th</type>
        <dot/>
        <time-modification>
          <actual-notes>9</actual-notes>
          <normal-notes>8</normal-notes>
          <normal-type>16th</normal-type>
          <normal-dot/>
          </time-modification>
        <stem>up</stem>
        <staff>1</staff>
        <beam number="1">begin</beam>
        <beam number="2">begin</beam>
        </note>
      <note default-x="245.18" default-y="-30.00" dynamics="54.44">
        <pitch>
          <step>G</step>
          <octave>4</octave>
          </pitch>
        <duration>160</duration>
        <voice>1</voice>
        <type>16th</type>
        <dot/>
        <time-modification>
          <actual-notes>9</actual-notes>
          <normal-notes>8</normal-notes>
          <normal-type>16th</normal-type>
          <normal-dot/>
          </time-modification>
        <stem>up</stem>
        <staff>1</staff>
        <beam number="1">continue</beam>
        <beam number="2">continue</beam>
        </note>
      <note default-x="303.38" default-y="-40.00" dynamics="54.44">
        <pitch>
          <step>E</step>
          <octave>4</octave>
          </pitch>
        <duration>160</duration>
        <voice>1</voice>
        <type>16th</type>
        <dot/>
        <time-modification>
          <actual-notes>9</actual-notes>
          <normal-notes>8</normal-notes>
          <normal-type>16th</normal-type>
          <normal-dot/>
          </time-modification>
        <stem>up</stem>
        <staff>1</staff>
        <beam number="1">end</beam>
        <beam number="2">end</beam>
        </note>
      <note default-x="361.59" default-y="-50.00" dynamics="57.78">
        <pitch>
          <step>C</step>
          <octave>4</octave>
          </pitch>
        <duration>427</duration>
        <tie type="start"/>
        <voice>1</voice>
        <type>quarter</type>
        <time-modification>
          <actual-notes>9</actual-notes>
          <normal-notes>8</normal-notes>
          <normal-type>16th</normal-type>
          <normal-dot/>
          </time-modification>
        <stem>up</stem>
        <staff>1</staff>
        <notations>
          <tied type="start"/>
          </notations>
        </note>
      <note default-x="445.07" default-y="-50.00" dynamics="57.78">
        <pitch>
          <step>C</step>
          <octave>4</octave>
          </pitch>
        <duration>53</duration>
        <tie type="stop"/>
        <voice>1</voice>
        <type>32nd</type>
        <time-modification>
          <actual-notes>9</actual-notes>
          <normal-notes>8</normal-notes>
          <normal-type>16th</normal-type>
          <normal-dot/>
          </time-modification>
        <stem>up</stem>
        <staff>1</staff>
        <notations>
          <tied type="stop"/>
          <tuplet type="stop"/>
          </notations>
        </note>
      <backup>
        <duration>1440</duration>
        </backup>
      <note default-x="12.00" default-y="-130.00" dynamics="58.89">
        <pitch>
          <step>C</step>
          <octave>3</octave>
          </pitch>
        <duration>1440</duration>
        <voice>5</voice>
        <type>half</type>
        <dot/>
        <stem>up</stem>
        <staff>2</staff>
        </note>
      </measure>
    </part>
  </score-partwise>
