<?xml version="1.0" encoding="utf-8"?>
<!DOCTYPE score-partwise
  PUBLIC '-//Recordare//DTD MusicXML 2.0 Partwise//EN'
  'http://www.musicxml.org/dtds/partwise.dtd'>
<score-partwise>
  <work>
    <work-title>m12293_3.xml</work-title>
    </work>
  <movement-title>m12293_3.xml</movement-title>
  <identification>
    <creator type="composer">Music21</creator>
    <encoding>
      <encoding-date>2018-01-04</encoding-date>
      <software>Music21</software>
      <supports attribute="new-system" element="print" type="yes" value="yes" />
      <supports attribute="new-page" element="print" type="yes" value="yes" />
      </encoding>
    </identification>
  <defaults>
    <scaling>
      <millimeters>7</millimeters>
      <tenths>40</tenths>
      </scaling>
    </defaults>
  <part-list>
    <score-part id="P1">
      <part-name>Piano, Klavier rechte Hand</part-name>
      <part-abbreviation>Pno.</part-abbreviation>
      <score-instrument id="Iee8cf306b02871aec7782dc9e87b08e8">
        <instrument-name>Piano</instrument-name>
        </score-instrument>
      <midi-instrument id="Iee8cf306b02871aec7782dc9e87b08e8">
        <midi-channel>1</midi-channel>
        <midi-program>2</midi-program>
        </midi-instrument>
      </score-part>
    <score-part id="P2f0a160b8cf017948b5a682f9dd4ac9c">
      <part-name>Piano, Klavier rechte Hand</part-name>
      <part-abbreviation>Pno.</part-abbreviation>
      <score-instrument id="I69e9e26d0117a6753e037afd5e921e9c">
        <instrument-name>Piano</instrument-name>
        </score-instrument>
      <midi-instrument id="I69e9e26d0117a6753e037afd5e921e9c">
        <midi-channel>2</midi-channel>
        <midi-program>2</midi-program>
        </midi-instrument>
      </score-part>
    </part-list>
  <part id="P1">
    <measure number="374" width="321.23">
      <print new-system="yes">
        <system-layout>
          <system-margins>
            <left-margin>21</left-margin>
            <right-margin>0</right-margin>
            </system-margins>
          <system-distance>100.74</system-distance>
          </system-layout>
        </print>
      <attributes>
        <divisions>10080</divisions>
        <key>
          <fifths>-3</fifths>
          </key>
        <time>
          <beats>2</beats>
          <beat-type>2</beat-type>
          </time>
        <clef>
          <sign>G</sign>
          <line>2</line>
          </clef>
        </attributes>
      <note>
        <rest />
        <duration>10080</duration>
        <voice>1</voice>
        <type>quarter</type>
        </note>
      <note>
        <pitch>
          <step>D</step>
          <octave>4</octave>
          </pitch>
        <duration>5040</duration>
        <voice>1</voice>
        <type>eighth</type>
        <stem>up</stem>
        <beam number="1">begin</beam>
        </note>
      <note>
        <pitch>
          <step>C</step>
          <octave>4</octave>
          </pitch>
        <duration>5040</duration>
        <voice>1</voice>
        <type>eighth</type>
        <stem>up</stem>
        <beam number="1">end</beam>
        </note>
      <note>
        <pitch>
          <step>D</step>
          <octave>4</octave>
          </pitch>
        <duration>10080</duration>
        <voice>1</voice>
        <type>quarter</type>
        <stem>up</stem>
        </note>
      <note>
        <pitch>
          <step>E</step>
          <octave>4</octave>
          </pitch>
        <duration>10080</duration>
        <voice>1</voice>
        <type>quarter</type>
        <stem>up</stem>
        </note>
      <backup>
        <duration>40320</duration>
        </backup>
      <note>
        <pitch>
          <step>A</step>
          <octave>4</octave>
          </pitch>
        <duration>40320</duration>
        <tie type="start" />
        <voice>2</voice>
        <type>whole</type>
        <notations>
          <tied type="start" />
          </notations>
        </note>
      <backup>
        <duration>40320</duration>
        </backup>
      <note>
        <pitch>
          <step>D</step>
          <octave>4</octave>
          </pitch>
        <duration>10080</duration>
        <tie type="stop" />
        <voice>3</voice>
        <type>quarter</type>
        <stem>up</stem>
        <notations>
          <tied type="stop" />
          </notations>
        </note>
      <note>
        <rest />
        <duration>10080</duration>
        <voice>3</voice>
        <type>quarter</type>
        </note>
      <note>
        <rest />
        <duration>20160</duration>
        <voice>3</voice>
        <type>half</type>
        </note>
      <backup>
        <duration>40320</duration>
        </backup>
      </measure>
    <measure number="375" width="240.57">
      <attributes />
      <note>
        <rest />
        <duration>10080</duration>
        <voice>1</voice>
        <type>quarter</type>
        </note>
      <note>
        <pitch>
          <step>C</step>
          <octave>5</octave>
          </pitch>
        <duration>5040</duration>
        <voice>1</voice>
        <type>eighth</type>
        <stem>up</stem>
        <beam number="1">begin</beam>
        </note>
      <note>
        <pitch>
          <step>B</step>
          <alter>-1</alter>
          <octave>4</octave>
          </pitch>
        <duration>5040</duration>
        <voice>1</voice>
        <type>eighth</type>
        <accidental>flat</accidental>
        <stem>up</stem>
        <beam number="1">end</beam>
        </note>
      <note>
        <pitch>
          <step>C</step>
          <octave>5</octave>
          </pitch>
        <duration>10080</duration>
        <voice>1</voice>
        <type>quarter</type>
        <stem>up</stem>
        </note>
      <note>
        <pitch>
          <step>E</step>
          <alter>-1</alter>
          <octave>5</octave>
          </pitch>
        <duration>10080</duration>
        <tie type="start" />
        <voice>1</voice>
        <type>quarter</type>
        <accidental>flat</accidental>
        <stem>up</stem>
        <notations>
          <tied type="start" />
          </notations>
        </note>
      <backup>
        <duration>40320</duration>
        </backup>
      <note>
        <pitch>
          <step>A</step>
          <octave>4</octave>
          </pitch>
        <duration>10080</duration>
        <tie type="stop" />
        <voice>2</voice>
        <type>quarter</type>
        <stem>down</stem>
        <notations>
          <tied type="stop" />
          </notations>
        </note>
      <note>
        <rest />
        <duration>10080</duration>
        <voice>2</voice>
        <type>quarter</type>
        </note>
      <note>
        <rest />
        <duration>20160</duration>
        <voice>2</voice>
        <type>half</type>
        </note>
      <backup>
        <duration>40320</duration>
        </backup>
      <note>
        <pitch>
          <step>F</step>
          <alter>1</alter>
          <octave>4</octave>
          </pitch>
        <duration>30240</duration>
        <voice>3</voice>
        <type>half</type>
        <dot />
        <accidental>sharp</accidental>
        <stem>up</stem>
        </note>
      <note>
        <pitch>
          <step>G</step>
          <octave>4</octave>
          </pitch>
        <duration>10080</duration>
        <voice>3</voice>
        <type>quarter</type>
        <stem>up</stem>
        </note>
      <backup>
        <duration>40320</duration>
        </backup>
      </measure>
    <measure number="376" width="235.31">
      <attributes />
      <note>
        <pitch>
          <step>E</step>
          <alter>-1</alter>
          <octave>5</octave>
          </pitch>
        <duration>10080</duration>
        <tie type="stop" />
        <voice>1</voice>
        <type>quarter</type>
        <accidental>flat</accidental>
        <stem>up</stem>
        <notations>
          <tied type="stop" />
          </notations>
        </note>
      <note>
        <pitch>
          <step>D</step>
          <octave>5</octave>
          </pitch>
        <duration>5040</duration>
        <voice>1</voice>
        <type>eighth</type>
        <stem>up</stem>
        <beam number="1">begin</beam>
        </note>
      <note>
        <pitch>
          <step>C</step>
          <octave>5</octave>
          </pitch>
        <duration>5040</duration>
        <voice>1</voice>
        <type>eighth</type>
        <stem>up</stem>
        <beam number="1">end</beam>
        </note>
      <note>
        <pitch>
          <step>D</step>
          <octave>5</octave>
          </pitch>
        <duration>10080</duration>
        <voice>1</voice>
        <type>quarter</type>
        <stem>up</stem>
        </note>
      <note>
        <pitch>
          <step>G</step>
          <octave>5</octave>
          </pitch>
        <duration>10080</duration>
        <tie type="start" />
        <voice>1</voice>
        <type>quarter</type>
        <stem>up</stem>
        <notations>
          <tied type="start" />
          </notations>
        </note>
      <backup>
        <duration>40320</duration>
        </backup>
      <note>
        <pitch>
          <step>A</step>
          <octave>4</octave>
          </pitch>
        <duration>20160</duration>
        <voice>3</voice>
        <type>half</type>
        <stem>up</stem>
        </note>
      <note>
        <rest />
        <duration>10080</duration>
        <voice>3</voice>
        <type>quarter</type>
        </note>
      <note>
        <pitch>
          <step>G</step>
          <octave>4</octave>
          </pitch>
        <duration>10080</duration>
        <voice>3</voice>
        <type>quarter</type>
        <stem>up</stem>
        </note>
      <backup>
        <duration>40320</duration>
        </backup>
      </measure>
    <measure number="377" width="259.06">
      <attributes />
      <note>
        <pitch>
          <step>A</step>
          <octave>4</octave>
          </pitch>
        <duration>10080</duration>
        <voice>1</voice>
        <type>quarter</type>
        <stem>up</stem>
        </note>
      <note>
        <chord />
        <pitch>
          <step>G</step>
          <octave>5</octave>
          </pitch>
        <duration>10080</duration>
        <tie type="stop" />
        <voice>1</voice>
        <type>quarter</type>
        <stem>up</stem>
        <notations>
          <tied type="stop" />
          </notations>
        </note>
      <note>
        <pitch>
          <step>F</step>
          <alter>1</alter>
          <octave>5</octave>
          </pitch>
        <duration>5040</duration>
        <voice>1</voice>
        <type>eighth</type>
        <accidental>sharp</accidental>
        <stem>up</stem>
        <beam number="1">begin</beam>
        </note>
      <note>
        <pitch>
          <step>E</step>
          <octave>5</octave>
          </pitch>
        <duration>5040</duration>
        <voice>1</voice>
        <type>eighth</type>
        <stem>up</stem>
        <beam number="1">end</beam>
        </note>
      <note>
        <pitch>
          <step>F</step>
          <alter>1</alter>
          <octave>5</octave>
          </pitch>
        <duration>10080</duration>
        <voice>1</voice>
        <type>quarter</type>
        <accidental>sharp</accidental>
        <stem>up</stem>
        </note>
      <note>
        <pitch>
          <step>G</step>
          <octave>5</octave>
          </pitch>
        <duration>5040</duration>
        <tie type="start" />
        <voice>1</voice>
        <type>eighth</type>
        <stem>up</stem>
        <beam number="1">begin</beam>
        <notations>
          <tied type="start" />
          </notations>
        </note>
      <note>
        <pitch>
          <step>B</step>
          <alter>-1</alter>
          <octave>4</octave>
          </pitch>
        <duration>5040</duration>
        <voice>1</voice>
        <type>eighth</type>
        <accidental>flat</accidental>
        <stem>up</stem>
        <beam number="1">end</beam>
        </note>
      <note>
        <chord />
        <pitch>
          <step>G</step>
          <octave>5</octave>
          </pitch>
        <duration>5040</duration>
        <tie type="stop" />
        <voice>1</voice>
        <type>eighth</type>
        <stem>up</stem>
        <notations>
          <tied type="stop" />
          </notations>
        </note>
      <backup>
        <duration>40320</duration>
        </backup>
      <note>
        <rest />
        <duration>10080</duration>
        <voice>3</voice>
        <type>quarter</type>
        </note>
      <note>
        <pitch>
          <step>D</step>
          <octave>5</octave>
          </pitch>
        <duration>20160</duration>
        <voice>3</voice>
        <type>half</type>
        <stem>up</stem>
        </note>
      <note>
        <pitch>
          <step>C</step>
          <octave>5</octave>
          </pitch>
        <duration>10080</duration>
        <voice>3</voice>
        <type>quarter</type>
        <stem>up</stem>
        <notations>
          <articulations>
            <staccato />
            </articulations>
          </notations>
        </note>
      <backup>
        <duration>40320</duration>
        </backup>
      </measure>
    <measure number="378" width="396.1">
      <print new-system="yes">
        <system-layout>
          <system-margins>
            <left-margin>21</left-margin>
            <right-margin>0</right-margin>
            </system-margins>
          <system-distance>100.74</system-distance>
          </system-layout>
        </print>
      <attributes />
      <note>
        <pitch>
          <step>A</step>
          <octave>4</octave>
          </pitch>
        <duration>10080</duration>
        <type>quarter</type>
        <stem>down</stem>
        </note>
      <note>
        <chord />
        <pitch>
          <step>A</step>
          <octave>5</octave>
          </pitch>
        <duration>10080</duration>
        <type>quarter</type>
        <stem>down</stem>
        </note>
      <note>
        <pitch>
          <step>A</step>
          <octave>5</octave>
          </pitch>
        <duration>5040</duration>
        <type>eighth</type>
        <stem>down</stem>
        <beam number="1">begin</beam>
        </note>
      <note>
        <pitch>
          <step>G</step>
          <octave>5</octave>
          </pitch>
        <duration>5040</duration>
        <type>eighth</type>
        <stem>down</stem>
        <beam number="1">end</beam>
        </note>
      <note>
        <pitch>
          <step>A</step>
          <octave>5</octave>
          </pitch>
        <duration>10080</duration>
        <type>quarter</type>
        <stem>down</stem>
        </note>
      <note>
        <pitch>
          <step>B</step>
          <alter>-1</alter>
          <octave>5</octave>
          </pitch>
        <duration>10080</duration>
        <type>quarter</type>
        <accidental>flat</accidental>
        <stem>down</stem>
        </note>
      </measure>
    <measure number="379" width="319.31">
      <attributes />
      <note>
        <pitch>
          <step>C</step>
          <octave>5</octave>
          </pitch>
        <duration>40320</duration>
        <tie type="start" />
        <voice>1</voice>
        <type>whole</type>
        <notations>
          <tied type="start" />
          </notations>
        </note>
      <backup>
        <duration>40320</duration>
        </backup>
      <note>
        <rest />
        <duration>10080</duration>
        <voice>2</voice>
        <type>quarter</type>
        </note>
      <note>
        <pitch>
          <step>F</step>
          <alter>1</alter>
          <octave>4</octave>
          </pitch>
        <duration>5040</duration>
        <voice>2</voice>
        <type>eighth</type>
        <accidental>sharp</accidental>
        <stem>down</stem>
        <beam number="1">begin</beam>
        </note>
      <note>
        <pitch>
          <step>E</step>
          <octave>4</octave>
          </pitch>
        <duration>5040</duration>
        <voice>2</voice>
        <type>eighth</type>
        <stem>down</stem>
        <beam number="1">end</beam>
        </note>
      <note>
        <pitch>
          <step>F</step>
          <alter>1</alter>
          <octave>4</octave>
          </pitch>
        <duration>10080</duration>
        <voice>2</voice>
        <type>quarter</type>
        <accidental>sharp</accidental>
        <stem>down</stem>
        </note>
      <note>
        <pitch>
          <step>A</step>
          <octave>4</octave>
          </pitch>
        <duration>10080</duration>
        <voice>2</voice>
        <type>quarter</type>
        <stem>down</stem>
        </note>
      <backup>
        <duration>40320</duration>
        </backup>
      </measure>
    <measure number="380" width="340.75">
      <attributes />
      <note>
        <pitch>
          <step>C</step>
          <octave>5</octave>
          </pitch>
        <duration>40320</duration>
        <tie type="stop" />
        <voice>1</voice>
        <type>whole</type>
        <notations>
          <tied type="stop" />
          </notations>
        </note>
      <backup>
        <duration>40320</duration>
        </backup>
      <note>
        <pitch>
          <step>D</step>
          <octave>4</octave>
          </pitch>
        <duration>40320</duration>
        <voice>2</voice>
        <type>whole</type>
        </note>
      <backup>
        <duration>40320</duration>
        </backup>
      </measure>
    <measure number="381" width="386.91">
      <print new-system="yes">
        <system-layout>
          <system-margins>
            <left-margin>21</left-margin>
            <right-margin>0</right-margin>
            </system-margins>
          <system-distance>100.74</system-distance>
          </system-layout>
        </print>
      <attributes />
      <note>
        <rest />
        <duration>5040</duration>
        <type>eighth</type>
        </note>
      <note>
        <pitch>
          <step>D</step>
          <octave>4</octave>
          </pitch>
        <duration>5040</duration>
        <type>eighth</type>
        <stem>up</stem>
        <beam number="1">begin</beam>
        </note>
      <note>
        <pitch>
          <step>E</step>
          <octave>4</octave>
          </pitch>
        <duration>5040</duration>
        <type>eighth</type>
        <stem>up</stem>
        <beam number="1">continue</beam>
        </note>
      <note>
        <pitch>
          <step>F</step>
          <alter>1</alter>
          <octave>4</octave>
          </pitch>
        <duration>5040</duration>
        <type>eighth</type>
        <accidental>sharp</accidental>
        <stem>up</stem>
        <beam number="1">end</beam>
        </note>
      <note>
        <pitch>
          <step>G</step>
          <octave>4</octave>
          </pitch>
        <duration>5040</duration>
        <type>eighth</type>
        <stem>down</stem>
        <beam number="1">begin</beam>
        </note>
      <note>
        <pitch>
          <step>A</step>
          <octave>4</octave>
          </pitch>
        <duration>5040</duration>
        <type>eighth</type>
        <stem>down</stem>
        <beam number="1">continue</beam>
        </note>
      <note>
        <pitch>
          <step>B</step>
          <alter>-1</alter>
          <octave>4</octave>
          </pitch>
        <duration>5040</duration>
        <type>eighth</type>
        <accidental>flat</accidental>
        <stem>down</stem>
        <beam number="1">continue</beam>
        </note>
      <note>
        <pitch>
          <step>C</step>
          <octave>5</octave>
          </pitch>
        <duration>5040</duration>
        <type>eighth</type>
        <stem>down</stem>
        <beam number="1">end</beam>
        </note>
      </measure>
    <measure number="382" width="316.31">
      <attributes />
      <note>
        <pitch>
          <step>D</step>
          <octave>5</octave>
          </pitch>
        <duration>10080</duration>
        <type>quarter</type>
        <stem>down</stem>
        </note>
      <note>
        <pitch>
          <step>G</step>
          <octave>4</octave>
          </pitch>
        <duration>10080</duration>
        <type>quarter</type>
        <stem>down</stem>
        </note>
      <note>
        <chord />
        <pitch>
          <step>B</step>
          <alter>-1</alter>
          <octave>4</octave>
          </pitch>
        <duration>10080</duration>
        <type>quarter</type>
        <accidental>flat</accidental>
        <stem>down</stem>
        </note>
      <note>
        <chord />
        <pitch>
          <step>D</step>
          <octave>5</octave>
          </pitch>
        <duration>10080</duration>
        <type>quarter</type>
        <stem>down</stem>
        </note>
      <note>
        <pitch>
          <step>F</step>
          <alter>1</alter>
          <octave>4</octave>
          </pitch>
        <duration>10080</duration>
        <type>quarter</type>
        <accidental>sharp</accidental>
        <stem>down</stem>
        </note>
      <note>
        <chord />
        <pitch>
          <step>A</step>
          <octave>4</octave>
          </pitch>
        <duration>10080</duration>
        <type>quarter</type>
        <stem>down</stem>
        </note>
      <note>
        <chord />
        <pitch>
          <step>D</step>
          <octave>5</octave>
          </pitch>
        <duration>10080</duration>
        <type>quarter</type>
        <stem>down</stem>
        </note>
      <note>
        <pitch>
          <step>D</step>
          <octave>4</octave>
          </pitch>
        <duration>10080</duration>
        <type>quarter</type>
        <stem>up</stem>
        </note>
      <note>
        <chord />
        <pitch>
          <step>A</step>
          <octave>4</octave>
          </pitch>
        <duration>10080</duration>
        <type>quarter</type>
        <stem>up</stem>
        </note>
      <note>
        <chord />
        <pitch>
          <step>C</step>
          <octave>5</octave>
          </pitch>
        <duration>10080</duration>
        <type>quarter</type>
        <stem>up</stem>
        </note>
      </measure>
    <measure number="383" width="352.95">
      <attributes />
      <note>
        <pitch>
          <step>D</step>
          <octave>4</octave>
          </pitch>
        <duration>20160</duration>
        <type>half</type>
        <stem>up</stem>
        </note>
      <note>
        <chord />
        <pitch>
          <step>G</step>
          <octave>4</octave>
          </pitch>
        <duration>20160</duration>
        <type>half</type>
        <stem>up</stem>
        </note>
      <note>
        <chord />
        <pitch>
          <step>B</step>
          <alter>-1</alter>
          <octave>4</octave>
          </pitch>
        <duration>20160</duration>
        <type>half</type>
        <accidental>flat</accidental>
        <stem>up</stem>
        </note>
      <note>
        <pitch>
          <step>F</step>
          <alter>1</alter>
          <octave>4</octave>
          </pitch>
        <duration>20160</duration>
        <type>half</type>
        <accidental>sharp</accidental>
        <stem>up</stem>
        </note>
      <note>
        <chord />
        <pitch>
          <step>A</step>
          <octave>4</octave>
          </pitch>
        <duration>20160</duration>
        <type>half</type>
        <stem>up</stem>
        </note>
      </measure>
    <measure number="384" width="416.74">
      <print new-page="yes">
        <system-layout>
          <system-margins>
            <left-margin>21</left-margin>
            <right-margin>0</right-margin>
            </system-margins>
          <top-system-distance>70</top-system-distance>
          </system-layout>
        </print>
      <attributes />
      <note>
        <pitch>
          <step>C</step>
          <octave>5</octave>
          </pitch>
        <duration>20160</duration>
        <voice>1</voice>
        <type>half</type>
        <stem>up</stem>
        </note>
      <note>
        <pitch>
          <step>C</step>
          <octave>5</octave>
          </pitch>
        <duration>10080</duration>
        <voice>1</voice>
        <type>quarter</type>
        <stem>up</stem>
        </note>
      <note>
        <pitch>
          <step>B</step>
          <alter>-1</alter>
          <octave>4</octave>
          </pitch>
        <duration>10080</duration>
        <voice>1</voice>
        <type>quarter</type>
        <accidental>flat</accidental>
        <stem>up</stem>
        </note>
      <backup>
        <duration>40320</duration>
        </backup>
      <note>
        <rest />
        <duration>5040</duration>
        <voice>2</voice>
        <type>eighth</type>
        </note>
      <note>
        <pitch>
          <step>G</step>
          <octave>4</octave>
          </pitch>
        <duration>5040</duration>
        <voice>2</voice>
        <type>eighth</type>
        <stem>down</stem>
        <beam number="1">begin</beam>
        </note>
      <note>
        <pitch>
          <step>F</step>
          <alter>1</alter>
          <octave>4</octave>
          </pitch>
        <duration>5040</duration>
        <voice>2</voice>
        <type>eighth</type>
        <accidental>sharp</accidental>
        <stem>down</stem>
        <beam number="1">continue</beam>
        </note>
      <note>
        <pitch>
          <step>G</step>
          <octave>4</octave>
          </pitch>
        <duration>5040</duration>
        <voice>2</voice>
        <type>eighth</type>
        <stem>down</stem>
        <beam number="1">end</beam>
        </note>
      <note>
        <rest />
        <duration>10080</duration>
        <voice>2</voice>
        <type>quarter</type>
        </note>
      <note>
        <rest />
        <duration>5040</duration>
        <voice>2</voice>
        <type>eighth</type>
        </note>
      <note>
        <pitch>
          <step>G</step>
          <octave>4</octave>
          </pitch>
        <duration>5040</duration>
        <voice>2</voice>
        <type>eighth</type>
        <stem>down</stem>
        </note>
      <backup>
        <duration>40320</duration>
        </backup>
      <note>
        <rest />
        <duration>20160</duration>
        <voice>3</voice>
        <type>half</type>
        </note>
      <note>
        <rest />
        <duration>5040</duration>
        <voice>3</voice>
        <type>eighth</type>
        </note>
      <note>
        <pitch>
          <step>G</step>
          <octave>4</octave>
          </pitch>
        <duration>15120</duration>
        <voice>3</voice>
        <type>quarter</type>
        <dot />
        <stem>up</stem>
        <notations>
          <articulations>
            <staccato />
            </articulations>
          </notations>
        </note>
      <backup>
        <duration>40320</duration>
        </backup>
      </measure>
    <measure number="385" width="319.85">
      <attributes />
      <note>
        <pitch>
          <step>A</step>
          <octave>4</octave>
          </pitch>
        <duration>20160</duration>
        <voice>1</voice>
        <type>half</type>
        <stem>up</stem>
        </note>
      <note>
        <pitch>
          <step>A</step>
          <octave>4</octave>
          </pitch>
        <duration>10080</duration>
        <voice>1</voice>
        <type>quarter</type>
        <stem>up</stem>
        </note>
      <note>
        <pitch>
          <step>B</step>
          <alter>-1</alter>
          <octave>4</octave>
          </pitch>
        <duration>10080</duration>
        <voice>1</voice>
        <type>quarter</type>
        <accidental>flat</accidental>
        <stem>up</stem>
        </note>
      <backup>
        <duration>40320</duration>
        </backup>
      <note>
        <rest />
        <duration>5040</duration>
        <voice>2</voice>
        <type>eighth</type>
        </note>
      <note>
        <pitch>
          <step>G</step>
          <octave>4</octave>
          </pitch>
        <duration>5040</duration>
        <voice>2</voice>
        <type>eighth</type>
        <stem>down</stem>
        <beam number="1">begin</beam>
        </note>
      <note>
        <pitch>
          <step>F</step>
          <alter>1</alter>
          <octave>4</octave>
          </pitch>
        <duration>5040</duration>
        <voice>2</voice>
        <type>eighth</type>
        <accidental>sharp</accidental>
        <stem>down</stem>
        <beam number="1">continue</beam>
        </note>
      <note>
        <pitch>
          <step>G</step>
          <octave>4</octave>
          </pitch>
        <duration>5040</duration>
        <voice>2</voice>
        <type>eighth</type>
        <stem>down</stem>
        <beam number="1">end</beam>
        </note>
      <note>
        <rest />
        <duration>10080</duration>
        <voice>2</voice>
        <type>quarter</type>
        </note>
      <note>
        <rest />
        <duration>5040</duration>
        <voice>2</voice>
        <type>eighth</type>
        </note>
      <note>
        <pitch>
          <step>G</step>
          <octave>4</octave>
          </pitch>
        <duration>5040</duration>
        <voice>2</voice>
        <type>eighth</type>
        <stem>down</stem>
        </note>
      <backup>
        <duration>40320</duration>
        </backup>
      <note>
        <rest />
        <duration>20160</duration>
        <voice>3</voice>
        <type>half</type>
        </note>
      <note>
        <rest />
        <duration>5040</duration>
        <voice>3</voice>
        <type>eighth</type>
        </note>
      <note>
        <pitch>
          <step>G</step>
          <octave>4</octave>
          </pitch>
        <duration>15120</duration>
        <voice>3</voice>
        <type>quarter</type>
        <dot />
        <stem>up</stem>
        <notations>
          <articulations>
            <staccato />
            </articulations>
          </notations>
        </note>
      <backup>
        <duration>40320</duration>
        </backup>
      </measure>
    </part>
  <part id="P2f0a160b8cf017948b5a682f9dd4ac9c">
    <measure number="374" width="321.23">
      <print new-system="yes">
        <system-layout>
          <system-margins>
            <left-margin>21</left-margin>
            <right-margin>0</right-margin>
            </system-margins>
          <system-distance>100.74</system-distance>
          </system-layout>
        <staff-layout number="2">
          <staff-distance>65</staff-distance>
          </staff-layout>
        </print>
      <attributes>
        <divisions>10080</divisions>
        <key>
          <fifths>-3</fifths>
          </key>
        <time>
          <beats>2</beats>
          <beat-type>2</beat-type>
          </time>
        <clef>
          <sign>F</sign>
          <line>4</line>
          </clef>
        <staff-details print-object="yes" />
        </attributes>
      <note>
        <pitch>
          <step>F</step>
          <alter>1</alter>
          <octave>3</octave>
          </pitch>
        <duration>5040</duration>
        <type>eighth</type>
        <accidental>sharp</accidental>
        <stem>down</stem>
        <beam number="1">begin</beam>
        </note>
      <note>
        <pitch>
          <step>C</step>
          <octave>4</octave>
          </pitch>
        <duration>5040</duration>
        <type>eighth</type>
        <stem>down</stem>
        <beam number="1">continue</beam>
        </note>
      <note>
        <pitch>
          <step>F</step>
          <alter>1</alter>
          <octave>3</octave>
          </pitch>
        <duration>5040</duration>
        <type>eighth</type>
        <accidental>sharp</accidental>
        <stem>down</stem>
        <beam number="1">continue</beam>
        </note>
      <note>
        <pitch>
          <step>E</step>
          <octave>3</octave>
          </pitch>
        <duration>5040</duration>
        <type>eighth</type>
        <stem>down</stem>
        <beam number="1">end</beam>
        </note>
      <note>
        <pitch>
          <step>F</step>
          <alter>1</alter>
          <octave>3</octave>
          </pitch>
        <duration>5040</duration>
        <type>eighth</type>
        <accidental>sharp</accidental>
        <stem>up</stem>
        <beam number="1">begin</beam>
        </note>
      <attributes>
        <clef>
          <sign>G</sign>
          <line>2</line>
          </clef>
        </attributes>
      <note>
        <pitch>
          <step>C</step>
          <octave>4</octave>
          </pitch>
        <duration>5040</duration>
        <type>eighth</type>
        <stem>up</stem>
        <beam number="1">continue</beam>
        </note>
      <note>
        <pitch>
          <step>G</step>
          <octave>3</octave>
          </pitch>
        <duration>5040</duration>
        <type>eighth</type>
        <stem>up</stem>
        <beam number="1">continue</beam>
        </note>
      <note>
        <pitch>
          <step>C</step>
          <octave>4</octave>
          </pitch>
        <duration>5040</duration>
        <type>eighth</type>
        <stem>up</stem>
        <beam number="1">end</beam>
        </note>
      </measure>
    <measure number="375" width="240.57">
      <attributes />
      <note>
        <pitch>
          <step>A</step>
          <octave>3</octave>
          </pitch>
        <duration>5040</duration>
        <type>eighth</type>
        <stem>up</stem>
        <beam number="1">begin</beam>
        </note>
      <note>
        <pitch>
          <step>C</step>
          <octave>4</octave>
          </pitch>
        <duration>5040</duration>
        <type>eighth</type>
        <stem>up</stem>
        <beam number="1">continue</beam>
        </note>
      <attributes>
        <clef>
          <sign>F</sign>
          <line>4</line>
          </clef>
        </attributes>
      <note>
        <pitch>
          <step>A</step>
          <octave>3</octave>
          </pitch>
        <duration>5040</duration>
        <type>eighth</type>
        <stem>up</stem>
        <beam number="1">continue</beam>
        </note>
      <note>
        <pitch>
          <step>G</step>
          <octave>3</octave>
          </pitch>
        <duration>5040</duration>
        <type>eighth</type>
        <stem>up</stem>
        <beam number="1">end</beam>
        </note>
      <note>
        <pitch>
          <step>A</step>
          <octave>3</octave>
          </pitch>
        <duration>5040</duration>
        <type>eighth</type>
        <stem>down</stem>
        <beam number="1">begin</beam>
        </note>
      <note>
        <pitch>
          <step>C</step>
          <octave>4</octave>
          </pitch>
        <duration>5040</duration>
        <type>eighth</type>
        <stem>down</stem>
        <beam number="1">continue</beam>
        </note>
      <note>
        <pitch>
          <step>G</step>
          <octave>3</octave>
          </pitch>
        <duration>5040</duration>
        <type>eighth</type>
        <stem>down</stem>
        <beam number="1">continue</beam>
        </note>
      <note>
        <pitch>
          <step>C</step>
          <octave>4</octave>
          </pitch>
        <duration>5040</duration>
        <type>eighth</type>
        <stem>down</stem>
        <beam number="1">end</beam>
        </note>
      </measure>
    <measure number="376" width="235.31">
      <attributes />
      <note>
        <pitch>
          <step>F</step>
          <alter>1</alter>
          <octave>3</octave>
          </pitch>
        <duration>5040</duration>
        <type>eighth</type>
        <accidental>sharp</accidental>
        <stem>down</stem>
        <beam number="1">begin</beam>
        </note>
      <note>
        <pitch>
          <step>C</step>
          <octave>4</octave>
          </pitch>
        <duration>5040</duration>
        <type>eighth</type>
        <stem>down</stem>
        <beam number="1">continue</beam>
        </note>
      <note>
        <pitch>
          <step>F</step>
          <alter>1</alter>
          <octave>3</octave>
          </pitch>
        <duration>5040</duration>
        <type>eighth</type>
        <accidental>sharp</accidental>
        <stem>down</stem>
        <beam number="1">continue</beam>
        </note>
      <note>
        <pitch>
          <step>E</step>
          <octave>3</octave>
          </pitch>
        <duration>5040</duration>
        <type>eighth</type>
        <stem>down</stem>
        <beam number="1">end</beam>
        </note>
      <note>
        <pitch>
          <step>F</step>
          <alter>1</alter>
          <octave>3</octave>
          </pitch>
        <duration>5040</duration>
        <type>eighth</type>
        <accidental>sharp</accidental>
        <stem>down</stem>
        <beam number="1">begin</beam>
        </note>
      <note>
        <pitch>
          <step>C</step>
          <octave>4</octave>
          </pitch>
        <duration>5040</duration>
        <type>eighth</type>
        <stem>down</stem>
        <beam number="1">continue</beam>
        </note>
      <note>
        <pitch>
          <step>E</step>
          <alter>-1</alter>
          <octave>3</octave>
          </pitch>
        <duration>5040</duration>
        <type>eighth</type>
        <accidental>flat</accidental>
        <stem>down</stem>
        <beam number="1">continue</beam>
        </note>
      <note>
        <pitch>
          <step>C</step>
          <octave>4</octave>
          </pitch>
        <duration>5040</duration>
        <type>eighth</type>
        <stem>down</stem>
        <beam number="1">end</beam>
        </note>
      </measure>
    <measure number="377" width="259.06">
      <attributes />
      <note>
        <pitch>
          <step>D</step>
          <octave>3</octave>
          </pitch>
        <duration>5040</duration>
        <type>eighth</type>
        <stem>down</stem>
        <beam number="1">begin</beam>
        </note>
      <note>
        <pitch>
          <step>C</step>
          <octave>4</octave>
          </pitch>
        <duration>5040</duration>
        <type>eighth</type>
        <stem>down</stem>
        <beam number="1">continue</beam>
        </note>
      <note>
        <pitch>
          <step>D</step>
          <octave>3</octave>
          </pitch>
        <duration>5040</duration>
        <type>eighth</type>
        <stem>down</stem>
        <beam number="1">continue</beam>
        </note>
      <note>
        <pitch>
          <step>C</step>
          <octave>3</octave>
          </pitch>
        <duration>5040</duration>
        <type>eighth</type>
        <stem>down</stem>
        <beam number="1">end</beam>
        </note>
      <note>
        <pitch>
          <step>D</step>
          <octave>3</octave>
          </pitch>
        <duration>5040</duration>
        <type>eighth</type>
        <stem>down</stem>
        <beam number="1">begin</beam>
        </note>
      <note>
        <pitch>
          <step>C</step>
          <octave>4</octave>
          </pitch>
        <duration>5040</duration>
        <type>eighth</type>
        <stem>down</stem>
        <beam number="1">continue</beam>
        </note>
      <note>
        <pitch>
          <step>E</step>
          <alter>0</alter>
          <octave>3</octave>
          </pitch>
        <duration>5040</duration>
        <type>eighth</type>
        <accidental>natural</accidental>
        <stem>down</stem>
        <beam number="1">continue</beam>
        </note>
      <note>
        <pitch>
          <step>C</step>
          <octave>4</octave>
          </pitch>
        <duration>5040</duration>
        <type>eighth</type>
        <stem>down</stem>
        <beam number="1">end</beam>
        </note>
      </measure>
    <measure number="378" width="396.1">
      <print new-system="yes">
        <system-layout>
          <system-margins>
            <left-margin>21</left-margin>
            <right-margin>0</right-margin>
            </system-margins>
          <system-distance>100.74</system-distance>
          </system-layout>
        <staff-layout number="2">
          <staff-distance>65</staff-distance>
          </staff-layout>
        </print>
      <attributes>
        <staff-details print-object="yes" />
        </attributes>
      <note>
        <pitch>
          <step>F</step>
          <alter>1</alter>
          <octave>3</octave>
          </pitch>
        <duration>5040</duration>
        <type>eighth</type>
        <accidental>sharp</accidental>
        <stem>down</stem>
        <beam number="1">begin</beam>
        </note>
      <note>
        <pitch>
          <step>C</step>
          <octave>4</octave>
          </pitch>
        <duration>5040</duration>
        <type>eighth</type>
        <stem>down</stem>
        <beam number="1">continue</beam>
        </note>
      <note>
        <pitch>
          <step>F</step>
          <alter>1</alter>
          <octave>3</octave>
          </pitch>
        <duration>5040</duration>
        <type>eighth</type>
        <accidental>sharp</accidental>
        <stem>down</stem>
        <beam number="1">continue</beam>
        </note>
      <note>
        <pitch>
          <step>E</step>
          <octave>3</octave>
          </pitch>
        <duration>5040</duration>
        <type>eighth</type>
        <stem>down</stem>
        <beam number="1">end</beam>
        </note>
      <note>
        <pitch>
          <step>F</step>
          <alter>1</alter>
          <octave>3</octave>
          </pitch>
        <duration>5040</duration>
        <type>eighth</type>
        <accidental>sharp</accidental>
        <stem>up</stem>
        <beam number="1">begin</beam>
        </note>
      <attributes>
        <clef>
          <sign>G</sign>
          <line>2</line>
          </clef>
        </attributes>
      <note>
        <pitch>
          <step>C</step>
          <octave>4</octave>
          </pitch>
        <duration>5040</duration>
        <type>eighth</type>
        <stem>up</stem>
        <beam number="1">continue</beam>
        </note>
      <note>
        <pitch>
          <step>G</step>
          <octave>3</octave>
          </pitch>
        <duration>5040</duration>
        <type>eighth</type>
        <stem>up</stem>
        <beam number="1">continue</beam>
        </note>
      <note>
        <pitch>
          <step>C</step>
          <octave>4</octave>
          </pitch>
        <duration>5040</duration>
        <type>eighth</type>
        <stem>up</stem>
        <beam number="1">end</beam>
        </note>
      </measure>
    <measure number="379" width="319.31">
      <attributes />
      <note>
        <pitch>
          <step>A</step>
          <octave>3</octave>
          </pitch>
        <duration>5040</duration>
        <type>eighth</type>
        <stem>up</stem>
        <beam number="1">begin</beam>
        </note>
      <note>
        <pitch>
          <step>C</step>
          <octave>4</octave>
          </pitch>
        <duration>5040</duration>
        <type>eighth</type>
        <stem>up</stem>
        <beam number="1">continue</beam>
        </note>
      <attributes>
        <clef>
          <sign>F</sign>
          <line>4</line>
          </clef>
        </attributes>
      <note>
        <pitch>
          <step>A</step>
          <octave>3</octave>
          </pitch>
        <duration>5040</duration>
        <type>eighth</type>
        <stem>up</stem>
        <beam number="1">continue</beam>
        </note>
      <note>
        <pitch>
          <step>G</step>
          <octave>3</octave>
          </pitch>
        <duration>5040</duration>
        <type>eighth</type>
        <stem>up</stem>
        <beam number="1">end</beam>
        </note>
      <note>
        <pitch>
          <step>A</step>
          <octave>3</octave>
          </pitch>
        <duration>5040</duration>
        <type>eighth</type>
        <stem>down</stem>
        <beam number="1">begin</beam>
        </note>
      <note>
        <pitch>
          <step>C</step>
          <octave>4</octave>
          </pitch>
        <duration>5040</duration>
        <type>eighth</type>
        <stem>down</stem>
        <beam number="1">continue</beam>
        </note>
      <note>
        <pitch>
          <step>G</step>
          <octave>3</octave>
          </pitch>
        <duration>5040</duration>
        <type>eighth</type>
        <stem>down</stem>
        <beam number="1">continue</beam>
        </note>
      <note>
        <pitch>
          <step>C</step>
          <octave>4</octave>
          </pitch>
        <duration>5040</duration>
        <type>eighth</type>
        <stem>down</stem>
        <beam number="1">end</beam>
        </note>
      </measure>
    <measure number="380" width="340.75">
      <attributes />
      <note>
        <pitch>
          <step>F</step>
          <alter>1</alter>
          <octave>3</octave>
          </pitch>
        <duration>5040</duration>
        <type>eighth</type>
        <accidental>sharp</accidental>
        <stem>down</stem>
        <beam number="1">begin</beam>
        </note>
      <note>
        <pitch>
          <step>C</step>
          <octave>4</octave>
          </pitch>
        <duration>5040</duration>
        <type>eighth</type>
        <stem>down</stem>
        <beam number="1">continue</beam>
        </note>
      <note>
        <pitch>
          <step>D</step>
          <octave>3</octave>
          </pitch>
        <duration>5040</duration>
        <type>eighth</type>
        <stem>down</stem>
        <beam number="1">continue</beam>
        </note>
      <note>
        <pitch>
          <step>E</step>
          <octave>3</octave>
          </pitch>
        <duration>5040</duration>
        <type>eighth</type>
        <stem>down</stem>
        <beam number="1">end</beam>
        </note>
      <note>
        <pitch>
          <step>F</step>
          <alter>1</alter>
          <octave>3</octave>
          </pitch>
        <duration>5040</duration>
        <type>eighth</type>
        <accidental>sharp</accidental>
        <stem>up</stem>
        <beam number="1">begin</beam>
        </note>
      <note>
        <pitch>
          <step>G</step>
          <octave>3</octave>
          </pitch>
        <duration>5040</duration>
        <type>eighth</type>
        <stem>up</stem>
        <beam number="1">continue</beam>
        </note>
      <note>
        <pitch>
          <step>A</step>
          <octave>3</octave>
          </pitch>
        <duration>5040</duration>
        <type>eighth</type>
        <stem>up</stem>
        <beam number="1">continue</beam>
        </note>
      <attributes>
        <clef>
          <sign>G</sign>
          <line>2</line>
          </clef>
        </attributes>
      <note>
        <pitch>
          <step>B</step>
          <alter>-1</alter>
          <octave>3</octave>
          </pitch>
        <duration>5040</duration>
        <type>eighth</type>
        <accidental>flat</accidental>
        <stem>up</stem>
        <beam number="1">end</beam>
        </note>
      </measure>
    <measure number="381" width="386.91">
      <print new-system="yes">
        <system-layout>
          <system-margins>
            <left-margin>21</left-margin>
            <right-margin>0</right-margin>
            </system-margins>
          <system-distance>100.74</system-distance>
          </system-layout>
        <staff-layout number="2">
          <staff-distance>65</staff-distance>
          </staff-layout>
        </print>
      <attributes>
        <staff-details print-object="yes" />
        </attributes>
      <note>
        <pitch>
          <step>C</step>
          <octave>4</octave>
          </pitch>
        <duration>5040</duration>
        <type>eighth</type>
        <stem>up</stem>
        <beam number="1">begin</beam>
        </note>
      <note>
        <pitch>
          <step>B</step>
          <alter>-1</alter>
          <octave>3</octave>
          </pitch>
        <duration>5040</duration>
        <type>eighth</type>
        <accidental>flat</accidental>
        <stem>up</stem>
        <beam number="1">continue</beam>
        </note>
      <note>
        <pitch>
          <step>A</step>
          <octave>3</octave>
          </pitch>
        <duration>5040</duration>
        <type>eighth</type>
        <stem>up</stem>
        <beam number="1">continue</beam>
        </note>
      <note>
        <pitch>
          <step>G</step>
          <octave>3</octave>
          </pitch>
        <duration>5040</duration>
        <type>eighth</type>
        <stem>up</stem>
        <beam number="1">end</beam>
        </note>
      <attributes>
        <clef>
          <sign>F</sign>
          <line>4</line>
          </clef>
        </attributes>
      <note>
        <pitch>
          <step>F</step>
          <alter>1</alter>
          <octave>3</octave>
          </pitch>
        <duration>5040</duration>
        <type>eighth</type>
        <accidental>sharp</accidental>
        <stem>down</stem>
        <beam number="1">begin</beam>
        </note>
      <note>
        <pitch>
          <step>E</step>
          <octave>3</octave>
          </pitch>
        <duration>5040</duration>
        <type>eighth</type>
        <stem>down</stem>
        <beam number="1">continue</beam>
        </note>
      <note>
        <pitch>
          <step>D</step>
          <octave>3</octave>
          </pitch>
        <duration>5040</duration>
        <type>eighth</type>
        <stem>down</stem>
        <beam number="1">continue</beam>
        </note>
      <note>
        <pitch>
          <step>C</step>
          <octave>3</octave>
          </pitch>
        <duration>5040</duration>
        <type>eighth</type>
        <stem>down</stem>
        <beam number="1">end</beam>
        </note>
      </measure>
    <measure number="382" width="316.31">
      <attributes />
      <note>
        <pitch>
          <step>B</step>
          <alter>-1</alter>
          <octave>2</octave>
          </pitch>
        <duration>5040</duration>
        <type>eighth</type>
        <accidental>flat</accidental>
        <stem>up</stem>
        <beam number="1">begin</beam>
        </note>
      <note>
        <pitch>
          <step>G</step>
          <octave>2</octave>
          </pitch>
        <duration>5040</duration>
        <type>eighth</type>
        <stem>up</stem>
        <beam number="1">continue</beam>
        </note>
      <note>
        <pitch>
          <step>A</step>
          <octave>2</octave>
          </pitch>
        <duration>5040</duration>
        <type>eighth</type>
        <stem>up</stem>
        <beam number="1">continue</beam>
        </note>
      <note>
        <pitch>
          <step>B</step>
          <alter>-1</alter>
          <octave>2</octave>
          </pitch>
        <duration>5040</duration>
        <type>eighth</type>
        <accidental>flat</accidental>
        <stem>up</stem>
        <beam number="1">end</beam>
        </note>
      <note>
        <pitch>
          <step>C</step>
          <octave>3</octave>
          </pitch>
        <duration>5040</duration>
        <type>eighth</type>
        <stem>down</stem>
        <beam number="1">begin</beam>
        </note>
      <note>
        <pitch>
          <step>D</step>
          <octave>3</octave>
          </pitch>
        <duration>5040</duration>
        <type>eighth</type>
        <stem>down</stem>
        <beam number="1">continue</beam>
        </note>
      <note>
        <pitch>
          <step>E</step>
          <octave>3</octave>
          </pitch>
        <duration>5040</duration>
        <type>eighth</type>
        <stem>down</stem>
        <beam number="1">continue</beam>
        </note>
      <note>
        <pitch>
          <step>F</step>
          <alter>1</alter>
          <octave>3</octave>
          </pitch>
        <duration>5040</duration>
        <type>eighth</type>
        <accidental>sharp</accidental>
        <stem>down</stem>
        <beam number="1">end</beam>
        </note>
      </measure>
    <measure number="383" width="352.95">
      <attributes />
      <note>
        <pitch>
          <step>G</step>
          <octave>3</octave>
          </pitch>
        <duration>5040</duration>
        <type>eighth</type>
        <stem>up</stem>
        <beam number="1">begin</beam>
        </note>
      <note>
        <pitch>
          <step>A</step>
          <octave>3</octave>
          </pitch>
        <duration>5040</duration>
        <type>eighth</type>
        <stem>up</stem>
        <beam number="1">continue</beam>
        </note>
      <attributes>
        <clef>
          <sign>G</sign>
          <line>2</line>
          </clef>
        </attributes>
      <note>
        <pitch>
          <step>B</step>
          <alter>-1</alter>
          <octave>3</octave>
          </pitch>
        <duration>5040</duration>
        <type>eighth</type>
        <accidental>flat</accidental>
        <stem>up</stem>
        <beam number="1">continue</beam>
        </note>
      <note>
        <pitch>
          <step>C</step>
          <octave>4</octave>
          </pitch>
        <duration>5040</duration>
        <type>eighth</type>
        <stem>up</stem>
        <beam number="1">end</beam>
        </note>
      <note>
        <pitch>
          <step>D</step>
          <octave>4</octave>
          </pitch>
        <duration>5040</duration>
        <type>eighth</type>
        <stem>up</stem>
        <beam number="1">begin</beam>
        </note>
      <note>
        <pitch>
          <step>A</step>
          <octave>3</octave>
          </pitch>
        <duration>5040</duration>
        <type>eighth</type>
        <stem>up</stem>
        <beam number="1">continue</beam>
        </note>
      <note>
        <pitch>
          <step>F</step>
          <alter>1</alter>
          <octave>3</octave>
          </pitch>
        <duration>5040</duration>
        <type>eighth</type>
        <accidental>sharp</accidental>
        <stem>up</stem>
        <beam number="1">continue</beam>
        </note>
      <attributes>
        <clef>
          <sign>F</sign>
          <line>4</line>
          </clef>
        </attributes>
      <note>
        <pitch>
          <step>D</step>
          <octave>3</octave>
          </pitch>
        <duration>5040</duration>
        <type>eighth</type>
        <stem>up</stem>
        <beam number="1">end</beam>
        </note>
      </measure>
    <measure number="384" width="416.74">
      <print new-page="yes">
        <system-layout>
          <system-margins>
            <left-margin>21</left-margin>
            <right-margin>0</right-margin>
            </system-margins>
          <top-system-distance>70</top-system-distance>
          </system-layout>
        <staff-layout number="2">
          <staff-distance>65</staff-distance>
          </staff-layout>
        </print>
      <attributes>
        <staff-details print-object="yes" />
        </attributes>
      <note>
        <pitch>
          <step>E</step>
          <alter>-1</alter>
          <octave>3</octave>
          </pitch>
        <duration>5040</duration>
        <type>eighth</type>
        <accidental>flat</accidental>
        <stem>up</stem>
        <beam number="1">begin</beam>
        </note>
      <attributes>
        <clef>
          <sign>G</sign>
          <line>2</line>
          </clef>
        </attributes>
      <note>
        <pitch>
          <step>E</step>
          <alter>-1</alter>
          <octave>4</octave>
          </pitch>
        <duration>5040</duration>
        <type>eighth</type>
        <accidental>flat</accidental>
        <stem>up</stem>
        <beam number="1">continue</beam>
        </note>
      <note>
        <pitch>
          <step>D</step>
          <octave>4</octave>
          </pitch>
        <duration>5040</duration>
        <type>eighth</type>
        <stem>up</stem>
        <beam number="1">continue</beam>
        </note>
      <note>
        <pitch>
          <step>E</step>
          <alter>-1</alter>
          <octave>4</octave>
          </pitch>
        <duration>5040</duration>
        <type>eighth</type>
        <accidental>flat</accidental>
        <stem>up</stem>
        <beam number="1">end</beam>
        </note>
      <note>
        <pitch>
          <step>E</step>
          <alter>-1</alter>
          <octave>3</octave>
          </pitch>
        <duration>5040</duration>
        <type>eighth</type>
        <accidental>flat</accidental>
        <stem>up</stem>
        <beam number="1">begin</beam>
        </note>
      <note>
        <pitch>
          <step>E</step>
          <alter>-1</alter>
          <octave>4</octave>
          </pitch>
        <duration>5040</duration>
        <type>eighth</type>
        <accidental>flat</accidental>
        <stem>up</stem>
        <beam number="1">continue</beam>
        </note>
      <attributes>
        <clef>
          <sign>F</sign>
          <line>4</line>
          </clef>
        </attributes>
      <note>
        <pitch>
          <step>D</step>
          <octave>3</octave>
          </pitch>
        <duration>5040</duration>
        <type>eighth</type>
        <stem>up</stem>
        <beam number="1">continue</beam>
        </note>
      <note>
        <pitch>
          <step>D</step>
          <octave>4</octave>
          </pitch>
        <duration>5040</duration>
        <type>eighth</type>
        <stem>up</stem>
        <beam number="1">end</beam>
        </note>
      </measure>
    <measure number="385" width="319.85">
      <attributes />
      <note>
        <pitch>
          <step>C</step>
          <octave>3</octave>
          </pitch>
        <duration>5040</duration>
        <type>eighth</type>
        <stem>down</stem>
        <beam number="1">begin</beam>
        </note>
      <note>
        <pitch>
          <step>E</step>
          <alter>-1</alter>
          <octave>3</octave>
          </pitch>
        <duration>5040</duration>
        <type>eighth</type>
        <accidental>flat</accidental>
        <stem>down</stem>
        <beam number="1">continue</beam>
        </note>
      <note>
        <pitch>
          <step>D</step>
          <octave>3</octave>
          </pitch>
        <duration>5040</duration>
        <type>eighth</type>
        <stem>down</stem>
        <beam number="1">continue</beam>
        </note>
      <note>
        <pitch>
          <step>E</step>
          <alter>-1</alter>
          <octave>3</octave>
          </pitch>
        <duration>5040</duration>
        <type>eighth</type>
        <accidental>flat</accidental>
        <stem>down</stem>
        <beam number="1">end</beam>
        </note>
      <note>
        <pitch>
          <step>C</step>
          <octave>3</octave>
          </pitch>
        <duration>5040</duration>
        <type>eighth</type>
        <stem>down</stem>
        <beam number="1">begin</beam>
        </note>
      <note>
        <pitch>
          <step>C</step>
          <octave>4</octave>
          </pitch>
        <duration>5040</duration>
        <type>eighth</type>
        <stem>down</stem>
        <beam number="1">continue</beam>
        </note>
      <note>
        <pitch>
          <step>D</step>
          <octave>3</octave>
          </pitch>
        <duration>5040</duration>
        <type>eighth</type>
        <stem>down</stem>
        <beam number="1">continue</beam>
        </note>
      <note>
        <pitch>
          <step>D</step>
          <octave>4</octave>
          </pitch>
        <duration>5040</duration>
        <type>eighth</type>
        <stem>down</stem>
        <beam number="1">end</beam>
        </note>
      </measure>
    </part>
  </score-partwise>
