<?xml version="1.0" encoding="utf-8"?>
<!DOCTYPE score-partwise
  PUBLIC '-//Recordare//DTD MusicXML 2.0 Partwise//EN'
  'http://www.musicxml.org/dtds/partwise.dtd'>
<score-partwise>
  <work>
    <work-title>m16364_3.xml</work-title>
    </work>
  <movement-title>m16364_3.xml</movement-title>
  <identification>
    <creator type="composer">Music21</creator>
    <encoding>
      <encoding-date>2018-01-04</encoding-date>
      <software>Music21</software>
      <supports attribute="new-system" element="print" type="yes" value="yes" />
      <supports attribute="new-page" element="print" type="yes" value="yes" />
      </encoding>
    </identification>
  <defaults>
    <scaling>
      <millimeters>7</millimeters>
      <tenths>40</tenths>
      </scaling>
    </defaults>
  <part-list>
    <score-part id="P1">
      <part-name>Piano, unbenannt</part-name>
      <part-abbreviation>Pno.</part-abbreviation>
      <score-instrument id="Ifa20412cf9866c5121a242a2c4b25210">
        <instrument-name>Piano</instrument-name>
        </score-instrument>
      <midi-instrument id="Ifa20412cf9866c5121a242a2c4b25210">
        <midi-channel>1</midi-channel>
        <midi-program>1</midi-program>
        </midi-instrument>
      </score-part>
    <score-part id="Pc51a9b9af00a68e17d2368251cb54d32">
      <part-name>Piano, unbenannt</part-name>
      <part-abbreviation>Pno.</part-abbreviation>
      <score-instrument id="I431ca5cd57eaa91878f1cbea580b8397">
        <instrument-name>Piano</instrument-name>
        </score-instrument>
      <midi-instrument id="I431ca5cd57eaa91878f1cbea580b8397">
        <midi-channel>2</midi-channel>
        <midi-program>1</midi-program>
        </midi-instrument>
      </score-part>
    </part-list>
  <part id="P1">
    <measure number="193" width="336.58">
      <attributes>
        <divisions>10080</divisions>
        <key>
          <fifths>-1</fifths>
          </key>
        <time>
          <beats>12</beats>
          <beat-type>8</beat-type>
          </time>
        <clef>
          <sign>G</sign>
          <line>2</line>
          </clef>
        </attributes>
      <direction>
        <direction-type>
          <metronome parentheses="no">
            <beat-unit>quarter</beat-unit>
            <per-minute>155</per-minute>
            </metronome>
          </direction-type>
        <sound tempo="155" />
        </direction>
      <note>
        <pitch>
          <step>D</step>
          <octave>5</octave>
          </pitch>
        <duration>5040</duration>
        <type>eighth</type>
        <stem>down</stem>
        <beam number="1">begin</beam>
        </note>
      <note>
        <pitch>
          <step>F</step>
          <octave>5</octave>
          </pitch>
        <duration>5040</duration>
        <type>eighth</type>
        <stem>down</stem>
        <beam number="1">continue</beam>
        </note>
      <note>
        <pitch>
          <step>D</step>
          <octave>5</octave>
          </pitch>
        <duration>5040</duration>
        <type>eighth</type>
        <stem>down</stem>
        <beam number="1">end</beam>
        </note>
      <note>
        <pitch>
          <step>C</step>
          <alter>1</alter>
          <octave>5</octave>
          </pitch>
        <duration>5040</duration>
        <type>eighth</type>
        <accidental>sharp</accidental>
        <stem>down</stem>
        <beam number="1">begin</beam>
        </note>
      <note>
        <pitch>
          <step>E</step>
          <octave>5</octave>
          </pitch>
        <duration>5040</duration>
        <type>eighth</type>
        <stem>down</stem>
        <beam number="1">continue</beam>
        </note>
      <note>
        <pitch>
          <step>C</step>
          <alter>1</alter>
          <octave>5</octave>
          </pitch>
        <duration>5040</duration>
        <type>eighth</type>
        <accidental>sharp</accidental>
        <stem>down</stem>
        <beam number="1">end</beam>
        </note>
      <note>
        <pitch>
          <step>D</step>
          <octave>5</octave>
          </pitch>
        <duration>5040</duration>
        <type>eighth</type>
        <stem>down</stem>
        <beam number="1">begin</beam>
        </note>
      <note>
        <pitch>
          <step>F</step>
          <octave>5</octave>
          </pitch>
        <duration>5040</duration>
        <type>eighth</type>
        <stem>down</stem>
        <beam number="1">continue</beam>
        </note>
      <note>
        <pitch>
          <step>D</step>
          <octave>5</octave>
          </pitch>
        <duration>5040</duration>
        <type>eighth</type>
        <stem>down</stem>
        <beam number="1">end</beam>
        </note>
      <note>
        <pitch>
          <step>C</step>
          <alter>1</alter>
          <octave>5</octave>
          </pitch>
        <duration>5040</duration>
        <type>eighth</type>
        <accidental>sharp</accidental>
        <stem>down</stem>
        <beam number="1">begin</beam>
        </note>
      <note>
        <pitch>
          <step>E</step>
          <octave>5</octave>
          </pitch>
        <duration>5040</duration>
        <type>eighth</type>
        <stem>down</stem>
        <beam number="1">continue</beam>
        </note>
      <note>
        <pitch>
          <step>C</step>
          <alter>1</alter>
          <octave>5</octave>
          </pitch>
        <duration>5040</duration>
        <type>eighth</type>
        <accidental>sharp</accidental>
        <stem>down</stem>
        <beam number="1">end</beam>
        </note>
      </measure>
    <measure number="194" width="330.81">
      <attributes />
      <note>
        <pitch>
          <step>D</step>
          <octave>5</octave>
          </pitch>
        <duration>5040</duration>
        <type>eighth</type>
        <stem>down</stem>
        <beam number="1">begin</beam>
        </note>
      <note>
        <pitch>
          <step>F</step>
          <octave>5</octave>
          </pitch>
        <duration>5040</duration>
        <type>eighth</type>
        <stem>down</stem>
        <beam number="1">continue</beam>
        </note>
      <note>
        <pitch>
          <step>D</step>
          <octave>5</octave>
          </pitch>
        <duration>5040</duration>
        <type>eighth</type>
        <stem>down</stem>
        <beam number="1">end</beam>
        </note>
      <note>
        <pitch>
          <step>C</step>
          <alter>1</alter>
          <octave>5</octave>
          </pitch>
        <duration>5040</duration>
        <type>eighth</type>
        <accidental>sharp</accidental>
        <stem>down</stem>
        <beam number="1">begin</beam>
        </note>
      <note>
        <pitch>
          <step>E</step>
          <octave>5</octave>
          </pitch>
        <duration>5040</duration>
        <type>eighth</type>
        <stem>down</stem>
        <beam number="1">continue</beam>
        </note>
      <note>
        <pitch>
          <step>C</step>
          <alter>1</alter>
          <octave>5</octave>
          </pitch>
        <duration>5040</duration>
        <type>eighth</type>
        <accidental>sharp</accidental>
        <stem>down</stem>
        <beam number="1">end</beam>
        </note>
      <note>
        <pitch>
          <step>D</step>
          <octave>5</octave>
          </pitch>
        <duration>5040</duration>
        <type>eighth</type>
        <stem>down</stem>
        <beam number="1">begin</beam>
        </note>
      <note>
        <pitch>
          <step>E</step>
          <octave>5</octave>
          </pitch>
        <duration>5040</duration>
        <type>eighth</type>
        <stem>down</stem>
        <beam number="1">continue</beam>
        </note>
      <note>
        <pitch>
          <step>F</step>
          <octave>5</octave>
          </pitch>
        <duration>5040</duration>
        <type>eighth</type>
        <stem>down</stem>
        <beam number="1">end</beam>
        </note>
      <note>
        <pitch>
          <step>E</step>
          <octave>5</octave>
          </pitch>
        <duration>5040</duration>
        <type>eighth</type>
        <stem>down</stem>
        <beam number="1">begin</beam>
        </note>
      <note>
        <pitch>
          <step>F</step>
          <octave>5</octave>
          </pitch>
        <duration>5040</duration>
        <type>eighth</type>
        <stem>down</stem>
        <beam number="1">continue</beam>
        </note>
      <note>
        <pitch>
          <step>D</step>
          <octave>5</octave>
          </pitch>
        <duration>5040</duration>
        <type>eighth</type>
        <stem>down</stem>
        <beam number="1">end</beam>
        </note>
      </measure>
    <measure number="195" width="471.2">
      <print new-system="yes">
        <system-layout>
          <system-margins>
            <left-margin>21</left-margin>
            <right-margin>0</right-margin>
            </system-margins>
          <system-distance>100.74</system-distance>
          </system-layout>
        </print>
      <attributes />
      <note>
        <rest />
        <duration>15120</duration>
        <voice>1</voice>
        <type>quarter</type>
        <dot />
        </note>
      <note>
        <pitch>
          <step>A</step>
          <octave>4</octave>
          </pitch>
        <duration>15120</duration>
        <voice>1</voice>
        <type>quarter</type>
        <dot />
        <stem>up</stem>
        <notations>
          <articulations>
            <staccato />
            </articulations>
          </notations>
        </note>
      <note>
        <rest />
        <duration>30240</duration>
        <voice>1</voice>
        <type>half</type>
        <dot />
        </note>
      <backup>
        <duration>60480</duration>
        </backup>
      <note>
        <pitch>
          <step>C</step>
          <alter>1</alter>
          <octave>5</octave>
          </pitch>
        <duration>5040</duration>
        <voice>2</voice>
        <type>eighth</type>
        <accidental>sharp</accidental>
        <stem>down</stem>
        <beam number="1">begin</beam>
        </note>
      <note>
        <pitch>
          <step>B</step>
          <octave>4</octave>
          </pitch>
        <duration>5040</duration>
        <voice>2</voice>
        <type>eighth</type>
        <stem>down</stem>
        <beam number="1">continue</beam>
        </note>
      <note>
        <pitch>
          <step>C</step>
          <alter>1</alter>
          <octave>5</octave>
          </pitch>
        <duration>5040</duration>
        <voice>2</voice>
        <type>eighth</type>
        <accidental>sharp</accidental>
        <stem>down</stem>
        <beam number="1">end</beam>
        </note>
      <note>
        <rest />
        <duration>5040</duration>
        <voice>2</voice>
        <type>eighth</type>
        </note>
      <note>
        <pitch>
          <step>G</step>
          <octave>2</octave>
          </pitch>
        <duration>5040</duration>
        <voice>2</voice>
        <type>eighth</type>
        <stem>down</stem>
        <beam number="1">begin</beam>
        </note>
      <note>
        <pitch>
          <step>A</step>
          <octave>2</octave>
          </pitch>
        <duration>5040</duration>
        <voice>2</voice>
        <type>eighth</type>
        <stem>down</stem>
        <beam number="1">end</beam>
        </note>
      <note>
        <pitch>
          <step>A</step>
          <octave>4</octave>
          </pitch>
        <duration>5040</duration>
        <voice>2</voice>
        <type>eighth</type>
        <stem>down</stem>
        <beam number="1">begin</beam>
        </note>
      <note>
        <pitch>
          <step>D</step>
          <octave>5</octave>
          </pitch>
        <duration>5040</duration>
        <voice>2</voice>
        <type>eighth</type>
        <stem>down</stem>
        <beam number="1">continue</beam>
        </note>
      <note>
        <pitch>
          <step>A</step>
          <octave>4</octave>
          </pitch>
        <duration>5040</duration>
        <voice>2</voice>
        <type>eighth</type>
        <stem>down</stem>
        <beam number="1">end</beam>
        </note>
      <note>
        <pitch>
          <step>F</step>
          <alter>1</alter>
          <octave>4</octave>
          </pitch>
        <duration>5040</duration>
        <voice>2</voice>
        <type>eighth</type>
        <accidental>sharp</accidental>
        <stem>down</stem>
        <beam number="1">begin</beam>
        </note>
      <note>
        <pitch>
          <step>D</step>
          <octave>5</octave>
          </pitch>
        <duration>5040</duration>
        <voice>2</voice>
        <type>eighth</type>
        <stem>down</stem>
        <beam number="1">continue</beam>
        </note>
      <note>
        <pitch>
          <step>A</step>
          <octave>4</octave>
          </pitch>
        <duration>5040</duration>
        <voice>2</voice>
        <type>eighth</type>
        <stem>down</stem>
        <beam number="1">end</beam>
        </note>
      <backup>
        <duration>60480</duration>
        </backup>
      </measure>
    <measure number="196" width="292.48">
      <attributes />
      <note>
        <pitch>
          <step>B</step>
          <alter>-1</alter>
          <octave>4</octave>
          </pitch>
        <duration>5040</duration>
        <type>eighth</type>
        <accidental>flat</accidental>
        <stem>down</stem>
        <beam number="1">begin</beam>
        </note>
      <note>
        <pitch>
          <step>D</step>
          <octave>5</octave>
          </pitch>
        <duration>5040</duration>
        <type>eighth</type>
        <stem>down</stem>
        <beam number="1">continue</beam>
        </note>
      <note>
        <pitch>
          <step>B</step>
          <alter>-1</alter>
          <octave>4</octave>
          </pitch>
        <duration>5040</duration>
        <type>eighth</type>
        <accidental>flat</accidental>
        <stem>down</stem>
        <beam number="1">end</beam>
        </note>
      <note>
        <pitch>
          <step>G</step>
          <octave>4</octave>
          </pitch>
        <duration>5040</duration>
        <type>eighth</type>
        <stem>down</stem>
        <beam number="1">begin</beam>
        </note>
      <note>
        <pitch>
          <step>D</step>
          <octave>5</octave>
          </pitch>
        <duration>5040</duration>
        <type>eighth</type>
        <stem>down</stem>
        <beam number="1">continue</beam>
        </note>
      <note>
        <pitch>
          <step>G</step>
          <octave>4</octave>
          </pitch>
        <duration>5040</duration>
        <type>eighth</type>
        <stem>down</stem>
        <beam number="1">end</beam>
        </note>
      <note>
        <pitch>
          <step>E</step>
          <octave>4</octave>
          </pitch>
        <duration>5040</duration>
        <type>eighth</type>
        <stem>down</stem>
        <beam number="1">begin</beam>
        </note>
      <note>
        <pitch>
          <step>C</step>
          <alter>0</alter>
          <octave>5</octave>
          </pitch>
        <duration>5040</duration>
        <type>eighth</type>
        <accidental>natural</accidental>
        <stem>down</stem>
        <beam number="1">continue</beam>
        </note>
      <note>
        <pitch>
          <step>G</step>
          <octave>4</octave>
          </pitch>
        <duration>5040</duration>
        <type>eighth</type>
        <stem>down</stem>
        <beam number="1">end</beam>
        </note>
      <note>
        <pitch>
          <step>E</step>
          <octave>4</octave>
          </pitch>
        <duration>5040</duration>
        <type>eighth</type>
        <stem>down</stem>
        <beam number="1">begin</beam>
        </note>
      <note>
        <pitch>
          <step>C</step>
          <octave>5</octave>
          </pitch>
        <duration>5040</duration>
        <type>eighth</type>
        <stem>down</stem>
        <beam number="1">continue</beam>
        </note>
      <note>
        <pitch>
          <step>G</step>
          <octave>4</octave>
          </pitch>
        <duration>5040</duration>
        <type>eighth</type>
        <stem>down</stem>
        <beam number="1">end</beam>
        </note>
      </measure>
    <measure number="197" width="292.48">
      <attributes />
      <note>
        <pitch>
          <step>A</step>
          <octave>4</octave>
          </pitch>
        <duration>5040</duration>
        <type>eighth</type>
        <stem>down</stem>
        <beam number="1">begin</beam>
        </note>
      <note>
        <pitch>
          <step>F</step>
          <octave>5</octave>
          </pitch>
        <duration>5040</duration>
        <type>eighth</type>
        <stem>down</stem>
        <beam number="1">continue</beam>
        </note>
      <note>
        <pitch>
          <step>C</step>
          <octave>5</octave>
          </pitch>
        <duration>5040</duration>
        <type>eighth</type>
        <stem>down</stem>
        <beam number="1">end</beam>
        </note>
      <note>
        <pitch>
          <step>A</step>
          <octave>4</octave>
          </pitch>
        <duration>5040</duration>
        <type>eighth</type>
        <stem>down</stem>
        <beam number="1">begin</beam>
        </note>
      <note>
        <pitch>
          <step>F</step>
          <octave>5</octave>
          </pitch>
        <duration>5040</duration>
        <type>eighth</type>
        <stem>down</stem>
        <beam number="1">continue</beam>
        </note>
      <note>
        <pitch>
          <step>C</step>
          <octave>5</octave>
          </pitch>
        <duration>5040</duration>
        <type>eighth</type>
        <stem>down</stem>
        <beam number="1">end</beam>
        </note>
      <note>
        <pitch>
          <step>D</step>
          <octave>5</octave>
          </pitch>
        <duration>5040</duration>
        <type>eighth</type>
        <stem>down</stem>
        <beam number="1">begin</beam>
        </note>
      <note>
        <pitch>
          <step>F</step>
          <octave>5</octave>
          </pitch>
        <duration>5040</duration>
        <type>eighth</type>
        <stem>down</stem>
        <beam number="1">continue</beam>
        </note>
      <note>
        <pitch>
          <step>D</step>
          <octave>5</octave>
          </pitch>
        <duration>5040</duration>
        <type>eighth</type>
        <stem>down</stem>
        <beam number="1">end</beam>
        </note>
      <note>
        <pitch>
          <step>B</step>
          <alter>-1</alter>
          <octave>4</octave>
          </pitch>
        <duration>5040</duration>
        <type>eighth</type>
        <accidental>flat</accidental>
        <stem>down</stem>
        <beam number="1">begin</beam>
        </note>
      <note>
        <pitch>
          <step>D</step>
          <octave>5</octave>
          </pitch>
        <duration>5040</duration>
        <type>eighth</type>
        <stem>down</stem>
        <beam number="1">continue</beam>
        </note>
      <note>
        <pitch>
          <step>B</step>
          <alter>-1</alter>
          <octave>4</octave>
          </pitch>
        <duration>5040</duration>
        <type>eighth</type>
        <accidental>flat</accidental>
        <stem>down</stem>
        <beam number="1">end</beam>
        </note>
      </measure>
    <measure number="198" width="387.63">
      <print new-system="yes">
        <system-layout>
          <system-margins>
            <left-margin>21</left-margin>
            <right-margin>0</right-margin>
            </system-margins>
          <system-distance>100.74</system-distance>
          </system-layout>
        </print>
      <attributes />
      <note>
        <pitch>
          <step>G</step>
          <octave>4</octave>
          </pitch>
        <duration>5040</duration>
        <type>eighth</type>
        <stem>down</stem>
        <beam number="1">begin</beam>
        </note>
      <note>
        <pitch>
          <step>B</step>
          <alter>-1</alter>
          <octave>4</octave>
          </pitch>
        <duration>5040</duration>
        <type>eighth</type>
        <accidental>flat</accidental>
        <stem>down</stem>
        <beam number="1">continue</beam>
        </note>
      <note>
        <pitch>
          <step>G</step>
          <octave>4</octave>
          </pitch>
        <duration>5040</duration>
        <type>eighth</type>
        <stem>down</stem>
        <beam number="1">end</beam>
        </note>
      <note>
        <pitch>
          <step>E</step>
          <octave>4</octave>
          </pitch>
        <duration>5040</duration>
        <type>eighth</type>
        <stem>down</stem>
        <beam number="1">begin</beam>
        </note>
      <note>
        <pitch>
          <step>G</step>
          <octave>4</octave>
          </pitch>
        <duration>5040</duration>
        <type>eighth</type>
        <stem>down</stem>
        <beam number="1">continue</beam>
        </note>
      <note>
        <pitch>
          <step>E</step>
          <octave>4</octave>
          </pitch>
        <duration>5040</duration>
        <type>eighth</type>
        <stem>down</stem>
        <beam number="1">end</beam>
        </note>
      <note>
        <pitch>
          <step>C</step>
          <octave>4</octave>
          </pitch>
        <duration>5040</duration>
        <type>eighth</type>
        <stem>up</stem>
        <beam number="1">begin</beam>
        </note>
      <note>
        <pitch>
          <step>E</step>
          <octave>4</octave>
          </pitch>
        <duration>5040</duration>
        <type>eighth</type>
        <stem>up</stem>
        <beam number="1">continue</beam>
        </note>
      <note>
        <pitch>
          <step>G</step>
          <octave>4</octave>
          </pitch>
        <duration>5040</duration>
        <type>eighth</type>
        <stem>up</stem>
        <beam number="1">end</beam>
        </note>
      <note>
        <pitch>
          <step>B</step>
          <alter>-1</alter>
          <octave>4</octave>
          </pitch>
        <duration>5040</duration>
        <type>eighth</type>
        <accidental>flat</accidental>
        <stem>down</stem>
        <beam number="1">begin</beam>
        </note>
      <note>
        <pitch>
          <step>G</step>
          <octave>4</octave>
          </pitch>
        <duration>5040</duration>
        <type>eighth</type>
        <stem>down</stem>
        <beam number="1">continue</beam>
        </note>
      <note>
        <pitch>
          <step>E</step>
          <octave>4</octave>
          </pitch>
        <duration>5040</duration>
        <type>eighth</type>
        <stem>down</stem>
        <beam number="1">end</beam>
        </note>
      </measure>
    <measure number="199" width="334.27">
      <attributes />
      <note>
        <pitch>
          <step>C</step>
          <octave>4</octave>
          </pitch>
        <duration>5040</duration>
        <type>eighth</type>
        <stem>up</stem>
        <beam number="1">begin</beam>
        </note>
      <note>
        <pitch>
          <step>E</step>
          <octave>4</octave>
          </pitch>
        <duration>5040</duration>
        <type>eighth</type>
        <stem>up</stem>
        <beam number="1">continue</beam>
        </note>
      <note>
        <pitch>
          <step>G</step>
          <octave>4</octave>
          </pitch>
        <duration>5040</duration>
        <type>eighth</type>
        <stem>up</stem>
        <beam number="1">end</beam>
        </note>
      <note>
        <pitch>
          <step>B</step>
          <alter>-1</alter>
          <octave>4</octave>
          </pitch>
        <duration>5040</duration>
        <type>eighth</type>
        <accidental>flat</accidental>
        <stem>down</stem>
        <beam number="1">begin</beam>
        </note>
      <note>
        <pitch>
          <step>G</step>
          <octave>4</octave>
          </pitch>
        <duration>5040</duration>
        <type>eighth</type>
        <stem>down</stem>
        <beam number="1">continue</beam>
        </note>
      <note>
        <pitch>
          <step>E</step>
          <octave>4</octave>
          </pitch>
        <duration>5040</duration>
        <type>eighth</type>
        <stem>down</stem>
        <beam number="1">end</beam>
        </note>
      <note>
        <pitch>
          <step>C</step>
          <octave>4</octave>
          </pitch>
        <duration>5040</duration>
        <type>eighth</type>
        <stem>up</stem>
        <beam number="1">begin</beam>
        </note>
      <note>
        <pitch>
          <step>E</step>
          <octave>4</octave>
          </pitch>
        <duration>5040</duration>
        <type>eighth</type>
        <stem>up</stem>
        <beam number="1">continue</beam>
        </note>
      <note>
        <pitch>
          <step>G</step>
          <octave>4</octave>
          </pitch>
        <duration>5040</duration>
        <type>eighth</type>
        <stem>up</stem>
        <beam number="1">end</beam>
        </note>
      <note>
        <pitch>
          <step>B</step>
          <alter>-1</alter>
          <octave>4</octave>
          </pitch>
        <duration>5040</duration>
        <type>eighth</type>
        <accidental>flat</accidental>
        <stem>down</stem>
        <beam number="1">begin</beam>
        </note>
      <note>
        <pitch>
          <step>G</step>
          <octave>4</octave>
          </pitch>
        <duration>5040</duration>
        <type>eighth</type>
        <stem>down</stem>
        <beam number="1">continue</beam>
        </note>
      <note>
        <pitch>
          <step>E</step>
          <octave>4</octave>
          </pitch>
        <duration>5040</duration>
        <type>eighth</type>
        <stem>down</stem>
        <beam number="1">end</beam>
        </note>
      </measure>
    <measure number="200" width="334.27">
      <attributes />
      <note>
        <pitch>
          <step>C</step>
          <octave>5</octave>
          </pitch>
        <duration>5040</duration>
        <type>eighth</type>
        <stem>down</stem>
        <beam number="1">begin</beam>
        </note>
      <note>
        <pitch>
          <step>B</step>
          <alter>-1</alter>
          <octave>4</octave>
          </pitch>
        <duration>5040</duration>
        <type>eighth</type>
        <accidental>flat</accidental>
        <stem>down</stem>
        <beam number="1">continue</beam>
        </note>
      <note>
        <pitch>
          <step>A</step>
          <octave>4</octave>
          </pitch>
        <duration>5040</duration>
        <type>eighth</type>
        <stem>down</stem>
        <beam number="1">end</beam>
        </note>
      <note>
        <pitch>
          <step>G</step>
          <octave>4</octave>
          </pitch>
        <duration>5040</duration>
        <type>eighth</type>
        <stem>down</stem>
        <beam number="1">begin</beam>
        </note>
      <note>
        <pitch>
          <step>F</step>
          <octave>4</octave>
          </pitch>
        <duration>5040</duration>
        <type>eighth</type>
        <stem>down</stem>
        <beam number="1">continue</beam>
        </note>
      <note>
        <pitch>
          <step>E</step>
          <octave>4</octave>
          </pitch>
        <duration>5040</duration>
        <type>eighth</type>
        <stem>down</stem>
        <beam number="1">end</beam>
        </note>
      <note>
        <pitch>
          <step>F</step>
          <octave>4</octave>
          </pitch>
        <duration>5040</duration>
        <type>eighth</type>
        <stem>down</stem>
        <beam number="1">begin</beam>
        </note>
      <note>
        <pitch>
          <step>A</step>
          <octave>4</octave>
          </pitch>
        <duration>5040</duration>
        <type>eighth</type>
        <stem>down</stem>
        <beam number="1">continue</beam>
        </note>
      <note>
        <pitch>
          <step>C</step>
          <octave>5</octave>
          </pitch>
        <duration>5040</duration>
        <type>eighth</type>
        <stem>down</stem>
        <beam number="1">end</beam>
        </note>
      <note>
        <pitch>
          <step>F</step>
          <octave>5</octave>
          </pitch>
        <duration>5040</duration>
        <type>eighth</type>
        <stem>down</stem>
        <beam number="1">begin</beam>
        </note>
      <note>
        <pitch>
          <step>C</step>
          <octave>5</octave>
          </pitch>
        <duration>5040</duration>
        <type>eighth</type>
        <stem>down</stem>
        <beam number="1">continue</beam>
        </note>
      <note>
        <pitch>
          <step>A</step>
          <octave>4</octave>
          </pitch>
        <duration>5040</duration>
        <type>eighth</type>
        <stem>down</stem>
        <beam number="1">end</beam>
        </note>
      </measure>
    </part>
  <part id="Pc51a9b9af00a68e17d2368251cb54d32">
    <measure number="193" width="336.58">
      <attributes>
        <divisions>10080</divisions>
        <key>
          <fifths>-1</fifths>
          </key>
        <time>
          <beats>12</beats>
          <beat-type>8</beat-type>
          </time>
        <clef>
          <sign>F</sign>
          <line>4</line>
          </clef>
        </attributes>
      <note>
        <pitch>
          <step>D</step>
          <octave>2</octave>
          </pitch>
        <duration>15120</duration>
        <type>quarter</type>
        <dot />
        <stem>up</stem>
        </note>
      <note>
        <chord />
        <pitch>
          <step>D</step>
          <octave>3</octave>
          </pitch>
        <duration>15120</duration>
        <type>quarter</type>
        <dot />
        <stem>up</stem>
        </note>
      <note>
        <pitch>
          <step>A</step>
          <octave>2</octave>
          </pitch>
        <duration>15120</duration>
        <type>quarter</type>
        <dot />
        <stem>down</stem>
        </note>
      <note>
        <chord />
        <pitch>
          <step>E</step>
          <octave>3</octave>
          </pitch>
        <duration>15120</duration>
        <type>quarter</type>
        <dot />
        <stem>down</stem>
        </note>
      <note>
        <pitch>
          <step>D</step>
          <octave>3</octave>
          </pitch>
        <duration>15120</duration>
        <type>quarter</type>
        <dot />
        <stem>down</stem>
        </note>
      <note>
        <chord />
        <pitch>
          <step>F</step>
          <octave>3</octave>
          </pitch>
        <duration>15120</duration>
        <type>quarter</type>
        <dot />
        <stem>down</stem>
        </note>
      <note>
        <pitch>
          <step>A</step>
          <octave>2</octave>
          </pitch>
        <duration>15120</duration>
        <type>quarter</type>
        <dot />
        <stem>down</stem>
        </note>
      <note>
        <chord />
        <pitch>
          <step>E</step>
          <octave>3</octave>
          </pitch>
        <duration>15120</duration>
        <type>quarter</type>
        <dot />
        <stem>down</stem>
        </note>
      </measure>
    <measure number="194" width="330.81">
      <attributes />
      <note>
        <pitch>
          <step>D</step>
          <octave>2</octave>
          </pitch>
        <duration>15120</duration>
        <type>quarter</type>
        <dot />
        <stem>up</stem>
        </note>
      <note>
        <chord />
        <pitch>
          <step>D</step>
          <octave>3</octave>
          </pitch>
        <duration>15120</duration>
        <type>quarter</type>
        <dot />
        <stem>up</stem>
        </note>
      <note>
        <pitch>
          <step>A</step>
          <octave>2</octave>
          </pitch>
        <duration>15120</duration>
        <type>quarter</type>
        <dot />
        <stem>down</stem>
        </note>
      <note>
        <chord />
        <pitch>
          <step>E</step>
          <octave>3</octave>
          </pitch>
        <duration>15120</duration>
        <type>quarter</type>
        <dot />
        <stem>down</stem>
        </note>
      <note>
        <pitch>
          <step>F</step>
          <octave>2</octave>
          </pitch>
        <duration>15120</duration>
        <type>quarter</type>
        <dot />
        <stem>down</stem>
        </note>
      <note>
        <chord />
        <pitch>
          <step>A</step>
          <octave>2</octave>
          </pitch>
        <duration>15120</duration>
        <type>quarter</type>
        <dot />
        <stem>down</stem>
        </note>
      <note>
        <chord />
        <pitch>
          <step>D</step>
          <octave>3</octave>
          </pitch>
        <duration>15120</duration>
        <type>quarter</type>
        <dot />
        <stem>down</stem>
        </note>
      <note>
        <pitch>
          <step>G</step>
          <octave>2</octave>
          </pitch>
        <duration>15120</duration>
        <type>quarter</type>
        <dot />
        <stem>down</stem>
        </note>
      <note>
        <chord />
        <pitch>
          <step>B</step>
          <alter>-1</alter>
          <octave>2</octave>
          </pitch>
        <duration>15120</duration>
        <type>quarter</type>
        <dot />
        <accidental>flat</accidental>
        <stem>down</stem>
        </note>
      <note>
        <chord />
        <pitch>
          <step>E</step>
          <octave>3</octave>
          </pitch>
        <duration>15120</duration>
        <type>quarter</type>
        <dot />
        <stem>down</stem>
        </note>
      </measure>
    <measure number="195" width="471.2">
      <print new-system="yes">
        <system-layout>
          <system-margins>
            <left-margin>21</left-margin>
            <right-margin>0</right-margin>
            </system-margins>
          <system-distance>100.74</system-distance>
          </system-layout>
        <staff-layout number="2">
          <staff-distance>65</staff-distance>
          </staff-layout>
        </print>
      <attributes>
        <staff-details print-object="yes" />
        </attributes>
      <note>
        <pitch>
          <step>A</step>
          <octave>2</octave>
          </pitch>
        <duration>15120</duration>
        <type>quarter</type>
        <dot />
        <stem>down</stem>
        </note>
      <note>
        <chord />
        <pitch>
          <step>E</step>
          <octave>3</octave>
          </pitch>
        <duration>15120</duration>
        <type>quarter</type>
        <dot />
        <stem>down</stem>
        </note>
      <note>
        <pitch>
          <step>A</step>
          <octave>2</octave>
          </pitch>
        <duration>15120</duration>
        <type>quarter</type>
        <dot />
        <stem>down</stem>
        </note>
      <note>
        <chord />
        <pitch>
          <step>C</step>
          <alter>1</alter>
          <octave>3</octave>
          </pitch>
        <duration>15120</duration>
        <type>quarter</type>
        <dot />
        <accidental>sharp</accidental>
        <stem>down</stem>
        </note>
      <note>
        <pitch>
          <step>F</step>
          <alter>1</alter>
          <octave>2</octave>
          </pitch>
        <duration>15120</duration>
        <type>quarter</type>
        <dot />
        <accidental>sharp</accidental>
        <stem>down</stem>
        </note>
      <note>
        <chord />
        <pitch>
          <step>A</step>
          <octave>2</octave>
          </pitch>
        <duration>15120</duration>
        <type>quarter</type>
        <dot />
        <stem>down</stem>
        </note>
      <note>
        <chord />
        <pitch>
          <step>D</step>
          <octave>3</octave>
          </pitch>
        <duration>15120</duration>
        <type>quarter</type>
        <dot />
        <stem>down</stem>
        </note>
      <note>
        <pitch>
          <step>D</step>
          <octave>2</octave>
          </pitch>
        <duration>15120</duration>
        <type>quarter</type>
        <dot />
        <stem>up</stem>
        </note>
      <note>
        <chord />
        <pitch>
          <step>A</step>
          <octave>2</octave>
          </pitch>
        <duration>15120</duration>
        <type>quarter</type>
        <dot />
        <stem>up</stem>
        </note>
      <note>
        <chord />
        <pitch>
          <step>D</step>
          <octave>3</octave>
          </pitch>
        <duration>15120</duration>
        <type>quarter</type>
        <dot />
        <stem>up</stem>
        </note>
      </measure>
    <measure number="196" width="292.48">
      <attributes />
      <note>
        <pitch>
          <step>G</step>
          <octave>2</octave>
          </pitch>
        <duration>15120</duration>
        <type>quarter</type>
        <dot />
        <stem>down</stem>
        </note>
      <note>
        <chord />
        <pitch>
          <step>D</step>
          <octave>3</octave>
          </pitch>
        <duration>15120</duration>
        <type>quarter</type>
        <dot />
        <stem>down</stem>
        </note>
      <note>
        <pitch>
          <step>B</step>
          <alter>-1</alter>
          <octave>2</octave>
          </pitch>
        <duration>15120</duration>
        <type>quarter</type>
        <dot />
        <accidental>flat</accidental>
        <stem>down</stem>
        </note>
      <note>
        <chord />
        <pitch>
          <step>D</step>
          <octave>3</octave>
          </pitch>
        <duration>15120</duration>
        <type>quarter</type>
        <dot />
        <stem>down</stem>
        </note>
      <note>
        <pitch>
          <step>C</step>
          <alter>0</alter>
          <octave>3</octave>
          </pitch>
        <duration>15120</duration>
        <type>quarter</type>
        <dot />
        <accidental>natural</accidental>
        <stem>down</stem>
        </note>
      <note>
        <chord />
        <pitch>
          <step>G</step>
          <octave>3</octave>
          </pitch>
        <duration>15120</duration>
        <type>quarter</type>
        <dot />
        <stem>down</stem>
        </note>
      <note>
        <pitch>
          <step>C</step>
          <octave>3</octave>
          </pitch>
        <duration>15120</duration>
        <type>quarter</type>
        <dot />
        <stem>down</stem>
        </note>
      <note>
        <chord />
        <pitch>
          <step>G</step>
          <octave>3</octave>
          </pitch>
        <duration>15120</duration>
        <type>quarter</type>
        <dot />
        <stem>down</stem>
        </note>
      </measure>
    <measure number="197" width="292.48">
      <attributes />
      <note>
        <pitch>
          <step>F</step>
          <octave>2</octave>
          </pitch>
        <duration>15120</duration>
        <type>quarter</type>
        <dot />
        <stem>down</stem>
        </note>
      <note>
        <chord />
        <pitch>
          <step>C</step>
          <octave>3</octave>
          </pitch>
        <duration>15120</duration>
        <type>quarter</type>
        <dot />
        <stem>down</stem>
        </note>
      <note>
        <chord />
        <pitch>
          <step>F</step>
          <octave>3</octave>
          </pitch>
        <duration>15120</duration>
        <type>quarter</type>
        <dot />
        <stem>down</stem>
        </note>
      <note>
        <pitch>
          <step>F</step>
          <octave>2</octave>
          </pitch>
        <duration>15120</duration>
        <type>quarter</type>
        <dot />
        <stem>down</stem>
        </note>
      <note>
        <chord />
        <pitch>
          <step>C</step>
          <octave>3</octave>
          </pitch>
        <duration>15120</duration>
        <type>quarter</type>
        <dot />
        <stem>down</stem>
        </note>
      <note>
        <chord />
        <pitch>
          <step>F</step>
          <octave>3</octave>
          </pitch>
        <duration>15120</duration>
        <type>quarter</type>
        <dot />
        <stem>down</stem>
        </note>
      <note>
        <pitch>
          <step>B</step>
          <alter>-1</alter>
          <octave>2</octave>
          </pitch>
        <duration>15120</duration>
        <type>quarter</type>
        <dot />
        <accidental>flat</accidental>
        <stem>down</stem>
        </note>
      <note>
        <chord />
        <pitch>
          <step>F</step>
          <octave>3</octave>
          </pitch>
        <duration>15120</duration>
        <type>quarter</type>
        <dot />
        <stem>down</stem>
        </note>
      <note>
        <pitch>
          <step>D</step>
          <octave>3</octave>
          </pitch>
        <duration>15120</duration>
        <type>quarter</type>
        <dot />
        <stem>down</stem>
        </note>
      <note>
        <chord />
        <pitch>
          <step>F</step>
          <octave>3</octave>
          </pitch>
        <duration>15120</duration>
        <type>quarter</type>
        <dot />
        <stem>down</stem>
        </note>
      </measure>
    <measure number="198" width="387.63">
      <print new-system="yes">
        <system-layout>
          <system-margins>
            <left-margin>21</left-margin>
            <right-margin>0</right-margin>
            </system-margins>
          <system-distance>100.74</system-distance>
          </system-layout>
        <staff-layout number="2">
          <staff-distance>65</staff-distance>
          </staff-layout>
        </print>
      <attributes>
        <staff-details print-object="yes" />
        </attributes>
      <note>
        <pitch>
          <step>B</step>
          <alter>-1</alter>
          <octave>2</octave>
          </pitch>
        <duration>15120</duration>
        <type>quarter</type>
        <dot />
        <accidental>flat</accidental>
        <stem>down</stem>
        </note>
      <note>
        <chord />
        <pitch>
          <step>D</step>
          <octave>3</octave>
          </pitch>
        <duration>15120</duration>
        <type>quarter</type>
        <dot />
        <stem>down</stem>
        </note>
      <note>
        <chord />
        <pitch>
          <step>G</step>
          <octave>3</octave>
          </pitch>
        <duration>15120</duration>
        <type>quarter</type>
        <dot />
        <stem>down</stem>
        </note>
      <note>
        <pitch>
          <step>G</step>
          <octave>2</octave>
          </pitch>
        <duration>15120</duration>
        <type>quarter</type>
        <dot />
        <stem>down</stem>
        </note>
      <note>
        <chord />
        <pitch>
          <step>B</step>
          <alter>-1</alter>
          <octave>2</octave>
          </pitch>
        <duration>15120</duration>
        <type>quarter</type>
        <dot />
        <accidental>flat</accidental>
        <stem>down</stem>
        </note>
      <note>
        <chord />
        <pitch>
          <step>G</step>
          <octave>3</octave>
          </pitch>
        <duration>15120</duration>
        <type>quarter</type>
        <dot />
        <stem>down</stem>
        </note>
      <note>
        <pitch>
          <step>C</step>
          <octave>3</octave>
          </pitch>
        <duration>15120</duration>
        <type>quarter</type>
        <dot />
        <stem>down</stem>
        </note>
      <note>
        <chord />
        <pitch>
          <step>E</step>
          <octave>3</octave>
          </pitch>
        <duration>15120</duration>
        <type>quarter</type>
        <dot />
        <stem>down</stem>
        </note>
      <note>
        <chord />
        <pitch>
          <step>G</step>
          <octave>3</octave>
          </pitch>
        <duration>15120</duration>
        <type>quarter</type>
        <dot />
        <stem>down</stem>
        </note>
      <note>
        <pitch>
          <step>C</step>
          <octave>3</octave>
          </pitch>
        <duration>15120</duration>
        <type>quarter</type>
        <dot />
        <stem>down</stem>
        </note>
      <note>
        <chord />
        <pitch>
          <step>E</step>
          <octave>3</octave>
          </pitch>
        <duration>15120</duration>
        <type>quarter</type>
        <dot />
        <stem>down</stem>
        </note>
      <note>
        <chord />
        <pitch>
          <step>G</step>
          <octave>3</octave>
          </pitch>
        <duration>15120</duration>
        <type>quarter</type>
        <dot />
        <stem>down</stem>
        </note>
      </measure>
    <measure number="199" width="334.27">
      <attributes />
      <note>
        <pitch>
          <step>C</step>
          <octave>3</octave>
          </pitch>
        <duration>15120</duration>
        <type>quarter</type>
        <dot />
        <stem>down</stem>
        </note>
      <note>
        <chord />
        <pitch>
          <step>E</step>
          <octave>3</octave>
          </pitch>
        <duration>15120</duration>
        <type>quarter</type>
        <dot />
        <stem>down</stem>
        </note>
      <note>
        <chord />
        <pitch>
          <step>G</step>
          <octave>3</octave>
          </pitch>
        <duration>15120</duration>
        <type>quarter</type>
        <dot />
        <stem>down</stem>
        </note>
      <note>
        <pitch>
          <step>C</step>
          <octave>3</octave>
          </pitch>
        <duration>15120</duration>
        <type>quarter</type>
        <dot />
        <stem>down</stem>
        </note>
      <note>
        <chord />
        <pitch>
          <step>E</step>
          <octave>3</octave>
          </pitch>
        <duration>15120</duration>
        <type>quarter</type>
        <dot />
        <stem>down</stem>
        </note>
      <note>
        <chord />
        <pitch>
          <step>G</step>
          <octave>3</octave>
          </pitch>
        <duration>15120</duration>
        <type>quarter</type>
        <dot />
        <stem>down</stem>
        </note>
      <note>
        <pitch>
          <step>C</step>
          <octave>3</octave>
          </pitch>
        <duration>15120</duration>
        <type>quarter</type>
        <dot />
        <stem>down</stem>
        </note>
      <note>
        <chord />
        <pitch>
          <step>E</step>
          <octave>3</octave>
          </pitch>
        <duration>15120</duration>
        <type>quarter</type>
        <dot />
        <stem>down</stem>
        </note>
      <note>
        <chord />
        <pitch>
          <step>G</step>
          <octave>3</octave>
          </pitch>
        <duration>15120</duration>
        <type>quarter</type>
        <dot />
        <stem>down</stem>
        </note>
      <note>
        <pitch>
          <step>C</step>
          <octave>3</octave>
          </pitch>
        <duration>15120</duration>
        <type>quarter</type>
        <dot />
        <stem>down</stem>
        </note>
      <note>
        <chord />
        <pitch>
          <step>E</step>
          <octave>3</octave>
          </pitch>
        <duration>15120</duration>
        <type>quarter</type>
        <dot />
        <stem>down</stem>
        </note>
      <note>
        <chord />
        <pitch>
          <step>G</step>
          <octave>3</octave>
          </pitch>
        <duration>15120</duration>
        <type>quarter</type>
        <dot />
        <stem>down</stem>
        </note>
      </measure>
    <measure number="200" width="334.27">
      <attributes />
      <note>
        <pitch>
          <step>F</step>
          <octave>3</octave>
          </pitch>
        <duration>15120</duration>
        <type>quarter</type>
        <dot />
        <stem>down</stem>
        </note>
      <note>
        <chord />
        <pitch>
          <step>A</step>
          <octave>3</octave>
          </pitch>
        <duration>15120</duration>
        <type>quarter</type>
        <dot />
        <stem>down</stem>
        </note>
      <note>
        <pitch>
          <step>C</step>
          <octave>3</octave>
          </pitch>
        <duration>15120</duration>
        <type>quarter</type>
        <dot />
        <stem>down</stem>
        </note>
      <note>
        <chord />
        <pitch>
          <step>E</step>
          <octave>3</octave>
          </pitch>
        <duration>15120</duration>
        <type>quarter</type>
        <dot />
        <stem>down</stem>
        </note>
      <note>
        <chord />
        <pitch>
          <step>B</step>
          <alter>-1</alter>
          <octave>3</octave>
          </pitch>
        <duration>15120</duration>
        <type>quarter</type>
        <dot />
        <accidental>flat</accidental>
        <stem>down</stem>
        </note>
      <note>
        <pitch>
          <step>F</step>
          <octave>3</octave>
          </pitch>
        <duration>15120</duration>
        <type>quarter</type>
        <dot />
        <stem>down</stem>
        </note>
      <note>
        <chord />
        <pitch>
          <step>A</step>
          <octave>3</octave>
          </pitch>
        <duration>15120</duration>
        <type>quarter</type>
        <dot />
        <stem>down</stem>
        </note>
      <note>
        <pitch>
          <step>F</step>
          <octave>3</octave>
          </pitch>
        <duration>15120</duration>
        <type>quarter</type>
        <dot />
        <stem>down</stem>
        </note>
      <note>
        <chord />
        <pitch>
          <step>A</step>
          <octave>3</octave>
          </pitch>
        <duration>15120</duration>
        <type>quarter</type>
        <dot />
        <stem>down</stem>
        </note>
      </measure>
    </part>
  </score-partwise>
