<?xml version="1.0" encoding="utf-8"?>
<!DOCTYPE score-partwise
  PUBLIC '-//Recordare//DTD MusicXML 2.0 Partwise//EN'
  'http://www.musicxml.org/dtds/partwise.dtd'>
<score-partwise>
  <work>
    <work-title>mxcap1166.xml</work-title>
    </work>
  <movement-title>mxcap1166.xml</movement-title>
  <identification>
    <creator type="composer">Music21</creator>
    <encoding>
      <encoding-date>2018-01-04</encoding-date>
      <software>Music21</software>
      <supports attribute="new-system" element="print" type="yes" value="yes" />
      <supports attribute="new-page" element="print" type="yes" value="yes" />
      </encoding>
    </identification>
  <defaults>
    <scaling>
      <millimeters>7</millimeters>
      <tenths>40</tenths>
      </scaling>
    </defaults>
  <part-list>
    <score-part id="P1">
      <part-name>Piano, (ohne Bezeichnung)</part-name>
      <part-abbreviation>Pno.</part-abbreviation>
      <score-instrument id="Ic648d428f5d8829d61bf0ce0ddab97d7">
        <instrument-name>Piano</instrument-name>
        </score-instrument>
      <midi-instrument id="Ic648d428f5d8829d61bf0ce0ddab97d7">
        <midi-channel>1</midi-channel>
        <midi-program>2</midi-program>
        </midi-instrument>
      </score-part>
    <score-part id="P9ae998ade3e0727598265be5f6ecfdf4">
      <part-name>Piano, (ohne Bezeichnung)</part-name>
      <part-abbreviation>Pno.</part-abbreviation>
      <score-instrument id="I21a6132b6c617dff02aa53634b53eebe">
        <instrument-name>Piano</instrument-name>
        </score-instrument>
      <midi-instrument id="I21a6132b6c617dff02aa53634b53eebe">
        <midi-channel>2</midi-channel>
        <midi-program>2</midi-program>
        </midi-instrument>
      </score-part>
    <score-part id="P2">
      <part-name>Piano</part-name>
      <part-abbreviation>Pno.</part-abbreviation>
      <score-instrument id="I77b9099ce965c67078ca875ba4104c05">
        <instrument-name>Piano</instrument-name>
        </score-instrument>
      <midi-instrument id="I77b9099ce965c67078ca875ba4104c05">
        <midi-channel>3</midi-channel>
        <midi-program>2</midi-program>
        </midi-instrument>
      </score-part>
    <score-part id="P3">
      <part-name>Piano, (ohne Bezeichnung)</part-name>
      <part-abbreviation>Pno.</part-abbreviation>
      <score-instrument id="I58e84ba491680cdc31504a868ed87993">
        <instrument-name>Piano</instrument-name>
        </score-instrument>
      <midi-instrument id="I58e84ba491680cdc31504a868ed87993">
        <midi-channel>4</midi-channel>
        <midi-program>2</midi-program>
        </midi-instrument>
      </score-part>
    <score-part id="P4">
      <part-name>Piano</part-name>
      <part-abbreviation>Pno.</part-abbreviation>
      <score-instrument id="I8fe9e232f67564bd077548f830a7a73a">
        <instrument-name>Piano</instrument-name>
        </score-instrument>
      <midi-instrument id="I8fe9e232f67564bd077548f830a7a73a">
        <midi-channel>5</midi-channel>
        <midi-program>2</midi-program>
        </midi-instrument>
      </score-part>
    <score-part id="P5">
      <part-name>Piano, (ohne Bezeichnung)</part-name>
      <part-abbreviation>Pno.</part-abbreviation>
      <score-instrument id="Ie368a7160a9e218d69a1f133af6ea9c2">
        <instrument-name>Piano</instrument-name>
        </score-instrument>
      <midi-instrument id="Ie368a7160a9e218d69a1f133af6ea9c2">
        <midi-channel>6</midi-channel>
        <midi-program>2</midi-program>
        </midi-instrument>
      </score-part>
    <score-part id="P6">
      <part-name>Piano</part-name>
      <part-abbreviation>Pno.</part-abbreviation>
      <score-instrument id="I032117433cf4cddbb3e6dde3dfb184fa">
        <instrument-name>Piano</instrument-name>
        </score-instrument>
      <midi-instrument id="I032117433cf4cddbb3e6dde3dfb184fa">
        <midi-channel>7</midi-channel>
        <midi-program>2</midi-program>
        </midi-instrument>
      </score-part>
    </part-list>
  <part id="P1">
    <measure number="33" width="351.32">
      <print new-page="yes">
        <system-layout>
          <system-margins>
            <left-margin>74.31</left-margin>
            <right-margin>0</right-margin>
            </system-margins>
          <top-system-distance>70</top-system-distance>
          </system-layout>
        </print>
      <attributes>
        <divisions>10080</divisions>
        <key>
          <fifths>-1</fifths>
          </key>
        <time>
          <beats>3</beats>
          <beat-type>2</beat-type>
          </time>
        <clef>
          <sign>G</sign>
          <line>2</line>
          </clef>
        </attributes>
      <note>
        <rest measure="yes" />
        <duration>60480</duration>
        </note>
      </measure>
    <measure number="34" width="310.71">
      <attributes />
      <note>
        <rest measure="yes" />
        <duration>60480</duration>
        </note>
      </measure>
    <measure number="35" width="340.82">
      <attributes />
      <note>
        <rest measure="yes" />
        <duration>60480</duration>
        </note>
      </measure>
    <measure number="36" width="553.68">
      <print new-page="yes">
        <system-layout>
          <system-margins>
            <left-margin>74.31</left-margin>
            <right-margin>0</right-margin>
            </system-margins>
          <top-system-distance>70</top-system-distance>
          </system-layout>
        </print>
      <attributes />
      <note>
        <rest measure="yes" />
        <duration>60480</duration>
        </note>
      </measure>
    <measure number="37" width="449.17">
      <attributes />
      <note>
        <rest measure="yes" />
        <duration>60480</duration>
        </note>
      </measure>
    <measure number="38" width="582.3">
      <print new-page="yes">
        <system-layout>
          <system-margins>
            <left-margin>74.31</left-margin>
            <right-margin>0</right-margin>
            </system-margins>
          <top-system-distance>70</top-system-distance>
          </system-layout>
        </print>
      <attributes />
      <note>
        <rest measure="yes" />
        <duration>60480</duration>
        </note>
      </measure>
    <measure number="39" width="420.56">
      <attributes />
      <note>
        <rest measure="yes" />
        <duration>60480</duration>
        </note>
      </measure>
    <measure number="40" width="541.43">
      <print new-page="yes">
        <system-layout>
          <system-margins>
            <left-margin>74.31</left-margin>
            <right-margin>0</right-margin>
            </system-margins>
          <top-system-distance>70</top-system-distance>
          </system-layout>
        </print>
      <attributes />
      <note>
        <rest measure="yes" />
        <duration>60480</duration>
        </note>
      </measure>
    </part>
  <part id="P9ae998ade3e0727598265be5f6ecfdf4">
    <measure number="33" width="351.32">
      <print new-page="yes">
        <system-layout>
          <system-margins>
            <left-margin>74.31</left-margin>
            <right-margin>0</right-margin>
            </system-margins>
          <top-system-distance>70</top-system-distance>
          </system-layout>
        <staff-layout number="2">
          <staff-distance>65</staff-distance>
          </staff-layout>
        </print>
      <attributes>
        <divisions>10080</divisions>
        <key>
          <fifths>-1</fifths>
          </key>
        <time>
          <beats>3</beats>
          <beat-type>2</beat-type>
          </time>
        <clef>
          <sign>G</sign>
          <line>2</line>
          </clef>
        <staff-details print-object="yes" />
        </attributes>
      <note>
        <rest />
        <duration>5040</duration>
        <type>eighth</type>
        </note>
      <note>
        <pitch>
          <step>C</step>
          <alter>1</alter>
          <octave>5</octave>
          </pitch>
        <duration>5040</duration>
        <type>eighth</type>
        <accidental>sharp</accidental>
        <stem>down</stem>
        <beam number="1">begin</beam>
        </note>
      <note>
        <pitch>
          <step>D</step>
          <octave>5</octave>
          </pitch>
        <duration>5040</duration>
        <type>eighth</type>
        <stem>down</stem>
        <beam number="1">continue</beam>
        </note>
      <note>
        <pitch>
          <step>E</step>
          <octave>5</octave>
          </pitch>
        <duration>5040</duration>
        <type>eighth</type>
        <stem>down</stem>
        <beam number="1">end</beam>
        </note>
      <note>
        <pitch>
          <step>D</step>
          <octave>5</octave>
          </pitch>
        <duration>5040</duration>
        <type>eighth</type>
        <stem>down</stem>
        <beam number="1">begin</beam>
        </note>
      <note>
        <pitch>
          <step>C</step>
          <alter>0</alter>
          <octave>5</octave>
          </pitch>
        <duration>5040</duration>
        <type>eighth</type>
        <accidental>natural</accidental>
        <stem>down</stem>
        <beam number="1">continue</beam>
        </note>
      <note>
        <pitch>
          <step>B</step>
          <alter>-1</alter>
          <octave>4</octave>
          </pitch>
        <duration>5040</duration>
        <type>eighth</type>
        <stem>down</stem>
        <beam number="1">continue</beam>
        </note>
      <note>
        <pitch>
          <step>A</step>
          <octave>4</octave>
          </pitch>
        <duration>5040</duration>
        <type>eighth</type>
        <stem>down</stem>
        <beam number="1">end</beam>
        </note>
      <note>
        <pitch>
          <step>B</step>
          <alter>-1</alter>
          <octave>4</octave>
          </pitch>
        <duration>5040</duration>
        <type>eighth</type>
        <stem>up</stem>
        <beam number="1">begin</beam>
        </note>
      <note>
        <pitch>
          <step>A</step>
          <octave>4</octave>
          </pitch>
        <duration>5040</duration>
        <type>eighth</type>
        <stem>up</stem>
        <beam number="1">continue</beam>
        </note>
      <note>
        <pitch>
          <step>G</step>
          <octave>4</octave>
          </pitch>
        <duration>5040</duration>
        <type>eighth</type>
        <stem>up</stem>
        <beam number="1">continue</beam>
        </note>
      <note>
        <pitch>
          <step>F</step>
          <octave>4</octave>
          </pitch>
        <duration>5040</duration>
        <type>eighth</type>
        <stem>up</stem>
        <beam number="1">end</beam>
        </note>
      </measure>
    <measure number="34" width="310.71">
      <attributes />
      <note>
        <pitch>
          <step>G</step>
          <octave>4</octave>
          </pitch>
        <duration>60480</duration>
        <tie type="start" />
        <type>whole</type>
        <dot />
        <notations>
          <tied type="start" />
          </notations>
        </note>
      </measure>
    <measure number="35" width="340.82">
      <attributes />
      <note>
        <pitch>
          <step>G</step>
          <octave>4</octave>
          </pitch>
        <duration>20160</duration>
        <tie type="stop" />
        <type>half</type>
        <stem>up</stem>
        <notations>
          <tied type="stop" />
          </notations>
        </note>
      <note>
        <pitch>
          <step>D</step>
          <octave>4</octave>
          </pitch>
        <duration>40320</duration>
        <tie type="start" />
        <type>whole</type>
        <notations>
          <tied type="start" />
          </notations>
        </note>
      <note>
        <chord />
        <pitch>
          <step>F</step>
          <octave>4</octave>
          </pitch>
        <duration>40320</duration>
        <tie type="start" />
        <type>whole</type>
        <notations>
          <tied type="start" />
          </notations>
        </note>
      </measure>
    <measure number="36" width="553.68">
      <print new-page="yes">
        <system-layout>
          <system-margins>
            <left-margin>74.31</left-margin>
            <right-margin>0</right-margin>
            </system-margins>
          <top-system-distance>70</top-system-distance>
          </system-layout>
        <staff-layout number="2">
          <staff-distance>65</staff-distance>
          </staff-layout>
        </print>
      <attributes>
        <staff-details print-object="yes" />
        </attributes>
      <note>
        <pitch>
          <step>D</step>
          <octave>4</octave>
          </pitch>
        <duration>60480</duration>
        <tie type="stop" />
        <tie type="start" />
        <type>whole</type>
        <dot />
        <notations>
          <tied type="stop" />
          <tied type="start" />
          </notations>
        </note>
      <note>
        <chord />
        <pitch>
          <step>F</step>
          <octave>4</octave>
          </pitch>
        <duration>60480</duration>
        <tie type="stop" />
        <tie type="start" />
        <type>whole</type>
        <dot />
        <notations>
          <tied type="stop" />
          <tied type="start" />
          </notations>
        </note>
      </measure>
    <measure number="37" width="449.17">
      <attributes />
      <note>
        <pitch>
          <step>D</step>
          <octave>4</octave>
          </pitch>
        <duration>20160</duration>
        <tie type="stop" />
        <type>half</type>
        <stem>up</stem>
        <notations>
          <tied type="stop" />
          </notations>
        </note>
      <note>
        <chord />
        <pitch>
          <step>F</step>
          <octave>4</octave>
          </pitch>
        <duration>20160</duration>
        <tie type="stop" />
        <type>half</type>
        <stem>up</stem>
        <notations>
          <tied type="stop" />
          </notations>
        </note>
      <note>
        <rest />
        <duration>20160</duration>
        <type>half</type>
        </note>
      <note>
        <rest />
        <duration>5040</duration>
        <type>eighth</type>
        </note>
      <note>
        <pitch>
          <step>C</step>
          <alter>1</alter>
          <octave>4</octave>
          </pitch>
        <duration>5040</duration>
        <type>eighth</type>
        <accidental>sharp</accidental>
        <stem>up</stem>
        <beam number="1">begin</beam>
        </note>
      <note>
        <pitch>
          <step>D</step>
          <octave>4</octave>
          </pitch>
        <duration>5040</duration>
        <type>eighth</type>
        <stem>up</stem>
        <beam number="1">continue</beam>
        </note>
      <note>
        <pitch>
          <step>E</step>
          <octave>4</octave>
          </pitch>
        <duration>5040</duration>
        <type>eighth</type>
        <stem>up</stem>
        <beam number="1">end</beam>
        </note>
      </measure>
    <measure number="38" width="582.3">
      <print new-page="yes">
        <system-layout>
          <system-margins>
            <left-margin>74.31</left-margin>
            <right-margin>0</right-margin>
            </system-margins>
          <top-system-distance>70</top-system-distance>
          </system-layout>
        <staff-layout number="2">
          <staff-distance>65</staff-distance>
          </staff-layout>
        </print>
      <attributes>
        <staff-details print-object="yes" />
        </attributes>
      <note>
        <pitch>
          <step>C</step>
          <alter>1</alter>
          <octave>4</octave>
          </pitch>
        <duration>5040</duration>
        <type>eighth</type>
        <accidental>sharp</accidental>
        <stem>up</stem>
        <beam number="1">begin</beam>
        </note>
      <note>
        <pitch>
          <step>E</step>
          <octave>4</octave>
          </pitch>
        <duration>5040</duration>
        <type>eighth</type>
        <stem>up</stem>
        <beam number="1">continue</beam>
        </note>
      <note>
        <pitch>
          <step>F</step>
          <octave>4</octave>
          </pitch>
        <duration>5040</duration>
        <type>eighth</type>
        <stem>up</stem>
        <beam number="1">continue</beam>
        </note>
      <note>
        <pitch>
          <step>G</step>
          <octave>4</octave>
          </pitch>
        <duration>5040</duration>
        <type>eighth</type>
        <stem>up</stem>
        <beam number="1">end</beam>
        </note>
      <note>
        <pitch>
          <step>A</step>
          <octave>4</octave>
          </pitch>
        <duration>40320</duration>
        <tie type="start" />
        <type>whole</type>
        <notations>
          <tied type="start" />
          </notations>
        </note>
      </measure>
    <measure number="39" width="420.56">
      <attributes />
      <note>
        <pitch>
          <step>A</step>
          <octave>4</octave>
          </pitch>
        <duration>5040</duration>
        <tie type="stop" />
        <type>eighth</type>
        <stem>up</stem>
        <beam number="1">begin</beam>
        <notations>
          <tied type="stop" />
          </notations>
        </note>
      <note>
        <pitch>
          <step>G</step>
          <octave>4</octave>
          </pitch>
        <duration>5040</duration>
        <type>eighth</type>
        <stem>up</stem>
        <beam number="1">continue</beam>
        </note>
      <note>
        <pitch>
          <step>B</step>
          <alter>-1</alter>
          <octave>4</octave>
          </pitch>
        <duration>5040</duration>
        <type>eighth</type>
        <stem>up</stem>
        <beam number="1">continue</beam>
        </note>
      <note>
        <pitch>
          <step>A</step>
          <octave>4</octave>
          </pitch>
        <duration>5040</duration>
        <type>eighth</type>
        <stem>up</stem>
        <beam number="1">end</beam>
        </note>
      <note>
        <pitch>
          <step>G</step>
          <octave>4</octave>
          </pitch>
        <duration>5040</duration>
        <type>eighth</type>
        <stem>up</stem>
        <beam number="1">begin</beam>
        </note>
      <note>
        <pitch>
          <step>F</step>
          <octave>4</octave>
          </pitch>
        <duration>5040</duration>
        <type>eighth</type>
        <stem>up</stem>
        <beam number="1">end</beam>
        </note>
      <note>
        <pitch>
          <step>E</step>
          <octave>4</octave>
          </pitch>
        <duration>10080</duration>
        <type>quarter</type>
        <stem>up</stem>
        </note>
      <note>
        <pitch>
          <step>E</step>
          <octave>4</octave>
          </pitch>
        <duration>5040</duration>
        <type>eighth</type>
        <stem>up</stem>
        <beam number="1">begin</beam>
        </note>
      <note>
        <pitch>
          <step>E</step>
          <octave>4</octave>
          </pitch>
        <duration>5040</duration>
        <type>eighth</type>
        <stem>up</stem>
        <beam number="1">continue</beam>
        </note>
      <note>
        <pitch>
          <step>F</step>
          <octave>4</octave>
          </pitch>
        <duration>5040</duration>
        <type>eighth</type>
        <stem>up</stem>
        <beam number="1">continue</beam>
        </note>
      <note>
        <pitch>
          <step>G</step>
          <octave>4</octave>
          </pitch>
        <duration>5040</duration>
        <tie type="start" />
        <type>eighth</type>
        <stem>up</stem>
        <beam number="1">end</beam>
        <notations>
          <tied type="start" />
          </notations>
        </note>
      </measure>
    <measure number="40" width="541.43">
      <print new-page="yes">
        <system-layout>
          <system-margins>
            <left-margin>74.31</left-margin>
            <right-margin>0</right-margin>
            </system-margins>
          <top-system-distance>70</top-system-distance>
          </system-layout>
        <staff-layout number="2">
          <staff-distance>65</staff-distance>
          </staff-layout>
        </print>
      <attributes>
        <staff-details print-object="yes" />
        </attributes>
      <note>
        <pitch>
          <step>G</step>
          <octave>4</octave>
          </pitch>
        <duration>5040</duration>
        <tie type="stop" />
        <type>eighth</type>
        <stem>up</stem>
        <beam number="1">begin</beam>
        <notations>
          <tied type="stop" />
          </notations>
        </note>
      <note>
        <pitch>
          <step>G</step>
          <octave>4</octave>
          </pitch>
        <duration>5040</duration>
        <type>eighth</type>
        <stem>up</stem>
        <beam number="1">continue</beam>
        </note>
      <note>
        <pitch>
          <step>F</step>
          <octave>4</octave>
          </pitch>
        <duration>5040</duration>
        <type>eighth</type>
        <stem>up</stem>
        <beam number="1">continue</beam>
        </note>
      <note>
        <pitch>
          <step>E</step>
          <octave>4</octave>
          </pitch>
        <duration>5040</duration>
        <type>eighth</type>
        <stem>up</stem>
        <beam number="1">end</beam>
        </note>
      <note>
        <pitch>
          <step>F</step>
          <octave>4</octave>
          </pitch>
        <duration>40320</duration>
        <tie type="start" />
        <type>whole</type>
        <notations>
          <tied type="start" />
          </notations>
        </note>
      </measure>
    </part>
  <part id="P2">
    <measure number="33" width="351.32">
      <print new-page="yes">
        <staff-layout number="1">
          <staff-distance>65</staff-distance>
          </staff-layout>
        </print>
      <attributes>
        <divisions>10080</divisions>
        <key>
          <fifths>-1</fifths>
          </key>
        <time>
          <beats>3</beats>
          <beat-type>2</beat-type>
          </time>
        <clef>
          <sign>G</sign>
          <line>2</line>
          </clef>
        <staff-details print-object="yes" />
        </attributes>
      <note>
        <rest measure="yes" />
        <duration>60480</duration>
        </note>
      </measure>
    <measure number="34" width="310.71">
      <attributes />
      <note>
        <rest />
        <duration>5040</duration>
        <type>eighth</type>
        </note>
      <note>
        <pitch>
          <step>F</step>
          <octave>4</octave>
          </pitch>
        <duration>5040</duration>
        <type>eighth</type>
        <stem>up</stem>
        <beam number="1">begin</beam>
        </note>
      <note>
        <pitch>
          <step>E</step>
          <octave>4</octave>
          </pitch>
        <duration>5040</duration>
        <type>eighth</type>
        <stem>up</stem>
        <beam number="1">continue</beam>
        </note>
      <note>
        <pitch>
          <step>D</step>
          <octave>4</octave>
          </pitch>
        <duration>5040</duration>
        <type>eighth</type>
        <stem>up</stem>
        <beam number="1">end</beam>
        </note>
      <note>
        <rest />
        <duration>5040</duration>
        <type>eighth</type>
        </note>
      <note>
        <pitch>
          <step>D</step>
          <octave>4</octave>
          </pitch>
        <duration>5040</duration>
        <type>eighth</type>
        <stem>up</stem>
        <beam number="1">begin</beam>
        </note>
      <note>
        <pitch>
          <step>C</step>
          <alter>1</alter>
          <octave>4</octave>
          </pitch>
        <duration>5040</duration>
        <type>eighth</type>
        <accidental>sharp</accidental>
        <stem>up</stem>
        <beam number="1">continue</beam>
        </note>
      <note>
        <pitch>
          <step>B</step>
          <alter>0</alter>
          <octave>3</octave>
          </pitch>
        <duration>5040</duration>
        <type>eighth</type>
        <accidental>natural</accidental>
        <stem>up</stem>
        <beam number="1">end</beam>
        </note>
      <note>
        <pitch>
          <step>C</step>
          <alter>1</alter>
          <octave>4</octave>
          </pitch>
        <duration>20160</duration>
        <type>half</type>
        <stem>up</stem>
        </note>
      </measure>
    <measure number="35" width="340.82">
      <attributes />
      <note>
        <rest />
        <duration>20160</duration>
        <type>half</type>
        </note>
      <attributes>
        <clef>
          <sign>F</sign>
          <line>4</line>
          </clef>
        </attributes>
      <note>
        <pitch>
          <step>A</step>
          <octave>3</octave>
          </pitch>
        <duration>40320</duration>
        <tie type="start" />
        <type>whole</type>
        <notations>
          <tied type="start" />
          </notations>
        </note>
      </measure>
    <measure number="36" width="553.68">
      <print new-page="yes">
        <staff-layout number="1">
          <staff-distance>65</staff-distance>
          </staff-layout>
        </print>
      <attributes>
        <staff-details print-object="yes" />
        </attributes>
      <note>
        <pitch>
          <step>A</step>
          <octave>3</octave>
          </pitch>
        <duration>5040</duration>
        <tie type="stop" />
        <type>eighth</type>
        <stem>down</stem>
        <beam number="1">begin</beam>
        <notations>
          <tied type="stop" />
          </notations>
        </note>
      <note>
        <pitch>
          <step>C</step>
          <octave>4</octave>
          </pitch>
        <duration>5040</duration>
        <type>eighth</type>
        <stem>down</stem>
        <beam number="1">continue</beam>
        </note>
      <note>
        <pitch>
          <step>B</step>
          <alter>0</alter>
          <octave>3</octave>
          </pitch>
        <duration>5040</duration>
        <type>eighth</type>
        <accidental>natural</accidental>
        <stem>down</stem>
        <beam number="1">continue</beam>
        </note>
      <note>
        <pitch>
          <step>A</step>
          <octave>3</octave>
          </pitch>
        <duration>5040</duration>
        <type>eighth</type>
        <stem>down</stem>
        <beam number="1">end</beam>
        </note>
      <note>
        <pitch>
          <step>A</step>
          <alter>-1</alter>
          <octave>3</octave>
          </pitch>
        <duration>10080</duration>
        <type>quarter</type>
        <accidental>flat</accidental>
        <stem>down</stem>
        </note>
      <note>
        <pitch>
          <step>A</step>
          <alter>0</alter>
          <octave>3</octave>
          </pitch>
        <duration>10080</duration>
        <type>quarter</type>
        <accidental>natural</accidental>
        <stem>down</stem>
        </note>
      <note>
        <pitch>
          <step>B</step>
          <octave>3</octave>
          </pitch>
        <duration>20160</duration>
        <tie type="start" />
        <type>half</type>
        <stem>down</stem>
        <notations>
          <tied type="start" />
          </notations>
        </note>
      </measure>
    <measure number="37" width="449.17">
      <attributes />
      <note>
        <pitch>
          <step>B</step>
          <octave>3</octave>
          </pitch>
        <duration>30240</duration>
        <tie type="stop" />
        <type>half</type>
        <dot />
        <stem>down</stem>
        <notations>
          <tied type="stop" />
          </notations>
        </note>
      <note>
        <pitch>
          <step>B</step>
          <alter>0</alter>
          <octave>3</octave>
          </pitch>
        <duration>5040</duration>
        <type>eighth</type>
        <accidental>natural</accidental>
        <stem>down</stem>
        <beam number="1">begin</beam>
        </note>
      <note>
        <pitch>
          <step>C</step>
          <octave>4</octave>
          </pitch>
        <duration>5040</duration>
        <type>eighth</type>
        <stem>down</stem>
        <beam number="1">end</beam>
        </note>
      <note>
        <pitch>
          <step>B</step>
          <octave>3</octave>
          </pitch>
        <duration>20160</duration>
        <type>half</type>
        <stem>down</stem>
        </note>
      </measure>
    <measure number="38" width="582.3">
      <print new-page="yes">
        <staff-layout number="1">
          <staff-distance>65</staff-distance>
          </staff-layout>
        </print>
      <attributes>
        <staff-details print-object="yes" />
        </attributes>
      <note>
        <pitch>
          <step>A</step>
          <octave>3</octave>
          </pitch>
        <duration>20160</duration>
        <tie type="start" />
        <type>half</type>
        <stem>down</stem>
        <notations>
          <tied type="start" />
          </notations>
        </note>
      <note>
        <pitch>
          <step>A</step>
          <octave>3</octave>
          </pitch>
        <duration>2520</duration>
        <tie type="stop" />
        <type>16th</type>
        <stem>down</stem>
        <notations>
          <tied type="stop" />
          </notations>
        </note>
      <note>
        <rest />
        <duration>2520</duration>
        <type>16th</type>
        </note>
      <note>
        <pitch>
          <step>B</step>
          <alter>0</alter>
          <octave>3</octave>
          </pitch>
        <duration>5040</duration>
        <type>eighth</type>
        <accidental>natural</accidental>
        <stem>up</stem>
        <beam number="1">begin</beam>
        </note>
      <attributes>
        <clef>
          <sign>G</sign>
          <line>2</line>
          </clef>
        </attributes>
      <note>
        <pitch>
          <step>C</step>
          <alter>1</alter>
          <octave>4</octave>
          </pitch>
        <duration>5040</duration>
        <type>eighth</type>
        <accidental>sharp</accidental>
        <stem>up</stem>
        <beam number="1">continue</beam>
        </note>
      <note>
        <pitch>
          <step>D</step>
          <octave>4</octave>
          </pitch>
        <duration>5040</duration>
        <type>eighth</type>
        <stem>up</stem>
        <beam number="1">end</beam>
        </note>
      <note>
        <pitch>
          <step>E</step>
          <octave>4</octave>
          </pitch>
        <duration>20160</duration>
        <tie type="start" />
        <type>half</type>
        <stem>up</stem>
        <notations>
          <tied type="start" />
          </notations>
        </note>
      </measure>
    <measure number="39" width="420.56">
      <attributes />
      <note>
        <pitch>
          <step>E</step>
          <octave>4</octave>
          </pitch>
        <duration>10080</duration>
        <tie type="stop" />
        <type>quarter</type>
        <stem>up</stem>
        <notations>
          <tied type="stop" />
          </notations>
        </note>
      <note>
        <pitch>
          <step>D</step>
          <octave>4</octave>
          </pitch>
        <duration>20160</duration>
        <tie type="start" />
        <type>half</type>
        <stem>up</stem>
        <notations>
          <tied type="start" />
          </notations>
        </note>
      <note>
        <pitch>
          <step>D</step>
          <octave>4</octave>
          </pitch>
        <duration>5040</duration>
        <tie type="stop" />
        <type>eighth</type>
        <stem>up</stem>
        <beam number="1">begin</beam>
        <notations>
          <tied type="stop" />
          </notations>
        </note>
      <note>
        <pitch>
          <step>D</step>
          <octave>4</octave>
          </pitch>
        <duration>5040</duration>
        <type>eighth</type>
        <stem>up</stem>
        <beam number="1">end</beam>
        </note>
      <note>
        <pitch>
          <step>C</step>
          <alter>1</alter>
          <octave>4</octave>
          </pitch>
        <duration>20160</duration>
        <type>half</type>
        <accidental>sharp</accidental>
        <stem>up</stem>
        </note>
      </measure>
    <measure number="40" width="541.43">
      <print new-page="yes">
        <staff-layout number="1">
          <staff-distance>65</staff-distance>
          </staff-layout>
        </print>
      <attributes>
        <staff-details print-object="yes" />
        </attributes>
      <note>
        <pitch>
          <step>D</step>
          <octave>4</octave>
          </pitch>
        <duration>20160</duration>
        <tie type="start" />
        <type>half</type>
        <stem>up</stem>
        <notations>
          <tied type="start" />
          </notations>
        </note>
      <note>
        <pitch>
          <step>D</step>
          <octave>4</octave>
          </pitch>
        <duration>2520</duration>
        <tie type="stop" />
        <type>16th</type>
        <stem>up</stem>
        <notations>
          <tied type="stop" />
          </notations>
        </note>
      <note>
        <rest />
        <duration>2520</duration>
        <type>16th</type>
        </note>
      <note>
        <pitch>
          <step>E</step>
          <octave>4</octave>
          </pitch>
        <duration>5040</duration>
        <type>eighth</type>
        <stem>up</stem>
        <beam number="1">begin</beam>
        </note>
      <note>
        <pitch>
          <step>D</step>
          <octave>4</octave>
          </pitch>
        <duration>5040</duration>
        <type>eighth</type>
        <stem>up</stem>
        <beam number="1">continue</beam>
        </note>
      <note>
        <pitch>
          <step>C</step>
          <alter>1</alter>
          <octave>4</octave>
          </pitch>
        <duration>5040</duration>
        <type>eighth</type>
        <accidental>sharp</accidental>
        <stem>up</stem>
        <beam number="1">end</beam>
        </note>
      <note>
        <pitch>
          <step>D</step>
          <octave>4</octave>
          </pitch>
        <duration>20160</duration>
        <tie type="start" />
        <type>half</type>
        <stem>up</stem>
        <notations>
          <tied type="start" />
          </notations>
        </note>
      </measure>
    </part>
  <part id="P3">
    <measure number="33" width="351.32">
      <print new-page="yes">
        <staff-layout number="1">
          <staff-distance>65</staff-distance>
          </staff-layout>
        </print>
      <attributes>
        <divisions>10080</divisions>
        <key>
          <fifths>-1</fifths>
          </key>
        <time>
          <beats>3</beats>
          <beat-type>2</beat-type>
          </time>
        <clef>
          <sign>G</sign>
          <line>2</line>
          </clef>
        <staff-details print-object="yes" />
        </attributes>
      <note>
        <rest measure="yes" />
        <duration>60480</duration>
        </note>
      </measure>
    <measure number="34" width="310.71">
      <attributes />
      <note>
        <rest measure="yes" />
        <duration>60480</duration>
        </note>
      </measure>
    <measure number="35" width="340.82">
      <attributes />
      <note>
        <rest measure="yes" />
        <duration>60480</duration>
        </note>
      </measure>
    <measure number="36" width="553.68">
      <print new-page="yes">
        <staff-layout number="1">
          <staff-distance>65</staff-distance>
          </staff-layout>
        </print>
      <attributes>
        <staff-details print-object="yes" />
        </attributes>
      <note>
        <rest measure="yes" />
        <duration>60480</duration>
        </note>
      </measure>
    <measure number="37" width="449.17">
      <attributes />
      <note>
        <rest measure="yes" />
        <duration>60480</duration>
        </note>
      </measure>
    <measure number="38" width="582.3">
      <print new-page="yes">
        <staff-layout number="1">
          <staff-distance>65</staff-distance>
          </staff-layout>
        </print>
      <attributes>
        <staff-details print-object="yes" />
        </attributes>
      <note>
        <rest measure="yes" />
        <duration>60480</duration>
        </note>
      </measure>
    <measure number="39" width="420.56">
      <attributes />
      <note>
        <rest measure="yes" />
        <duration>60480</duration>
        </note>
      </measure>
    <measure number="40" width="541.43">
      <print new-page="yes">
        <staff-layout number="1">
          <staff-distance>65</staff-distance>
          </staff-layout>
        </print>
      <attributes>
        <staff-details print-object="yes" />
        </attributes>
      <note>
        <rest measure="yes" />
        <duration>60480</duration>
        </note>
      </measure>
    </part>
  <part id="P4">
    <measure number="33" width="351.32">
      <print new-page="yes">
        <staff-layout number="1">
          <staff-distance>65</staff-distance>
          </staff-layout>
        </print>
      <attributes>
        <divisions>10080</divisions>
        <key>
          <fifths>-1</fifths>
          </key>
        <time>
          <beats>3</beats>
          <beat-type>2</beat-type>
          </time>
        <clef>
          <sign>F</sign>
          <line>4</line>
          </clef>
        <staff-details print-object="yes" />
        </attributes>
      <note>
        <rest measure="yes" />
        <duration>60480</duration>
        </note>
      </measure>
    <measure number="34" width="310.71">
      <attributes />
      <note>
        <rest measure="yes" />
        <duration>60480</duration>
        </note>
      </measure>
    <measure number="35" width="340.82">
      <attributes />
      <note>
        <rest measure="yes" />
        <duration>60480</duration>
        </note>
      </measure>
    <measure number="36" width="553.68">
      <print new-page="yes">
        <staff-layout number="1">
          <staff-distance>65</staff-distance>
          </staff-layout>
        </print>
      <attributes>
        <staff-details print-object="yes" />
        </attributes>
      <note>
        <rest measure="yes" />
        <duration>60480</duration>
        </note>
      </measure>
    <measure number="37" width="449.17">
      <attributes />
      <note>
        <rest measure="yes" />
        <duration>60480</duration>
        </note>
      </measure>
    <measure number="38" width="582.3">
      <print new-page="yes">
        <staff-layout number="1">
          <staff-distance>65</staff-distance>
          </staff-layout>
        </print>
      <attributes>
        <staff-details print-object="yes" />
        </attributes>
      <note>
        <rest measure="yes" />
        <duration>60480</duration>
        </note>
      </measure>
    <measure number="39" width="420.56">
      <attributes />
      <note>
        <rest measure="yes" />
        <duration>60480</duration>
        </note>
      </measure>
    <measure number="40" width="541.43">
      <print new-page="yes">
        <staff-layout number="1">
          <staff-distance>65</staff-distance>
          </staff-layout>
        </print>
      <attributes>
        <staff-details print-object="yes" />
        </attributes>
      <note>
        <rest measure="yes" />
        <duration>60480</duration>
        </note>
      </measure>
    </part>
  <part id="P5">
    <measure number="33" width="351.32">
      <print new-page="yes">
        <staff-layout number="1">
          <staff-distance>65</staff-distance>
          </staff-layout>
        </print>
      <attributes>
        <divisions>10080</divisions>
        <key>
          <fifths>-1</fifths>
          </key>
        <time>
          <beats>3</beats>
          <beat-type>2</beat-type>
          </time>
        <clef>
          <sign>F</sign>
          <line>4</line>
          </clef>
        <staff-details print-object="yes" />
        </attributes>
      <note>
        <rest />
        <duration>20160</duration>
        <type>half</type>
        </note>
      <note>
        <pitch>
          <step>A</step>
          <octave>3</octave>
          </pitch>
        <duration>20160</duration>
        <type>half</type>
        <stem>down</stem>
        </note>
      <note>
        <pitch>
          <step>D</step>
          <octave>4</octave>
          </pitch>
        <duration>20160</duration>
        <tie type="start" />
        <type>half</type>
        <stem>down</stem>
        <notations>
          <tied type="start" />
          </notations>
        </note>
      </measure>
    <measure number="34" width="310.71">
      <attributes />
      <note>
        <pitch>
          <step>D</step>
          <octave>4</octave>
          </pitch>
        <duration>20160</duration>
        <tie type="stop" />
        <type>half</type>
        <stem>down</stem>
        <notations>
          <tied type="stop" />
          </notations>
        </note>
      <note>
        <rest />
        <duration>20160</duration>
        <type>half</type>
        </note>
      <note>
        <rest />
        <duration>20160</duration>
        <type>half</type>
        </note>
      </measure>
    <measure number="35" width="340.82">
      <attributes />
      <note>
        <rest measure="yes" />
        <duration>60480</duration>
        </note>
      </measure>
    <measure number="36" width="553.68">
      <print new-page="yes">
        <staff-layout number="1">
          <staff-distance>65</staff-distance>
          </staff-layout>
        </print>
      <attributes>
        <staff-details print-object="yes" />
        </attributes>
      <note>
        <rest measure="yes" />
        <duration>60480</duration>
        </note>
      </measure>
    <measure number="37" width="449.17">
      <attributes />
      <note>
        <pitch>
          <step>B</step>
          <alter>0</alter>
          <octave>3</octave>
          </pitch>
        <duration>5040</duration>
        <type>eighth</type>
        <accidental>natural</accidental>
        <stem>down</stem>
        <beam number="1">begin</beam>
        </note>
      <note>
        <pitch>
          <step>D</step>
          <octave>3</octave>
          </pitch>
        <duration>5040</duration>
        <type>eighth</type>
        <stem>down</stem>
        <beam number="1">continue</beam>
        </note>
      <note>
        <pitch>
          <step>E</step>
          <octave>3</octave>
          </pitch>
        <duration>5040</duration>
        <type>eighth</type>
        <stem>down</stem>
        <beam number="1">continue</beam>
        </note>
      <note>
        <pitch>
          <step>F</step>
          <octave>3</octave>
          </pitch>
        <duration>5040</duration>
        <type>eighth</type>
        <stem>down</stem>
        <beam number="1">end</beam>
        </note>
      <note>
        <pitch>
          <step>E</step>
          <octave>3</octave>
          </pitch>
        <duration>40320</duration>
        <tie type="start" />
        <type>whole</type>
        <notations>
          <tied type="start" />
          </notations>
        </note>
      </measure>
    <measure number="38" width="582.3">
      <print new-page="yes">
        <staff-layout number="1">
          <staff-distance>65</staff-distance>
          </staff-layout>
        </print>
      <attributes>
        <staff-details print-object="yes" />
        </attributes>
      <note>
        <pitch>
          <step>E</step>
          <octave>3</octave>
          </pitch>
        <duration>20160</duration>
        <tie type="stop" />
        <tie type="start" />
        <type>half</type>
        <stem>down</stem>
        <notations>
          <tied type="stop" />
          <tied type="start" />
          </notations>
        </note>
      <note>
        <pitch>
          <step>E</step>
          <octave>3</octave>
          </pitch>
        <duration>2520</duration>
        <tie type="stop" />
        <type>16th</type>
        <stem>down</stem>
        <notations>
          <tied type="stop" />
          </notations>
        </note>
      <note>
        <rest />
        <duration>2520</duration>
        <type>16th</type>
        </note>
      <note>
        <pitch>
          <step>F</step>
          <octave>3</octave>
          </pitch>
        <duration>5040</duration>
        <type>eighth</type>
        <stem>down</stem>
        <beam number="1">begin</beam>
        </note>
      <note>
        <pitch>
          <step>E</step>
          <octave>3</octave>
          </pitch>
        <duration>5040</duration>
        <type>eighth</type>
        <stem>down</stem>
        <beam number="1">continue</beam>
        </note>
      <note>
        <pitch>
          <step>D</step>
          <octave>3</octave>
          </pitch>
        <duration>5040</duration>
        <type>eighth</type>
        <stem>down</stem>
        <beam number="1">end</beam>
        </note>
      <note>
        <pitch>
          <step>C</step>
          <alter>1</alter>
          <octave>3</octave>
          </pitch>
        <duration>20160</duration>
        <tie type="start" />
        <type>half</type>
        <accidental>sharp</accidental>
        <stem>up</stem>
        <notations>
          <tied type="start" />
          </notations>
        </note>
      </measure>
    <measure number="39" width="420.56">
      <attributes />
      <note>
        <pitch>
          <step>C</step>
          <alter>1</alter>
          <octave>3</octave>
          </pitch>
        <duration>10080</duration>
        <tie type="stop" />
        <type>quarter</type>
        <stem>up</stem>
        <notations>
          <tied type="stop" />
          </notations>
        </note>
      <note>
        <pitch>
          <step>D</step>
          <octave>3</octave>
          </pitch>
        <duration>10080</duration>
        <type>quarter</type>
        <stem>down</stem>
        </note>
      <note>
        <pitch>
          <step>E</step>
          <octave>3</octave>
          </pitch>
        <duration>10080</duration>
        <type>quarter</type>
        <stem>down</stem>
        </note>
      <note>
        <pitch>
          <step>F</step>
          <octave>3</octave>
          </pitch>
        <duration>10080</duration>
        <type>quarter</type>
        <stem>down</stem>
        </note>
      <note>
        <pitch>
          <step>G</step>
          <octave>3</octave>
          </pitch>
        <duration>10080</duration>
        <type>quarter</type>
        <stem>down</stem>
        </note>
      <note>
        <pitch>
          <step>A</step>
          <octave>3</octave>
          </pitch>
        <duration>10080</duration>
        <type>quarter</type>
        <stem>down</stem>
        </note>
      </measure>
    <measure number="40" width="541.43">
      <print new-page="yes">
        <staff-layout number="1">
          <staff-distance>65</staff-distance>
          </staff-layout>
        </print>
      <attributes>
        <staff-details print-object="yes" />
        </attributes>
      <note>
        <pitch>
          <step>B</step>
          <alter>-1</alter>
          <octave>3</octave>
          </pitch>
        <duration>10080</duration>
        <type>quarter</type>
        <stem>down</stem>
        </note>
      <note>
        <pitch>
          <step>A</step>
          <octave>3</octave>
          </pitch>
        <duration>5040</duration>
        <type>eighth</type>
        <stem>down</stem>
        <beam number="1">begin</beam>
        </note>
      <note>
        <pitch>
          <step>G</step>
          <octave>3</octave>
          </pitch>
        <duration>5040</duration>
        <type>eighth</type>
        <stem>down</stem>
        <beam number="1">end</beam>
        </note>
      <note>
        <pitch>
          <step>A</step>
          <octave>3</octave>
          </pitch>
        <duration>20160</duration>
        <tie type="start" />
        <type>half</type>
        <stem>down</stem>
        <notations>
          <tied type="start" />
          </notations>
        </note>
      <note>
        <pitch>
          <step>A</step>
          <octave>3</octave>
          </pitch>
        <duration>2520</duration>
        <tie type="stop" />
        <type>16th</type>
        <stem>down</stem>
        <notations>
          <tied type="stop" />
          </notations>
        </note>
      <note>
        <rest />
        <duration>2520</duration>
        <type>16th</type>
        </note>
      <note>
        <pitch>
          <step>C</step>
          <octave>4</octave>
          </pitch>
        <duration>5040</duration>
        <type>eighth</type>
        <stem>down</stem>
        <beam number="1">begin</beam>
        </note>
      <note>
        <pitch>
          <step>B</step>
          <alter>-1</alter>
          <octave>3</octave>
          </pitch>
        <duration>5040</duration>
        <type>eighth</type>
        <stem>down</stem>
        <beam number="1">continue</beam>
        </note>
      <note>
        <pitch>
          <step>A</step>
          <octave>3</octave>
          </pitch>
        <duration>5040</duration>
        <type>eighth</type>
        <stem>down</stem>
        <beam number="1">end</beam>
        </note>
      </measure>
    </part>
  <part id="P6">
    <measure number="33" width="351.32">
      <print new-page="yes">
        <staff-layout number="1">
          <staff-distance>65</staff-distance>
          </staff-layout>
        </print>
      <attributes>
        <divisions>10080</divisions>
        <key>
          <fifths>-1</fifths>
          </key>
        <time>
          <beats>3</beats>
          <beat-type>2</beat-type>
          </time>
        <clef>
          <sign>F</sign>
          <line>4</line>
          </clef>
        <staff-details print-object="yes" />
        </attributes>
      <note>
        <pitch>
          <step>F</step>
          <octave>3</octave>
          </pitch>
        <duration>60480</duration>
        <type>whole</type>
        <dot />
        </note>
      </measure>
    <measure number="34" width="310.71">
      <attributes />
      <note>
        <pitch>
          <step>E</step>
          <octave>3</octave>
          </pitch>
        <duration>40320</duration>
        <type>whole</type>
        </note>
      <note>
        <rest />
        <duration>5040</duration>
        <type>eighth</type>
        </note>
      <note>
        <pitch>
          <step>G</step>
          <octave>3</octave>
          </pitch>
        <duration>5040</duration>
        <type>eighth</type>
        <stem>down</stem>
        <beam number="1">begin</beam>
        </note>
      <note>
        <pitch>
          <step>A</step>
          <octave>3</octave>
          </pitch>
        <duration>5040</duration>
        <type>eighth</type>
        <stem>down</stem>
        <beam number="1">continue</beam>
        </note>
      <note>
        <pitch>
          <step>B</step>
          <alter>-1</alter>
          <octave>3</octave>
          </pitch>
        <duration>5040</duration>
        <type>eighth</type>
        <stem>down</stem>
        <beam number="1">end</beam>
        </note>
      </measure>
    <measure number="35" width="340.82">
      <attributes />
      <note>
        <pitch>
          <step>A</step>
          <octave>3</octave>
          </pitch>
        <duration>5040</duration>
        <type>eighth</type>
        <stem>down</stem>
        <beam number="1">begin</beam>
        </note>
      <note>
        <pitch>
          <step>G</step>
          <octave>3</octave>
          </pitch>
        <duration>5040</duration>
        <type>eighth</type>
        <stem>down</stem>
        <beam number="1">continue</beam>
        </note>
      <note>
        <pitch>
          <step>F</step>
          <octave>3</octave>
          </pitch>
        <duration>5040</duration>
        <type>eighth</type>
        <stem>down</stem>
        <beam number="1">continue</beam>
        </note>
      <note>
        <pitch>
          <step>E</step>
          <octave>3</octave>
          </pitch>
        <duration>5040</duration>
        <type>eighth</type>
        <stem>down</stem>
        <beam number="1">end</beam>
        </note>
      <note>
        <pitch>
          <step>F</step>
          <octave>3</octave>
          </pitch>
        <duration>5040</duration>
        <type>eighth</type>
        <stem>down</stem>
        <beam number="1">begin</beam>
        </note>
      <note>
        <pitch>
          <step>E</step>
          <octave>3</octave>
          </pitch>
        <duration>5040</duration>
        <type>eighth</type>
        <stem>down</stem>
        <beam number="1">continue</beam>
        </note>
      <note>
        <pitch>
          <step>D</step>
          <octave>3</octave>
          </pitch>
        <duration>5040</duration>
        <type>eighth</type>
        <stem>down</stem>
        <beam number="1">continue</beam>
        </note>
      <note>
        <pitch>
          <step>C</step>
          <alter>1</alter>
          <octave>3</octave>
          </pitch>
        <duration>5040</duration>
        <type>eighth</type>
        <accidental>sharp</accidental>
        <stem>down</stem>
        <beam number="1">end</beam>
        </note>
      <note>
        <pitch>
          <step>D</step>
          <octave>3</octave>
          </pitch>
        <duration>5040</duration>
        <type>eighth</type>
        <stem>up</stem>
        <beam number="1">begin</beam>
        </note>
      <note>
        <pitch>
          <step>C</step>
          <alter>0</alter>
          <octave>3</octave>
          </pitch>
        <duration>5040</duration>
        <type>eighth</type>
        <accidental>natural</accidental>
        <stem>up</stem>
        <beam number="1">continue</beam>
        </note>
      <note>
        <pitch>
          <step>B</step>
          <alter>0</alter>
          <octave>2</octave>
          </pitch>
        <duration>5040</duration>
        <type>eighth</type>
        <accidental>natural</accidental>
        <stem>up</stem>
        <beam number="1">continue</beam>
        </note>
      <note>
        <pitch>
          <step>A</step>
          <octave>2</octave>
          </pitch>
        <duration>5040</duration>
        <type>eighth</type>
        <stem>up</stem>
        <beam number="1">end</beam>
        </note>
      </measure>
    <measure number="36" width="553.68">
      <print new-page="yes">
        <staff-layout number="1">
          <staff-distance>65</staff-distance>
          </staff-layout>
        </print>
      <attributes>
        <staff-details print-object="yes" />
        </attributes>
      <note>
        <pitch>
          <step>B</step>
          <alter>0</alter>
          <octave>2</octave>
          </pitch>
        <duration>20160</duration>
        <tie type="start" />
        <type>half</type>
        <accidental>natural</accidental>
        <stem>up</stem>
        <notations>
          <tied type="start" />
          </notations>
        </note>
      <note>
        <pitch>
          <step>B</step>
          <octave>2</octave>
          </pitch>
        <duration>2520</duration>
        <tie type="stop" />
        <type>16th</type>
        <stem>up</stem>
        <notations>
          <tied type="stop" />
          </notations>
        </note>
      <note>
        <rest />
        <duration>2520</duration>
        <type>16th</type>
        </note>
      <note>
        <pitch>
          <step>C</step>
          <octave>3</octave>
          </pitch>
        <duration>5040</duration>
        <type>eighth</type>
        <stem>down</stem>
        <beam number="1">begin</beam>
        </note>
      <note>
        <pitch>
          <step>D</step>
          <octave>3</octave>
          </pitch>
        <duration>5040</duration>
        <type>eighth</type>
        <stem>down</stem>
        <beam number="1">continue</beam>
        </note>
      <note>
        <pitch>
          <step>E</step>
          <octave>3</octave>
          </pitch>
        <duration>5040</duration>
        <type>eighth</type>
        <stem>down</stem>
        <beam number="1">end</beam>
        </note>
      <note>
        <pitch>
          <step>D</step>
          <octave>3</octave>
          </pitch>
        <duration>5040</duration>
        <type>eighth</type>
        <stem>up</stem>
        <beam number="1">begin</beam>
        </note>
      <note>
        <pitch>
          <step>C</step>
          <octave>3</octave>
          </pitch>
        <duration>5040</duration>
        <type>eighth</type>
        <stem>up</stem>
        <beam number="1">continue</beam>
        </note>
      <note>
        <pitch>
          <step>B</step>
          <octave>2</octave>
          </pitch>
        <duration>5040</duration>
        <type>eighth</type>
        <stem>up</stem>
        <beam number="1">continue</beam>
        </note>
      <note>
        <pitch>
          <step>A</step>
          <octave>2</octave>
          </pitch>
        <duration>5040</duration>
        <type>eighth</type>
        <stem>up</stem>
        <beam number="1">end</beam>
        </note>
      </measure>
    <measure number="37" width="449.17">
      <attributes />
      <note>
        <pitch>
          <step>A</step>
          <alter>-1</alter>
          <octave>2</octave>
          </pitch>
        <duration>60480</duration>
        <type>whole</type>
        <dot />
        <accidental>flat</accidental>
        </note>
      </measure>
    <measure number="38" width="582.3">
      <print new-page="yes">
        <staff-layout number="1">
          <staff-distance>65</staff-distance>
          </staff-layout>
        </print>
      <attributes>
        <staff-details print-object="yes" />
        </attributes>
      <note>
        <pitch>
          <step>G</step>
          <octave>2</octave>
          </pitch>
        <duration>40320</duration>
        <tie type="start" />
        <type>whole</type>
        <notations>
          <tied type="start" />
          </notations>
        </note>
      <note>
        <pitch>
          <step>G</step>
          <octave>2</octave>
          </pitch>
        <duration>2520</duration>
        <tie type="stop" />
        <type>16th</type>
        <stem>up</stem>
        <notations>
          <tied type="stop" />
          </notations>
        </note>
      <note>
        <rest />
        <duration>2520</duration>
        <type>16th</type>
        </note>
      <note>
        <pitch>
          <step>B</step>
          <alter>-1</alter>
          <octave>2</octave>
          </pitch>
        <duration>5040</duration>
        <type>eighth</type>
        <stem>up</stem>
        <beam number="1">begin</beam>
        </note>
      <note>
        <pitch>
          <step>A</step>
          <octave>2</octave>
          </pitch>
        <duration>5040</duration>
        <type>eighth</type>
        <stem>up</stem>
        <beam number="1">continue</beam>
        </note>
      <note>
        <pitch>
          <step>G</step>
          <octave>2</octave>
          </pitch>
        <duration>5040</duration>
        <type>eighth</type>
        <stem>up</stem>
        <beam number="1">end</beam>
        </note>
      </measure>
    <measure number="39" width="420.56">
      <attributes />
      <note>
        <pitch>
          <step>F</step>
          <octave>2</octave>
          </pitch>
        <duration>20160</duration>
        <type>half</type>
        <stem>up</stem>
        </note>
      <note>
        <pitch>
          <step>G</step>
          <octave>2</octave>
          </pitch>
        <duration>20160</duration>
        <type>half</type>
        <stem>up</stem>
        </note>
      <note>
        <pitch>
          <step>A</step>
          <octave>2</octave>
          </pitch>
        <duration>20160</duration>
        <type>half</type>
        <stem>up</stem>
        </note>
      </measure>
    <measure number="40" width="541.43">
      <print new-page="yes">
        <staff-layout number="1">
          <staff-distance>65</staff-distance>
          </staff-layout>
        </print>
      <attributes>
        <staff-details print-object="yes" />
        </attributes>
      <note>
        <pitch>
          <step>D</step>
          <octave>3</octave>
          </pitch>
        <duration>60480</duration>
        <type>whole</type>
        <dot />
        </note>
      </measure>
    </part>
  </score-partwise>
