<?xml version="1.0" encoding="utf-8"?>
<!DOCTYPE score-partwise
  PUBLIC '-//Recordare//DTD MusicXML 2.0 Partwise//EN'
  'http://www.musicxml.org/dtds/partwise.dtd'>
<score-partwise>
  <work>
    <work-title>m636_3.xml</work-title>
    </work>
  <movement-title>m636_3.xml</movement-title>
  <identification>
    <creator type="composer">Music21</creator>
    <encoding>
      <encoding-date>2018-01-04</encoding-date>
      <software>Music21</software>
      <supports attribute="new-system" element="print" type="yes" value="yes" />
      <supports attribute="new-page" element="print" type="yes" value="yes" />
      </encoding>
    </identification>
  <defaults>
    <scaling>
      <millimeters>7</millimeters>
      <tenths>40</tenths>
      </scaling>
    </defaults>
  <part-list>
    <score-part id="P1">
      <part-name>Piano, unbenannt1</part-name>
      <part-abbreviation>Pno.</part-abbreviation>
      <score-instrument id="I3790d3dddaf83fbbeef31ed7aa6c7f2a">
        <instrument-name>Piano</instrument-name>
        </score-instrument>
      <midi-instrument id="I3790d3dddaf83fbbeef31ed7aa6c7f2a">
        <midi-channel>1</midi-channel>
        <midi-program>2</midi-program>
        </midi-instrument>
      </score-part>
    <score-part id="Pf23f38362ec468d0b13eb79737722d08">
      <part-name>Piano, unbenannt1</part-name>
      <part-abbreviation>Pno.</part-abbreviation>
      <score-instrument id="Id17e64af7780f638946907d1df2f7407">
        <instrument-name>Piano</instrument-name>
        </score-instrument>
      <midi-instrument id="Id17e64af7780f638946907d1df2f7407">
        <midi-channel>2</midi-channel>
        <midi-program>2</midi-program>
        </midi-instrument>
      </score-part>
    <score-part id="P2">
      <part-name>Piano, unbenannt2</part-name>
      <part-abbreviation>Pno.</part-abbreviation>
      <score-instrument id="If00e5f40802c29dbbc2057c980557e3d">
        <instrument-name>Piano</instrument-name>
        </score-instrument>
      <midi-instrument id="If00e5f40802c29dbbc2057c980557e3d">
        <midi-channel>3</midi-channel>
        <midi-program>2</midi-program>
        </midi-instrument>
      </score-part>
    <score-part id="P1b5cfed1c7c251111731bc911ecab7b8">
      <part-name>Piano, unbenannt2</part-name>
      <part-abbreviation>Pno.</part-abbreviation>
      <score-instrument id="I33d10ffaac8d4ed3d7b1d46bd0469691">
        <instrument-name>Piano</instrument-name>
        </score-instrument>
      <midi-instrument id="I33d10ffaac8d4ed3d7b1d46bd0469691">
        <midi-channel>4</midi-channel>
        <midi-program>2</midi-program>
        </midi-instrument>
      </score-part>
    </part-list>
  <part id="P1">
    <measure number="1201" width="254.2">
      <attributes>
        <divisions>10080</divisions>
        <key>
          <fifths>2</fifths>
          </key>
        <time>
          <beats>6</beats>
          <beat-type>8</beat-type>
          </time>
        <clef>
          <sign>G</sign>
          <line>2</line>
          </clef>
        </attributes>
      <note>
        <pitch>
          <step>E</step>
          <octave>5</octave>
          </pitch>
        <duration>5040</duration>
        <type>eighth</type>
        <stem>down</stem>
        <beam number="1">begin</beam>
        </note>
      <note>
        <pitch>
          <step>C</step>
          <alter>1</alter>
          <octave>5</octave>
          </pitch>
        <duration>5040</duration>
        <type>eighth</type>
        <accidental>sharp</accidental>
        <stem>down</stem>
        <beam number="1">continue</beam>
        </note>
      <note>
        <pitch>
          <step>D</step>
          <octave>5</octave>
          </pitch>
        <duration>5040</duration>
        <type>eighth</type>
        <stem>down</stem>
        <beam number="1">end</beam>
        </note>
      <note>
        <pitch>
          <step>C</step>
          <alter>0</alter>
          <octave>5</octave>
          </pitch>
        <duration>5040</duration>
        <type>eighth</type>
        <accidental>natural</accidental>
        <stem>up</stem>
        <beam number="1">begin</beam>
        </note>
      <note>
        <pitch>
          <step>C</step>
          <alter>1</alter>
          <octave>5</octave>
          </pitch>
        <duration>5040</duration>
        <type>eighth</type>
        <accidental>sharp</accidental>
        <stem>up</stem>
        <beam number="1">continue</beam>
        </note>
      <note>
        <pitch>
          <step>B</step>
          <alter>-1</alter>
          <octave>4</octave>
          </pitch>
        <duration>5040</duration>
        <type>eighth</type>
        <accidental>flat</accidental>
        <stem>up</stem>
        <beam number="1">end</beam>
        </note>
      </measure>
    <measure number="1202" width="232.15">
      <attributes />
      <note>
        <pitch>
          <step>B</step>
          <alter>0</alter>
          <octave>4</octave>
          </pitch>
        <duration>5040</duration>
        <type>eighth</type>
        <accidental>natural</accidental>
        <stem>down</stem>
        <beam number="1">begin</beam>
        </note>
      <note>
        <pitch>
          <step>C</step>
          <alter>1</alter>
          <octave>5</octave>
          </pitch>
        <duration>5040</duration>
        <type>eighth</type>
        <accidental>sharp</accidental>
        <stem>down</stem>
        <beam number="1">continue</beam>
        </note>
      <note>
        <pitch>
          <step>D</step>
          <octave>5</octave>
          </pitch>
        <duration>5040</duration>
        <type>eighth</type>
        <stem>down</stem>
        <beam number="1">end</beam>
        </note>
      <note>
        <pitch>
          <step>C</step>
          <alter>1</alter>
          <octave>5</octave>
          </pitch>
        <duration>5040</duration>
        <type>eighth</type>
        <accidental>sharp</accidental>
        <stem>down</stem>
        <beam number="1">begin</beam>
        </note>
      <note>
        <pitch>
          <step>D</step>
          <octave>5</octave>
          </pitch>
        <duration>5040</duration>
        <type>eighth</type>
        <stem>down</stem>
        <beam number="1">continue</beam>
        </note>
      <note>
        <pitch>
          <step>E</step>
          <octave>5</octave>
          </pitch>
        <duration>5040</duration>
        <type>eighth</type>
        <stem>down</stem>
        <beam number="1">end</beam>
        </note>
      </measure>
    <measure number="1203" width="180.48">
      <print new-system="yes">
        <system-layout>
          <system-margins>
            <left-margin>74.31</left-margin>
            <right-margin>0</right-margin>
            </system-margins>
          <system-distance>150</system-distance>
          </system-layout>
        </print>
      <attributes />
      <note>
        <pitch>
          <step>D</step>
          <octave>5</octave>
          </pitch>
        <duration>5040</duration>
        <type>eighth</type>
        <stem>down</stem>
        <beam number="1">begin</beam>
        </note>
      <note>
        <pitch>
          <step>E</step>
          <octave>5</octave>
          </pitch>
        <duration>5040</duration>
        <type>eighth</type>
        <stem>down</stem>
        <beam number="1">continue</beam>
        </note>
      <note>
        <pitch>
          <step>F</step>
          <alter>1</alter>
          <octave>5</octave>
          </pitch>
        <duration>5040</duration>
        <type>eighth</type>
        <accidental>sharp</accidental>
        <stem>down</stem>
        <beam number="1">end</beam>
        </note>
      <note>
        <pitch>
          <step>E</step>
          <octave>5</octave>
          </pitch>
        <duration>5040</duration>
        <type>eighth</type>
        <stem>down</stem>
        <beam number="1">begin</beam>
        </note>
      <note>
        <pitch>
          <step>F</step>
          <alter>1</alter>
          <octave>5</octave>
          </pitch>
        <duration>5040</duration>
        <type>eighth</type>
        <accidental>sharp</accidental>
        <stem>down</stem>
        <beam number="1">continue</beam>
        </note>
      <note>
        <pitch>
          <step>G</step>
          <octave>5</octave>
          </pitch>
        <duration>5040</duration>
        <type>eighth</type>
        <stem>down</stem>
        <beam number="1">end</beam>
        </note>
      </measure>
    <measure number="1204" width="151.8">
      <attributes />
      <note>
        <pitch>
          <step>F</step>
          <alter>1</alter>
          <octave>5</octave>
          </pitch>
        <duration>5040</duration>
        <type>eighth</type>
        <accidental>sharp</accidental>
        <stem>down</stem>
        <beam number="1">begin</beam>
        </note>
      <note>
        <pitch>
          <step>G</step>
          <octave>5</octave>
          </pitch>
        <duration>5040</duration>
        <type>eighth</type>
        <stem>down</stem>
        <beam number="1">continue</beam>
        </note>
      <note>
        <pitch>
          <step>A</step>
          <octave>5</octave>
          </pitch>
        <duration>5040</duration>
        <type>eighth</type>
        <stem>down</stem>
        <beam number="1">end</beam>
        </note>
      <note>
        <pitch>
          <step>G</step>
          <octave>5</octave>
          </pitch>
        <duration>5040</duration>
        <type>eighth</type>
        <stem>down</stem>
        <beam number="1">begin</beam>
        </note>
      <note>
        <pitch>
          <step>A</step>
          <octave>5</octave>
          </pitch>
        <duration>5040</duration>
        <type>eighth</type>
        <stem>down</stem>
        <beam number="1">continue</beam>
        </note>
      <note>
        <pitch>
          <step>B</step>
          <octave>5</octave>
          </pitch>
        <duration>5040</duration>
        <type>eighth</type>
        <stem>down</stem>
        <beam number="1">end</beam>
        </note>
      </measure>
    <measure number="1205" width="183.8">
      <attributes />
      <note>
        <pitch>
          <step>A</step>
          <octave>5</octave>
          </pitch>
        <duration>5040</duration>
        <type>eighth</type>
        <stem>down</stem>
        <beam number="1">begin</beam>
        </note>
      <note>
        <pitch>
          <step>B</step>
          <octave>5</octave>
          </pitch>
        <duration>5040</duration>
        <type>eighth</type>
        <stem>down</stem>
        <beam number="1">continue</beam>
        </note>
      <note>
        <pitch>
          <step>C</step>
          <alter>1</alter>
          <octave>6</octave>
          </pitch>
        <duration>5040</duration>
        <type>eighth</type>
        <accidental>sharp</accidental>
        <stem>down</stem>
        <beam number="1">end</beam>
        </note>
      <note>
        <pitch>
          <step>B</step>
          <octave>5</octave>
          </pitch>
        <duration>5040</duration>
        <type>eighth</type>
        <stem>down</stem>
        <beam number="1">begin</beam>
        </note>
      <note>
        <pitch>
          <step>C</step>
          <alter>1</alter>
          <octave>6</octave>
          </pitch>
        <duration>5040</duration>
        <type>eighth</type>
        <accidental>sharp</accidental>
        <stem>down</stem>
        <beam number="1">continue</beam>
        </note>
      <note>
        <pitch>
          <step>D</step>
          <octave>6</octave>
          </pitch>
        <duration>5040</duration>
        <type>eighth</type>
        <stem>down</stem>
        <beam number="1">end</beam>
        </note>
      </measure>
    <measure number="1206" width="191.8">
      <attributes />
      <note>
        <pitch>
          <step>C</step>
          <alter>1</alter>
          <octave>6</octave>
          </pitch>
        <duration>5040</duration>
        <type>eighth</type>
        <accidental>sharp</accidental>
        <stem>down</stem>
        <beam number="1">begin</beam>
        </note>
      <note>
        <pitch>
          <step>D</step>
          <octave>6</octave>
          </pitch>
        <duration>5040</duration>
        <type>eighth</type>
        <stem>down</stem>
        <beam number="1">continue</beam>
        </note>
      <note>
        <pitch>
          <step>E</step>
          <octave>6</octave>
          </pitch>
        <duration>5040</duration>
        <type>eighth</type>
        <stem>down</stem>
        <beam number="1">end</beam>
        </note>
      <note>
        <pitch>
          <step>D</step>
          <octave>6</octave>
          </pitch>
        <duration>5040</duration>
        <type>eighth</type>
        <stem>down</stem>
        <beam number="1">begin</beam>
        </note>
      <note>
        <pitch>
          <step>E</step>
          <octave>6</octave>
          </pitch>
        <duration>5040</duration>
        <type>eighth</type>
        <stem>down</stem>
        <beam number="1">continue</beam>
        </note>
      <note>
        <pitch>
          <step>F</step>
          <alter>1</alter>
          <octave>6</octave>
          </pitch>
        <duration>5040</duration>
        <type>eighth</type>
        <accidental>sharp</accidental>
        <stem>down</stem>
        <beam number="1">end</beam>
        </note>
      </measure>
    <measure number="1207" width="191.8">
      <attributes />
      <note>
        <pitch>
          <step>D</step>
          <octave>6</octave>
          </pitch>
        <duration>5040</duration>
        <type>eighth</type>
        <stem>down</stem>
        <beam number="1">begin</beam>
        </note>
      <note>
        <pitch>
          <step>E</step>
          <octave>6</octave>
          </pitch>
        <duration>5040</duration>
        <type>eighth</type>
        <stem>down</stem>
        <beam number="1">continue</beam>
        </note>
      <note>
        <pitch>
          <step>F</step>
          <alter>1</alter>
          <octave>6</octave>
          </pitch>
        <duration>5040</duration>
        <type>eighth</type>
        <accidental>sharp</accidental>
        <stem>down</stem>
        <beam number="1">end</beam>
        </note>
      <note>
        <pitch>
          <step>D</step>
          <octave>6</octave>
          </pitch>
        <duration>5040</duration>
        <type>eighth</type>
        <stem>down</stem>
        <beam number="1">begin</beam>
        </note>
      <note>
        <pitch>
          <step>E</step>
          <octave>6</octave>
          </pitch>
        <duration>5040</duration>
        <type>eighth</type>
        <stem>down</stem>
        <beam number="1">continue</beam>
        </note>
      <note>
        <pitch>
          <step>F</step>
          <alter>1</alter>
          <octave>6</octave>
          </pitch>
        <duration>5040</duration>
        <type>eighth</type>
        <accidental>sharp</accidental>
        <stem>down</stem>
        <beam number="1">end</beam>
        </note>
      </measure>
    <measure number="1208" width="103.17">
      <attributes />
      <note>
        <pitch>
          <step>E</step>
          <octave>6</octave>
          </pitch>
        <duration>15120</duration>
        <type>quarter</type>
        <dot />
        <stem>down</stem>
        <notations>
          <articulations>
            <staccato />
            </articulations>
          </notations>
        </note>
      <note>
        <rest />
        <duration>15120</duration>
        <type>quarter</type>
        <dot />
        </note>
      </measure>
    <measure number="1209" width="191.35">
      <print new-page="yes">
        <system-layout>
          <system-margins>
            <left-margin>74.31</left-margin>
            <right-margin>0</right-margin>
            </system-margins>
          <top-system-distance>70</top-system-distance>
          </system-layout>
        </print>
      <attributes />
      <note>
        <pitch>
          <step>F</step>
          <octave>6</octave>
          </pitch>
        <duration>15120</duration>
        <type>quarter</type>
        <dot />
        <stem>down</stem>
        <notations>
          <articulations>
            <staccato />
            </articulations>
          </notations>
        </note>
      <note>
        <rest />
        <duration>15120</duration>
        <type>quarter</type>
        <dot />
        </note>
      </measure>
    <measure number="1210" width="188.62">
      <attributes />
      <note>
        <pitch>
          <step>F</step>
          <alter>1</alter>
          <octave>6</octave>
          </pitch>
        <duration>10080</duration>
        <type>quarter</type>
        <accidental>sharp</accidental>
        <stem>down</stem>
        </note>
      <note>
        <pitch>
          <step>A</step>
          <octave>4</octave>
          </pitch>
        <duration>1680</duration>
        <type>16th</type>
        <time-modification>
          <actual-notes>3</actual-notes>
          <normal-notes>2</normal-notes>
          <normal-type>16th</normal-type>
          </time-modification>
        <stem>up</stem>
        <beam number="1">begin</beam>
        <beam number="2">begin</beam>
        <notations>
          <tuplet bracket="no" number="1" type="start">
            <tuplet-actual>
              <tuplet-number>3</tuplet-number>
              <tuplet-type>16th</tuplet-type>
              </tuplet-actual>
            <tuplet-normal>
              <tuplet-number>2</tuplet-number>
              <tuplet-type>16th</tuplet-type>
              </tuplet-normal>
            </tuplet>
          </notations>
        </note>
      <note>
        <pitch>
          <step>B</step>
          <octave>4</octave>
          </pitch>
        <duration>1680</duration>
        <type>16th</type>
        <time-modification>
          <actual-notes>3</actual-notes>
          <normal-notes>2</normal-notes>
          <normal-type>16th</normal-type>
          </time-modification>
        <stem>up</stem>
        <beam number="1">continue</beam>
        <beam number="2">continue</beam>
        </note>
      <note>
        <pitch>
          <step>C</step>
          <alter>1</alter>
          <octave>5</octave>
          </pitch>
        <duration>1680</duration>
        <type>16th</type>
        <accidental>sharp</accidental>
        <time-modification>
          <actual-notes>3</actual-notes>
          <normal-notes>2</normal-notes>
          <normal-type>16th</normal-type>
          </time-modification>
        <stem>up</stem>
        <beam number="1">end</beam>
        <beam number="2">end</beam>
        <notations>
          <tuplet number="1" type="stop" />
          </notations>
        </note>
      <note>
        <pitch>
          <step>D</step>
          <octave>5</octave>
          </pitch>
        <duration>5040</duration>
        <type>eighth</type>
        <stem>down</stem>
        <beam number="1">begin</beam>
        </note>
      <note>
        <pitch>
          <step>E</step>
          <octave>5</octave>
          </pitch>
        <duration>5040</duration>
        <type>eighth</type>
        <stem>down</stem>
        <beam number="1">continue</beam>
        </note>
      <note>
        <pitch>
          <step>F</step>
          <alter>1</alter>
          <octave>5</octave>
          </pitch>
        <duration>5040</duration>
        <type>eighth</type>
        <accidental>sharp</accidental>
        <stem>down</stem>
        <beam number="1">end</beam>
        </note>
      </measure>
    <measure number="1211" width="196.96">
      <attributes />
      <note>
        <pitch>
          <step>G</step>
          <octave>5</octave>
          </pitch>
        <duration>5040</duration>
        <type>eighth</type>
        <stem>down</stem>
        <beam number="1">begin</beam>
        </note>
      <note>
        <pitch>
          <step>A</step>
          <octave>5</octave>
          </pitch>
        <duration>5040</duration>
        <type>eighth</type>
        <stem>down</stem>
        <beam number="1">continue</beam>
        </note>
      <note>
        <pitch>
          <step>B</step>
          <octave>5</octave>
          </pitch>
        <duration>5040</duration>
        <type>eighth</type>
        <stem>down</stem>
        <beam number="1">end</beam>
        </note>
      <note>
        <pitch>
          <step>C</step>
          <alter>1</alter>
          <octave>6</octave>
          </pitch>
        <duration>5040</duration>
        <type>eighth</type>
        <accidental>sharp</accidental>
        <stem>down</stem>
        <beam number="1">begin</beam>
        </note>
      <note>
        <pitch>
          <step>D</step>
          <octave>6</octave>
          </pitch>
        <duration>5040</duration>
        <type>eighth</type>
        <stem>down</stem>
        <beam number="1">continue</beam>
        </note>
      <note>
        <pitch>
          <step>E</step>
          <octave>6</octave>
          </pitch>
        <duration>5040</duration>
        <type>eighth</type>
        <stem>down</stem>
        <beam number="1">end</beam>
        </note>
      </measure>
    <measure number="1212" width="212.96">
      <attributes />
      <note>
        <pitch>
          <step>F</step>
          <alter>1</alter>
          <octave>6</octave>
          </pitch>
        <duration>5040</duration>
        <type>eighth</type>
        <accidental>sharp</accidental>
        <stem>down</stem>
        <beam number="1">begin</beam>
        </note>
      <note>
        <pitch>
          <step>G</step>
          <octave>6</octave>
          </pitch>
        <duration>5040</duration>
        <type>eighth</type>
        <stem>down</stem>
        <beam number="1">continue</beam>
        </note>
      <note>
        <pitch>
          <step>E</step>
          <octave>6</octave>
          </pitch>
        <duration>5040</duration>
        <type>eighth</type>
        <stem>down</stem>
        <beam number="1">end</beam>
        </note>
      <note>
        <pitch>
          <step>F</step>
          <alter>1</alter>
          <octave>6</octave>
          </pitch>
        <duration>5040</duration>
        <type>eighth</type>
        <accidental>sharp</accidental>
        <stem>down</stem>
        <beam number="1">begin</beam>
        </note>
      <note>
        <pitch>
          <step>G</step>
          <octave>6</octave>
          </pitch>
        <duration>5040</duration>
        <type>eighth</type>
        <stem>down</stem>
        <beam number="1">continue</beam>
        </note>
      <note>
        <pitch>
          <step>E</step>
          <octave>6</octave>
          </pitch>
        <duration>5040</duration>
        <type>eighth</type>
        <stem>down</stem>
        <beam number="1">end</beam>
        </note>
      </measure>
    <measure number="1213" width="212.96">
      <attributes />
      <note>
        <pitch>
          <step>F</step>
          <alter>1</alter>
          <octave>6</octave>
          </pitch>
        <duration>5040</duration>
        <type>eighth</type>
        <accidental>sharp</accidental>
        <stem>down</stem>
        <beam number="1">begin</beam>
        </note>
      <note>
        <pitch>
          <step>G</step>
          <octave>6</octave>
          </pitch>
        <duration>5040</duration>
        <type>eighth</type>
        <stem>down</stem>
        <beam number="1">continue</beam>
        </note>
      <note>
        <pitch>
          <step>E</step>
          <octave>6</octave>
          </pitch>
        <duration>5040</duration>
        <type>eighth</type>
        <stem>down</stem>
        <beam number="1">end</beam>
        </note>
      <note>
        <pitch>
          <step>F</step>
          <alter>1</alter>
          <octave>6</octave>
          </pitch>
        <duration>5040</duration>
        <type>eighth</type>
        <accidental>sharp</accidental>
        <stem>down</stem>
        <beam number="1">begin</beam>
        </note>
      <note>
        <pitch>
          <step>G</step>
          <octave>6</octave>
          </pitch>
        <duration>5040</duration>
        <type>eighth</type>
        <stem>down</stem>
        <beam number="1">continue</beam>
        </note>
      <note>
        <pitch>
          <step>E</step>
          <octave>6</octave>
          </pitch>
        <duration>5040</duration>
        <type>eighth</type>
        <stem>down</stem>
        <beam number="1">end</beam>
        </note>
      </measure>
    <measure number="1214" width="295.36">
      <print new-system="yes">
        <system-layout>
          <system-margins>
            <left-margin>74.31</left-margin>
            <right-margin>0</right-margin>
            </system-margins>
          <system-distance>150</system-distance>
          </system-layout>
        </print>
      <attributes />
      <note>
        <pitch>
          <step>E</step>
          <octave>6</octave>
          </pitch>
        <duration>30240</duration>
        <tie type="start" />
        <type>half</type>
        <dot />
        <stem>down</stem>
        <notations>
          <tied type="start" />
          </notations>
        </note>
      </measure>
    <measure number="1215" width="152.88">
      <attributes />
      <note>
        <pitch>
          <step>E</step>
          <octave>6</octave>
          </pitch>
        <duration>30240</duration>
        <tie type="stop" />
        <tie type="start" />
        <type>half</type>
        <dot />
        <stem>down</stem>
        <notations>
          <tied type="stop" />
          <tied type="start" />
          </notations>
        </note>
      </measure>
    <measure number="1216" width="152.88">
      <attributes />
      <note>
        <pitch>
          <step>E</step>
          <octave>6</octave>
          </pitch>
        <duration>30240</duration>
        <tie type="stop" />
        <tie type="start" />
        <type>half</type>
        <dot />
        <stem>down</stem>
        <notations>
          <tied type="stop" />
          <tied type="start" />
          </notations>
        </note>
      </measure>
    </part>
  <part id="Pf23f38362ec468d0b13eb79737722d08">
    <measure number="1201" width="254.2">
      <attributes>
        <divisions>10080</divisions>
        <key>
          <fifths>2</fifths>
          </key>
        <time>
          <beats>6</beats>
          <beat-type>8</beat-type>
          </time>
        <clef>
          <sign>G</sign>
          <line>2</line>
          </clef>
        </attributes>
      <note>
        <pitch>
          <step>B</step>
          <octave>4</octave>
          </pitch>
        <duration>5040</duration>
        <type>eighth</type>
        <stem>up</stem>
        <beam number="1">begin</beam>
        </note>
      <note>
        <pitch>
          <step>G</step>
          <octave>4</octave>
          </pitch>
        <duration>5040</duration>
        <type>eighth</type>
        <stem>up</stem>
        <beam number="1">continue</beam>
        </note>
      <note>
        <pitch>
          <step>A</step>
          <octave>4</octave>
          </pitch>
        <duration>5040</duration>
        <type>eighth</type>
        <stem>up</stem>
        <beam number="1">end</beam>
        </note>
      <note>
        <pitch>
          <step>F</step>
          <alter>1</alter>
          <octave>4</octave>
          </pitch>
        <duration>5040</duration>
        <type>eighth</type>
        <accidental>sharp</accidental>
        <stem>up</stem>
        <beam number="1">begin</beam>
        </note>
      <note>
        <pitch>
          <step>G</step>
          <octave>4</octave>
          </pitch>
        <duration>5040</duration>
        <type>eighth</type>
        <stem>up</stem>
        <beam number="1">continue</beam>
        </note>
      <note>
        <pitch>
          <step>E</step>
          <octave>4</octave>
          </pitch>
        <duration>5040</duration>
        <type>eighth</type>
        <stem>up</stem>
        <beam number="1">end</beam>
        </note>
      </measure>
    <measure number="1202" width="232.15">
      <attributes />
      <note>
        <pitch>
          <step>F</step>
          <alter>1</alter>
          <octave>4</octave>
          </pitch>
        <duration>5040</duration>
        <type>eighth</type>
        <accidental>sharp</accidental>
        <stem>up</stem>
        <beam number="1">begin</beam>
        </note>
      <note>
        <pitch>
          <step>E</step>
          <octave>4</octave>
          </pitch>
        <duration>5040</duration>
        <type>eighth</type>
        <stem>up</stem>
        <beam number="1">continue</beam>
        </note>
      <note>
        <pitch>
          <step>D</step>
          <octave>4</octave>
          </pitch>
        <duration>5040</duration>
        <type>eighth</type>
        <stem>up</stem>
        <beam number="1">end</beam>
        </note>
      <note>
        <pitch>
          <step>G</step>
          <octave>4</octave>
          </pitch>
        <duration>5040</duration>
        <type>eighth</type>
        <stem>up</stem>
        <beam number="1">begin</beam>
        </note>
      <note>
        <pitch>
          <step>F</step>
          <alter>1</alter>
          <octave>4</octave>
          </pitch>
        <duration>5040</duration>
        <type>eighth</type>
        <accidental>sharp</accidental>
        <stem>up</stem>
        <beam number="1">continue</beam>
        </note>
      <note>
        <pitch>
          <step>E</step>
          <octave>4</octave>
          </pitch>
        <duration>5040</duration>
        <type>eighth</type>
        <stem>up</stem>
        <beam number="1">end</beam>
        </note>
      </measure>
    <measure number="1203" width="180.48">
      <print new-system="yes">
        <system-layout>
          <system-margins>
            <left-margin>74.31</left-margin>
            <right-margin>0</right-margin>
            </system-margins>
          <system-distance>150</system-distance>
          </system-layout>
        <staff-layout number="2">
          <staff-distance>65</staff-distance>
          </staff-layout>
        </print>
      <attributes>
        <staff-details print-object="yes" />
        </attributes>
      <note>
        <pitch>
          <step>A</step>
          <octave>4</octave>
          </pitch>
        <duration>5040</duration>
        <type>eighth</type>
        <stem>up</stem>
        <beam number="1">begin</beam>
        </note>
      <note>
        <pitch>
          <step>E</step>
          <octave>4</octave>
          </pitch>
        <duration>5040</duration>
        <type>eighth</type>
        <stem>up</stem>
        <beam number="1">continue</beam>
        </note>
      <note>
        <pitch>
          <step>F</step>
          <alter>1</alter>
          <octave>4</octave>
          </pitch>
        <duration>5040</duration>
        <type>eighth</type>
        <accidental>sharp</accidental>
        <stem>up</stem>
        <beam number="1">end</beam>
        </note>
      <note>
        <pitch>
          <step>B</step>
          <octave>4</octave>
          </pitch>
        <duration>5040</duration>
        <type>eighth</type>
        <stem>up</stem>
        <beam number="1">begin</beam>
        </note>
      <note>
        <pitch>
          <step>A</step>
          <octave>4</octave>
          </pitch>
        <duration>5040</duration>
        <type>eighth</type>
        <stem>up</stem>
        <beam number="1">continue</beam>
        </note>
      <note>
        <pitch>
          <step>G</step>
          <octave>4</octave>
          </pitch>
        <duration>5040</duration>
        <type>eighth</type>
        <stem>up</stem>
        <beam number="1">end</beam>
        </note>
      </measure>
    <measure number="1204" width="151.8">
      <attributes />
      <note>
        <pitch>
          <step>A</step>
          <octave>4</octave>
          </pitch>
        <duration>5040</duration>
        <type>eighth</type>
        <stem>up</stem>
        <beam number="1">begin</beam>
        </note>
      <note>
        <chord />
        <pitch>
          <step>C</step>
          <alter>1</alter>
          <octave>5</octave>
          </pitch>
        <duration>5040</duration>
        <type>eighth</type>
        <accidental>sharp</accidental>
        <stem>up</stem>
        </note>
      <note>
        <pitch>
          <step>G</step>
          <octave>4</octave>
          </pitch>
        <duration>5040</duration>
        <type>eighth</type>
        <stem>up</stem>
        <beam number="1">continue</beam>
        </note>
      <note>
        <chord />
        <pitch>
          <step>B</step>
          <octave>4</octave>
          </pitch>
        <duration>5040</duration>
        <type>eighth</type>
        <stem>up</stem>
        </note>
      <note>
        <pitch>
          <step>F</step>
          <alter>1</alter>
          <octave>4</octave>
          </pitch>
        <duration>5040</duration>
        <type>eighth</type>
        <accidental>sharp</accidental>
        <stem>up</stem>
        <beam number="1">end</beam>
        </note>
      <note>
        <chord />
        <pitch>
          <step>A</step>
          <octave>4</octave>
          </pitch>
        <duration>5040</duration>
        <type>eighth</type>
        <stem>up</stem>
        </note>
      <note>
        <pitch>
          <step>B</step>
          <octave>4</octave>
          </pitch>
        <duration>5040</duration>
        <type>eighth</type>
        <stem>up</stem>
        <beam number="1">begin</beam>
        </note>
      <note>
        <chord />
        <pitch>
          <step>D</step>
          <octave>5</octave>
          </pitch>
        <duration>5040</duration>
        <type>eighth</type>
        <stem>up</stem>
        </note>
      <note>
        <pitch>
          <step>A</step>
          <octave>4</octave>
          </pitch>
        <duration>5040</duration>
        <type>eighth</type>
        <stem>up</stem>
        <beam number="1">continue</beam>
        </note>
      <note>
        <chord />
        <pitch>
          <step>C</step>
          <alter>1</alter>
          <octave>5</octave>
          </pitch>
        <duration>5040</duration>
        <type>eighth</type>
        <accidental>sharp</accidental>
        <stem>up</stem>
        </note>
      <note>
        <pitch>
          <step>G</step>
          <octave>4</octave>
          </pitch>
        <duration>5040</duration>
        <type>eighth</type>
        <stem>up</stem>
        <beam number="1">end</beam>
        </note>
      <note>
        <chord />
        <pitch>
          <step>B</step>
          <octave>4</octave>
          </pitch>
        <duration>5040</duration>
        <type>eighth</type>
        <stem>up</stem>
        </note>
      </measure>
    <measure number="1205" width="183.8">
      <attributes />
      <note>
        <pitch>
          <step>C</step>
          <alter>1</alter>
          <octave>5</octave>
          </pitch>
        <duration>5040</duration>
        <type>eighth</type>
        <accidental>sharp</accidental>
        <stem>down</stem>
        <beam number="1">begin</beam>
        </note>
      <note>
        <chord />
        <pitch>
          <step>E</step>
          <octave>5</octave>
          </pitch>
        <duration>5040</duration>
        <type>eighth</type>
        <stem>down</stem>
        </note>
      <note>
        <pitch>
          <step>B</step>
          <octave>4</octave>
          </pitch>
        <duration>5040</duration>
        <type>eighth</type>
        <stem>down</stem>
        <beam number="1">continue</beam>
        </note>
      <note>
        <chord />
        <pitch>
          <step>D</step>
          <octave>5</octave>
          </pitch>
        <duration>5040</duration>
        <type>eighth</type>
        <stem>down</stem>
        </note>
      <note>
        <pitch>
          <step>A</step>
          <octave>4</octave>
          </pitch>
        <duration>5040</duration>
        <type>eighth</type>
        <stem>down</stem>
        <beam number="1">end</beam>
        </note>
      <note>
        <chord />
        <pitch>
          <step>C</step>
          <alter>1</alter>
          <octave>5</octave>
          </pitch>
        <duration>5040</duration>
        <type>eighth</type>
        <accidental>sharp</accidental>
        <stem>down</stem>
        </note>
      <note>
        <pitch>
          <step>D</step>
          <octave>5</octave>
          </pitch>
        <duration>5040</duration>
        <type>eighth</type>
        <stem>down</stem>
        <beam number="1">begin</beam>
        </note>
      <note>
        <chord />
        <pitch>
          <step>F</step>
          <alter>1</alter>
          <octave>5</octave>
          </pitch>
        <duration>5040</duration>
        <type>eighth</type>
        <accidental>sharp</accidental>
        <stem>down</stem>
        </note>
      <note>
        <pitch>
          <step>C</step>
          <alter>1</alter>
          <octave>5</octave>
          </pitch>
        <duration>5040</duration>
        <type>eighth</type>
        <accidental>sharp</accidental>
        <stem>down</stem>
        <beam number="1">continue</beam>
        </note>
      <note>
        <chord />
        <pitch>
          <step>E</step>
          <octave>5</octave>
          </pitch>
        <duration>5040</duration>
        <type>eighth</type>
        <stem>down</stem>
        </note>
      <note>
        <pitch>
          <step>B</step>
          <octave>4</octave>
          </pitch>
        <duration>5040</duration>
        <type>eighth</type>
        <stem>down</stem>
        <beam number="1">end</beam>
        </note>
      <note>
        <chord />
        <pitch>
          <step>D</step>
          <octave>5</octave>
          </pitch>
        <duration>5040</duration>
        <type>eighth</type>
        <stem>down</stem>
        </note>
      </measure>
    <measure number="1206" width="191.8">
      <attributes />
      <note>
        <pitch>
          <step>E</step>
          <octave>5</octave>
          </pitch>
        <duration>5040</duration>
        <type>eighth</type>
        <stem>down</stem>
        <beam number="1">begin</beam>
        </note>
      <note>
        <chord />
        <pitch>
          <step>G</step>
          <octave>5</octave>
          </pitch>
        <duration>5040</duration>
        <type>eighth</type>
        <stem>down</stem>
        </note>
      <note>
        <pitch>
          <step>D</step>
          <octave>5</octave>
          </pitch>
        <duration>5040</duration>
        <type>eighth</type>
        <stem>down</stem>
        <beam number="1">continue</beam>
        </note>
      <note>
        <chord />
        <pitch>
          <step>F</step>
          <alter>1</alter>
          <octave>5</octave>
          </pitch>
        <duration>5040</duration>
        <type>eighth</type>
        <accidental>sharp</accidental>
        <stem>down</stem>
        </note>
      <note>
        <pitch>
          <step>C</step>
          <alter>1</alter>
          <octave>5</octave>
          </pitch>
        <duration>5040</duration>
        <type>eighth</type>
        <accidental>sharp</accidental>
        <stem>down</stem>
        <beam number="1">end</beam>
        </note>
      <note>
        <chord />
        <pitch>
          <step>E</step>
          <octave>5</octave>
          </pitch>
        <duration>5040</duration>
        <type>eighth</type>
        <stem>down</stem>
        </note>
      <note>
        <pitch>
          <step>F</step>
          <alter>1</alter>
          <octave>5</octave>
          </pitch>
        <duration>5040</duration>
        <type>eighth</type>
        <accidental>sharp</accidental>
        <stem>down</stem>
        <beam number="1">begin</beam>
        </note>
      <note>
        <chord />
        <pitch>
          <step>A</step>
          <octave>5</octave>
          </pitch>
        <duration>5040</duration>
        <type>eighth</type>
        <stem>down</stem>
        </note>
      <note>
        <pitch>
          <step>E</step>
          <octave>5</octave>
          </pitch>
        <duration>5040</duration>
        <type>eighth</type>
        <stem>down</stem>
        <beam number="1">continue</beam>
        </note>
      <note>
        <chord />
        <pitch>
          <step>G</step>
          <octave>5</octave>
          </pitch>
        <duration>5040</duration>
        <type>eighth</type>
        <stem>down</stem>
        </note>
      <note>
        <pitch>
          <step>D</step>
          <octave>5</octave>
          </pitch>
        <duration>5040</duration>
        <type>eighth</type>
        <stem>down</stem>
        <beam number="1">end</beam>
        </note>
      <note>
        <chord />
        <pitch>
          <step>F</step>
          <alter>1</alter>
          <octave>5</octave>
          </pitch>
        <duration>5040</duration>
        <type>eighth</type>
        <accidental>sharp</accidental>
        <stem>down</stem>
        </note>
      </measure>
    <measure number="1207" width="191.8">
      <attributes />
      <note>
        <pitch>
          <step>F</step>
          <alter>1</alter>
          <octave>5</octave>
          </pitch>
        <duration>5040</duration>
        <type>eighth</type>
        <accidental>sharp</accidental>
        <stem>down</stem>
        <beam number="1">begin</beam>
        </note>
      <note>
        <chord />
        <pitch>
          <step>A</step>
          <octave>5</octave>
          </pitch>
        <duration>5040</duration>
        <type>eighth</type>
        <stem>down</stem>
        </note>
      <note>
        <pitch>
          <step>E</step>
          <octave>5</octave>
          </pitch>
        <duration>5040</duration>
        <type>eighth</type>
        <stem>down</stem>
        <beam number="1">continue</beam>
        </note>
      <note>
        <chord />
        <pitch>
          <step>G</step>
          <octave>5</octave>
          </pitch>
        <duration>5040</duration>
        <type>eighth</type>
        <stem>down</stem>
        </note>
      <note>
        <pitch>
          <step>D</step>
          <octave>5</octave>
          </pitch>
        <duration>5040</duration>
        <type>eighth</type>
        <stem>down</stem>
        <beam number="1">end</beam>
        </note>
      <note>
        <chord />
        <pitch>
          <step>F</step>
          <alter>1</alter>
          <octave>5</octave>
          </pitch>
        <duration>5040</duration>
        <type>eighth</type>
        <accidental>sharp</accidental>
        <stem>down</stem>
        </note>
      <note>
        <pitch>
          <step>F</step>
          <alter>1</alter>
          <octave>5</octave>
          </pitch>
        <duration>5040</duration>
        <type>eighth</type>
        <stem>down</stem>
        <beam number="1">begin</beam>
        </note>
      <note>
        <chord />
        <pitch>
          <step>A</step>
          <octave>5</octave>
          </pitch>
        <duration>5040</duration>
        <type>eighth</type>
        <stem>down</stem>
        </note>
      <note>
        <pitch>
          <step>E</step>
          <octave>5</octave>
          </pitch>
        <duration>5040</duration>
        <type>eighth</type>
        <stem>down</stem>
        <beam number="1">continue</beam>
        </note>
      <note>
        <chord />
        <pitch>
          <step>G</step>
          <octave>5</octave>
          </pitch>
        <duration>5040</duration>
        <type>eighth</type>
        <stem>down</stem>
        </note>
      <note>
        <pitch>
          <step>D</step>
          <octave>5</octave>
          </pitch>
        <duration>5040</duration>
        <type>eighth</type>
        <stem>down</stem>
        <beam number="1">end</beam>
        </note>
      <note>
        <chord />
        <pitch>
          <step>F</step>
          <alter>1</alter>
          <octave>5</octave>
          </pitch>
        <duration>5040</duration>
        <type>eighth</type>
        <accidental>sharp</accidental>
        <stem>down</stem>
        </note>
      </measure>
    <measure number="1208" width="103.17">
      <attributes />
      <note>
        <pitch>
          <step>E</step>
          <octave>5</octave>
          </pitch>
        <duration>15120</duration>
        <type>quarter</type>
        <dot />
        <stem>down</stem>
        </note>
      <note>
        <chord />
        <pitch>
          <step>B</step>
          <octave>5</octave>
          </pitch>
        <duration>15120</duration>
        <type>quarter</type>
        <dot />
        <stem>down</stem>
        </note>
      <note>
        <chord />
        <pitch>
          <step>D</step>
          <octave>6</octave>
          </pitch>
        <duration>15120</duration>
        <type>quarter</type>
        <dot />
        <stem>down</stem>
        </note>
      <note>
        <rest />
        <duration>15120</duration>
        <type>quarter</type>
        <dot />
        </note>
      </measure>
    <measure number="1209" width="191.35">
      <print new-page="yes">
        <system-layout>
          <system-margins>
            <left-margin>74.31</left-margin>
            <right-margin>0</right-margin>
            </system-margins>
          <top-system-distance>70</top-system-distance>
          </system-layout>
        <staff-layout number="2">
          <staff-distance>65</staff-distance>
          </staff-layout>
        </print>
      <attributes>
        <staff-details print-object="yes" />
        </attributes>
      <note>
        <pitch>
          <step>F</step>
          <octave>5</octave>
          </pitch>
        <duration>15120</duration>
        <type>quarter</type>
        <dot />
        <stem>down</stem>
        </note>
      <note>
        <chord />
        <pitch>
          <step>G</step>
          <alter>1</alter>
          <octave>5</octave>
          </pitch>
        <duration>15120</duration>
        <type>quarter</type>
        <dot />
        <accidental>sharp</accidental>
        <stem>down</stem>
        </note>
      <note>
        <chord />
        <pitch>
          <step>B</step>
          <octave>5</octave>
          </pitch>
        <duration>15120</duration>
        <type>quarter</type>
        <dot />
        <stem>down</stem>
        </note>
      <note>
        <chord />
        <pitch>
          <step>D</step>
          <octave>6</octave>
          </pitch>
        <duration>15120</duration>
        <type>quarter</type>
        <dot />
        <stem>down</stem>
        </note>
      <note>
        <rest />
        <duration>15120</duration>
        <type>quarter</type>
        <dot />
        </note>
      </measure>
    <measure number="1210" width="188.62">
      <attributes />
      <note>
        <pitch>
          <step>F</step>
          <alter>1</alter>
          <octave>5</octave>
          </pitch>
        <duration>15120</duration>
        <type>quarter</type>
        <dot />
        <accidental>sharp</accidental>
        <stem>down</stem>
        </note>
      <note>
        <chord />
        <pitch>
          <step>A</step>
          <octave>5</octave>
          </pitch>
        <duration>15120</duration>
        <type>quarter</type>
        <dot />
        <stem>down</stem>
        </note>
      <note>
        <chord />
        <pitch>
          <step>D</step>
          <octave>6</octave>
          </pitch>
        <duration>15120</duration>
        <type>quarter</type>
        <dot />
        <stem>down</stem>
        </note>
      <note>
        <rest />
        <duration>15120</duration>
        <type>quarter</type>
        <dot />
        </note>
      </measure>
    <measure number="1211" width="196.96">
      <attributes />
      <note>
        <rest measure="yes" />
        <duration>30240</duration>
        </note>
      </measure>
    <measure number="1212" width="212.96">
      <attributes />
      <note>
        <rest measure="yes" />
        <duration>30240</duration>
        </note>
      </measure>
    <measure number="1213" width="212.96">
      <attributes />
      <note>
        <rest measure="yes" />
        <duration>30240</duration>
        </note>
      </measure>
    <measure number="1214" width="295.36">
      <print new-system="yes">
        <system-layout>
          <system-margins>
            <left-margin>74.31</left-margin>
            <right-margin>0</right-margin>
            </system-margins>
          <system-distance>150</system-distance>
          </system-layout>
        <staff-layout number="2">
          <staff-distance>65</staff-distance>
          </staff-layout>
        </print>
      <attributes>
        <staff-details print-object="yes" />
        </attributes>
      <note>
        <rest measure="yes" />
        <duration>30240</duration>
        </note>
      </measure>
    <measure number="1215" width="152.88">
      <attributes />
      <note>
        <rest measure="yes" />
        <duration>30240</duration>
        </note>
      </measure>
    <measure number="1216" width="152.88">
      <attributes />
      <note>
        <rest measure="yes" />
        <duration>30240</duration>
        </note>
      </measure>
    </part>
  <part id="P2">
    <measure number="1201" width="254.2">
      <attributes>
        <divisions>10080</divisions>
        <key>
          <fifths>2</fifths>
          </key>
        <time>
          <beats>6</beats>
          <beat-type>8</beat-type>
          </time>
        <clef>
          <sign>G</sign>
          <line>2</line>
          </clef>
        </attributes>
      <note>
        <pitch>
          <step>G</step>
          <octave>4</octave>
          </pitch>
        <duration>5040</duration>
        <type>eighth</type>
        <stem>up</stem>
        <beam number="1">begin</beam>
        </note>
      <note>
        <pitch>
          <step>E</step>
          <octave>4</octave>
          </pitch>
        <duration>5040</duration>
        <type>eighth</type>
        <stem>up</stem>
        <beam number="1">continue</beam>
        </note>
      <note>
        <pitch>
          <step>F</step>
          <alter>1</alter>
          <octave>4</octave>
          </pitch>
        <duration>5040</duration>
        <type>eighth</type>
        <accidental>sharp</accidental>
        <stem>up</stem>
        <beam number="1">end</beam>
        </note>
      <note>
        <pitch>
          <step>E</step>
          <alter>-1</alter>
          <octave>4</octave>
          </pitch>
        <duration>5040</duration>
        <type>eighth</type>
        <accidental>flat</accidental>
        <stem>up</stem>
        <beam number="1">begin</beam>
        </note>
      <note>
        <pitch>
          <step>E</step>
          <alter>0</alter>
          <octave>4</octave>
          </pitch>
        <duration>5040</duration>
        <type>eighth</type>
        <accidental>natural</accidental>
        <stem>up</stem>
        <beam number="1">continue</beam>
        </note>
      <attributes>
        <clef>
          <sign>F</sign>
          <line>4</line>
          </clef>
        </attributes>
      <note>
        <pitch>
          <step>C</step>
          <alter>1</alter>
          <octave>4</octave>
          </pitch>
        <duration>5040</duration>
        <type>eighth</type>
        <accidental>sharp</accidental>
        <stem>up</stem>
        <beam number="1">end</beam>
        </note>
      </measure>
    <measure number="1202" width="232.15">
      <attributes />
      <note>
        <pitch>
          <step>D</step>
          <octave>4</octave>
          </pitch>
        <duration>5040</duration>
        <type>eighth</type>
        <stem>down</stem>
        <beam number="1">begin</beam>
        </note>
      <note>
        <pitch>
          <step>C</step>
          <alter>1</alter>
          <octave>4</octave>
          </pitch>
        <duration>5040</duration>
        <type>eighth</type>
        <accidental>sharp</accidental>
        <stem>down</stem>
        <beam number="1">continue</beam>
        </note>
      <note>
        <pitch>
          <step>B</step>
          <octave>3</octave>
          </pitch>
        <duration>5040</duration>
        <type>eighth</type>
        <stem>down</stem>
        <beam number="1">end</beam>
        </note>
      <note>
        <pitch>
          <step>E</step>
          <octave>4</octave>
          </pitch>
        <duration>5040</duration>
        <type>eighth</type>
        <stem>down</stem>
        <beam number="1">begin</beam>
        </note>
      <attributes>
        <clef>
          <sign>G</sign>
          <line>2</line>
          </clef>
        </attributes>
      <note>
        <pitch>
          <step>D</step>
          <octave>4</octave>
          </pitch>
        <duration>5040</duration>
        <type>eighth</type>
        <stem>down</stem>
        <beam number="1">continue</beam>
        </note>
      <note>
        <pitch>
          <step>C</step>
          <alter>1</alter>
          <octave>4</octave>
          </pitch>
        <duration>5040</duration>
        <type>eighth</type>
        <accidental>sharp</accidental>
        <stem>down</stem>
        <beam number="1">end</beam>
        </note>
      </measure>
    <measure number="1203" width="180.48">
      <print new-system="yes">
        <staff-layout number="1">
          <staff-distance>65</staff-distance>
          </staff-layout>
        </print>
      <attributes>
        <staff-details print-object="yes" />
        </attributes>
      <note>
        <pitch>
          <step>F</step>
          <alter>1</alter>
          <octave>4</octave>
          </pitch>
        <duration>5040</duration>
        <type>eighth</type>
        <accidental>sharp</accidental>
        <stem>up</stem>
        <beam number="1">begin</beam>
        </note>
      <note>
        <pitch>
          <step>E</step>
          <octave>4</octave>
          </pitch>
        <duration>5040</duration>
        <type>eighth</type>
        <stem>up</stem>
        <beam number="1">continue</beam>
        </note>
      <note>
        <pitch>
          <step>D</step>
          <octave>4</octave>
          </pitch>
        <duration>5040</duration>
        <type>eighth</type>
        <stem>up</stem>
        <beam number="1">end</beam>
        </note>
      <note>
        <pitch>
          <step>G</step>
          <octave>4</octave>
          </pitch>
        <duration>5040</duration>
        <type>eighth</type>
        <stem>up</stem>
        <beam number="1">begin</beam>
        </note>
      <note>
        <pitch>
          <step>F</step>
          <alter>1</alter>
          <octave>4</octave>
          </pitch>
        <duration>5040</duration>
        <type>eighth</type>
        <accidental>sharp</accidental>
        <stem>up</stem>
        <beam number="1">continue</beam>
        </note>
      <note>
        <pitch>
          <step>E</step>
          <octave>4</octave>
          </pitch>
        <duration>5040</duration>
        <type>eighth</type>
        <stem>up</stem>
        <beam number="1">end</beam>
        </note>
      </measure>
    <measure number="1204" width="151.8">
      <attributes />
      <note>
        <rest measure="yes" />
        <duration>30240</duration>
        </note>
      </measure>
    <measure number="1205" width="183.8">
      <attributes />
      <note>
        <rest measure="yes" />
        <duration>30240</duration>
        </note>
      </measure>
    <measure number="1206" width="191.8">
      <attributes />
      <note>
        <rest measure="yes" />
        <duration>30240</duration>
        </note>
      </measure>
    <measure number="1207" width="191.8">
      <attributes />
      <note>
        <rest measure="yes" />
        <duration>30240</duration>
        </note>
      </measure>
    <measure number="1208" width="103.17">
      <attributes />
      <note>
        <pitch>
          <step>D</step>
          <octave>5</octave>
          </pitch>
        <duration>15120</duration>
        <type>quarter</type>
        <dot />
        <stem>down</stem>
        <notations>
          <articulations>
            <staccato />
            </articulations>
          </notations>
        </note>
      <note>
        <rest />
        <duration>15120</duration>
        <type>quarter</type>
        <dot />
        </note>
      </measure>
    <measure number="1209" width="191.35">
      <print new-page="yes">
        <staff-layout number="1">
          <staff-distance>65</staff-distance>
          </staff-layout>
        </print>
      <attributes>
        <staff-details print-object="yes" />
        </attributes>
      <note>
        <pitch>
          <step>D</step>
          <octave>5</octave>
          </pitch>
        <duration>15120</duration>
        <type>quarter</type>
        <dot />
        <stem>down</stem>
        <notations>
          <articulations>
            <staccato />
            </articulations>
          </notations>
        </note>
      <note>
        <rest />
        <duration>15120</duration>
        <type>quarter</type>
        <dot />
        </note>
      </measure>
    <measure number="1210" width="188.62">
      <attributes />
      <note>
        <pitch>
          <step>A</step>
          <octave>4</octave>
          </pitch>
        <duration>15120</duration>
        <type>quarter</type>
        <dot />
        <stem>up</stem>
        <notations>
          <articulations>
            <staccato />
            </articulations>
          </notations>
        </note>
      <note>
        <rest />
        <duration>15120</duration>
        <type>quarter</type>
        <dot />
        </note>
      </measure>
    <measure number="1211" width="196.96">
      <attributes />
      <note>
        <rest measure="yes" />
        <duration>30240</duration>
        </note>
      </measure>
    <measure number="1212" width="212.96">
      <attributes />
      <note>
        <rest measure="yes" />
        <duration>30240</duration>
        </note>
      </measure>
    <measure number="1213" width="212.96">
      <attributes />
      <note>
        <rest measure="yes" />
        <duration>30240</duration>
        </note>
      </measure>
    <measure number="1214" width="295.36">
      <print new-system="yes">
        <staff-layout number="1">
          <staff-distance>65</staff-distance>
          </staff-layout>
        </print>
      <attributes>
        <staff-details print-object="yes" />
        </attributes>
      <note>
        <rest />
        <duration>10080</duration>
        <type>quarter</type>
        </note>
      <attributes>
        <clef>
          <sign>F</sign>
          <line>4</line>
          </clef>
        </attributes>
      <note>
        <pitch>
          <step>A</step>
          <octave>3</octave>
          </pitch>
        <duration>1260</duration>
        <type>32nd</type>
        <stem>down</stem>
        <beam number="1">begin</beam>
        <beam number="2">begin</beam>
        <beam number="3">begin</beam>
        </note>
      <note>
        <pitch>
          <step>B</step>
          <octave>3</octave>
          </pitch>
        <duration>1260</duration>
        <type>32nd</type>
        <stem>down</stem>
        <beam number="1">continue</beam>
        <beam number="2">continue</beam>
        <beam number="3">continue</beam>
        </note>
      <note>
        <pitch>
          <step>C</step>
          <alter>1</alter>
          <octave>4</octave>
          </pitch>
        <duration>1260</duration>
        <type>32nd</type>
        <accidental>sharp</accidental>
        <stem>down</stem>
        <beam number="1">continue</beam>
        <beam number="2">continue</beam>
        <beam number="3">continue</beam>
        </note>
      <note>
        <pitch>
          <step>D</step>
          <octave>4</octave>
          </pitch>
        <duration>1260</duration>
        <type>32nd</type>
        <stem>down</stem>
        <beam number="1">end</beam>
        <beam number="2">end</beam>
        <beam number="3">end</beam>
        </note>
      <note>
        <pitch>
          <step>E</step>
          <octave>4</octave>
          </pitch>
        <duration>5040</duration>
        <type>eighth</type>
        <stem>down</stem>
        <beam number="1">begin</beam>
        </note>
      <attributes>
        <clef>
          <sign>G</sign>
          <line>2</line>
          </clef>
        </attributes>
      <note>
        <pitch>
          <step>F</step>
          <alter>1</alter>
          <octave>4</octave>
          </pitch>
        <duration>5040</duration>
        <type>eighth</type>
        <accidental>sharp</accidental>
        <stem>down</stem>
        <beam number="1">continue</beam>
        </note>
      <note>
        <pitch>
          <step>G</step>
          <alter>1</alter>
          <octave>4</octave>
          </pitch>
        <duration>5040</duration>
        <type>eighth</type>
        <accidental>sharp</accidental>
        <stem>down</stem>
        <beam number="1">end</beam>
        </note>
      </measure>
    <measure number="1215" width="152.88">
      <attributes />
      <note>
        <pitch>
          <step>A</step>
          <octave>4</octave>
          </pitch>
        <duration>5040</duration>
        <type>eighth</type>
        <stem>up</stem>
        <beam number="1">begin</beam>
        </note>
      <note>
        <pitch>
          <step>B</step>
          <octave>4</octave>
          </pitch>
        <duration>5040</duration>
        <type>eighth</type>
        <stem>up</stem>
        <beam number="1">continue</beam>
        </note>
      <note>
        <pitch>
          <step>C</step>
          <alter>1</alter>
          <octave>5</octave>
          </pitch>
        <duration>5040</duration>
        <type>eighth</type>
        <accidental>sharp</accidental>
        <stem>up</stem>
        <beam number="1">end</beam>
        </note>
      <note>
        <pitch>
          <step>D</step>
          <octave>5</octave>
          </pitch>
        <duration>5040</duration>
        <type>eighth</type>
        <stem>down</stem>
        <beam number="1">begin</beam>
        </note>
      <note>
        <pitch>
          <step>E</step>
          <octave>5</octave>
          </pitch>
        <duration>5040</duration>
        <type>eighth</type>
        <stem>down</stem>
        <beam number="1">continue</beam>
        </note>
      <note>
        <pitch>
          <step>F</step>
          <alter>1</alter>
          <octave>5</octave>
          </pitch>
        <duration>5040</duration>
        <type>eighth</type>
        <accidental>sharp</accidental>
        <stem>down</stem>
        <beam number="1">end</beam>
        </note>
      </measure>
    <measure number="1216" width="152.88">
      <attributes />
      <note>
        <pitch>
          <step>G</step>
          <octave>5</octave>
          </pitch>
        <duration>5040</duration>
        <type>eighth</type>
        <stem>down</stem>
        <beam number="1">begin</beam>
        </note>
      <note>
        <pitch>
          <step>A</step>
          <octave>5</octave>
          </pitch>
        <duration>5040</duration>
        <type>eighth</type>
        <stem>down</stem>
        <beam number="1">continue</beam>
        </note>
      <note>
        <pitch>
          <step>F</step>
          <alter>1</alter>
          <octave>5</octave>
          </pitch>
        <duration>5040</duration>
        <type>eighth</type>
        <accidental>sharp</accidental>
        <stem>down</stem>
        <beam number="1">end</beam>
        </note>
      <note>
        <pitch>
          <step>G</step>
          <octave>5</octave>
          </pitch>
        <duration>5040</duration>
        <type>eighth</type>
        <stem>down</stem>
        <beam number="1">begin</beam>
        </note>
      <note>
        <pitch>
          <step>A</step>
          <octave>5</octave>
          </pitch>
        <duration>5040</duration>
        <type>eighth</type>
        <stem>down</stem>
        <beam number="1">continue</beam>
        </note>
      <note>
        <pitch>
          <step>F</step>
          <alter>1</alter>
          <octave>5</octave>
          </pitch>
        <duration>5040</duration>
        <type>eighth</type>
        <accidental>sharp</accidental>
        <stem>down</stem>
        <beam number="1">end</beam>
        </note>
      </measure>
    </part>
  <part id="P1b5cfed1c7c251111731bc911ecab7b8">
    <measure number="1201" width="254.2">
      <attributes>
        <divisions>10080</divisions>
        <key>
          <fifths>2</fifths>
          </key>
        <time>
          <beats>6</beats>
          <beat-type>8</beat-type>
          </time>
        <clef>
          <sign>G</sign>
          <line>2</line>
          </clef>
        </attributes>
      <note>
        <rest measure="yes" />
        <duration>30240</duration>
        </note>
      </measure>
    <measure number="1202" width="232.15">
      <attributes />
      <note>
        <rest measure="yes" />
        <duration>30240</duration>
        </note>
      </measure>
    <measure number="1203" width="180.48">
      <print new-system="yes">
        <staff-layout number="2">
          <staff-distance>65</staff-distance>
          </staff-layout>
        </print>
      <attributes>
        <staff-details print-object="yes" />
        </attributes>
      <note>
        <rest measure="yes" />
        <duration>30240</duration>
        </note>
      </measure>
    <measure number="1204" width="151.8">
      <attributes />
      <note>
        <rest measure="yes" />
        <duration>30240</duration>
        </note>
      </measure>
    <measure number="1205" width="183.8">
      <attributes />
      <note>
        <rest measure="yes" />
        <duration>30240</duration>
        </note>
      </measure>
    <measure number="1206" width="191.8">
      <attributes />
      <note>
        <rest measure="yes" />
        <duration>30240</duration>
        </note>
      </measure>
    <measure number="1207" width="191.8">
      <attributes />
      <note>
        <rest measure="yes" />
        <duration>30240</duration>
        </note>
      </measure>
    <measure number="1208" width="103.17">
      <attributes />
      <note>
        <pitch>
          <step>G</step>
          <octave>4</octave>
          </pitch>
        <duration>15120</duration>
        <type>quarter</type>
        <dot />
        <stem>up</stem>
        </note>
      <note>
        <chord />
        <pitch>
          <step>B</step>
          <octave>4</octave>
          </pitch>
        <duration>15120</duration>
        <type>quarter</type>
        <dot />
        <stem>up</stem>
        </note>
      <note>
        <rest />
        <duration>15120</duration>
        <type>quarter</type>
        <dot />
        </note>
      </measure>
    <measure number="1209" width="191.35">
      <print new-page="yes">
        <staff-layout number="2">
          <staff-distance>65</staff-distance>
          </staff-layout>
        </print>
      <attributes>
        <staff-details print-object="yes" />
        </attributes>
      <note>
        <pitch>
          <step>G</step>
          <alter>1</alter>
          <octave>4</octave>
          </pitch>
        <duration>15120</duration>
        <type>quarter</type>
        <dot />
        <accidental>sharp</accidental>
        <stem>up</stem>
        </note>
      <note>
        <chord />
        <pitch>
          <step>B</step>
          <octave>4</octave>
          </pitch>
        <duration>15120</duration>
        <type>quarter</type>
        <dot />
        <stem>up</stem>
        </note>
      <note>
        <rest />
        <duration>15120</duration>
        <type>quarter</type>
        <dot />
        </note>
      </measure>
    <measure number="1210" width="188.62">
      <attributes />
      <note>
        <pitch>
          <step>A</step>
          <octave>3</octave>
          </pitch>
        <duration>15120</duration>
        <type>quarter</type>
        <dot />
        <stem>up</stem>
        </note>
      <note>
        <chord />
        <pitch>
          <step>D</step>
          <octave>4</octave>
          </pitch>
        <duration>15120</duration>
        <type>quarter</type>
        <dot />
        <stem>up</stem>
        </note>
      <note>
        <chord />
        <pitch>
          <step>F</step>
          <alter>1</alter>
          <octave>4</octave>
          </pitch>
        <duration>15120</duration>
        <type>quarter</type>
        <dot />
        <accidental>sharp</accidental>
        <stem>up</stem>
        </note>
      <note>
        <rest />
        <duration>15120</duration>
        <type>quarter</type>
        <dot />
        </note>
      </measure>
    <measure number="1211" width="196.96">
      <attributes />
      <note>
        <rest measure="yes" />
        <duration>30240</duration>
        </note>
      </measure>
    <measure number="1212" width="212.96">
      <attributes />
      <note>
        <rest measure="yes" />
        <duration>30240</duration>
        </note>
      </measure>
    <measure number="1213" width="212.96">
      <attributes />
      <note>
        <rest measure="yes" />
        <duration>30240</duration>
        </note>
      </measure>
    <measure number="1214" width="295.36">
      <print new-system="yes">
        <staff-layout number="2">
          <staff-distance>65</staff-distance>
          </staff-layout>
        </print>
      <attributes>
        <staff-details print-object="yes" />
        </attributes>
      <note>
        <rest measure="yes" />
        <duration>30240</duration>
        </note>
      </measure>
    <measure number="1215" width="152.88">
      <attributes />
      <note>
        <rest measure="yes" />
        <duration>30240</duration>
        </note>
      </measure>
    <measure number="1216" width="152.88">
      <attributes />
      <note>
        <rest measure="yes" />
        <duration>30240</duration>
        </note>
      </measure>
    </part>
  </score-partwise>
