<?xml version="1.0" encoding="utf-8"?>
<!DOCTYPE score-partwise
  PUBLIC '-//Recordare//DTD MusicXML 2.0 Partwise//EN'
  'http://www.musicxml.org/dtds/partwise.dtd'>
<score-partwise>
  <work>
    <work-title>mxcap464.xml</work-title>
    </work>
  <movement-title>mxcap464.xml</movement-title>
  <identification>
    <creator type="composer">Music21</creator>
    <encoding>
      <encoding-date>2018-01-04</encoding-date>
      <software>Music21</software>
      <supports attribute="new-system" element="print" type="yes" value="yes" />
      <supports attribute="new-page" element="print" type="yes" value="yes" />
      </encoding>
    </identification>
  <defaults>
    <scaling>
      <millimeters>7</millimeters>
      <tenths>40</tenths>
      </scaling>
    </defaults>
  <part-list>
    <score-part id="P1">
      <part-name>Piano, Klavier rechte Hand</part-name>
      <part-abbreviation>Pno.</part-abbreviation>
      <score-instrument id="Ic79ce15e711ece163b23a74df69f2957">
        <instrument-name>Piano</instrument-name>
        </score-instrument>
      <midi-instrument id="Ic79ce15e711ece163b23a74df69f2957">
        <midi-channel>1</midi-channel>
        <midi-program>1</midi-program>
        </midi-instrument>
      </score-part>
    <score-part id="Pdb6d6b59288ddacb670fcc0e3cb626d4">
      <part-name>Piano, Klavier rechte Hand</part-name>
      <part-abbreviation>Pno.</part-abbreviation>
      <score-instrument id="Ie8944282d3f0cc3d3947d41aab6c90c4">
        <instrument-name>Piano</instrument-name>
        </score-instrument>
      <midi-instrument id="Ie8944282d3f0cc3d3947d41aab6c90c4">
        <midi-channel>2</midi-channel>
        <midi-program>1</midi-program>
        </midi-instrument>
      </score-part>
    <score-part id="P2">
      <part-name>Piano</part-name>
      <part-abbreviation>Pno.</part-abbreviation>
      <score-instrument id="Ia0d304ea2aa201aea6490514b2418584">
        <instrument-name>Piano</instrument-name>
        </score-instrument>
      <midi-instrument id="Ia0d304ea2aa201aea6490514b2418584">
        <midi-channel>3</midi-channel>
        <midi-program>1</midi-program>
        </midi-instrument>
      </score-part>
    </part-list>
  <part id="P1">
    <measure number="33" width="106.5">
      <attributes>
        <divisions>10080</divisions>
        <key>
          <fifths>2</fifths>
          </key>
        <time>
          <beats>3</beats>
          <beat-type>4</beat-type>
          </time>
        <clef>
          <sign>F</sign>
          <line>4</line>
          </clef>
        </attributes>
      <note>
        <pitch>
          <step>F</step>
          <alter>1</alter>
          <octave>3</octave>
          </pitch>
        <duration>10080</duration>
        <type>quarter</type>
        <stem>down</stem>
        </note>
      <note>
        <chord />
        <pitch>
          <step>D</step>
          <octave>4</octave>
          </pitch>
        <duration>10080</duration>
        <type>quarter</type>
        <stem>down</stem>
        </note>
      <note>
        <rest />
        <duration>10080</duration>
        <type>quarter</type>
        </note>
      <note>
        <rest />
        <duration>10080</duration>
        <type>quarter</type>
        </note>
      </measure>
    <measure number="34" width="196.07">
      <print new-page="yes">
        <system-layout>
          <system-margins>
            <left-margin>74.31</left-margin>
            <right-margin>0</right-margin>
            </system-margins>
          <top-system-distance>70</top-system-distance>
          </system-layout>
        </print>
      <attributes />
      <note>
        <rest measure="yes" />
        <duration>30240</duration>
        </note>
      </measure>
    <measure number="35" width="176.31">
      <attributes />
      <note>
        <rest measure="yes" />
        <duration>30240</duration>
        </note>
      </measure>
    <measure number="36" width="139.22">
      <attributes />
      <note>
        <rest measure="yes" />
        <duration>30240</duration>
        </note>
      </measure>
    <measure number="37" width="175.72">
      <attributes />
      <note>
        <rest measure="yes" />
        <duration>30240</duration>
        </note>
      </measure>
    <measure number="38" width="155.23">
      <attributes>
        <clef>
          <sign>G</sign>
          <line>2</line>
          </clef>
        </attributes>
      <note>
        <pitch>
          <step>E</step>
          <octave>5</octave>
          </pitch>
        <duration>20160</duration>
        <type>half</type>
        <stem>down</stem>
        </note>
      <note>
        <pitch>
          <step>D</step>
          <alter>1</alter>
          <octave>5</octave>
          </pitch>
        <duration>5040</duration>
        <type>eighth</type>
        <accidental>sharp</accidental>
        <stem>down</stem>
        <beam number="1">begin</beam>
        </note>
      <note>
        <pitch>
          <step>E</step>
          <octave>5</octave>
          </pitch>
        <duration>5040</duration>
        <type>eighth</type>
        <stem>down</stem>
        <beam number="1">end</beam>
        </note>
      </measure>
    <measure number="39" width="160.31">
      <attributes />
      <note>
        <pitch>
          <step>F</step>
          <alter>1</alter>
          <octave>5</octave>
          </pitch>
        <duration>5040</duration>
        <type>eighth</type>
        <stem>down</stem>
        <beam number="1">begin</beam>
        </note>
      <note>
        <pitch>
          <step>E</step>
          <octave>5</octave>
          </pitch>
        <duration>5040</duration>
        <type>eighth</type>
        <stem>down</stem>
        <beam number="1">end</beam>
        </note>
      <note>
        <pitch>
          <step>D</step>
          <octave>5</octave>
          </pitch>
        <duration>5040</duration>
        <type>eighth</type>
        <stem>down</stem>
        <beam number="1">begin</beam>
        </note>
      <note>
        <pitch>
          <step>C</step>
          <alter>1</alter>
          <octave>5</octave>
          </pitch>
        <duration>5040</duration>
        <type>eighth</type>
        <stem>down</stem>
        <beam number="1">end</beam>
        </note>
      <note>
        <pitch>
          <step>B</step>
          <octave>4</octave>
          </pitch>
        <duration>5040</duration>
        <type>eighth</type>
        <stem>down</stem>
        <beam number="1">begin</beam>
        </note>
      <note>
        <pitch>
          <step>E</step>
          <octave>5</octave>
          </pitch>
        <duration>5040</duration>
        <type>eighth</type>
        <stem>down</stem>
        <beam number="1">end</beam>
        </note>
      </measure>
    <measure number="40" width="238.4">
      <print new-system="yes">
        <system-layout>
          <system-margins>
            <left-margin>74.31</left-margin>
            <right-margin>0</right-margin>
            </system-margins>
          <system-distance>124.57</system-distance>
          </system-layout>
        </print>
      <attributes />
      <note>
        <pitch>
          <step>C</step>
          <alter>1</alter>
          <octave>5</octave>
          </pitch>
        <duration>10080</duration>
        <type>quarter</type>
        <stem>down</stem>
        <notations>
          <articulations>
            <staccato />
            </articulations>
          </notations>
        </note>
      <note>
        <pitch>
          <step>A</step>
          <octave>5</octave>
          </pitch>
        <duration>10080</duration>
        <type>quarter</type>
        <stem>down</stem>
        <notations>
          <articulations>
            <staccato />
            </articulations>
          </notations>
        </note>
      <note>
        <pitch>
          <step>A</step>
          <octave>5</octave>
          </pitch>
        <duration>10080</duration>
        <type>quarter</type>
        <stem>down</stem>
        <notations>
          <articulations>
            <staccato />
            </articulations>
          </notations>
        </note>
      </measure>
    <measure number="41" width="206.1">
      <attributes />
      <note>
        <pitch>
          <step>A</step>
          <octave>5</octave>
          </pitch>
        <duration>10080</duration>
        <type>quarter</type>
        <stem>down</stem>
        <notations>
          <articulations>
            <staccato />
            </articulations>
          </notations>
        </note>
      <note>
        <pitch>
          <step>A</step>
          <octave>5</octave>
          </pitch>
        <duration>10080</duration>
        <type>quarter</type>
        <stem>down</stem>
        <notations>
          <articulations>
            <staccato />
            </articulations>
          </notations>
        </note>
      <note>
        <pitch>
          <step>A</step>
          <octave>5</octave>
          </pitch>
        <duration>10080</duration>
        <type>quarter</type>
        <stem>down</stem>
        <notations>
          <articulations>
            <staccato />
            </articulations>
          </notations>
        </note>
      </measure>
    <measure number="42" width="558.35">
      <attributes />
      <note>
        <pitch>
          <step>A</step>
          <octave>5</octave>
          </pitch>
        <duration>3360</duration>
        <type>16th</type>
        <dot />
        <time-modification>
          <actual-notes>9</actual-notes>
          <normal-notes>8</normal-notes>
          <normal-type>16th</normal-type>
          <normal-dot />
          </time-modification>
        <stem>down</stem>
        <beam number="1">begin</beam>
        <beam number="2">begin</beam>
        <notations>
          <tuplet bracket="no" number="1" type="start">
            <tuplet-actual>
              <tuplet-number>9</tuplet-number>
              <tuplet-type>16th</tuplet-type>
              <tuplet-dot />
              </tuplet-actual>
            <tuplet-normal>
              <tuplet-number>8</tuplet-number>
              <tuplet-type>16th</tuplet-type>
              <tuplet-dot />
              </tuplet-normal>
            </tuplet>
          </notations>
        </note>
      <note>
        <chord />
        <pitch>
          <step>B</step>
          <octave>5</octave>
          </pitch>
        <duration>3360</duration>
        <type>16th</type>
        <dot />
        <time-modification>
          <actual-notes>9</actual-notes>
          <normal-notes>8</normal-notes>
          <normal-type>16th</normal-type>
          <normal-dot />
          </time-modification>
        <stem>down</stem>
        </note>
      <note>
        <pitch>
          <step>A</step>
          <octave>5</octave>
          </pitch>
        <duration>3360</duration>
        <tie type="start" />
        <type>16th</type>
        <dot />
        <time-modification>
          <actual-notes>9</actual-notes>
          <normal-notes>8</normal-notes>
          <normal-type>16th</normal-type>
          <normal-dot />
          </time-modification>
        <stem>down</stem>
        <beam number="1">continue</beam>
        <beam number="2">continue</beam>
        <notations>
          <tied type="start" />
          </notations>
        </note>
      <note>
        <pitch>
          <step>A</step>
          <octave>5</octave>
          </pitch>
        <duration>3360</duration>
        <tie type="stop" />
        <type>16th</type>
        <dot />
        <time-modification>
          <actual-notes>9</actual-notes>
          <normal-notes>8</normal-notes>
          <normal-type>16th</normal-type>
          <normal-dot />
          </time-modification>
        <stem>down</stem>
        <beam number="1">end</beam>
        <beam number="2">end</beam>
        <notations>
          <tied type="stop" />
          </notations>
        </note>
      <note>
        <chord />
        <pitch>
          <step>B</step>
          <octave>5</octave>
          </pitch>
        <duration>3360</duration>
        <type>16th</type>
        <dot />
        <time-modification>
          <actual-notes>9</actual-notes>
          <normal-notes>8</normal-notes>
          <normal-type>16th</normal-type>
          <normal-dot />
          </time-modification>
        <stem>down</stem>
        </note>
      <note>
        <pitch>
          <step>F</step>
          <alter>1</alter>
          <octave>5</octave>
          </pitch>
        <duration>3360</duration>
        <tie type="start" />
        <type>16th</type>
        <dot />
        <time-modification>
          <actual-notes>9</actual-notes>
          <normal-notes>8</normal-notes>
          <normal-type>16th</normal-type>
          <normal-dot />
          </time-modification>
        <stem>down</stem>
        <beam number="1">begin</beam>
        <beam number="2">begin</beam>
        <notations>
          <tied type="start" />
          </notations>
        </note>
      <note>
        <chord />
        <pitch>
          <step>A</step>
          <octave>5</octave>
          </pitch>
        <duration>3360</duration>
        <tie type="start" />
        <type>16th</type>
        <dot />
        <time-modification>
          <actual-notes>9</actual-notes>
          <normal-notes>8</normal-notes>
          <normal-type>16th</normal-type>
          <normal-dot />
          </time-modification>
        <stem>down</stem>
        <notations>
          <tied type="start" />
          </notations>
        </note>
      <note>
        <pitch>
          <step>F</step>
          <alter>1</alter>
          <octave>5</octave>
          </pitch>
        <duration>3360</duration>
        <tie type="stop" />
        <tie type="start" />
        <type>16th</type>
        <dot />
        <time-modification>
          <actual-notes>9</actual-notes>
          <normal-notes>8</normal-notes>
          <normal-type>16th</normal-type>
          <normal-dot />
          </time-modification>
        <stem>down</stem>
        <beam number="1">continue</beam>
        <beam number="2">continue</beam>
        <notations>
          <tied type="stop" />
          <tied type="start" />
          </notations>
        </note>
      <note>
        <chord />
        <pitch>
          <step>A</step>
          <octave>5</octave>
          </pitch>
        <duration>3360</duration>
        <tie type="stop" />
        <type>16th</type>
        <dot />
        <time-modification>
          <actual-notes>9</actual-notes>
          <normal-notes>8</normal-notes>
          <normal-type>16th</normal-type>
          <normal-dot />
          </time-modification>
        <stem>down</stem>
        <notations>
          <tied type="stop" />
          </notations>
        </note>
      <note>
        <chord />
        <pitch>
          <step>B</step>
          <octave>5</octave>
          </pitch>
        <duration>3360</duration>
        <type>16th</type>
        <dot />
        <time-modification>
          <actual-notes>9</actual-notes>
          <normal-notes>8</normal-notes>
          <normal-type>16th</normal-type>
          <normal-dot />
          </time-modification>
        <stem>down</stem>
        </note>
      <note>
        <pitch>
          <step>F</step>
          <alter>1</alter>
          <octave>5</octave>
          </pitch>
        <duration>1680</duration>
        <tie type="stop" />
        <type>32nd</type>
        <dot />
        <time-modification>
          <actual-notes>9</actual-notes>
          <normal-notes>8</normal-notes>
          <normal-type>16th</normal-type>
          <normal-dot />
          </time-modification>
        <stem>down</stem>
        <beam number="1">continue</beam>
        <beam number="2">continue</beam>
        <beam number="3">begin</beam>
        <notations>
          <tied type="stop" />
          </notations>
        </note>
      <note>
        <chord />
        <pitch>
          <step>A</step>
          <octave>5</octave>
          </pitch>
        <duration>1680</duration>
        <tie type="start" />
        <type>32nd</type>
        <dot />
        <time-modification>
          <actual-notes>9</actual-notes>
          <normal-notes>8</normal-notes>
          <normal-type>16th</normal-type>
          <normal-dot />
          </time-modification>
        <stem>down</stem>
        <notations>
          <tied type="start" />
          </notations>
        </note>
      <note>
        <pitch>
          <step>A</step>
          <octave>5</octave>
          </pitch>
        <duration>1680</duration>
        <tie type="stop" />
        <tie type="start" />
        <type>32nd</type>
        <dot />
        <time-modification>
          <actual-notes>9</actual-notes>
          <normal-notes>8</normal-notes>
          <normal-type>16th</normal-type>
          <normal-dot />
          </time-modification>
        <stem>down</stem>
        <beam number="1">end</beam>
        <beam number="2">end</beam>
        <beam number="3">end</beam>
        <notations>
          <tied type="stop" />
          <tied type="start" />
          </notations>
        </note>
      <note>
        <pitch>
          <step>E</step>
          <octave>5</octave>
          </pitch>
        <duration>3360</duration>
        <tie type="start" />
        <type>16th</type>
        <dot />
        <time-modification>
          <actual-notes>9</actual-notes>
          <normal-notes>8</normal-notes>
          <normal-type>16th</normal-type>
          <normal-dot />
          </time-modification>
        <stem>down</stem>
        <beam number="1">begin</beam>
        <beam number="2">begin</beam>
        <notations>
          <tied type="start" />
          </notations>
        </note>
      <note>
        <chord />
        <pitch>
          <step>A</step>
          <octave>5</octave>
          </pitch>
        <duration>3360</duration>
        <tie type="stop" />
        <type>16th</type>
        <dot />
        <time-modification>
          <actual-notes>9</actual-notes>
          <normal-notes>8</normal-notes>
          <normal-type>16th</normal-type>
          <normal-dot />
          </time-modification>
        <stem>down</stem>
        <notations>
          <tied type="stop" />
          </notations>
        </note>
      <note>
        <chord />
        <pitch>
          <step>B</step>
          <octave>5</octave>
          </pitch>
        <duration>3360</duration>
        <type>16th</type>
        <dot />
        <time-modification>
          <actual-notes>9</actual-notes>
          <normal-notes>8</normal-notes>
          <normal-type>16th</normal-type>
          <normal-dot />
          </time-modification>
        <stem>down</stem>
        </note>
      <note>
        <pitch>
          <step>E</step>
          <octave>5</octave>
          </pitch>
        <duration>3360</duration>
        <tie type="stop" />
        <tie type="start" />
        <type>16th</type>
        <dot />
        <time-modification>
          <actual-notes>9</actual-notes>
          <normal-notes>8</normal-notes>
          <normal-type>16th</normal-type>
          <normal-dot />
          </time-modification>
        <stem>down</stem>
        <beam number="1">continue</beam>
        <beam number="2">continue</beam>
        <notations>
          <tied type="stop" />
          <tied type="start" />
          </notations>
        </note>
      <note>
        <chord />
        <pitch>
          <step>A</step>
          <octave>5</octave>
          </pitch>
        <duration>3360</duration>
        <tie type="start" />
        <type>16th</type>
        <dot />
        <time-modification>
          <actual-notes>9</actual-notes>
          <normal-notes>8</normal-notes>
          <normal-type>16th</normal-type>
          <normal-dot />
          </time-modification>
        <stem>down</stem>
        <notations>
          <tied type="start" />
          </notations>
        </note>
      <note>
        <pitch>
          <step>E</step>
          <octave>5</octave>
          </pitch>
        <duration>1680</duration>
        <tie type="stop" />
        <type>32nd</type>
        <dot />
        <time-modification>
          <actual-notes>9</actual-notes>
          <normal-notes>8</normal-notes>
          <normal-type>16th</normal-type>
          <normal-dot />
          </time-modification>
        <stem>down</stem>
        <beam number="1">continue</beam>
        <beam number="2">continue</beam>
        <beam number="3">begin</beam>
        <notations>
          <tied type="stop" />
          </notations>
        </note>
      <note>
        <chord />
        <pitch>
          <step>A</step>
          <octave>5</octave>
          </pitch>
        <duration>1680</duration>
        <tie type="stop" />
        <tie type="start" />
        <type>32nd</type>
        <dot />
        <time-modification>
          <actual-notes>9</actual-notes>
          <normal-notes>8</normal-notes>
          <normal-type>16th</normal-type>
          <normal-dot />
          </time-modification>
        <stem>down</stem>
        <notations>
          <tied type="stop" />
          <tied type="start" />
          </notations>
        </note>
      <note>
        <chord />
        <pitch>
          <step>B</step>
          <octave>5</octave>
          </pitch>
        <duration>1680</duration>
        <tie type="start" />
        <type>32nd</type>
        <dot />
        <time-modification>
          <actual-notes>9</actual-notes>
          <normal-notes>8</normal-notes>
          <normal-type>16th</normal-type>
          <normal-dot />
          </time-modification>
        <stem>down</stem>
        <notations>
          <tied type="start" />
          </notations>
        </note>
      <note>
        <pitch>
          <step>A</step>
          <octave>5</octave>
          </pitch>
        <duration>1680</duration>
        <tie type="stop" />
        <type>32nd</type>
        <dot />
        <time-modification>
          <actual-notes>9</actual-notes>
          <normal-notes>8</normal-notes>
          <normal-type>16th</normal-type>
          <normal-dot />
          </time-modification>
        <stem>down</stem>
        <beam number="1">end</beam>
        <beam number="2">end</beam>
        <beam number="3">end</beam>
        <notations>
          <tied type="stop" />
          <tuplet number="1" type="stop" />
          </notations>
        </note>
      <note>
        <chord />
        <pitch>
          <step>B</step>
          <octave>5</octave>
          </pitch>
        <duration>1680</duration>
        <tie type="stop" />
        <type>32nd</type>
        <dot />
        <time-modification>
          <actual-notes>9</actual-notes>
          <normal-notes>8</normal-notes>
          <normal-type>16th</normal-type>
          <normal-dot />
          </time-modification>
        <stem>down</stem>
        <notations>
          <tied type="stop" />
          </notations>
        </note>
      </measure>
    <measure number="43" width="527.22">
      <print new-system="yes">
        <system-layout>
          <system-margins>
            <left-margin>74.31</left-margin>
            <right-margin>0</right-margin>
            </system-margins>
          <system-distance>124.57</system-distance>
          </system-layout>
        </print>
      <attributes />
      <note>
        <pitch>
          <step>A</step>
          <octave>5</octave>
          </pitch>
        <duration>3360</duration>
        <tie type="start" />
        <type>16th</type>
        <dot />
        <time-modification>
          <actual-notes>9</actual-notes>
          <normal-notes>8</normal-notes>
          <normal-type>16th</normal-type>
          </time-modification>
        <stem>down</stem>
        <beam number="1">begin</beam>
        <beam number="2">begin</beam>
        <notations>
          <tied type="start" />
          <tuplet bracket="no" number="1" type="start">
            <tuplet-actual>
              <tuplet-number>9</tuplet-number>
              <tuplet-type>16th</tuplet-type>
              </tuplet-actual>
            <tuplet-normal>
              <tuplet-number>8</tuplet-number>
              <tuplet-type>16th</tuplet-type>
              </tuplet-normal>
            </tuplet>
          </notations>
        </note>
      <note>
        <pitch>
          <step>A</step>
          <octave>5</octave>
          </pitch>
        <duration>3360</duration>
        <tie type="stop" />
        <type>16th</type>
        <dot />
        <time-modification>
          <actual-notes>9</actual-notes>
          <normal-notes>8</normal-notes>
          <normal-type>16th</normal-type>
          </time-modification>
        <stem>down</stem>
        <beam number="1">continue</beam>
        <beam number="2">continue</beam>
        <notations>
          <tied type="stop" />
          </notations>
        </note>
      <note>
        <chord />
        <pitch>
          <step>B</step>
          <octave>5</octave>
          </pitch>
        <duration>3360</duration>
        <type>16th</type>
        <dot />
        <time-modification>
          <actual-notes>9</actual-notes>
          <normal-notes>8</normal-notes>
          <normal-type>16th</normal-type>
          </time-modification>
        <stem>down</stem>
        </note>
      <note>
        <pitch>
          <step>A</step>
          <octave>5</octave>
          </pitch>
        <duration>3360</duration>
        <tie type="start" />
        <type>16th</type>
        <dot />
        <time-modification>
          <actual-notes>9</actual-notes>
          <normal-notes>8</normal-notes>
          <normal-type>16th</normal-type>
          </time-modification>
        <stem>down</stem>
        <beam number="1">end</beam>
        <beam number="2">end</beam>
        <notations>
          <tied type="start" />
          </notations>
        </note>
      <note>
        <pitch>
          <step>A</step>
          <octave>5</octave>
          </pitch>
        <duration>3360</duration>
        <tie type="stop" />
        <type>16th</type>
        <dot />
        <time-modification>
          <actual-notes>9</actual-notes>
          <normal-notes>8</normal-notes>
          <normal-type>16th</normal-type>
          </time-modification>
        <stem>down</stem>
        <beam number="1">begin</beam>
        <beam number="2">begin</beam>
        <notations>
          <tied type="stop" />
          </notations>
        </note>
      <note>
        <chord />
        <pitch>
          <step>B</step>
          <octave>5</octave>
          </pitch>
        <duration>3360</duration>
        <type>16th</type>
        <dot />
        <time-modification>
          <actual-notes>9</actual-notes>
          <normal-notes>8</normal-notes>
          <normal-type>16th</normal-type>
          </time-modification>
        <stem>down</stem>
        </note>
      <note>
        <pitch>
          <step>A</step>
          <octave>5</octave>
          </pitch>
        <duration>3360</duration>
        <tie type="start" />
        <type>16th</type>
        <dot />
        <time-modification>
          <actual-notes>9</actual-notes>
          <normal-notes>8</normal-notes>
          <normal-type>16th</normal-type>
          </time-modification>
        <stem>down</stem>
        <beam number="1">continue</beam>
        <beam number="2">continue</beam>
        <notations>
          <tied type="start" />
          </notations>
        </note>
      <note>
        <pitch>
          <step>A</step>
          <octave>5</octave>
          </pitch>
        <duration>3360</duration>
        <tie type="stop" />
        <type>16th</type>
        <dot />
        <time-modification>
          <actual-notes>9</actual-notes>
          <normal-notes>8</normal-notes>
          <normal-type>16th</normal-type>
          </time-modification>
        <stem>down</stem>
        <beam number="1">end</beam>
        <beam number="2">end</beam>
        <notations>
          <tied type="stop" />
          </notations>
        </note>
      <note>
        <chord />
        <pitch>
          <step>B</step>
          <octave>5</octave>
          </pitch>
        <duration>3360</duration>
        <type>16th</type>
        <dot />
        <time-modification>
          <actual-notes>9</actual-notes>
          <normal-notes>8</normal-notes>
          <normal-type>16th</normal-type>
          </time-modification>
        <stem>down</stem>
        </note>
      <note>
        <pitch>
          <step>A</step>
          <octave>5</octave>
          </pitch>
        <duration>3360</duration>
        <tie type="start" />
        <type>16th</type>
        <dot />
        <time-modification>
          <actual-notes>9</actual-notes>
          <normal-notes>8</normal-notes>
          <normal-type>16th</normal-type>
          </time-modification>
        <stem>down</stem>
        <beam number="1">begin</beam>
        <beam number="2">begin</beam>
        <notations>
          <tied type="start" />
          </notations>
        </note>
      <note>
        <pitch>
          <step>A</step>
          <octave>5</octave>
          </pitch>
        <duration>3360</duration>
        <tie type="stop" />
        <type>16th</type>
        <dot />
        <time-modification>
          <actual-notes>9</actual-notes>
          <normal-notes>8</normal-notes>
          <normal-type>16th</normal-type>
          </time-modification>
        <stem>down</stem>
        <beam number="1">continue</beam>
        <beam number="2">continue</beam>
        <notations>
          <tied type="stop" />
          </notations>
        </note>
      <note>
        <chord />
        <pitch>
          <step>B</step>
          <octave>5</octave>
          </pitch>
        <duration>3360</duration>
        <type>16th</type>
        <dot />
        <time-modification>
          <actual-notes>9</actual-notes>
          <normal-notes>8</normal-notes>
          <normal-type>16th</normal-type>
          </time-modification>
        <stem>down</stem>
        </note>
      <note>
        <pitch>
          <step>A</step>
          <octave>5</octave>
          </pitch>
        <duration>3360</duration>
        <tie type="start" />
        <type>16th</type>
        <dot />
        <time-modification>
          <actual-notes>9</actual-notes>
          <normal-notes>8</normal-notes>
          <normal-type>16th</normal-type>
          </time-modification>
        <stem>down</stem>
        <beam number="1">end</beam>
        <beam number="2">end</beam>
        <notations>
          <tied type="start" />
          <tuplet number="1" type="stop" />
          </notations>
        </note>
      </measure>
    <measure number="44" width="475.63">
      <attributes />
      <note>
        <pitch>
          <step>A</step>
          <octave>5</octave>
          </pitch>
        <duration>3360</duration>
        <tie type="stop" />
        <type>16th</type>
        <dot />
        <time-modification>
          <actual-notes>9</actual-notes>
          <normal-notes>8</normal-notes>
          <normal-type>16th</normal-type>
          </time-modification>
        <stem>down</stem>
        <beam number="1">begin</beam>
        <beam number="2">begin</beam>
        <notations>
          <tied type="stop" />
          <tuplet bracket="no" number="1" type="start">
            <tuplet-actual>
              <tuplet-number>9</tuplet-number>
              <tuplet-type>16th</tuplet-type>
              </tuplet-actual>
            <tuplet-normal>
              <tuplet-number>8</tuplet-number>
              <tuplet-type>16th</tuplet-type>
              </tuplet-normal>
            </tuplet>
          </notations>
        </note>
      <note>
        <chord />
        <pitch>
          <step>B</step>
          <octave>5</octave>
          </pitch>
        <duration>3360</duration>
        <type>16th</type>
        <dot />
        <time-modification>
          <actual-notes>9</actual-notes>
          <normal-notes>8</normal-notes>
          <normal-type>16th</normal-type>
          </time-modification>
        <stem>down</stem>
        </note>
      <note>
        <pitch>
          <step>A</step>
          <octave>5</octave>
          </pitch>
        <duration>3360</duration>
        <tie type="start" />
        <type>16th</type>
        <dot />
        <time-modification>
          <actual-notes>9</actual-notes>
          <normal-notes>8</normal-notes>
          <normal-type>16th</normal-type>
          </time-modification>
        <stem>down</stem>
        <beam number="1">continue</beam>
        <beam number="2">continue</beam>
        <notations>
          <tied type="start" />
          </notations>
        </note>
      <note>
        <pitch>
          <step>A</step>
          <octave>5</octave>
          </pitch>
        <duration>3360</duration>
        <tie type="stop" />
        <type>16th</type>
        <dot />
        <time-modification>
          <actual-notes>9</actual-notes>
          <normal-notes>8</normal-notes>
          <normal-type>16th</normal-type>
          </time-modification>
        <stem>down</stem>
        <beam number="1">end</beam>
        <beam number="2">end</beam>
        <notations>
          <tied type="stop" />
          </notations>
        </note>
      <note>
        <chord />
        <pitch>
          <step>B</step>
          <octave>5</octave>
          </pitch>
        <duration>3360</duration>
        <type>16th</type>
        <dot />
        <time-modification>
          <actual-notes>9</actual-notes>
          <normal-notes>8</normal-notes>
          <normal-type>16th</normal-type>
          </time-modification>
        <stem>down</stem>
        </note>
      <note>
        <pitch>
          <step>A</step>
          <octave>5</octave>
          </pitch>
        <duration>3360</duration>
        <tie type="start" />
        <type>16th</type>
        <dot />
        <time-modification>
          <actual-notes>9</actual-notes>
          <normal-notes>8</normal-notes>
          <normal-type>16th</normal-type>
          </time-modification>
        <stem>down</stem>
        <beam number="1">begin</beam>
        <beam number="2">begin</beam>
        <notations>
          <tied type="start" />
          </notations>
        </note>
      <note>
        <pitch>
          <step>A</step>
          <octave>5</octave>
          </pitch>
        <duration>3360</duration>
        <tie type="stop" />
        <type>16th</type>
        <dot />
        <time-modification>
          <actual-notes>9</actual-notes>
          <normal-notes>8</normal-notes>
          <normal-type>16th</normal-type>
          </time-modification>
        <stem>down</stem>
        <beam number="1">continue</beam>
        <beam number="2">continue</beam>
        <notations>
          <tied type="stop" />
          </notations>
        </note>
      <note>
        <chord />
        <pitch>
          <step>B</step>
          <octave>5</octave>
          </pitch>
        <duration>3360</duration>
        <type>16th</type>
        <dot />
        <time-modification>
          <actual-notes>9</actual-notes>
          <normal-notes>8</normal-notes>
          <normal-type>16th</normal-type>
          </time-modification>
        <stem>down</stem>
        </note>
      <note>
        <pitch>
          <step>A</step>
          <octave>5</octave>
          </pitch>
        <duration>3360</duration>
        <tie type="start" />
        <type>16th</type>
        <dot />
        <time-modification>
          <actual-notes>9</actual-notes>
          <normal-notes>8</normal-notes>
          <normal-type>16th</normal-type>
          </time-modification>
        <stem>down</stem>
        <beam number="1">end</beam>
        <beam number="2">end</beam>
        <notations>
          <tied type="start" />
          </notations>
        </note>
      <note>
        <pitch>
          <step>A</step>
          <octave>5</octave>
          </pitch>
        <duration>3360</duration>
        <tie type="stop" />
        <type>16th</type>
        <dot />
        <time-modification>
          <actual-notes>9</actual-notes>
          <normal-notes>8</normal-notes>
          <normal-type>16th</normal-type>
          </time-modification>
        <stem>down</stem>
        <beam number="1">begin</beam>
        <beam number="2">begin</beam>
        <notations>
          <tied type="stop" />
          </notations>
        </note>
      <note>
        <chord />
        <pitch>
          <step>B</step>
          <octave>5</octave>
          </pitch>
        <duration>3360</duration>
        <type>16th</type>
        <dot />
        <time-modification>
          <actual-notes>9</actual-notes>
          <normal-notes>8</normal-notes>
          <normal-type>16th</normal-type>
          </time-modification>
        <stem>down</stem>
        </note>
      <note>
        <pitch>
          <step>A</step>
          <octave>5</octave>
          </pitch>
        <duration>3360</duration>
        <tie type="start" />
        <type>16th</type>
        <dot />
        <time-modification>
          <actual-notes>9</actual-notes>
          <normal-notes>8</normal-notes>
          <normal-type>16th</normal-type>
          </time-modification>
        <stem>down</stem>
        <beam number="1">continue</beam>
        <beam number="2">continue</beam>
        <notations>
          <tied type="start" />
          </notations>
        </note>
      <note>
        <pitch>
          <step>A</step>
          <octave>5</octave>
          </pitch>
        <duration>3360</duration>
        <tie type="stop" />
        <type>16th</type>
        <dot />
        <time-modification>
          <actual-notes>9</actual-notes>
          <normal-notes>8</normal-notes>
          <normal-type>16th</normal-type>
          </time-modification>
        <stem>down</stem>
        <beam number="1">end</beam>
        <beam number="2">end</beam>
        <notations>
          <tied type="stop" />
          <tuplet number="1" type="stop" />
          </notations>
        </note>
      <note>
        <chord />
        <pitch>
          <step>B</step>
          <octave>5</octave>
          </pitch>
        <duration>3360</duration>
        <type>16th</type>
        <dot />
        <time-modification>
          <actual-notes>9</actual-notes>
          <normal-notes>8</normal-notes>
          <normal-type>16th</normal-type>
          </time-modification>
        <stem>down</stem>
        </note>
      </measure>
    <measure number="45" width="549.1">
      <print new-system="yes">
        <system-layout>
          <system-margins>
            <left-margin>74.31</left-margin>
            <right-margin>0</right-margin>
            </system-margins>
          <system-distance>124.57</system-distance>
          </system-layout>
        </print>
      <attributes />
      <note>
        <pitch>
          <step>A</step>
          <octave>5</octave>
          </pitch>
        <duration>3360</duration>
        <tie type="start" />
        <voice>1</voice>
        <type>eighth</type>
        <time-modification>
          <actual-notes>3</actual-notes>
          <normal-notes>2</normal-notes>
          <normal-type>eighth</normal-type>
          </time-modification>
        <stem>up</stem>
        <beam number="1">begin</beam>
        <notations>
          <tied type="start" />
          <tuplet bracket="no" number="1" type="start">
            <tuplet-actual>
              <tuplet-number>3</tuplet-number>
              <tuplet-type>eighth</tuplet-type>
              </tuplet-actual>
            <tuplet-normal>
              <tuplet-number>2</tuplet-number>
              <tuplet-type>eighth</tuplet-type>
              </tuplet-normal>
            </tuplet>
          </notations>
        </note>
      <note>
        <pitch>
          <step>A</step>
          <octave>5</octave>
          </pitch>
        <duration>3360</duration>
        <tie type="stop" />
        <voice>1</voice>
        <type>eighth</type>
        <time-modification>
          <actual-notes>3</actual-notes>
          <normal-notes>2</normal-notes>
          <normal-type>eighth</normal-type>
          </time-modification>
        <stem>up</stem>
        <beam number="1">continue</beam>
        <notations>
          <tied type="stop" />
          </notations>
        </note>
      <note>
        <chord />
        <pitch>
          <step>B</step>
          <octave>5</octave>
          </pitch>
        <duration>3360</duration>
        <voice>1</voice>
        <type>eighth</type>
        <time-modification>
          <actual-notes>3</actual-notes>
          <normal-notes>2</normal-notes>
          <normal-type>eighth</normal-type>
          </time-modification>
        <stem>up</stem>
        </note>
      <note>
        <pitch>
          <step>A</step>
          <octave>5</octave>
          </pitch>
        <duration>3360</duration>
        <voice>1</voice>
        <type>eighth</type>
        <time-modification>
          <actual-notes>3</actual-notes>
          <normal-notes>2</normal-notes>
          <normal-type>eighth</normal-type>
          </time-modification>
        <stem>up</stem>
        <beam number="1">end</beam>
        <notations>
          <tuplet number="1" type="stop" />
          </notations>
        </note>
      <note>
        <pitch>
          <step>A</step>
          <alter>1</alter>
          <octave>5</octave>
          </pitch>
        <duration>5040</duration>
        <voice>1</voice>
        <type>eighth</type>
        <accidental>sharp</accidental>
        <stem>up</stem>
        <beam number="1">begin</beam>
        </note>
      <note>
        <chord />
        <pitch>
          <step>B</step>
          <octave>5</octave>
          </pitch>
        <duration>5040</duration>
        <voice>1</voice>
        <type>eighth</type>
        <stem>up</stem>
        </note>
      <note>
        <pitch>
          <step>A</step>
          <alter>0</alter>
          <octave>5</octave>
          </pitch>
        <duration>2520</duration>
        <voice>1</voice>
        <type>16th</type>
        <accidental>natural</accidental>
        <stem>up</stem>
        <beam number="1">continue</beam>
        <beam number="2">begin</beam>
        </note>
      <note>
        <pitch>
          <step>A</step>
          <alter>1</alter>
          <octave>5</octave>
          </pitch>
        <duration>2520</duration>
        <voice>1</voice>
        <type>16th</type>
        <accidental>sharp</accidental>
        <stem>up</stem>
        <beam number="1">continue</beam>
        <beam number="2">continue</beam>
        </note>
      <note>
        <pitch>
          <step>A</step>
          <alter>0</alter>
          <octave>5</octave>
          </pitch>
        <duration>420</duration>
        <voice>1</voice>
        <type>64th</type>
        <accidental>natural</accidental>
        <time-modification>
          <actual-notes>3</actual-notes>
          <normal-notes>2</normal-notes>
          <normal-type>32nd</normal-type>
          </time-modification>
        <stem>up</stem>
        <beam number="1">continue</beam>
        <beam number="2">continue</beam>
        <beam number="3">begin</beam>
        <beam number="4">begin</beam>
        <notations>
          <tuplet bracket="no" number="1" type="start">
            <tuplet-actual>
              <tuplet-number>3</tuplet-number>
              <tuplet-type>32nd</tuplet-type>
              </tuplet-actual>
            <tuplet-normal>
              <tuplet-number>2</tuplet-number>
              <tuplet-type>32nd</tuplet-type>
              </tuplet-normal>
            </tuplet>
          </notations>
        </note>
      <note>
        <pitch>
          <step>B</step>
          <octave>5</octave>
          </pitch>
        <duration>420</duration>
        <tie type="start" />
        <voice>1</voice>
        <type>64th</type>
        <time-modification>
          <actual-notes>3</actual-notes>
          <normal-notes>2</normal-notes>
          <normal-type>32nd</normal-type>
          </time-modification>
        <stem>up</stem>
        <beam number="1">continue</beam>
        <beam number="2">continue</beam>
        <beam number="3">end</beam>
        <beam number="4">end</beam>
        <notations>
          <tied type="start" />
          </notations>
        </note>
      <note>
        <pitch>
          <step>B</step>
          <octave>5</octave>
          </pitch>
        <duration>1680</duration>
        <tie type="stop" />
        <tie type="start" />
        <voice>1</voice>
        <type>16th</type>
        <time-modification>
          <actual-notes>3</actual-notes>
          <normal-notes>2</normal-notes>
          <normal-type>32nd</normal-type>
          </time-modification>
        <stem>up</stem>
        <beam number="1">continue</beam>
        <beam number="2">end</beam>
        <notations>
          <tied type="stop" />
          <tied type="start" />
          <tuplet number="1" type="stop" />
          </notations>
        </note>
      <note>
        <pitch>
          <step>B</step>
          <octave>5</octave>
          </pitch>
        <duration>7560</duration>
        <tie type="stop" />
        <voice>1</voice>
        <type>eighth</type>
        <dot />
        <stem>up</stem>
        <beam number="1">end</beam>
        <notations>
          <tied type="stop" />
          </notations>
        </note>
      <backup>
        <duration>30240</duration>
        </backup>
      <note>
        <rest />
        <duration>10080</duration>
        <voice>2</voice>
        <type>quarter</type>
        </note>
      <note>
        <rest />
        <duration>2520</duration>
        <voice>2</voice>
        <type>16th</type>
        </note>
      <note>
        <pitch>
          <step>A</step>
          <alter>1</alter>
          <octave>5</octave>
          </pitch>
        <duration>7560</duration>
        <voice>2</voice>
        <type>eighth</type>
        <dot />
        <stem>down</stem>
        <notations>
          <articulations>
            <staccato />
            </articulations>
          </notations>
        </note>
      <note>
        <rest />
        <duration>315</duration>
        <voice>2</voice>
        <type>128th</type>
        </note>
      <note>
        <pitch>
          <step>A</step>
          <alter>1</alter>
          <octave>5</octave>
          </pitch>
        <duration>945</duration>
        <voice>2</voice>
        <type>64th</type>
        <dot />
        <accidental>sharp</accidental>
        <stem>down</stem>
        <notations>
          <articulations>
            <staccato />
            </articulations>
          </notations>
        </note>
      <note>
        <rest />
        <duration>1260</duration>
        <voice>2</voice>
        <type>32nd</type>
        </note>
      <note>
        <rest />
        <duration>2520</duration>
        <voice>2</voice>
        <type>16th</type>
        </note>
      <note>
        <rest />
        <duration>5040</duration>
        <voice>2</voice>
        <type>eighth</type>
        </note>
      <backup>
        <duration>30240</duration>
        </backup>
      </measure>
    <measure number="46" width="150.33">
      <attributes />
      <note>
        <pitch>
          <step>A</step>
          <octave>5</octave>
          </pitch>
        <duration>10080</duration>
        <type>quarter</type>
        <stem>down</stem>
        </note>
      <note>
        <pitch>
          <step>G</step>
          <octave>5</octave>
          </pitch>
        <duration>10080</duration>
        <type>quarter</type>
        <stem>down</stem>
        </note>
      <note>
        <pitch>
          <step>A</step>
          <octave>5</octave>
          </pitch>
        <duration>10080</duration>
        <type>quarter</type>
        <stem>down</stem>
        <notations>
          <articulations>
            <staccato />
            </articulations>
          </notations>
        </note>
      </measure>
    <measure number="47" width="149.74">
      <attributes />
      <note>
        <pitch>
          <step>E</step>
          <octave>5</octave>
          </pitch>
        <duration>10080</duration>
        <type>quarter</type>
        <stem>down</stem>
        </note>
      <note>
        <chord />
        <pitch>
          <step>G</step>
          <octave>5</octave>
          </pitch>
        <duration>10080</duration>
        <type>quarter</type>
        <stem>down</stem>
        </note>
      <note>
        <pitch>
          <step>D</step>
          <octave>5</octave>
          </pitch>
        <duration>10080</duration>
        <type>quarter</type>
        <stem>down</stem>
        </note>
      <note>
        <chord />
        <pitch>
          <step>F</step>
          <alter>1</alter>
          <octave>5</octave>
          </pitch>
        <duration>10080</duration>
        <type>quarter</type>
        <stem>down</stem>
        </note>
      <note>
        <pitch>
          <step>B</step>
          <octave>4</octave>
          </pitch>
        <duration>10080</duration>
        <type>quarter</type>
        <stem>down</stem>
        </note>
      <note>
        <chord />
        <pitch>
          <step>E</step>
          <octave>5</octave>
          </pitch>
        <duration>10080</duration>
        <type>quarter</type>
        <stem>down</stem>
        </note>
      <note>
        <chord />
        <pitch>
          <step>G</step>
          <octave>5</octave>
          </pitch>
        <duration>10080</duration>
        <type>quarter</type>
        <stem>down</stem>
        </note>
      </measure>
    <measure number="48" width="153.67">
      <attributes />
      <note>
        <pitch>
          <step>D</step>
          <octave>5</octave>
          </pitch>
        <duration>20160</duration>
        <voice>1</voice>
        <type>half</type>
        <stem>up</stem>
        </note>
      <note>
        <chord />
        <pitch>
          <step>F</step>
          <alter>1</alter>
          <octave>5</octave>
          </pitch>
        <duration>20160</duration>
        <voice>1</voice>
        <type>half</type>
        <stem>up</stem>
        </note>
      <note>
        <rest />
        <duration>10080</duration>
        <voice>1</voice>
        <type>quarter</type>
        </note>
      <backup>
        <duration>30240</duration>
        </backup>
      <note>
        <pitch>
          <step>A</step>
          <octave>4</octave>
          </pitch>
        <duration>20160</duration>
        <tie type="start" />
        <voice>2</voice>
        <type>half</type>
        <stem>down</stem>
        <notations>
          <tied type="start" />
          </notations>
        </note>
      <note>
        <pitch>
          <step>A</step>
          <octave>4</octave>
          </pitch>
        <duration>10080</duration>
        <tie type="stop" />
        <voice>2</voice>
        <type>quarter</type>
        <stem>down</stem>
        <notations>
          <tied type="stop" />
          </notations>
        </note>
      <note>
        <chord />
        <pitch>
          <step>C</step>
          <alter>1</alter>
          <octave>5</octave>
          </pitch>
        <duration>10080</duration>
        <voice>2</voice>
        <type>quarter</type>
        <stem>down</stem>
        </note>
      <note>
        <chord />
        <pitch>
          <step>E</step>
          <octave>5</octave>
          </pitch>
        <duration>10080</duration>
        <voice>2</voice>
        <type>quarter</type>
        <stem>down</stem>
        </note>
      <backup>
        <duration>30240</duration>
        </backup>
      </measure>
    </part>
  <part id="Pdb6d6b59288ddacb670fcc0e3cb626d4">
    <measure number="33" width="106.5">
      <attributes>
        <divisions>10080</divisions>
        <key>
          <fifths>2</fifths>
          </key>
        <time>
          <beats>3</beats>
          <beat-type>4</beat-type>
          </time>
        <clef>
          <sign>F</sign>
          <line>4</line>
          </clef>
        </attributes>
      <note>
        <pitch>
          <step>D</step>
          <octave>3</octave>
          </pitch>
        <duration>10080</duration>
        <type>quarter</type>
        <stem>down</stem>
        </note>
      <note>
        <rest />
        <duration>10080</duration>
        <type>quarter</type>
        </note>
      <note>
        <rest />
        <duration>10080</duration>
        <type>quarter</type>
        </note>
      </measure>
    <measure number="34" width="196.07">
      <print new-page="yes">
        <system-layout>
          <system-margins>
            <left-margin>74.31</left-margin>
            <right-margin>0</right-margin>
            </system-margins>
          <top-system-distance>70</top-system-distance>
          </system-layout>
        <staff-layout number="2">
          <staff-distance>65</staff-distance>
          </staff-layout>
        </print>
      <attributes>
        <staff-details print-object="yes" />
        </attributes>
      <note>
        <rest measure="yes" />
        <duration>30240</duration>
        </note>
      </measure>
    <measure number="35" width="176.31">
      <attributes />
      <note>
        <rest measure="yes" />
        <duration>30240</duration>
        </note>
      </measure>
    <measure number="36" width="139.22">
      <attributes />
      <note>
        <pitch>
          <step>B</step>
          <octave>3</octave>
          </pitch>
        <duration>20160</duration>
        <type>half</type>
        <stem>down</stem>
        </note>
      <note>
        <pitch>
          <step>A</step>
          <alter>1</alter>
          <octave>3</octave>
          </pitch>
        <duration>5040</duration>
        <type>eighth</type>
        <accidental>sharp</accidental>
        <stem>down</stem>
        <beam number="1">begin</beam>
        </note>
      <note>
        <pitch>
          <step>B</step>
          <octave>3</octave>
          </pitch>
        <duration>5040</duration>
        <type>eighth</type>
        <stem>down</stem>
        <beam number="1">end</beam>
        </note>
      </measure>
    <measure number="37" width="175.72">
      <attributes />
      <note>
        <pitch>
          <step>C</step>
          <alter>1</alter>
          <octave>4</octave>
          </pitch>
        <duration>5040</duration>
        <type>eighth</type>
        <stem>down</stem>
        <beam number="1">begin</beam>
        </note>
      <note>
        <pitch>
          <step>B</step>
          <octave>3</octave>
          </pitch>
        <duration>5040</duration>
        <type>eighth</type>
        <stem>down</stem>
        <beam number="1">end</beam>
        </note>
      <note>
        <pitch>
          <step>A</step>
          <octave>3</octave>
          </pitch>
        <duration>5040</duration>
        <type>eighth</type>
        <stem>down</stem>
        <beam number="1">begin</beam>
        </note>
      <note>
        <pitch>
          <step>G</step>
          <alter>1</alter>
          <octave>3</octave>
          </pitch>
        <duration>5040</duration>
        <type>eighth</type>
        <accidental>sharp</accidental>
        <stem>down</stem>
        <beam number="1">end</beam>
        </note>
      <note>
        <pitch>
          <step>F</step>
          <alter>1</alter>
          <octave>3</octave>
          </pitch>
        <duration>5040</duration>
        <type>eighth</type>
        <stem>down</stem>
        <beam number="1">begin</beam>
        </note>
      <note>
        <pitch>
          <step>B</step>
          <octave>3</octave>
          </pitch>
        <duration>5040</duration>
        <type>eighth</type>
        <stem>down</stem>
        <beam number="1">end</beam>
        </note>
      </measure>
    <measure number="38" width="155.23">
      <attributes />
      <note>
        <pitch>
          <step>G</step>
          <alter>1</alter>
          <octave>3</octave>
          </pitch>
        <duration>10080</duration>
        <type>quarter</type>
        <accidental>sharp</accidental>
        <stem>down</stem>
        <notations>
          <articulations>
            <staccato />
            </articulations>
          </notations>
        </note>
      <note>
        <pitch>
          <step>E</step>
          <octave>3</octave>
          </pitch>
        <duration>10080</duration>
        <type>quarter</type>
        <stem>down</stem>
        <notations>
          <articulations>
            <staccato />
            </articulations>
          </notations>
        </note>
      <note>
        <rest />
        <duration>10080</duration>
        <type>quarter</type>
        </note>
      </measure>
    <measure number="39" width="160.31">
      <attributes />
      <note>
        <rest measure="yes" />
        <duration>30240</duration>
        </note>
      </measure>
    <measure number="40" width="238.4">
      <print new-system="yes">
        <system-layout>
          <system-margins>
            <left-margin>74.31</left-margin>
            <right-margin>0</right-margin>
            </system-margins>
          <system-distance>124.57</system-distance>
          </system-layout>
        <staff-layout number="2">
          <staff-distance>65</staff-distance>
          </staff-layout>
        </print>
      <attributes>
        <staff-details print-object="yes" />
        </attributes>
      <note>
        <rest measure="yes" />
        <duration>30240</duration>
        </note>
      </measure>
    <measure number="41" width="206.1">
      <attributes />
      <note>
        <rest measure="yes" />
        <duration>30240</duration>
        </note>
      </measure>
    <measure number="42" width="558.35">
      <attributes>
        <clef>
          <sign>G</sign>
          <line>2</line>
          </clef>
        </attributes>
      <note>
        <pitch>
          <step>D</step>
          <octave>4</octave>
          </pitch>
        <duration>30240</duration>
        <type>half</type>
        <dot />
        <stem>up</stem>
        </note>
      <note>
        <chord />
        <pitch>
          <step>F</step>
          <alter>1</alter>
          <octave>4</octave>
          </pitch>
        <duration>30240</duration>
        <type>half</type>
        <dot />
        <stem>up</stem>
        </note>
      </measure>
    <measure number="43" width="527.22">
      <print new-system="yes">
        <system-layout>
          <system-margins>
            <left-margin>74.31</left-margin>
            <right-margin>0</right-margin>
            </system-margins>
          <system-distance>124.57</system-distance>
          </system-layout>
        <staff-layout number="2">
          <staff-distance>65</staff-distance>
          </staff-layout>
        </print>
      <attributes>
        <staff-details print-object="yes" />
        </attributes>
      <note>
        <pitch>
          <step>D</step>
          <octave>5</octave>
          </pitch>
        <duration>10080</duration>
        <type>quarter</type>
        <stem>down</stem>
        </note>
      <note>
        <pitch>
          <step>C</step>
          <alter>1</alter>
          <octave>5</octave>
          </pitch>
        <duration>10080</duration>
        <type>quarter</type>
        <stem>down</stem>
        </note>
      <note>
        <pitch>
          <step>E</step>
          <octave>5</octave>
          </pitch>
        <duration>10080</duration>
        <type>quarter</type>
        <stem>down</stem>
        </note>
      </measure>
    <measure number="44" width="475.63">
      <attributes />
      <note>
        <pitch>
          <step>F</step>
          <alter>1</alter>
          <octave>4</octave>
          </pitch>
        <duration>30240</duration>
        <tie type="start" />
        <voice>5</voice>
        <type>half</type>
        <dot />
        <stem>up</stem>
        <notations>
          <tied type="start" />
          </notations>
        </note>
      <backup>
        <duration>30240</duration>
        </backup>
      <note>
        <pitch>
          <step>D</step>
          <octave>5</octave>
          </pitch>
        <duration>10080</duration>
        <voice>6</voice>
        <type>quarter</type>
        <stem>down</stem>
        </note>
      <note>
        <pitch>
          <step>C</step>
          <alter>1</alter>
          <octave>5</octave>
          </pitch>
        <duration>10080</duration>
        <voice>6</voice>
        <type>quarter</type>
        <stem>down</stem>
        </note>
      <note>
        <pitch>
          <step>B</step>
          <octave>4</octave>
          </pitch>
        <duration>10080</duration>
        <voice>6</voice>
        <type>quarter</type>
        <stem>down</stem>
        </note>
      <backup>
        <duration>30240</duration>
        </backup>
      </measure>
    <measure number="45" width="549.1">
      <print new-system="yes">
        <system-layout>
          <system-margins>
            <left-margin>74.31</left-margin>
            <right-margin>0</right-margin>
            </system-margins>
          <system-distance>124.57</system-distance>
          </system-layout>
        <staff-layout number="2">
          <staff-distance>65</staff-distance>
          </staff-layout>
        </print>
      <attributes>
        <staff-details print-object="yes" />
        </attributes>
      <note>
        <pitch>
          <step>F</step>
          <alter>1</alter>
          <octave>4</octave>
          </pitch>
        <duration>30240</duration>
        <tie type="stop" />
        <tie type="start" />
        <voice>5</voice>
        <type>half</type>
        <dot />
        <stem>up</stem>
        <notations>
          <tied type="stop" />
          <tied type="start" />
          </notations>
        </note>
      <backup>
        <duration>30240</duration>
        </backup>
      <note>
        <pitch>
          <step>A</step>
          <octave>4</octave>
          </pitch>
        <duration>10080</duration>
        <voice>6</voice>
        <type>quarter</type>
        <stem>down</stem>
        </note>
      <note>
        <pitch>
          <step>A</step>
          <alter>1</alter>
          <octave>4</octave>
          </pitch>
        <duration>10080</duration>
        <voice>6</voice>
        <type>quarter</type>
        <accidental>sharp</accidental>
        <stem>down</stem>
        </note>
      <note>
        <pitch>
          <step>B</step>
          <octave>4</octave>
          </pitch>
        <duration>10080</duration>
        <voice>6</voice>
        <type>quarter</type>
        <stem>down</stem>
        <notations>
          <articulations>
            <staccato />
            </articulations>
          </notations>
        </note>
      <backup>
        <duration>30240</duration>
        </backup>
      </measure>
    <measure number="46" width="150.33">
      <attributes />
      <note>
        <pitch>
          <step>F</step>
          <alter>1</alter>
          <octave>4</octave>
          </pitch>
        <duration>30240</duration>
        <tie type="stop" />
        <tie type="start" />
        <voice>5</voice>
        <type>half</type>
        <dot />
        <stem>up</stem>
        <notations>
          <tied type="stop" />
          <tied type="start" />
          </notations>
        </note>
      <backup>
        <duration>30240</duration>
        </backup>
      <note>
        <pitch>
          <step>A</step>
          <octave>4</octave>
          </pitch>
        <duration>10080</duration>
        <voice>6</voice>
        <type>quarter</type>
        <stem>down</stem>
        </note>
      <note>
        <pitch>
          <step>G</step>
          <octave>4</octave>
          </pitch>
        <duration>10080</duration>
        <voice>6</voice>
        <type>quarter</type>
        <stem>down</stem>
        </note>
      <note>
        <pitch>
          <step>A</step>
          <octave>4</octave>
          </pitch>
        <duration>10080</duration>
        <voice>6</voice>
        <type>quarter</type>
        <stem>down</stem>
        <notations>
          <articulations>
            <staccato />
            </articulations>
          </notations>
        </note>
      <backup>
        <duration>30240</duration>
        </backup>
      </measure>
    <measure number="47" width="149.74">
      <attributes />
      <note>
        <pitch>
          <step>F</step>
          <alter>1</alter>
          <octave>4</octave>
          </pitch>
        <duration>10080</duration>
        <tie type="stop" />
        <voice>5</voice>
        <type>quarter</type>
        <stem>up</stem>
        <notations>
          <tied type="stop" />
          </notations>
        </note>
      <note>
        <pitch>
          <step>F</step>
          <alter>1</alter>
          <octave>4</octave>
          </pitch>
        <duration>20160</duration>
        <tie type="start" />
        <voice>5</voice>
        <type>half</type>
        <stem>up</stem>
        <notations>
          <tied type="start" />
          </notations>
        </note>
      <backup>
        <duration>30240</duration>
        </backup>
      <note>
        <pitch>
          <step>G</step>
          <octave>4</octave>
          </pitch>
        <duration>10080</duration>
        <voice>6</voice>
        <type>quarter</type>
        <stem>down</stem>
        </note>
      <note>
        <rest />
        <duration>10080</duration>
        <voice>6</voice>
        <type>quarter</type>
        </note>
      <note>
        <pitch>
          <step>G</step>
          <octave>4</octave>
          </pitch>
        <duration>10080</duration>
        <voice>6</voice>
        <type>quarter</type>
        <stem>down</stem>
        <notations>
          <articulations>
            <staccato />
            </articulations>
          </notations>
        </note>
      <backup>
        <duration>30240</duration>
        </backup>
      </measure>
    <measure number="48" width="153.67">
      <attributes />
      <note>
        <pitch>
          <step>F</step>
          <alter>1</alter>
          <octave>4</octave>
          </pitch>
        <duration>30240</duration>
        <tie type="stop" />
        <tie type="start" />
        <voice>5</voice>
        <type>half</type>
        <dot />
        <stem>up</stem>
        <notations>
          <tied type="stop" />
          <tied type="start" />
          </notations>
        </note>
      <backup>
        <duration>30240</duration>
        </backup>
      <note>
        <rest />
        <duration>10080</duration>
        <voice>6</voice>
        <type>quarter</type>
        </note>
      <note>
        <pitch>
          <step>A</step>
          <octave>2</octave>
          </pitch>
        <duration>10080</duration>
        <voice>6</voice>
        <type>quarter</type>
        <stem>down</stem>
        </note>
      <note>
        <pitch>
          <step>A</step>
          <octave>3</octave>
          </pitch>
        <duration>10080</duration>
        <tie type="start" />
        <voice>6</voice>
        <type>quarter</type>
        <stem>down</stem>
        <notations>
          <tied type="start" />
          </notations>
        </note>
      <backup>
        <duration>30240</duration>
        </backup>
      </measure>
    </part>
  <part id="P2">
    <measure number="33" width="106.5">
      <attributes>
        <divisions>10080</divisions>
        <key>
          <fifths>2</fifths>
          </key>
        <time>
          <beats>3</beats>
          <beat-type>4</beat-type>
          </time>
        <clef>
          <sign>F</sign>
          <line>4</line>
          </clef>
        </attributes>
      <note>
        <pitch>
          <step>D</step>
          <octave>2</octave>
          </pitch>
        <duration>10080</duration>
        <tie type="stop" />
        <type>quarter</type>
        <stem>up</stem>
        <notations>
          <tied type="stop" />
          </notations>
        </note>
      <note>
        <rest />
        <duration>10080</duration>
        <type>quarter</type>
        </note>
      <note>
        <pitch>
          <step>F</step>
          <alter>1</alter>
          <octave>1</octave>
          </pitch>
        <duration>10080</duration>
        <type>quarter</type>
        <stem>up</stem>
        <notations>
          <articulations>
            <staccato />
            </articulations>
          </notations>
        </note>
      </measure>
    <measure number="34" width="196.07">
      <print new-page="yes">
        <staff-layout number="1">
          <staff-distance>65</staff-distance>
          </staff-layout>
        </print>
      <attributes>
        <staff-details print-object="yes" />
        </attributes>
      <note>
        <pitch>
          <step>F</step>
          <alter>1</alter>
          <octave>2</octave>
          </pitch>
        <duration>20160</duration>
        <type>half</type>
        <stem>up</stem>
        </note>
      <note>
        <pitch>
          <step>F</step>
          <alter>0</alter>
          <octave>2</octave>
          </pitch>
        <duration>5040</duration>
        <type>eighth</type>
        <accidental>natural</accidental>
        <stem>up</stem>
        <beam number="1">begin</beam>
        </note>
      <note>
        <pitch>
          <step>F</step>
          <alter>1</alter>
          <octave>2</octave>
          </pitch>
        <duration>5040</duration>
        <type>eighth</type>
        <accidental>sharp</accidental>
        <stem>up</stem>
        <beam number="1">end</beam>
        </note>
      </measure>
    <measure number="35" width="176.31">
      <attributes />
      <note>
        <pitch>
          <step>G</step>
          <octave>2</octave>
          </pitch>
        <duration>5040</duration>
        <type>eighth</type>
        <stem>up</stem>
        <beam number="1">begin</beam>
        </note>
      <note>
        <pitch>
          <step>F</step>
          <alter>1</alter>
          <octave>2</octave>
          </pitch>
        <duration>5040</duration>
        <type>eighth</type>
        <stem>up</stem>
        <beam number="1">end</beam>
        </note>
      <note>
        <pitch>
          <step>E</step>
          <octave>2</octave>
          </pitch>
        <duration>5040</duration>
        <type>eighth</type>
        <stem>up</stem>
        <beam number="1">begin</beam>
        </note>
      <note>
        <pitch>
          <step>D</step>
          <octave>2</octave>
          </pitch>
        <duration>5040</duration>
        <type>eighth</type>
        <stem>up</stem>
        <beam number="1">end</beam>
        </note>
      <note>
        <pitch>
          <step>C</step>
          <alter>1</alter>
          <octave>2</octave>
          </pitch>
        <duration>5040</duration>
        <type>eighth</type>
        <stem>up</stem>
        <beam number="1">begin</beam>
        </note>
      <note>
        <pitch>
          <step>F</step>
          <alter>1</alter>
          <octave>2</octave>
          </pitch>
        <duration>5040</duration>
        <type>eighth</type>
        <stem>up</stem>
        <beam number="1">end</beam>
        </note>
      </measure>
    <measure number="36" width="139.22">
      <attributes />
      <note>
        <pitch>
          <step>D</step>
          <octave>2</octave>
          </pitch>
        <duration>10080</duration>
        <type>quarter</type>
        <stem>up</stem>
        <notations>
          <articulations>
            <staccato />
            </articulations>
          </notations>
        </note>
      <note>
        <pitch>
          <step>B</step>
          <octave>1</octave>
          </pitch>
        <duration>10080</duration>
        <type>quarter</type>
        <stem>up</stem>
        <notations>
          <articulations>
            <staccato />
            </articulations>
          </notations>
        </note>
      <note>
        <rest />
        <duration>10080</duration>
        <type>quarter</type>
        </note>
      </measure>
    <measure number="37" width="175.72">
      <attributes />
      <note>
        <rest measure="yes" />
        <duration>30240</duration>
        </note>
      </measure>
    <measure number="38" width="155.23">
      <attributes />
      <note>
        <rest measure="yes" />
        <duration>30240</duration>
        </note>
      </measure>
    <measure number="39" width="160.31">
      <attributes />
      <note>
        <rest measure="yes" />
        <duration>30240</duration>
        </note>
      </measure>
    <measure number="40" width="238.4">
      <print new-system="yes">
        <staff-layout number="1">
          <staff-distance>65</staff-distance>
          </staff-layout>
        </print>
      <attributes>
        <clef>
          <sign>G</sign>
          <line>2</line>
          </clef>
        <staff-details print-object="yes" />
        </attributes>
      <note>
        <pitch>
          <step>A</step>
          <octave>4</octave>
          </pitch>
        <duration>20160</duration>
        <type>half</type>
        <stem>up</stem>
        </note>
      <note>
        <pitch>
          <step>G</step>
          <alter>1</alter>
          <octave>4</octave>
          </pitch>
        <duration>5040</duration>
        <type>eighth</type>
        <accidental>sharp</accidental>
        <stem>up</stem>
        <beam number="1">begin</beam>
        </note>
      <note>
        <pitch>
          <step>A</step>
          <octave>4</octave>
          </pitch>
        <duration>5040</duration>
        <type>eighth</type>
        <stem>up</stem>
        <beam number="1">end</beam>
        </note>
      </measure>
    <measure number="41" width="206.1">
      <attributes />
      <note>
        <pitch>
          <step>B</step>
          <octave>4</octave>
          </pitch>
        <duration>5040</duration>
        <type>eighth</type>
        <stem>up</stem>
        <beam number="1">begin</beam>
        </note>
      <note>
        <pitch>
          <step>A</step>
          <octave>4</octave>
          </pitch>
        <duration>5040</duration>
        <type>eighth</type>
        <stem>up</stem>
        <beam number="1">end</beam>
        </note>
      <note>
        <pitch>
          <step>G</step>
          <octave>4</octave>
          </pitch>
        <duration>5040</duration>
        <type>eighth</type>
        <stem>up</stem>
        <beam number="1">begin</beam>
        </note>
      <note>
        <pitch>
          <step>F</step>
          <alter>1</alter>
          <octave>4</octave>
          </pitch>
        <duration>5040</duration>
        <type>eighth</type>
        <stem>up</stem>
        <beam number="1">end</beam>
        </note>
      <note>
        <pitch>
          <step>G</step>
          <octave>4</octave>
          </pitch>
        <duration>5040</duration>
        <type>eighth</type>
        <stem>up</stem>
        <beam number="1">begin</beam>
        </note>
      <note>
        <pitch>
          <step>E</step>
          <octave>4</octave>
          </pitch>
        <duration>5040</duration>
        <type>eighth</type>
        <stem>up</stem>
        <beam number="1">end</beam>
        </note>
      </measure>
    <measure number="42" width="558.35">
      <attributes />
      <note>
        <rest measure="yes" />
        <duration>30240</duration>
        </note>
      </measure>
    <measure number="43" width="527.22">
      <print new-system="yes">
        <staff-layout number="1">
          <staff-distance>65</staff-distance>
          </staff-layout>
        </print>
      <attributes>
        <staff-details print-object="yes" />
        </attributes>
      <note>
        <pitch>
          <step>E</step>
          <octave>4</octave>
          </pitch>
        <duration>30240</duration>
        <type>half</type>
        <dot />
        <stem>up</stem>
        </note>
      <note>
        <chord />
        <pitch>
          <step>G</step>
          <octave>4</octave>
          </pitch>
        <duration>30240</duration>
        <type>half</type>
        <dot />
        <stem>up</stem>
        </note>
      </measure>
    <measure number="44" width="475.63">
      <attributes />
      <note>
        <pitch>
          <step>A</step>
          <octave>4</octave>
          </pitch>
        <duration>30240</duration>
        <type>half</type>
        <dot />
        <stem>up</stem>
        </note>
      </measure>
    <measure number="45" width="549.1">
      <print new-system="yes">
        <staff-layout number="1">
          <staff-distance>65</staff-distance>
          </staff-layout>
        </print>
      <attributes>
        <staff-details print-object="yes" />
        </attributes>
      <note>
        <rest />
        <duration>10080</duration>
        <type>quarter</type>
        </note>
      <note>
        <rest />
        <duration>10080</duration>
        <type>quarter</type>
        </note>
      <note>
        <pitch>
          <step>D</step>
          <alter>1</alter>
          <octave>4</octave>
          </pitch>
        <duration>10080</duration>
        <type>quarter</type>
        <accidental>sharp</accidental>
        <stem>up</stem>
        </note>
      </measure>
    <measure number="46" width="150.33">
      <attributes />
      <note>
        <pitch>
          <step>E</step>
          <octave>4</octave>
          </pitch>
        <duration>20160</duration>
        <type>half</type>
        <stem>up</stem>
        </note>
      <note>
        <pitch>
          <step>C</step>
          <alter>1</alter>
          <octave>4</octave>
          </pitch>
        <duration>10080</duration>
        <type>quarter</type>
        <stem>up</stem>
        </note>
      </measure>
    <measure number="47" width="149.74">
      <attributes />
      <note>
        <pitch>
          <step>D</step>
          <octave>4</octave>
          </pitch>
        <duration>20160</duration>
        <type>half</type>
        <stem>up</stem>
        </note>
      <note>
        <pitch>
          <step>G</step>
          <octave>3</octave>
          </pitch>
        <duration>10080</duration>
        <type>quarter</type>
        <stem>up</stem>
        </note>
      </measure>
    <measure number="48" width="153.67">
      <attributes />
      <note>
        <rest measure="yes" />
        <duration>30240</duration>
        </note>
      </measure>
    </part>
  </score-partwise>
