<?xml version="1.0" encoding="utf-8"?>
<!DOCTYPE score-partwise
  PUBLIC '-//Recordare//DTD MusicXML 2.0 Partwise//EN'
  'http://www.musicxml.org/dtds/partwise.dtd'>
<score-partwise>
  <work>
    <work-title>mxcap538.xml</work-title>
    </work>
  <movement-title>mxcap538.xml</movement-title>
  <identification>
    <creator type="composer">Music21</creator>
    <encoding>
      <encoding-date>2018-01-04</encoding-date>
      <software>Music21</software>
      <supports attribute="new-system" element="print" type="yes" value="yes" />
      <supports attribute="new-page" element="print" type="yes" value="yes" />
      </encoding>
    </identification>
  <defaults>
    <scaling>
      <millimeters>7</millimeters>
      <tenths>40</tenths>
      </scaling>
    </defaults>
  <part-list>
    <score-part id="P1">
      <part-name>Piano, Klavier rechte Hand</part-name>
      <part-abbreviation>Pno.</part-abbreviation>
      <score-instrument id="I760fa8514971ff639050c825d9deaa0f">
        <instrument-name>Piano</instrument-name>
        </score-instrument>
      <midi-instrument id="I760fa8514971ff639050c825d9deaa0f">
        <midi-channel>1</midi-channel>
        <midi-program>1</midi-program>
        </midi-instrument>
      </score-part>
    <score-part id="P39f7d4f03947c9bc83b12b1b745a64a4">
      <part-name>Piano, Klavier rechte Hand</part-name>
      <part-abbreviation>Pno.</part-abbreviation>
      <score-instrument id="Ib4f4b23236865fe02c4f8d9fa3654056">
        <instrument-name>Piano</instrument-name>
        </score-instrument>
      <midi-instrument id="Ib4f4b23236865fe02c4f8d9fa3654056">
        <midi-channel>2</midi-channel>
        <midi-program>1</midi-program>
        </midi-instrument>
      </score-part>
    </part-list>
  <part id="P1">
    <measure number="465" width="207.76">
      <attributes>
        <divisions>10080</divisions>
        <key>
          <fifths>-4</fifths>
          </key>
        <time>
          <beats>3</beats>
          <beat-type>4</beat-type>
          </time>
        <clef>
          <sign>G</sign>
          <line>2</line>
          </clef>
        </attributes>
      <note>
        <pitch>
          <step>A</step>
          <alter>-1</alter>
          <octave>4</octave>
          </pitch>
        <duration>5040</duration>
        <tie type="stop" />
        <voice>1</voice>
        <type>eighth</type>
        <accidental>flat</accidental>
        <stem>up</stem>
        <beam number="1">begin</beam>
        <notations>
          <tied type="stop" />
          </notations>
        </note>
      <note>
        <pitch>
          <step>D</step>
          <alter>-1</alter>
          <octave>5</octave>
          </pitch>
        <duration>5040</duration>
        <voice>1</voice>
        <type>eighth</type>
        <accidental>flat</accidental>
        <stem>up</stem>
        <beam number="1">end</beam>
        </note>
      <note>
        <pitch>
          <step>F</step>
          <octave>5</octave>
          </pitch>
        <duration>5040</duration>
        <voice>1</voice>
        <type>eighth</type>
        <stem>up</stem>
        <beam number="1">begin</beam>
        </note>
      <note>
        <pitch>
          <step>D</step>
          <alter>-1</alter>
          <octave>5</octave>
          </pitch>
        <duration>5040</duration>
        <voice>1</voice>
        <type>eighth</type>
        <accidental>flat</accidental>
        <stem>up</stem>
        <beam number="1">end</beam>
        </note>
      <note>
        <pitch>
          <step>A</step>
          <alter>-1</alter>
          <octave>5</octave>
          </pitch>
        <duration>5040</duration>
        <voice>1</voice>
        <type>eighth</type>
        <accidental>flat</accidental>
        <stem>up</stem>
        <beam number="1">begin</beam>
        </note>
      <note>
        <pitch>
          <step>F</step>
          <octave>5</octave>
          </pitch>
        <duration>5040</duration>
        <voice>1</voice>
        <type>eighth</type>
        <stem>up</stem>
        <beam number="1">end</beam>
        </note>
      <backup>
        <duration>30240</duration>
        </backup>
      <note>
        <pitch>
          <step>A</step>
          <alter>-1</alter>
          <octave>3</octave>
          </pitch>
        <duration>10080</duration>
        <tie type="stop" />
        <voice>2</voice>
        <type>quarter</type>
        <accidental>flat</accidental>
        <stem>down</stem>
        <notations>
          <tied type="stop" />
          </notations>
        </note>
      <note>
        <rest />
        <duration>10080</duration>
        <voice>2</voice>
        <type>quarter</type>
        </note>
      <note>
        <rest />
        <duration>10080</duration>
        <voice>2</voice>
        <type>quarter</type>
        </note>
      <backup>
        <duration>30240</duration>
        </backup>
      </measure>
    <measure number="466" width="237.17">
      <attributes />
      <note>
        <pitch>
          <step>D</step>
          <alter>-1</alter>
          <octave>6</octave>
          </pitch>
        <duration>5040</duration>
        <type>eighth</type>
        <accidental>flat</accidental>
        <stem>down</stem>
        <beam number="1">begin</beam>
        </note>
      <note>
        <pitch>
          <step>C</step>
          <octave>6</octave>
          </pitch>
        <duration>5040</duration>
        <type>eighth</type>
        <stem>down</stem>
        <beam number="1">end</beam>
        </note>
      <note>
        <pitch>
          <step>B</step>
          <alter>-1</alter>
          <octave>5</octave>
          </pitch>
        <duration>5040</duration>
        <type>eighth</type>
        <accidental>flat</accidental>
        <stem>down</stem>
        <beam number="1">begin</beam>
        </note>
      <note>
        <pitch>
          <step>A</step>
          <alter>-1</alter>
          <octave>5</octave>
          </pitch>
        <duration>5040</duration>
        <type>eighth</type>
        <accidental>flat</accidental>
        <stem>down</stem>
        <beam number="1">end</beam>
        </note>
      <note>
        <pitch>
          <step>F</step>
          <alter>1</alter>
          <octave>5</octave>
          </pitch>
        <duration>5040</duration>
        <type>eighth</type>
        <accidental>sharp</accidental>
        <stem>down</stem>
        <beam number="1">begin</beam>
        </note>
      <note>
        <pitch>
          <step>F</step>
          <alter>0</alter>
          <octave>5</octave>
          </pitch>
        <duration>5040</duration>
        <tie type="start" />
        <type>eighth</type>
        <accidental>natural</accidental>
        <stem>down</stem>
        <beam number="1">end</beam>
        <notations>
          <tied type="start" />
          </notations>
        </note>
      </measure>
    <measure number="467" width="186.35">
      <attributes />
      <note>
        <pitch>
          <step>F</step>
          <octave>5</octave>
          </pitch>
        <duration>10080</duration>
        <tie type="stop" />
        <type>quarter</type>
        <stem>down</stem>
        <notations>
          <tied type="stop" />
          </notations>
        </note>
      <note>
        <pitch>
          <step>E</step>
          <alter>-1</alter>
          <octave>4</octave>
          </pitch>
        <duration>10080</duration>
        <type>quarter</type>
        <accidental>flat</accidental>
        <stem>up</stem>
        </note>
      <note>
        <chord />
        <pitch>
          <step>E</step>
          <alter>-1</alter>
          <octave>5</octave>
          </pitch>
        <duration>10080</duration>
        <type>quarter</type>
        <accidental>flat</accidental>
        <stem>up</stem>
        </note>
      <note>
        <pitch>
          <step>C</step>
          <alter>1</alter>
          <octave>4</octave>
          </pitch>
        <duration>10080</duration>
        <tie type="start" />
        <type>quarter</type>
        <accidental>sharp</accidental>
        <stem>up</stem>
        <notations>
          <tied type="start" />
          </notations>
        </note>
      <note>
        <chord />
        <pitch>
          <step>C</step>
          <alter>1</alter>
          <octave>5</octave>
          </pitch>
        <duration>10080</duration>
        <tie type="start" />
        <type>quarter</type>
        <accidental>sharp</accidental>
        <stem>up</stem>
        <notations>
          <tied type="start" />
          </notations>
        </note>
      </measure>
    <measure number="468" width="179.34">
      <attributes />
      <note>
        <pitch>
          <step>C</step>
          <alter>1</alter>
          <octave>4</octave>
          </pitch>
        <duration>10080</duration>
        <tie type="stop" />
        <voice>1</voice>
        <type>quarter</type>
        <accidental>sharp</accidental>
        <stem>up</stem>
        <notations>
          <tied type="stop" />
          </notations>
        </note>
      <note>
        <chord />
        <pitch>
          <step>C</step>
          <alter>1</alter>
          <octave>5</octave>
          </pitch>
        <duration>10080</duration>
        <tie type="stop" />
        <voice>1</voice>
        <type>quarter</type>
        <accidental>sharp</accidental>
        <stem>up</stem>
        <notations>
          <tied type="stop" />
          </notations>
        </note>
      <note>
        <pitch>
          <step>C</step>
          <octave>4</octave>
          </pitch>
        <duration>10080</duration>
        <voice>1</voice>
        <type>quarter</type>
        <stem>up</stem>
        </note>
      <note>
        <chord />
        <pitch>
          <step>C</step>
          <octave>5</octave>
          </pitch>
        <duration>10080</duration>
        <voice>1</voice>
        <type>quarter</type>
        <stem>up</stem>
        </note>
      <note>
        <pitch>
          <step>A</step>
          <alter>-1</alter>
          <octave>4</octave>
          </pitch>
        <duration>10080</duration>
        <tie type="start" />
        <voice>1</voice>
        <type>quarter</type>
        <accidental>flat</accidental>
        <stem>up</stem>
        <notations>
          <tied type="start" />
          </notations>
        </note>
      <backup>
        <duration>30240</duration>
        </backup>
      <note>
        <rest />
        <duration>10080</duration>
        <voice>2</voice>
        <type>quarter</type>
        </note>
      <note>
        <rest />
        <duration>10080</duration>
        <voice>2</voice>
        <type>quarter</type>
        </note>
      <note>
        <pitch>
          <step>A</step>
          <alter>-1</alter>
          <octave>3</octave>
          </pitch>
        <duration>10080</duration>
        <tie type="start" />
        <voice>2</voice>
        <type>quarter</type>
        <accidental>flat</accidental>
        <stem>down</stem>
        <notations>
          <tied type="start" />
          </notations>
        </note>
      <backup>
        <duration>30240</duration>
        </backup>
      </measure>
    <measure number="469" width="322.47">
      <print new-page="yes">
        <system-layout>
          <system-margins>
            <left-margin>21</left-margin>
            <right-margin>0</right-margin>
            </system-margins>
          <top-system-distance>70</top-system-distance>
          </system-layout>
        </print>
      <attributes />
      <note>
        <pitch>
          <step>A</step>
          <alter>-1</alter>
          <octave>4</octave>
          </pitch>
        <duration>3360</duration>
        <tie type="stop" />
        <voice>1</voice>
        <type>eighth</type>
        <accidental>flat</accidental>
        <time-modification>
          <actual-notes>3</actual-notes>
          <normal-notes>2</normal-notes>
          <normal-type>eighth</normal-type>
          </time-modification>
        <stem>up</stem>
        <beam number="1">begin</beam>
        <notations>
          <tied type="stop" />
          <tuplet bracket="no" number="1" type="start">
            <tuplet-actual>
              <tuplet-number>3</tuplet-number>
              <tuplet-type>eighth</tuplet-type>
              </tuplet-actual>
            <tuplet-normal>
              <tuplet-number>2</tuplet-number>
              <tuplet-type>eighth</tuplet-type>
              </tuplet-normal>
            </tuplet>
          </notations>
        </note>
      <note>
        <pitch>
          <step>D</step>
          <alter>-1</alter>
          <octave>5</octave>
          </pitch>
        <duration>3360</duration>
        <voice>1</voice>
        <type>eighth</type>
        <accidental>flat</accidental>
        <time-modification>
          <actual-notes>3</actual-notes>
          <normal-notes>2</normal-notes>
          <normal-type>eighth</normal-type>
          </time-modification>
        <stem>up</stem>
        <beam number="1">continue</beam>
        </note>
      <note>
        <pitch>
          <step>C</step>
          <octave>5</octave>
          </pitch>
        <duration>3360</duration>
        <voice>1</voice>
        <type>eighth</type>
        <time-modification>
          <actual-notes>3</actual-notes>
          <normal-notes>2</normal-notes>
          <normal-type>eighth</normal-type>
          </time-modification>
        <stem>up</stem>
        <beam number="1">end</beam>
        <notations>
          <tuplet number="1" type="stop" />
          </notations>
        </note>
      <note>
        <pitch>
          <step>D</step>
          <alter>-1</alter>
          <octave>5</octave>
          </pitch>
        <duration>3360</duration>
        <voice>1</voice>
        <type>eighth</type>
        <accidental>flat</accidental>
        <time-modification>
          <actual-notes>3</actual-notes>
          <normal-notes>2</normal-notes>
          <normal-type>eighth</normal-type>
          </time-modification>
        <stem>up</stem>
        <beam number="1">begin</beam>
        <notations>
          <tuplet bracket="no" number="1" type="start">
            <tuplet-actual>
              <tuplet-number>3</tuplet-number>
              <tuplet-type>eighth</tuplet-type>
              </tuplet-actual>
            <tuplet-normal>
              <tuplet-number>2</tuplet-number>
              <tuplet-type>eighth</tuplet-type>
              </tuplet-normal>
            </tuplet>
          </notations>
        </note>
      <note>
        <pitch>
          <step>E</step>
          <alter>-1</alter>
          <octave>5</octave>
          </pitch>
        <duration>3360</duration>
        <voice>1</voice>
        <type>eighth</type>
        <accidental>flat</accidental>
        <time-modification>
          <actual-notes>3</actual-notes>
          <normal-notes>2</normal-notes>
          <normal-type>eighth</normal-type>
          </time-modification>
        <stem>up</stem>
        <beam number="1">continue</beam>
        </note>
      <note>
        <pitch>
          <step>F</step>
          <octave>5</octave>
          </pitch>
        <duration>3360</duration>
        <voice>1</voice>
        <type>eighth</type>
        <time-modification>
          <actual-notes>3</actual-notes>
          <normal-notes>2</normal-notes>
          <normal-type>eighth</normal-type>
          </time-modification>
        <stem>up</stem>
        <beam number="1">end</beam>
        <notations>
          <tuplet number="1" type="stop" />
          </notations>
        </note>
      <note>
        <pitch>
          <step>F</step>
          <alter>1</alter>
          <octave>5</octave>
          </pitch>
        <duration>2520</duration>
        <voice>1</voice>
        <type>16th</type>
        <accidental>sharp</accidental>
        <stem>up</stem>
        <beam number="1">begin</beam>
        <beam number="2">begin</beam>
        </note>
      <note>
        <pitch>
          <step>A</step>
          <alter>-1</alter>
          <octave>5</octave>
          </pitch>
        <duration>2520</duration>
        <voice>1</voice>
        <type>16th</type>
        <accidental>flat</accidental>
        <stem>up</stem>
        <beam number="1">continue</beam>
        <beam number="2">continue</beam>
        </note>
      <note>
        <pitch>
          <step>B</step>
          <alter>-1</alter>
          <octave>5</octave>
          </pitch>
        <duration>2520</duration>
        <voice>1</voice>
        <type>16th</type>
        <accidental>flat</accidental>
        <stem>up</stem>
        <beam number="1">continue</beam>
        <beam number="2">continue</beam>
        </note>
      <note>
        <pitch>
          <step>C</step>
          <octave>6</octave>
          </pitch>
        <duration>2520</duration>
        <voice>1</voice>
        <type>16th</type>
        <stem>up</stem>
        <beam number="1">end</beam>
        <beam number="2">end</beam>
        </note>
      <backup>
        <duration>30240</duration>
        </backup>
      <note>
        <pitch>
          <step>A</step>
          <alter>-1</alter>
          <octave>3</octave>
          </pitch>
        <duration>10080</duration>
        <tie type="stop" />
        <voice>2</voice>
        <type>quarter</type>
        <accidental>flat</accidental>
        <stem>down</stem>
        <notations>
          <tied type="stop" />
          </notations>
        </note>
      <note>
        <rest />
        <duration>10080</duration>
        <voice>2</voice>
        <type>quarter</type>
        </note>
      <note>
        <rest />
        <duration>10080</duration>
        <voice>2</voice>
        <type>quarter</type>
        </note>
      <backup>
        <duration>30240</duration>
        </backup>
      </measure>
    <measure number="470" width="339.88">
      <attributes />
      <note>
        <pitch>
          <step>D</step>
          <alter>-1</alter>
          <octave>6</octave>
          </pitch>
        <duration>3360</duration>
        <type>16th</type>
        <dot />
        <accidental>flat</accidental>
        <time-modification>
          <actual-notes>9</actual-notes>
          <normal-notes>8</normal-notes>
          <normal-type>16th</normal-type>
          </time-modification>
        <stem>down</stem>
        <beam number="1">begin</beam>
        <beam number="2">begin</beam>
        <notations>
          <tuplet bracket="no" number="1" type="start">
            <tuplet-actual>
              <tuplet-number>9</tuplet-number>
              <tuplet-type>16th</tuplet-type>
              </tuplet-actual>
            <tuplet-normal>
              <tuplet-number>8</tuplet-number>
              <tuplet-type>16th</tuplet-type>
              </tuplet-normal>
            </tuplet>
          </notations>
        </note>
      <note>
        <pitch>
          <step>C</step>
          <octave>6</octave>
          </pitch>
        <duration>3360</duration>
        <type>16th</type>
        <dot />
        <time-modification>
          <actual-notes>9</actual-notes>
          <normal-notes>8</normal-notes>
          <normal-type>16th</normal-type>
          </time-modification>
        <stem>down</stem>
        <beam number="1">continue</beam>
        <beam number="2">continue</beam>
        </note>
      <note>
        <pitch>
          <step>E</step>
          <alter>-1</alter>
          <octave>6</octave>
          </pitch>
        <duration>3360</duration>
        <type>16th</type>
        <dot />
        <accidental>flat</accidental>
        <time-modification>
          <actual-notes>9</actual-notes>
          <normal-notes>8</normal-notes>
          <normal-type>16th</normal-type>
          </time-modification>
        <stem>down</stem>
        <beam number="1">end</beam>
        <beam number="2">end</beam>
        </note>
      <note>
        <pitch>
          <step>D</step>
          <alter>-1</alter>
          <octave>6</octave>
          </pitch>
        <duration>3360</duration>
        <type>16th</type>
        <dot />
        <accidental>flat</accidental>
        <time-modification>
          <actual-notes>9</actual-notes>
          <normal-notes>8</normal-notes>
          <normal-type>16th</normal-type>
          </time-modification>
        <stem>down</stem>
        <beam number="1">begin</beam>
        <beam number="2">begin</beam>
        </note>
      <note>
        <pitch>
          <step>C</step>
          <octave>6</octave>
          </pitch>
        <duration>3360</duration>
        <type>16th</type>
        <dot />
        <time-modification>
          <actual-notes>9</actual-notes>
          <normal-notes>8</normal-notes>
          <normal-type>16th</normal-type>
          </time-modification>
        <stem>down</stem>
        <beam number="1">continue</beam>
        <beam number="2">continue</beam>
        </note>
      <note>
        <pitch>
          <step>B</step>
          <alter>-1</alter>
          <octave>5</octave>
          </pitch>
        <duration>3360</duration>
        <type>16th</type>
        <dot />
        <accidental>flat</accidental>
        <time-modification>
          <actual-notes>9</actual-notes>
          <normal-notes>8</normal-notes>
          <normal-type>16th</normal-type>
          </time-modification>
        <stem>down</stem>
        <beam number="1">end</beam>
        <beam number="2">end</beam>
        </note>
      <note>
        <pitch>
          <step>A</step>
          <alter>-1</alter>
          <octave>5</octave>
          </pitch>
        <duration>3360</duration>
        <type>16th</type>
        <dot />
        <accidental>flat</accidental>
        <time-modification>
          <actual-notes>9</actual-notes>
          <normal-notes>8</normal-notes>
          <normal-type>16th</normal-type>
          </time-modification>
        <stem>down</stem>
        <beam number="1">begin</beam>
        <beam number="2">begin</beam>
        </note>
      <note>
        <pitch>
          <step>F</step>
          <alter>1</alter>
          <octave>5</octave>
          </pitch>
        <duration>3360</duration>
        <type>16th</type>
        <dot />
        <accidental>sharp</accidental>
        <time-modification>
          <actual-notes>9</actual-notes>
          <normal-notes>8</normal-notes>
          <normal-type>16th</normal-type>
          </time-modification>
        <stem>down</stem>
        <beam number="1">continue</beam>
        <beam number="2">continue</beam>
        </note>
      <note>
        <pitch>
          <step>F</step>
          <alter>0</alter>
          <octave>5</octave>
          </pitch>
        <duration>3360</duration>
        <tie type="start" />
        <type>16th</type>
        <dot />
        <accidental>natural</accidental>
        <time-modification>
          <actual-notes>9</actual-notes>
          <normal-notes>8</normal-notes>
          <normal-type>16th</normal-type>
          </time-modification>
        <stem>down</stem>
        <beam number="1">end</beam>
        <beam number="2">end</beam>
        <notations>
          <tied type="start" />
          <tuplet number="1" type="stop" />
          </notations>
        </note>
      </measure>
    <measure number="471" width="145.78">
      <attributes />
      <note>
        <pitch>
          <step>F</step>
          <octave>5</octave>
          </pitch>
        <duration>10080</duration>
        <tie type="stop" />
        <type>quarter</type>
        <stem>down</stem>
        <notations>
          <tied type="stop" />
          </notations>
        </note>
      <note>
        <pitch>
          <step>E</step>
          <alter>-1</alter>
          <octave>4</octave>
          </pitch>
        <duration>10080</duration>
        <type>quarter</type>
        <accidental>flat</accidental>
        <stem>up</stem>
        </note>
      <note>
        <chord />
        <pitch>
          <step>E</step>
          <alter>-1</alter>
          <octave>5</octave>
          </pitch>
        <duration>10080</duration>
        <type>quarter</type>
        <accidental>flat</accidental>
        <stem>up</stem>
        </note>
      <note>
        <pitch>
          <step>C</step>
          <alter>1</alter>
          <octave>4</octave>
          </pitch>
        <duration>10080</duration>
        <tie type="start" />
        <type>quarter</type>
        <accidental>sharp</accidental>
        <stem>up</stem>
        <notations>
          <tied type="start" />
          </notations>
        </note>
      <note>
        <chord />
        <pitch>
          <step>C</step>
          <alter>1</alter>
          <octave>5</octave>
          </pitch>
        <duration>10080</duration>
        <tie type="start" />
        <type>quarter</type>
        <accidental>sharp</accidental>
        <stem>up</stem>
        <notations>
          <tied type="start" />
          </notations>
        </note>
      </measure>
    <measure number="472" width="138.77">
      <attributes />
      <note>
        <pitch>
          <step>C</step>
          <alter>1</alter>
          <octave>4</octave>
          </pitch>
        <duration>10080</duration>
        <tie type="stop" />
        <type>quarter</type>
        <stem>up</stem>
        <notations>
          <tied type="stop" />
          </notations>
        </note>
      <note>
        <chord />
        <pitch>
          <step>C</step>
          <alter>1</alter>
          <octave>5</octave>
          </pitch>
        <duration>10080</duration>
        <tie type="stop" />
        <type>quarter</type>
        <stem>up</stem>
        <notations>
          <tied type="stop" />
          </notations>
        </note>
      <note>
        <pitch>
          <step>C</step>
          <alter>0</alter>
          <octave>4</octave>
          </pitch>
        <duration>10080</duration>
        <type>quarter</type>
        <accidental>natural</accidental>
        <stem>up</stem>
        </note>
      <note>
        <chord />
        <pitch>
          <step>C</step>
          <alter>0</alter>
          <octave>5</octave>
          </pitch>
        <duration>10080</duration>
        <type>quarter</type>
        <accidental>natural</accidental>
        <stem>up</stem>
        </note>
      <note>
        <pitch>
          <step>E</step>
          <alter>-1</alter>
          <octave>4</octave>
          </pitch>
        <duration>10080</duration>
        <type>quarter</type>
        <accidental>flat</accidental>
        <stem>up</stem>
        </note>
      <note>
        <chord />
        <pitch>
          <step>E</step>
          <alter>-1</alter>
          <octave>5</octave>
          </pitch>
        <duration>10080</duration>
        <type>quarter</type>
        <accidental>flat</accidental>
        <stem>up</stem>
        </note>
      </measure>
    <measure number="473" width="109.25">
      <attributes />
      <note>
        <pitch>
          <step>C</step>
          <alter>1</alter>
          <octave>4</octave>
          </pitch>
        <duration>10080</duration>
        <type>quarter</type>
        <accidental>sharp</accidental>
        <stem>up</stem>
        </note>
      <note>
        <chord />
        <pitch>
          <step>C</step>
          <alter>1</alter>
          <octave>5</octave>
          </pitch>
        <duration>10080</duration>
        <type>quarter</type>
        <accidental>sharp</accidental>
        <stem>up</stem>
        </note>
      <note>
        <rest />
        <duration>10080</duration>
        <type>quarter</type>
        </note>
      <note>
        <rest />
        <duration>10080</duration>
        <type>quarter</type>
        </note>
      </measure>
    <measure number="474" width="150.31">
      <print new-system="yes">
        <system-layout>
          <system-margins>
            <left-margin>21</left-margin>
            <right-margin>0</right-margin>
            </system-margins>
          <system-distance>100.74</system-distance>
          </system-layout>
        </print>
      <attributes />
      <note>
        <pitch>
          <step>F</step>
          <octave>4</octave>
          </pitch>
        <duration>30240</duration>
        <type>half</type>
        <dot />
        <stem>up</stem>
        </note>
      <note>
        <chord />
        <pitch>
          <step>B</step>
          <alter>-1</alter>
          <octave>4</octave>
          </pitch>
        <duration>30240</duration>
        <type>half</type>
        <dot />
        <accidental>flat</accidental>
        <stem>up</stem>
        </note>
      </measure>
    <measure number="475" width="84.68">
      <attributes />
      <note>
        <pitch>
          <step>A</step>
          <alter>-1</alter>
          <octave>4</octave>
          </pitch>
        <duration>30240</duration>
        <tie type="start" />
        <voice>1</voice>
        <type>half</type>
        <dot />
        <accidental>flat</accidental>
        <stem>up</stem>
        <notations>
          <tied type="start" />
          </notations>
        </note>
      <backup>
        <duration>30240</duration>
        </backup>
      <note>
        <pitch>
          <step>E</step>
          <alter>-1</alter>
          <octave>4</octave>
          </pitch>
        <duration>30240</duration>
        <voice>2</voice>
        <type>half</type>
        <dot />
        <accidental>flat</accidental>
        <stem>down</stem>
        </note>
      <backup>
        <duration>30240</duration>
        </backup>
      </measure>
    <measure number="476" width="123.29">
      <attributes />
      <note>
        <pitch>
          <step>C</step>
          <alter>1</alter>
          <octave>4</octave>
          </pitch>
        <duration>10080</duration>
        <type>quarter</type>
        <accidental>sharp</accidental>
        <stem>up</stem>
        </note>
      <note>
        <chord />
        <pitch>
          <step>G</step>
          <alter>1</alter>
          <octave>4</octave>
          </pitch>
        <duration>10080</duration>
        <tie type="stop" />
        <type>quarter</type>
        <accidental>sharp</accidental>
        <stem>up</stem>
        <notations>
          <tied type="stop" />
          </notations>
        </note>
      <note>
        <pitch>
          <step>G</step>
          <alter>0</alter>
          <octave>4</octave>
          </pitch>
        <duration>5040</duration>
        <type>eighth</type>
        <accidental>natural</accidental>
        <stem>up</stem>
        <beam number="1">begin</beam>
        </note>
      <note>
        <pitch>
          <step>B</step>
          <alter>-1</alter>
          <octave>4</octave>
          </pitch>
        <duration>5040</duration>
        <type>eighth</type>
        <accidental>flat</accidental>
        <stem>up</stem>
        <beam number="1">end</beam>
        </note>
      <note>
        <pitch>
          <step>D</step>
          <alter>-1</alter>
          <octave>5</octave>
          </pitch>
        <duration>10080</duration>
        <tie type="start" />
        <type>quarter</type>
        <accidental>flat</accidental>
        <stem>down</stem>
        <notations>
          <tied type="start" />
          </notations>
        </note>
      </measure>
    <measure number="477" width="106.06">
      <attributes />
      <note>
        <pitch>
          <step>D</step>
          <alter>-1</alter>
          <octave>5</octave>
          </pitch>
        <duration>10080</duration>
        <tie type="stop" />
        <type>quarter</type>
        <stem>down</stem>
        <notations>
          <tied type="stop" />
          </notations>
        </note>
      <note>
        <pitch>
          <step>C</step>
          <alter>0</alter>
          <octave>5</octave>
          </pitch>
        <duration>10080</duration>
        <type>quarter</type>
        <accidental>natural</accidental>
        <stem>down</stem>
        </note>
      <note>
        <rest />
        <duration>10080</duration>
        <type>quarter</type>
        </note>
      </measure>
    <measure number="478" width="88">
      <attributes />
      <note>
        <pitch>
          <step>B</step>
          <alter>-1</alter>
          <octave>4</octave>
          </pitch>
        <duration>30240</duration>
        <type>half</type>
        <dot />
        <accidental>flat</accidental>
        <stem>down</stem>
        </note>
      <note>
        <chord />
        <pitch>
          <step>E</step>
          <alter>-1</alter>
          <octave>5</octave>
          </pitch>
        <duration>30240</duration>
        <type>half</type>
        <dot />
        <accidental>flat</accidental>
        <stem>down</stem>
        </note>
      </measure>
    <measure number="479" width="84.68">
      <attributes />
      <note>
        <pitch>
          <step>D</step>
          <alter>-1</alter>
          <octave>5</octave>
          </pitch>
        <duration>30240</duration>
        <tie type="start" />
        <voice>1</voice>
        <type>half</type>
        <dot />
        <accidental>flat</accidental>
        <stem>up</stem>
        <notations>
          <tied type="start" />
          </notations>
        </note>
      <backup>
        <duration>30240</duration>
        </backup>
      <note>
        <pitch>
          <step>A</step>
          <alter>-1</alter>
          <octave>4</octave>
          </pitch>
        <duration>30240</duration>
        <voice>2</voice>
        <type>half</type>
        <dot />
        <accidental>flat</accidental>
        <stem>down</stem>
        </note>
      <backup>
        <duration>30240</duration>
        </backup>
      </measure>
    <measure number="480" width="134.64">
      <attributes />
      <note>
        <pitch>
          <step>F</step>
          <alter>1</alter>
          <octave>4</octave>
          </pitch>
        <duration>10080</duration>
        <type>quarter</type>
        <accidental>sharp</accidental>
        <stem>down</stem>
        </note>
      <note>
        <chord />
        <pitch>
          <step>C</step>
          <alter>1</alter>
          <octave>5</octave>
          </pitch>
        <duration>10080</duration>
        <tie type="stop" />
        <type>quarter</type>
        <accidental>sharp</accidental>
        <stem>down</stem>
        <notations>
          <tied type="stop" />
          </notations>
        </note>
      <note>
        <pitch>
          <step>C</step>
          <alter>0</alter>
          <octave>5</octave>
          </pitch>
        <duration>5040</duration>
        <type>eighth</type>
        <accidental>natural</accidental>
        <stem>down</stem>
        <beam number="1">begin</beam>
        </note>
      <note>
        <pitch>
          <step>E</step>
          <alter>-1</alter>
          <octave>5</octave>
          </pitch>
        <duration>5040</duration>
        <type>eighth</type>
        <accidental>flat</accidental>
        <stem>down</stem>
        <beam number="1">end</beam>
        </note>
      <note>
        <pitch>
          <step>F</step>
          <alter>1</alter>
          <octave>5</octave>
          </pitch>
        <duration>10080</duration>
        <tie type="start" />
        <type>quarter</type>
        <accidental>sharp</accidental>
        <stem>down</stem>
        <notations>
          <tied type="start" />
          </notations>
        </note>
      </measure>
    </part>
  <part id="P39f7d4f03947c9bc83b12b1b745a64a4">
    <measure number="465" width="207.76">
      <attributes>
        <divisions>10080</divisions>
        <key>
          <fifths>-4</fifths>
          </key>
        <time>
          <beats>3</beats>
          <beat-type>4</beat-type>
          </time>
        <clef>
          <sign>F</sign>
          <line>4</line>
          </clef>
        </attributes>
      <note>
        <pitch>
          <step>C</step>
          <alter>1</alter>
          <octave>3</octave>
          </pitch>
        <duration>10080</duration>
        <type>quarter</type>
        <accidental>sharp</accidental>
        <stem>down</stem>
        </note>
      <note>
        <chord />
        <pitch>
          <step>F</step>
          <octave>3</octave>
          </pitch>
        <duration>10080</duration>
        <type>quarter</type>
        <stem>down</stem>
        </note>
      <note>
        <pitch>
          <step>D</step>
          <alter>-1</alter>
          <octave>3</octave>
          </pitch>
        <duration>10080</duration>
        <type>quarter</type>
        <accidental>flat</accidental>
        <stem>down</stem>
        </note>
      <note>
        <pitch>
          <step>D</step>
          <alter>-1</alter>
          <octave>3</octave>
          </pitch>
        <duration>10080</duration>
        <type>quarter</type>
        <stem>down</stem>
        </note>
      </measure>
    <measure number="466" width="237.17">
      <attributes />
      <note>
        <pitch>
          <step>D</step>
          <alter>-1</alter>
          <octave>3</octave>
          </pitch>
        <duration>10080</duration>
        <type>quarter</type>
        <accidental>flat</accidental>
        <stem>down</stem>
        </note>
      <note>
        <pitch>
          <step>D</step>
          <alter>-1</alter>
          <octave>3</octave>
          </pitch>
        <duration>10080</duration>
        <type>quarter</type>
        <stem>down</stem>
        </note>
      <note>
        <pitch>
          <step>F</step>
          <octave>2</octave>
          </pitch>
        <duration>10080</duration>
        <type>quarter</type>
        <stem>up</stem>
        </note>
      <note>
        <chord />
        <pitch>
          <step>C</step>
          <alter>1</alter>
          <octave>3</octave>
          </pitch>
        <duration>10080</duration>
        <type>quarter</type>
        <accidental>sharp</accidental>
        <stem>up</stem>
        </note>
      </measure>
    <measure number="467" width="186.35">
      <attributes />
      <note>
        <pitch>
          <step>D</step>
          <alter>-1</alter>
          <octave>3</octave>
          </pitch>
        <duration>10080</duration>
        <voice>5</voice>
        <type>quarter</type>
        <accidental>flat</accidental>
        <stem>up</stem>
        </note>
      <note>
        <rest />
        <duration>10080</duration>
        <voice>5</voice>
        <type>quarter</type>
        </note>
      <note>
        <rest />
        <duration>10080</duration>
        <voice>5</voice>
        <type>quarter</type>
        </note>
      <backup>
        <duration>30240</duration>
        </backup>
      <note>
        <pitch>
          <step>F</step>
          <alter>1</alter>
          <octave>2</octave>
          </pitch>
        <duration>10080</duration>
        <tie type="start" />
        <voice>6</voice>
        <type>quarter</type>
        <accidental>sharp</accidental>
        <stem>down</stem>
        <notations>
          <tied type="start" />
          </notations>
        </note>
      <note>
        <pitch>
          <step>F</step>
          <alter>1</alter>
          <octave>2</octave>
          </pitch>
        <duration>10080</duration>
        <tie type="stop" />
        <voice>6</voice>
        <type>quarter</type>
        <accidental>sharp</accidental>
        <stem>down</stem>
        <notations>
          <tied type="stop" />
          </notations>
        </note>
      <note>
        <chord />
        <pitch>
          <step>C</step>
          <alter>1</alter>
          <octave>3</octave>
          </pitch>
        <duration>10080</duration>
        <voice>6</voice>
        <type>quarter</type>
        <accidental>sharp</accidental>
        <stem>down</stem>
        </note>
      <note>
        <pitch>
          <step>G</step>
          <octave>2</octave>
          </pitch>
        <duration>10080</duration>
        <voice>6</voice>
        <type>quarter</type>
        <stem>down</stem>
        </note>
      <note>
        <chord />
        <pitch>
          <step>E</step>
          <alter>-1</alter>
          <octave>3</octave>
          </pitch>
        <duration>10080</duration>
        <voice>6</voice>
        <type>quarter</type>
        <accidental>flat</accidental>
        <stem>down</stem>
        </note>
      <backup>
        <duration>30240</duration>
        </backup>
      </measure>
    <measure number="468" width="179.34">
      <attributes />
      <note>
        <pitch>
          <step>E</step>
          <alter>-1</alter>
          <octave>3</octave>
          </pitch>
        <duration>10080</duration>
        <voice>5</voice>
        <type>quarter</type>
        <accidental>flat</accidental>
        <stem>up</stem>
        </note>
      <note>
        <rest />
        <duration>10080</duration>
        <voice>5</voice>
        <type>quarter</type>
        </note>
      <note>
        <rest />
        <duration>10080</duration>
        <voice>5</voice>
        <type>quarter</type>
        </note>
      <backup>
        <duration>30240</duration>
        </backup>
      <note>
        <pitch>
          <step>A</step>
          <alter>-1</alter>
          <octave>2</octave>
          </pitch>
        <duration>10080</duration>
        <tie type="start" />
        <voice>6</voice>
        <type>quarter</type>
        <accidental>flat</accidental>
        <stem>down</stem>
        <notations>
          <tied type="start" />
          </notations>
        </note>
      <note>
        <pitch>
          <step>G</step>
          <alter>1</alter>
          <octave>2</octave>
          </pitch>
        <duration>10080</duration>
        <tie type="stop" />
        <voice>6</voice>
        <type>quarter</type>
        <accidental>sharp</accidental>
        <stem>down</stem>
        <notations>
          <tied type="stop" />
          </notations>
        </note>
      <note>
        <chord />
        <pitch>
          <step>E</step>
          <alter>-1</alter>
          <octave>3</octave>
          </pitch>
        <duration>10080</duration>
        <voice>6</voice>
        <type>quarter</type>
        <accidental>flat</accidental>
        <stem>down</stem>
        </note>
      <note>
        <pitch>
          <step>G</step>
          <alter>1</alter>
          <octave>2</octave>
          </pitch>
        <duration>10080</duration>
        <voice>6</voice>
        <type>quarter</type>
        <accidental>sharp</accidental>
        <stem>down</stem>
        </note>
      <note>
        <chord />
        <pitch>
          <step>F</step>
          <alter>1</alter>
          <octave>3</octave>
          </pitch>
        <duration>10080</duration>
        <voice>6</voice>
        <type>quarter</type>
        <accidental>sharp</accidental>
        <stem>down</stem>
        </note>
      <backup>
        <duration>30240</duration>
        </backup>
      </measure>
    <measure number="469" width="322.47">
      <print new-page="yes">
        <system-layout>
          <system-margins>
            <left-margin>21</left-margin>
            <right-margin>0</right-margin>
            </system-margins>
          <top-system-distance>70</top-system-distance>
          </system-layout>
        <staff-layout number="2">
          <staff-distance>65</staff-distance>
          </staff-layout>
        </print>
      <attributes>
        <staff-details print-object="yes" />
        </attributes>
      <note>
        <pitch>
          <step>C</step>
          <alter>1</alter>
          <octave>3</octave>
          </pitch>
        <duration>10080</duration>
        <type>quarter</type>
        <accidental>sharp</accidental>
        <stem>down</stem>
        </note>
      <note>
        <chord />
        <pitch>
          <step>F</step>
          <alter>0</alter>
          <octave>3</octave>
          </pitch>
        <duration>10080</duration>
        <type>quarter</type>
        <accidental>natural</accidental>
        <stem>down</stem>
        </note>
      <note>
        <pitch>
          <step>D</step>
          <alter>-1</alter>
          <octave>3</octave>
          </pitch>
        <duration>10080</duration>
        <type>quarter</type>
        <accidental>flat</accidental>
        <stem>down</stem>
        </note>
      <note>
        <pitch>
          <step>D</step>
          <alter>-1</alter>
          <octave>3</octave>
          </pitch>
        <duration>10080</duration>
        <type>quarter</type>
        <stem>down</stem>
        </note>
      </measure>
    <measure number="470" width="339.88">
      <attributes />
      <note>
        <pitch>
          <step>D</step>
          <alter>-1</alter>
          <octave>3</octave>
          </pitch>
        <duration>10080</duration>
        <type>quarter</type>
        <accidental>flat</accidental>
        <stem>down</stem>
        </note>
      <note>
        <pitch>
          <step>D</step>
          <alter>-1</alter>
          <octave>3</octave>
          </pitch>
        <duration>10080</duration>
        <type>quarter</type>
        <stem>down</stem>
        </note>
      <note>
        <pitch>
          <step>F</step>
          <octave>2</octave>
          </pitch>
        <duration>10080</duration>
        <type>quarter</type>
        <stem>up</stem>
        </note>
      <note>
        <chord />
        <pitch>
          <step>C</step>
          <alter>1</alter>
          <octave>3</octave>
          </pitch>
        <duration>10080</duration>
        <type>quarter</type>
        <accidental>sharp</accidental>
        <stem>up</stem>
        </note>
      </measure>
    <measure number="471" width="145.78">
      <attributes />
      <note>
        <pitch>
          <step>D</step>
          <alter>-1</alter>
          <octave>3</octave>
          </pitch>
        <duration>10080</duration>
        <voice>5</voice>
        <type>quarter</type>
        <accidental>flat</accidental>
        <stem>up</stem>
        </note>
      <note>
        <rest />
        <duration>10080</duration>
        <voice>5</voice>
        <type>quarter</type>
        </note>
      <note>
        <rest />
        <duration>10080</duration>
        <voice>5</voice>
        <type>quarter</type>
        </note>
      <backup>
        <duration>30240</duration>
        </backup>
      <note>
        <pitch>
          <step>F</step>
          <alter>1</alter>
          <octave>2</octave>
          </pitch>
        <duration>10080</duration>
        <tie type="start" />
        <voice>6</voice>
        <type>quarter</type>
        <accidental>sharp</accidental>
        <stem>down</stem>
        <notations>
          <tied type="start" />
          </notations>
        </note>
      <note>
        <pitch>
          <step>F</step>
          <alter>1</alter>
          <octave>2</octave>
          </pitch>
        <duration>10080</duration>
        <tie type="stop" />
        <voice>6</voice>
        <type>quarter</type>
        <accidental>sharp</accidental>
        <stem>down</stem>
        <notations>
          <tied type="stop" />
          </notations>
        </note>
      <note>
        <chord />
        <pitch>
          <step>C</step>
          <alter>1</alter>
          <octave>3</octave>
          </pitch>
        <duration>10080</duration>
        <voice>6</voice>
        <type>quarter</type>
        <accidental>sharp</accidental>
        <stem>down</stem>
        </note>
      <note>
        <pitch>
          <step>G</step>
          <octave>2</octave>
          </pitch>
        <duration>10080</duration>
        <voice>6</voice>
        <type>quarter</type>
        <stem>down</stem>
        </note>
      <note>
        <chord />
        <pitch>
          <step>E</step>
          <alter>-1</alter>
          <octave>3</octave>
          </pitch>
        <duration>10080</duration>
        <voice>6</voice>
        <type>quarter</type>
        <accidental>flat</accidental>
        <stem>down</stem>
        </note>
      <backup>
        <duration>30240</duration>
        </backup>
      </measure>
    <measure number="472" width="138.77">
      <attributes />
      <note>
        <pitch>
          <step>E</step>
          <alter>-1</alter>
          <octave>3</octave>
          </pitch>
        <duration>10080</duration>
        <voice>5</voice>
        <type>quarter</type>
        <accidental>flat</accidental>
        <stem>up</stem>
        </note>
      <note>
        <rest />
        <duration>10080</duration>
        <voice>5</voice>
        <type>quarter</type>
        </note>
      <note>
        <rest />
        <duration>10080</duration>
        <voice>5</voice>
        <type>quarter</type>
        </note>
      <backup>
        <duration>30240</duration>
        </backup>
      <note>
        <pitch>
          <step>A</step>
          <alter>-1</alter>
          <octave>2</octave>
          </pitch>
        <duration>10080</duration>
        <tie type="start" />
        <voice>6</voice>
        <type>quarter</type>
        <accidental>flat</accidental>
        <stem>down</stem>
        <notations>
          <tied type="start" />
          </notations>
        </note>
      <note>
        <pitch>
          <step>G</step>
          <alter>1</alter>
          <octave>2</octave>
          </pitch>
        <duration>10080</duration>
        <tie type="stop" />
        <voice>6</voice>
        <type>quarter</type>
        <accidental>sharp</accidental>
        <stem>down</stem>
        <notations>
          <tied type="stop" />
          </notations>
        </note>
      <note>
        <chord />
        <pitch>
          <step>E</step>
          <alter>-1</alter>
          <octave>3</octave>
          </pitch>
        <duration>10080</duration>
        <voice>6</voice>
        <type>quarter</type>
        <accidental>flat</accidental>
        <stem>down</stem>
        </note>
      <note>
        <pitch>
          <step>G</step>
          <alter>1</alter>
          <octave>2</octave>
          </pitch>
        <duration>10080</duration>
        <voice>6</voice>
        <type>quarter</type>
        <accidental>sharp</accidental>
        <stem>down</stem>
        </note>
      <note>
        <chord />
        <pitch>
          <step>F</step>
          <alter>1</alter>
          <octave>3</octave>
          </pitch>
        <duration>10080</duration>
        <voice>6</voice>
        <type>quarter</type>
        <accidental>sharp</accidental>
        <stem>down</stem>
        </note>
      <backup>
        <duration>30240</duration>
        </backup>
      </measure>
    <measure number="473" width="109.25">
      <attributes />
      <note>
        <pitch>
          <step>C</step>
          <alter>1</alter>
          <octave>3</octave>
          </pitch>
        <duration>10080</duration>
        <type>quarter</type>
        <accidental>sharp</accidental>
        <stem>down</stem>
        </note>
      <note>
        <chord />
        <pitch>
          <step>F</step>
          <alter>0</alter>
          <octave>3</octave>
          </pitch>
        <duration>10080</duration>
        <type>quarter</type>
        <accidental>natural</accidental>
        <stem>down</stem>
        </note>
      <note>
        <rest />
        <duration>10080</duration>
        <type>quarter</type>
        </note>
      <note>
        <rest />
        <duration>10080</duration>
        <type>quarter</type>
        </note>
      </measure>
    <measure number="474" width="150.31">
      <print new-system="yes">
        <system-layout>
          <system-margins>
            <left-margin>21</left-margin>
            <right-margin>0</right-margin>
            </system-margins>
          <system-distance>100.74</system-distance>
          </system-layout>
        <staff-layout number="2">
          <staff-distance>65</staff-distance>
          </staff-layout>
        </print>
      <attributes>
        <staff-details print-object="yes" />
        </attributes>
      <note>
        <pitch>
          <step>A</step>
          <alter>-1</alter>
          <octave>3</octave>
          </pitch>
        <duration>30240</duration>
        <tie type="start" />
        <voice>5</voice>
        <type>half</type>
        <dot />
        <accidental>flat</accidental>
        <stem>up</stem>
        <notations>
          <tied type="start" />
          </notations>
        </note>
      <backup>
        <duration>30240</duration>
        </backup>
      <note>
        <pitch>
          <step>D</step>
          <alter>-1</alter>
          <octave>3</octave>
          </pitch>
        <duration>30240</duration>
        <voice>6</voice>
        <type>half</type>
        <dot />
        <accidental>flat</accidental>
        <stem>down</stem>
        </note>
      <backup>
        <duration>30240</duration>
        </backup>
      </measure>
    <measure number="475" width="84.68">
      <attributes />
      <note>
        <pitch>
          <step>A</step>
          <alter>-1</alter>
          <octave>3</octave>
          </pitch>
        <duration>30240</duration>
        <tie type="stop" />
        <voice>5</voice>
        <type>half</type>
        <dot />
        <accidental>flat</accidental>
        <stem>up</stem>
        <notations>
          <tied type="stop" />
          </notations>
        </note>
      <backup>
        <duration>30240</duration>
        </backup>
      <note>
        <pitch>
          <step>C</step>
          <octave>3</octave>
          </pitch>
        <duration>30240</duration>
        <voice>6</voice>
        <type>half</type>
        <dot />
        <stem>down</stem>
        </note>
      <backup>
        <duration>30240</duration>
        </backup>
      </measure>
    <measure number="476" width="123.29">
      <attributes />
      <note>
        <pitch>
          <step>E</step>
          <alter>-1</alter>
          <octave>3</octave>
          </pitch>
        <duration>30240</duration>
        <tie type="start" />
        <voice>5</voice>
        <type>half</type>
        <dot />
        <accidental>flat</accidental>
        <stem>up</stem>
        <notations>
          <tied type="start" />
          </notations>
        </note>
      <backup>
        <duration>30240</duration>
        </backup>
      <note>
        <pitch>
          <step>B</step>
          <alter>-1</alter>
          <octave>2</octave>
          </pitch>
        <duration>30240</duration>
        <voice>6</voice>
        <type>half</type>
        <dot />
        <accidental>flat</accidental>
        <stem>down</stem>
        </note>
      <backup>
        <duration>30240</duration>
        </backup>
      </measure>
    <measure number="477" width="106.06">
      <attributes />
      <note>
        <pitch>
          <step>E</step>
          <alter>-1</alter>
          <octave>3</octave>
          </pitch>
        <duration>10080</duration>
        <tie type="stop" />
        <voice>5</voice>
        <type>quarter</type>
        <accidental>flat</accidental>
        <stem>up</stem>
        <notations>
          <tied type="stop" />
          </notations>
        </note>
      <note>
        <rest />
        <duration>10080</duration>
        <voice>5</voice>
        <type>quarter</type>
        </note>
      <note>
        <rest />
        <duration>10080</duration>
        <voice>5</voice>
        <type>quarter</type>
        </note>
      <backup>
        <duration>30240</duration>
        </backup>
      <note>
        <pitch>
          <step>A</step>
          <alter>-1</alter>
          <octave>2</octave>
          </pitch>
        <duration>10080</duration>
        <voice>6</voice>
        <type>quarter</type>
        <accidental>flat</accidental>
        <stem>down</stem>
        </note>
      <note>
        <rest />
        <duration>10080</duration>
        <voice>6</voice>
        <type>quarter</type>
        </note>
      <note>
        <rest />
        <duration>10080</duration>
        <voice>6</voice>
        <type>quarter</type>
        </note>
      <backup>
        <duration>30240</duration>
        </backup>
      </measure>
    <measure number="478" width="88">
      <attributes />
      <note>
        <pitch>
          <step>D</step>
          <alter>-1</alter>
          <octave>4</octave>
          </pitch>
        <duration>30240</duration>
        <tie type="start" />
        <voice>5</voice>
        <type>half</type>
        <dot />
        <accidental>flat</accidental>
        <stem>up</stem>
        <notations>
          <tied type="start" />
          </notations>
        </note>
      <backup>
        <duration>30240</duration>
        </backup>
      <note>
        <pitch>
          <step>F</step>
          <alter>1</alter>
          <octave>3</octave>
          </pitch>
        <duration>30240</duration>
        <voice>6</voice>
        <type>half</type>
        <dot />
        <accidental>sharp</accidental>
        <stem>down</stem>
        </note>
      <backup>
        <duration>30240</duration>
        </backup>
      </measure>
    <measure number="479" width="84.68">
      <attributes />
      <note>
        <pitch>
          <step>F</step>
          <alter>0</alter>
          <octave>3</octave>
          </pitch>
        <duration>30240</duration>
        <type>half</type>
        <dot />
        <accidental>natural</accidental>
        <stem>down</stem>
        </note>
      <note>
        <chord />
        <pitch>
          <step>C</step>
          <alter>1</alter>
          <octave>4</octave>
          </pitch>
        <duration>30240</duration>
        <tie type="stop" />
        <type>half</type>
        <dot />
        <accidental>sharp</accidental>
        <stem>down</stem>
        <notations>
          <tied type="stop" />
          </notations>
        </note>
      </measure>
    <measure number="480" width="134.64">
      <attributes />
      <note>
        <pitch>
          <step>A</step>
          <alter>-1</alter>
          <octave>3</octave>
          </pitch>
        <duration>30240</duration>
        <tie type="start" />
        <voice>5</voice>
        <type>half</type>
        <dot />
        <accidental>flat</accidental>
        <stem>up</stem>
        <notations>
          <tied type="start" />
          </notations>
        </note>
      <backup>
        <duration>30240</duration>
        </backup>
      <note>
        <pitch>
          <step>E</step>
          <alter>-1</alter>
          <octave>3</octave>
          </pitch>
        <duration>30240</duration>
        <voice>6</voice>
        <type>half</type>
        <dot />
        <accidental>flat</accidental>
        <stem>down</stem>
        </note>
      <backup>
        <duration>30240</duration>
        </backup>
      </measure>
    </part>
  </score-partwise>
