<?xml version="1.0" encoding="utf-8"?>
<!DOCTYPE score-partwise
  PUBLIC '-//Recordare//DTD MusicXML 2.0 Partwise//EN'
  'http://www.musicxml.org/dtds/partwise.dtd'>
<score-partwise>
  <work>
    <work-title>mxcap718.xml</work-title>
    </work>
  <movement-title>mxcap718.xml</movement-title>
  <identification>
    <creator type="composer">Music21</creator>
    <encoding>
      <encoding-date>2018-01-04</encoding-date>
      <software>Music21</software>
      <supports attribute="new-system" element="print" type="yes" value="yes" />
      <supports attribute="new-page" element="print" type="yes" value="yes" />
      </encoding>
    </identification>
  <defaults>
    <scaling>
      <millimeters>7</millimeters>
      <tenths>40</tenths>
      </scaling>
    </defaults>
  <part-list>
    <score-part id="P1">
      <part-name>Piano, Klavier rechte Hand</part-name>
      <part-abbreviation>Pno.</part-abbreviation>
      <score-instrument id="I39ef2d71e4170717f61763e17252efc9">
        <instrument-name>Piano</instrument-name>
        </score-instrument>
      <midi-instrument id="I39ef2d71e4170717f61763e17252efc9">
        <midi-channel>1</midi-channel>
        <midi-program>2</midi-program>
        </midi-instrument>
      </score-part>
    <score-part id="Pce4ddb084995068de420d3f88f1f88f1">
      <part-name>Piano, Klavier rechte Hand</part-name>
      <part-abbreviation>Pno.</part-abbreviation>
      <score-instrument id="I913281e279be4ee658a028c3f2f8ab9a">
        <instrument-name>Piano</instrument-name>
        </score-instrument>
      <midi-instrument id="I913281e279be4ee658a028c3f2f8ab9a">
        <midi-channel>2</midi-channel>
        <midi-program>2</midi-program>
        </midi-instrument>
      </score-part>
    </part-list>
  <part id="P1">
    <measure number="25" width="169.81">
      <attributes>
        <divisions>10080</divisions>
        <key>
          <fifths>-2</fifths>
          </key>
        <time>
          <beats>4</beats>
          <beat-type>4</beat-type>
          </time>
        <clef>
          <sign>G</sign>
          <line>2</line>
          </clef>
        </attributes>
      <note>
        <pitch>
          <step>D</step>
          <octave>4</octave>
          </pitch>
        <duration>20160</duration>
        <voice>1</voice>
        <type>half</type>
        <stem>up</stem>
        </note>
      <note>
        <pitch>
          <step>E</step>
          <alter>-1</alter>
          <octave>4</octave>
          </pitch>
        <duration>20160</duration>
        <tie type="start" />
        <voice>1</voice>
        <type>half</type>
        <accidental>flat</accidental>
        <stem>up</stem>
        <notations>
          <tied type="start" />
          </notations>
        </note>
      <backup>
        <duration>40320</duration>
        </backup>
      <note>
        <pitch>
          <step>G</step>
          <alter>1</alter>
          <octave>3</octave>
          </pitch>
        <duration>10080</duration>
        <voice>2</voice>
        <type>quarter</type>
        <accidental>sharp</accidental>
        <stem>down</stem>
        </note>
      <note>
        <pitch>
          <step>G</step>
          <octave>3</octave>
          </pitch>
        <duration>10080</duration>
        <voice>2</voice>
        <type>quarter</type>
        <stem>down</stem>
        </note>
      <note>
        <pitch>
          <step>G</step>
          <octave>3</octave>
          </pitch>
        <duration>10080</duration>
        <voice>2</voice>
        <type>quarter</type>
        <stem>down</stem>
        </note>
      <note>
        <pitch>
          <step>G</step>
          <octave>3</octave>
          </pitch>
        <duration>10080</duration>
        <voice>2</voice>
        <type>quarter</type>
        <stem>down</stem>
        </note>
      <backup>
        <duration>40320</duration>
        </backup>
      </measure>
    <measure number="26" width="179.3">
      <attributes />
      <note>
        <pitch>
          <step>E</step>
          <alter>-1</alter>
          <octave>4</octave>
          </pitch>
        <duration>10080</duration>
        <tie type="stop" />
        <voice>1</voice>
        <type>quarter</type>
        <accidental>flat</accidental>
        <stem>up</stem>
        <notations>
          <tied type="stop" />
          </notations>
        </note>
      <note>
        <rest />
        <duration>10080</duration>
        <voice>1</voice>
        <type>quarter</type>
        </note>
      <note>
        <rest />
        <duration>20160</duration>
        <voice>1</voice>
        <type>half</type>
        </note>
      <backup>
        <duration>40320</duration>
        </backup>
      <note>
        <pitch>
          <step>G</step>
          <octave>3</octave>
          </pitch>
        <duration>10080</duration>
        <voice>2</voice>
        <type>quarter</type>
        <stem>down</stem>
        </note>
      <note>
        <pitch>
          <step>F</step>
          <octave>3</octave>
          </pitch>
        <duration>10080</duration>
        <voice>2</voice>
        <type>quarter</type>
        <stem>down</stem>
        </note>
      <note>
        <chord />
        <pitch>
          <step>D</step>
          <octave>4</octave>
          </pitch>
        <duration>10080</duration>
        <voice>2</voice>
        <type>quarter</type>
        <stem>down</stem>
        </note>
      <note>
        <pitch>
          <step>G</step>
          <octave>3</octave>
          </pitch>
        <duration>10080</duration>
        <voice>2</voice>
        <type>quarter</type>
        <stem>down</stem>
        </note>
      <note>
        <chord />
        <pitch>
          <step>E</step>
          <alter>-1</alter>
          <octave>4</octave>
          </pitch>
        <duration>10080</duration>
        <voice>2</voice>
        <type>quarter</type>
        <accidental>flat</accidental>
        <stem>down</stem>
        </note>
      <note>
        <pitch>
          <step>A</step>
          <octave>3</octave>
          </pitch>
        <duration>10080</duration>
        <voice>2</voice>
        <type>quarter</type>
        <stem>down</stem>
        </note>
      <note>
        <chord />
        <pitch>
          <step>F</step>
          <octave>4</octave>
          </pitch>
        <duration>10080</duration>
        <voice>2</voice>
        <type>quarter</type>
        <stem>down</stem>
        </note>
      <backup>
        <duration>40320</duration>
        </backup>
      </measure>
    <measure number="27" width="146.09">
      <attributes />
      <note>
        <pitch>
          <step>E</step>
          <alter>-1</alter>
          <octave>4</octave>
          </pitch>
        <duration>20160</duration>
        <voice>1</voice>
        <type>half</type>
        <accidental>flat</accidental>
        <stem>up</stem>
        </note>
      <note>
        <rest />
        <duration>20160</duration>
        <voice>1</voice>
        <type>half</type>
        </note>
      <backup>
        <duration>40320</duration>
        </backup>
      <note>
        <pitch>
          <step>B</step>
          <alter>-1</alter>
          <octave>3</octave>
          </pitch>
        <duration>20160</duration>
        <tie type="start" />
        <voice>2</voice>
        <type>half</type>
        <accidental>flat</accidental>
        <stem>down</stem>
        <notations>
          <tied type="start" />
          </notations>
        </note>
      <note>
        <pitch>
          <step>B</step>
          <alter>-1</alter>
          <octave>3</octave>
          </pitch>
        <duration>20160</duration>
        <tie type="stop" />
        <tie type="start" />
        <voice>2</voice>
        <type>half</type>
        <accidental>flat</accidental>
        <stem>down</stem>
        <notations>
          <tied type="stop" />
          <tied type="start" />
          </notations>
        </note>
      <note>
        <chord />
        <pitch>
          <step>D</step>
          <octave>4</octave>
          </pitch>
        <duration>20160</duration>
        <tie type="start" />
        <voice>2</voice>
        <type>half</type>
        <stem>down</stem>
        <notations>
          <tied type="start" />
          </notations>
        </note>
      <backup>
        <duration>40320</duration>
        </backup>
      </measure>
    <measure number="28" width="216.4">
      <print new-system="yes">
        <system-layout>
          <system-margins>
            <left-margin>21</left-margin>
            <right-margin>0</right-margin>
            </system-margins>
          <system-distance>100.74</system-distance>
          </system-layout>
        </print>
      <attributes />
      <note>
        <rest measure="yes" />
        <duration>40320</duration>
        <voice>1</voice>
        </note>
      <backup>
        <duration>40320</duration>
        </backup>
      <note>
        <pitch>
          <step>B</step>
          <alter>-1</alter>
          <octave>3</octave>
          </pitch>
        <duration>10080</duration>
        <tie type="stop" />
        <voice>2</voice>
        <type>quarter</type>
        <accidental>flat</accidental>
        <stem>down</stem>
        <notations>
          <tied type="stop" />
          </notations>
        </note>
      <note>
        <chord />
        <pitch>
          <step>D</step>
          <octave>4</octave>
          </pitch>
        <duration>10080</duration>
        <tie type="stop" />
        <voice>2</voice>
        <type>quarter</type>
        <stem>down</stem>
        <notations>
          <tied type="stop" />
          </notations>
        </note>
      <note>
        <pitch>
          <step>A</step>
          <octave>3</octave>
          </pitch>
        <duration>20160</duration>
        <voice>2</voice>
        <type>half</type>
        <stem>down</stem>
        </note>
      <note>
        <chord />
        <pitch>
          <step>C</step>
          <octave>4</octave>
          </pitch>
        <duration>20160</duration>
        <voice>2</voice>
        <type>half</type>
        <stem>down</stem>
        </note>
      <note>
        <pitch>
          <step>G</step>
          <octave>3</octave>
          </pitch>
        <duration>10080</duration>
        <tie type="start" />
        <voice>2</voice>
        <type>quarter</type>
        <stem>down</stem>
        <notations>
          <tied type="start" />
          </notations>
        </note>
      <note>
        <chord />
        <pitch>
          <step>B</step>
          <alter>-1</alter>
          <octave>3</octave>
          </pitch>
        <duration>10080</duration>
        <tie type="start" />
        <voice>2</voice>
        <type>quarter</type>
        <accidental>flat</accidental>
        <stem>down</stem>
        <notations>
          <tied type="start" />
          </notations>
        </note>
      <backup>
        <duration>40320</duration>
        </backup>
      </measure>
    <measure number="29" width="138.79">
      <attributes />
      <note>
        <rest measure="yes" />
        <duration>40320</duration>
        <voice>1</voice>
        </note>
      <backup>
        <duration>40320</duration>
        </backup>
      <note>
        <pitch>
          <step>G</step>
          <octave>3</octave>
          </pitch>
        <duration>10080</duration>
        <tie type="stop" />
        <voice>2</voice>
        <type>quarter</type>
        <stem>down</stem>
        <notations>
          <tied type="stop" />
          </notations>
        </note>
      <note>
        <chord />
        <pitch>
          <step>B</step>
          <alter>-1</alter>
          <octave>3</octave>
          </pitch>
        <duration>10080</duration>
        <tie type="stop" />
        <voice>2</voice>
        <type>quarter</type>
        <accidental>flat</accidental>
        <stem>down</stem>
        <notations>
          <tied type="stop" />
          </notations>
        </note>
      <note>
        <pitch>
          <step>F</step>
          <octave>3</octave>
          </pitch>
        <duration>20160</duration>
        <voice>2</voice>
        <type>half</type>
        <stem>down</stem>
        </note>
      <note>
        <chord />
        <pitch>
          <step>A</step>
          <octave>3</octave>
          </pitch>
        <duration>20160</duration>
        <voice>2</voice>
        <type>half</type>
        <stem>down</stem>
        </note>
      <note>
        <pitch>
          <step>F</step>
          <octave>5</octave>
          </pitch>
        <duration>10080</duration>
        <voice>2</voice>
        <type>quarter</type>
        <stem>down</stem>
        </note>
      <backup>
        <duration>40320</duration>
        </backup>
      </measure>
    <measure number="30" width="157.14">
      <attributes />
      <note>
        <pitch>
          <step>B</step>
          <alter>-1</alter>
          <octave>4</octave>
          </pitch>
        <duration>10080</duration>
        <type>quarter</type>
        <accidental>flat</accidental>
        <stem>down</stem>
        </note>
      <note>
        <pitch>
          <step>B</step>
          <alter>-1</alter>
          <octave>4</octave>
          </pitch>
        <duration>10080</duration>
        <type>quarter</type>
        <stem>down</stem>
        </note>
      <note>
        <pitch>
          <step>B</step>
          <alter>-1</alter>
          <octave>4</octave>
          </pitch>
        <duration>10080</duration>
        <type>quarter</type>
        <stem>down</stem>
        </note>
      <note>
        <pitch>
          <step>B</step>
          <alter>-1</alter>
          <octave>4</octave>
          </pitch>
        <duration>10080</duration>
        <type>quarter</type>
        <stem>down</stem>
        </note>
      </measure>
    <measure number="31" width="145.36">
      <attributes />
      <note>
        <pitch>
          <step>B</step>
          <alter>-1</alter>
          <octave>4</octave>
          </pitch>
        <duration>30240</duration>
        <voice>1</voice>
        <type>half</type>
        <dot />
        <accidental>flat</accidental>
        <stem>up</stem>
        </note>
      <note>
        <pitch>
          <step>E</step>
          <alter>-1</alter>
          <octave>5</octave>
          </pitch>
        <duration>10080</duration>
        <voice>1</voice>
        <type>quarter</type>
        <accidental>flat</accidental>
        <stem>up</stem>
        </note>
      <backup>
        <duration>40320</duration>
        </backup>
      <note>
        <pitch>
          <step>E</step>
          <alter>-1</alter>
          <octave>4</octave>
          </pitch>
        <duration>40320</duration>
        <tie type="start" />
        <voice>2</voice>
        <type>whole</type>
        <accidental>flat</accidental>
        <notations>
          <tied type="start" />
          </notations>
        </note>
      <backup>
        <duration>40320</duration>
        </backup>
      </measure>
    <measure number="32" width="122.44">
      <attributes />
      <note>
        <pitch>
          <step>A</step>
          <octave>4</octave>
          </pitch>
        <duration>10080</duration>
        <voice>1</voice>
        <type>quarter</type>
        <stem>up</stem>
        </note>
      <note>
        <pitch>
          <step>A</step>
          <octave>4</octave>
          </pitch>
        <duration>10080</duration>
        <voice>1</voice>
        <type>quarter</type>
        <stem>up</stem>
        </note>
      <note>
        <pitch>
          <step>A</step>
          <octave>4</octave>
          </pitch>
        <duration>10080</duration>
        <voice>1</voice>
        <type>quarter</type>
        <stem>up</stem>
        </note>
      <note>
        <pitch>
          <step>A</step>
          <octave>4</octave>
          </pitch>
        <duration>10080</duration>
        <voice>1</voice>
        <type>quarter</type>
        <stem>up</stem>
        </note>
      <backup>
        <duration>40320</duration>
        </backup>
      <note>
        <pitch>
          <step>E</step>
          <alter>-1</alter>
          <octave>4</octave>
          </pitch>
        <duration>20160</duration>
        <tie type="stop" />
        <voice>2</voice>
        <type>half</type>
        <accidental>flat</accidental>
        <stem>down</stem>
        <notations>
          <tied type="stop" />
          </notations>
        </note>
      <note>
        <pitch>
          <step>E</step>
          <alter>-1</alter>
          <octave>4</octave>
          </pitch>
        <duration>20160</duration>
        <voice>2</voice>
        <type>half</type>
        <accidental>flat</accidental>
        <stem>down</stem>
        </note>
      <backup>
        <duration>40320</duration>
        </backup>
      </measure>
    <measure number="33" width="150.27">
      <attributes />
      <note>
        <pitch>
          <step>A</step>
          <octave>4</octave>
          </pitch>
        <duration>30240</duration>
        <voice>1</voice>
        <type>half</type>
        <dot />
        <stem>up</stem>
        </note>
      <note>
        <pitch>
          <step>D</step>
          <octave>5</octave>
          </pitch>
        <duration>10080</duration>
        <voice>1</voice>
        <type>quarter</type>
        <stem>up</stem>
        </note>
      <backup>
        <duration>40320</duration>
        </backup>
      <note>
        <pitch>
          <step>C</step>
          <alter>1</alter>
          <octave>4</octave>
          </pitch>
        <duration>20160</duration>
        <voice>2</voice>
        <type>half</type>
        <accidental>sharp</accidental>
        <stem>down</stem>
        </note>
      <note>
        <pitch>
          <step>D</step>
          <octave>4</octave>
          </pitch>
        <duration>20160</duration>
        <voice>2</voice>
        <type>half</type>
        <stem>down</stem>
        </note>
      <backup>
        <duration>40320</duration>
        </backup>
      </measure>
    <measure number="34" width="125.76">
      <attributes />
      <note>
        <pitch>
          <step>G</step>
          <octave>4</octave>
          </pitch>
        <duration>10080</duration>
        <voice>1</voice>
        <type>quarter</type>
        <stem>up</stem>
        </note>
      <note>
        <pitch>
          <step>G</step>
          <octave>4</octave>
          </pitch>
        <duration>10080</duration>
        <voice>1</voice>
        <type>quarter</type>
        <stem>up</stem>
        </note>
      <note>
        <pitch>
          <step>G</step>
          <octave>4</octave>
          </pitch>
        <duration>10080</duration>
        <voice>1</voice>
        <type>quarter</type>
        <stem>up</stem>
        </note>
      <note>
        <pitch>
          <step>G</step>
          <octave>4</octave>
          </pitch>
        <duration>10080</duration>
        <voice>1</voice>
        <type>quarter</type>
        <stem>up</stem>
        </note>
      <backup>
        <duration>40320</duration>
        </backup>
      <note>
        <pitch>
          <step>B</step>
          <octave>3</octave>
          </pitch>
        <duration>20160</duration>
        <voice>2</voice>
        <type>half</type>
        <stem>down</stem>
        </note>
      <note>
        <pitch>
          <step>D</step>
          <octave>4</octave>
          </pitch>
        <duration>20160</duration>
        <voice>2</voice>
        <type>half</type>
        <stem>down</stem>
        </note>
      <backup>
        <duration>40320</duration>
        </backup>
      </measure>
    <measure number="35" width="226.51">
      <print new-system="yes">
        <system-layout>
          <system-margins>
            <left-margin>21</left-margin>
            <right-margin>0</right-margin>
            </system-margins>
          <system-distance>100.74</system-distance>
          </system-layout>
        </print>
      <attributes />
      <note>
        <rest />
        <duration>20160</duration>
        <voice>1</voice>
        <type>half</type>
        </note>
      <note>
        <pitch>
          <step>C</step>
          <octave>5</octave>
          </pitch>
        <duration>20160</duration>
        <tie type="start" />
        <voice>1</voice>
        <type>half</type>
        <stem>up</stem>
        <notations>
          <tied type="start" />
          </notations>
        </note>
      <backup>
        <duration>40320</duration>
        </backup>
      <note>
        <pitch>
          <step>B</step>
          <octave>3</octave>
          </pitch>
        <duration>20160</duration>
        <voice>2</voice>
        <type>half</type>
        <stem>down</stem>
        </note>
      <note>
        <chord />
        <pitch>
          <step>G</step>
          <octave>4</octave>
          </pitch>
        <duration>20160</duration>
        <voice>2</voice>
        <type>half</type>
        <stem>down</stem>
        </note>
      <note>
        <pitch>
          <step>C</step>
          <octave>4</octave>
          </pitch>
        <duration>10080</duration>
        <voice>2</voice>
        <type>quarter</type>
        <stem>down</stem>
        </note>
      <note>
        <pitch>
          <step>C</step>
          <octave>4</octave>
          </pitch>
        <duration>10080</duration>
        <voice>2</voice>
        <type>quarter</type>
        <stem>down</stem>
        </note>
      <note>
        <chord />
        <pitch>
          <step>F</step>
          <alter>1</alter>
          <octave>4</octave>
          </pitch>
        <duration>10080</duration>
        <voice>2</voice>
        <type>quarter</type>
        <accidental>sharp</accidental>
        <stem>down</stem>
        </note>
      <backup>
        <duration>40320</duration>
        </backup>
      </measure>
    <measure number="36" width="169.14">
      <attributes />
      <note>
        <pitch>
          <step>C</step>
          <octave>5</octave>
          </pitch>
        <duration>10080</duration>
        <tie type="stop" />
        <voice>1</voice>
        <type>quarter</type>
        <stem>up</stem>
        <notations>
          <tied type="stop" />
          </notations>
        </note>
      <note>
        <rest />
        <duration>10080</duration>
        <voice>1</voice>
        <type>quarter</type>
        </note>
      <note>
        <rest />
        <duration>20160</duration>
        <voice>1</voice>
        <type>half</type>
        </note>
      <backup>
        <duration>40320</duration>
        </backup>
      <note>
        <pitch>
          <step>E</step>
          <alter>-1</alter>
          <octave>4</octave>
          </pitch>
        <duration>10080</duration>
        <voice>2</voice>
        <type>quarter</type>
        <accidental>flat</accidental>
        <stem>down</stem>
        </note>
      <note>
        <chord />
        <pitch>
          <step>F</step>
          <alter>1</alter>
          <octave>4</octave>
          </pitch>
        <duration>10080</duration>
        <voice>2</voice>
        <type>quarter</type>
        <accidental>sharp</accidental>
        <stem>down</stem>
        </note>
      <note>
        <pitch>
          <step>D</step>
          <octave>4</octave>
          </pitch>
        <duration>10080</duration>
        <voice>2</voice>
        <type>quarter</type>
        <stem>down</stem>
        </note>
      <note>
        <chord />
        <pitch>
          <step>G</step>
          <octave>4</octave>
          </pitch>
        <duration>10080</duration>
        <voice>2</voice>
        <type>quarter</type>
        <stem>down</stem>
        </note>
      <note>
        <chord />
        <pitch>
          <step>B</step>
          <alter>-1</alter>
          <octave>4</octave>
          </pitch>
        <duration>10080</duration>
        <voice>2</voice>
        <type>quarter</type>
        <accidental>flat</accidental>
        <stem>down</stem>
        </note>
      <note>
        <pitch>
          <step>C</step>
          <octave>4</octave>
          </pitch>
        <duration>10080</duration>
        <voice>2</voice>
        <type>quarter</type>
        <stem>down</stem>
        </note>
      <note>
        <chord />
        <pitch>
          <step>E</step>
          <alter>-1</alter>
          <octave>4</octave>
          </pitch>
        <duration>10080</duration>
        <voice>2</voice>
        <type>quarter</type>
        <accidental>flat</accidental>
        <stem>down</stem>
        </note>
      <note>
        <chord />
        <pitch>
          <step>F</step>
          <alter>1</alter>
          <octave>4</octave>
          </pitch>
        <duration>10080</duration>
        <voice>2</voice>
        <type>quarter</type>
        <accidental>sharp</accidental>
        <stem>down</stem>
        </note>
      <note>
        <pitch>
          <step>B</step>
          <alter>-1</alter>
          <octave>3</octave>
          </pitch>
        <duration>10080</duration>
        <voice>2</voice>
        <type>quarter</type>
        <accidental>flat</accidental>
        <stem>down</stem>
        </note>
      <note>
        <chord />
        <pitch>
          <step>D</step>
          <octave>4</octave>
          </pitch>
        <duration>10080</duration>
        <voice>2</voice>
        <type>quarter</type>
        <stem>down</stem>
        </note>
      <note>
        <chord />
        <pitch>
          <step>G</step>
          <octave>4</octave>
          </pitch>
        <duration>10080</duration>
        <voice>2</voice>
        <type>quarter</type>
        <stem>down</stem>
        </note>
      <backup>
        <duration>40320</duration>
        </backup>
      </measure>
    </part>
  <part id="Pce4ddb084995068de420d3f88f1f88f1">
    <measure number="25" width="169.81">
      <attributes>
        <divisions>10080</divisions>
        <key>
          <fifths>-2</fifths>
          </key>
        <time>
          <beats>4</beats>
          <beat-type>4</beat-type>
          </time>
        <clef>
          <sign>F</sign>
          <line>4</line>
          </clef>
        </attributes>
      <note>
        <pitch>
          <step>F</step>
          <octave>3</octave>
          </pitch>
        <duration>10080</duration>
        <voice>5</voice>
        <type>quarter</type>
        <stem>up</stem>
        </note>
      <note>
        <pitch>
          <step>E</step>
          <alter>-1</alter>
          <octave>3</octave>
          </pitch>
        <duration>10080</duration>
        <voice>5</voice>
        <type>quarter</type>
        <accidental>flat</accidental>
        <stem>up</stem>
        </note>
      <note>
        <pitch>
          <step>E</step>
          <alter>-1</alter>
          <octave>3</octave>
          </pitch>
        <duration>10080</duration>
        <voice>5</voice>
        <type>quarter</type>
        <accidental>flat</accidental>
        <stem>up</stem>
        </note>
      <note>
        <pitch>
          <step>E</step>
          <alter>-1</alter>
          <octave>2</octave>
          </pitch>
        <duration>10080</duration>
        <voice>5</voice>
        <type>quarter</type>
        <accidental>flat</accidental>
        <stem>up</stem>
        </note>
      <note>
        <chord />
        <pitch>
          <step>E</step>
          <alter>-1</alter>
          <octave>3</octave>
          </pitch>
        <duration>10080</duration>
        <voice>5</voice>
        <type>quarter</type>
        <accidental>flat</accidental>
        <stem>up</stem>
        </note>
      <backup>
        <duration>40320</duration>
        </backup>
      <note>
        <pitch>
          <step>B</step>
          <alter>-1</alter>
          <octave>2</octave>
          </pitch>
        <duration>30240</duration>
        <voice>6</voice>
        <type>half</type>
        <dot />
        <accidental>flat</accidental>
        <stem>down</stem>
        </note>
      <note>
        <rest />
        <duration>10080</duration>
        <voice>6</voice>
        <type>quarter</type>
        </note>
      <backup>
        <duration>40320</duration>
        </backup>
      </measure>
    <measure number="26" width="179.3">
      <attributes />
      <note>
        <pitch>
          <step>B</step>
          <alter>-1</alter>
          <octave>2</octave>
          </pitch>
        <duration>10080</duration>
        <voice>5</voice>
        <type>quarter</type>
        <accidental>flat</accidental>
        <stem>up</stem>
        </note>
      <note>
        <rest />
        <duration>10080</duration>
        <voice>5</voice>
        <type>quarter</type>
        </note>
      <note>
        <rest />
        <duration>10080</duration>
        <voice>5</voice>
        <type>quarter</type>
        </note>
      <note>
        <pitch>
          <step>C</step>
          <octave>3</octave>
          </pitch>
        <duration>10080</duration>
        <tie type="start" />
        <voice>5</voice>
        <type>quarter</type>
        <stem>up</stem>
        <notations>
          <tied type="start" />
          </notations>
        </note>
      <backup>
        <duration>40320</duration>
        </backup>
      <note>
        <pitch>
          <step>F</step>
          <octave>2</octave>
          </pitch>
        <duration>10080</duration>
        <tie type="start" />
        <voice>6</voice>
        <type>quarter</type>
        <stem>down</stem>
        <notations>
          <tied type="start" />
          </notations>
        </note>
      <note>
        <pitch>
          <step>F</step>
          <octave>2</octave>
          </pitch>
        <duration>10080</duration>
        <tie type="stop" />
        <tie type="start" />
        <voice>6</voice>
        <type>quarter</type>
        <stem>down</stem>
        <notations>
          <tied type="stop" />
          <tied type="start" />
          </notations>
        </note>
      <note>
        <chord />
        <pitch>
          <step>A</step>
          <octave>2</octave>
          </pitch>
        <duration>10080</duration>
        <voice>6</voice>
        <type>quarter</type>
        <stem>down</stem>
        </note>
      <note>
        <pitch>
          <step>F</step>
          <octave>2</octave>
          </pitch>
        <duration>10080</duration>
        <tie type="stop" />
        <tie type="start" />
        <voice>6</voice>
        <type>quarter</type>
        <stem>down</stem>
        <notations>
          <tied type="stop" />
          <tied type="start" />
          </notations>
        </note>
      <note>
        <chord />
        <pitch>
          <step>B</step>
          <alter>-1</alter>
          <octave>2</octave>
          </pitch>
        <duration>10080</duration>
        <voice>6</voice>
        <type>quarter</type>
        <accidental>flat</accidental>
        <stem>down</stem>
        </note>
      <note>
        <pitch>
          <step>F</step>
          <octave>2</octave>
          </pitch>
        <duration>10080</duration>
        <tie type="stop" />
        <voice>6</voice>
        <type>quarter</type>
        <stem>down</stem>
        <notations>
          <tied type="stop" />
          </notations>
        </note>
      <backup>
        <duration>40320</duration>
        </backup>
      </measure>
    <measure number="27" width="146.09">
      <attributes />
      <note>
        <pitch>
          <step>C</step>
          <octave>3</octave>
          </pitch>
        <duration>10080</duration>
        <tie type="stop" />
        <voice>5</voice>
        <type>quarter</type>
        <stem>up</stem>
        <notations>
          <tied type="stop" />
          </notations>
        </note>
      <note>
        <rest />
        <duration>10080</duration>
        <voice>5</voice>
        <type>quarter</type>
        </note>
      <note>
        <rest />
        <duration>20160</duration>
        <voice>5</voice>
        <type>half</type>
        </note>
      <backup>
        <duration>40320</duration>
        </backup>
      <note>
        <rest />
        <duration>10080</duration>
        <voice>6</voice>
        <type>quarter</type>
        </note>
      <note>
        <pitch>
          <step>B</step>
          <alter>-1</alter>
          <octave>2</octave>
          </pitch>
        <duration>10080</duration>
        <voice>6</voice>
        <type>quarter</type>
        <accidental>flat</accidental>
        <stem>down</stem>
        </note>
      <note>
        <pitch>
          <step>C</step>
          <octave>3</octave>
          </pitch>
        <duration>10080</duration>
        <voice>6</voice>
        <type>quarter</type>
        <stem>down</stem>
        </note>
      <note>
        <pitch>
          <step>D</step>
          <octave>3</octave>
          </pitch>
        <duration>10080</duration>
        <voice>6</voice>
        <type>quarter</type>
        <stem>down</stem>
        </note>
      <backup>
        <duration>40320</duration>
        </backup>
      <note>
        <pitch>
          <step>F</step>
          <octave>2</octave>
          </pitch>
        <duration>40320</duration>
        <voice>7</voice>
        <type>whole</type>
        </note>
      <backup>
        <duration>40320</duration>
        </backup>
      </measure>
    <measure number="28" width="216.4">
      <print new-system="yes">
        <system-layout>
          <system-margins>
            <left-margin>21</left-margin>
            <right-margin>0</right-margin>
            </system-margins>
          <system-distance>100.74</system-distance>
          </system-layout>
        <staff-layout number="2">
          <staff-distance>65</staff-distance>
          </staff-layout>
        </print>
      <attributes>
        <staff-details print-object="yes" />
        </attributes>
      <note>
        <rest />
        <duration>20160</duration>
        <voice>5</voice>
        <type>half</type>
        </note>
      <note>
        <rest />
        <duration>10080</duration>
        <voice>5</voice>
        <type>quarter</type>
        </note>
      <note>
        <pitch>
          <step>C</step>
          <octave>3</octave>
          </pitch>
        <duration>10080</duration>
        <tie type="start" />
        <voice>5</voice>
        <type>quarter</type>
        <stem>up</stem>
        <notations>
          <tied type="start" />
          </notations>
        </note>
      <backup>
        <duration>40320</duration>
        </backup>
      <note>
        <pitch>
          <step>F</step>
          <octave>2</octave>
          </pitch>
        <duration>10080</duration>
        <voice>6</voice>
        <type>quarter</type>
        <stem>down</stem>
        </note>
      <note>
        <chord />
        <pitch>
          <step>E</step>
          <alter>-1</alter>
          <octave>3</octave>
          </pitch>
        <duration>10080</duration>
        <voice>6</voice>
        <type>quarter</type>
        <accidental>flat</accidental>
        <stem>down</stem>
        </note>
      <note>
        <pitch>
          <step>C</step>
          <octave>2</octave>
          </pitch>
        <duration>10080</duration>
        <voice>6</voice>
        <type>quarter</type>
        <stem>down</stem>
        </note>
      <note>
        <chord />
        <pitch>
          <step>E</step>
          <octave>3</octave>
          </pitch>
        <duration>10080</duration>
        <voice>6</voice>
        <type>quarter</type>
        <stem>down</stem>
        </note>
      <note>
        <pitch>
          <step>D</step>
          <octave>2</octave>
          </pitch>
        <duration>10080</duration>
        <voice>6</voice>
        <type>quarter</type>
        <stem>down</stem>
        </note>
      <note>
        <chord />
        <pitch>
          <step>F</step>
          <octave>3</octave>
          </pitch>
        <duration>10080</duration>
        <voice>6</voice>
        <type>quarter</type>
        <stem>down</stem>
        </note>
      <note>
        <pitch>
          <step>E</step>
          <octave>2</octave>
          </pitch>
        <duration>10080</duration>
        <voice>6</voice>
        <type>quarter</type>
        <stem>down</stem>
        </note>
      <backup>
        <duration>40320</duration>
        </backup>
      </measure>
    <measure number="29" width="138.79">
      <attributes />
      <note>
        <pitch>
          <step>C</step>
          <octave>3</octave>
          </pitch>
        <duration>30240</duration>
        <tie type="stop" />
        <voice>5</voice>
        <type>half</type>
        <dot />
        <stem>up</stem>
        <notations>
          <tied type="stop" />
          </notations>
        </note>
      <note>
        <rest />
        <duration>10080</duration>
        <voice>5</voice>
        <type>quarter</type>
        </note>
      <backup>
        <duration>40320</duration>
        </backup>
      <note>
        <pitch>
          <step>F</step>
          <octave>2</octave>
          </pitch>
        <duration>10080</duration>
        <voice>6</voice>
        <type>quarter</type>
        <stem>down</stem>
        </note>
      <note>
        <pitch>
          <step>G</step>
          <octave>2</octave>
          </pitch>
        <duration>10080</duration>
        <voice>6</voice>
        <type>quarter</type>
        <stem>down</stem>
        </note>
      <note>
        <pitch>
          <step>F</step>
          <octave>2</octave>
          </pitch>
        <duration>10080</duration>
        <voice>6</voice>
        <type>quarter</type>
        <stem>down</stem>
        </note>
      <note>
        <pitch>
          <step>E</step>
          <alter>-1</alter>
          <octave>2</octave>
          </pitch>
        <duration>10080</duration>
        <tie type="start" />
        <voice>6</voice>
        <type>quarter</type>
        <accidental>flat</accidental>
        <stem>down</stem>
        <notations>
          <tied type="start" />
          </notations>
        </note>
      <backup>
        <duration>40320</duration>
        </backup>
      </measure>
    <measure number="30" width="157.14">
      <attributes />
      <note>
        <rest measure="yes" />
        <duration>40320</duration>
        <voice>5</voice>
        </note>
      <backup>
        <duration>40320</duration>
        </backup>
      <note>
        <pitch>
          <step>E</step>
          <alter>-1</alter>
          <octave>2</octave>
          </pitch>
        <duration>10080</duration>
        <tie type="stop" />
        <voice>6</voice>
        <type>quarter</type>
        <accidental>flat</accidental>
        <stem>down</stem>
        <notations>
          <tied type="stop" />
          </notations>
        </note>
      <note>
        <pitch>
          <step>D</step>
          <octave>2</octave>
          </pitch>
        <duration>10080</duration>
        <voice>6</voice>
        <type>quarter</type>
        <stem>down</stem>
        </note>
      <note>
        <rest />
        <duration>10080</duration>
        <voice>6</voice>
        <type>quarter</type>
        </note>
      <note>
        <pitch>
          <step>B</step>
          <alter>-1</alter>
          <octave>3</octave>
          </pitch>
        <duration>10080</duration>
        <voice>6</voice>
        <type>quarter</type>
        <accidental>flat</accidental>
        <stem>down</stem>
        </note>
      <backup>
        <duration>40320</duration>
        </backup>
      </measure>
    <measure number="31" width="145.36">
      <attributes />
      <note>
        <pitch>
          <step>G</step>
          <octave>3</octave>
          </pitch>
        <duration>10080</duration>
        <type>quarter</type>
        <stem>up</stem>
        </note>
      <note>
        <pitch>
          <step>G</step>
          <octave>3</octave>
          </pitch>
        <duration>10080</duration>
        <type>quarter</type>
        <stem>up</stem>
        </note>
      <note>
        <pitch>
          <step>G</step>
          <octave>3</octave>
          </pitch>
        <duration>10080</duration>
        <type>quarter</type>
        <stem>up</stem>
        </note>
      <note>
        <pitch>
          <step>G</step>
          <octave>3</octave>
          </pitch>
        <duration>10080</duration>
        <type>quarter</type>
        <stem>up</stem>
        </note>
      </measure>
    <measure number="32" width="122.44">
      <attributes />
      <note>
        <pitch>
          <step>G</step>
          <octave>3</octave>
          </pitch>
        <duration>30240</duration>
        <type>half</type>
        <dot />
        <stem>up</stem>
        </note>
      <note>
        <pitch>
          <step>C</step>
          <octave>4</octave>
          </pitch>
        <duration>10080</duration>
        <type>quarter</type>
        <stem>up</stem>
        </note>
      </measure>
    <measure number="33" width="150.27">
      <attributes>
        <clef>
          <sign>F</sign>
          <line>4</line>
          </clef>
        </attributes>
      <note>
        <pitch>
          <step>F</step>
          <octave>3</octave>
          </pitch>
        <duration>10080</duration>
        <type>quarter</type>
        <stem>down</stem>
        </note>
      <note>
        <pitch>
          <step>F</step>
          <octave>3</octave>
          </pitch>
        <duration>10080</duration>
        <type>quarter</type>
        <stem>down</stem>
        </note>
      <note>
        <pitch>
          <step>F</step>
          <octave>3</octave>
          </pitch>
        <duration>10080</duration>
        <type>quarter</type>
        <stem>down</stem>
        </note>
      <note>
        <pitch>
          <step>F</step>
          <octave>3</octave>
          </pitch>
        <duration>10080</duration>
        <type>quarter</type>
        <stem>down</stem>
        </note>
      </measure>
    <measure number="34" width="125.76">
      <attributes />
      <note>
        <pitch>
          <step>F</step>
          <octave>3</octave>
          </pitch>
        <duration>30240</duration>
        <type>half</type>
        <dot />
        <stem>down</stem>
        </note>
      <note>
        <pitch>
          <step>B</step>
          <octave>3</octave>
          </pitch>
        <duration>10080</duration>
        <type>quarter</type>
        <stem>down</stem>
        </note>
      </measure>
    <measure number="35" width="226.51">
      <print new-system="yes">
        <system-layout>
          <system-margins>
            <left-margin>21</left-margin>
            <right-margin>0</right-margin>
            </system-margins>
          <system-distance>100.74</system-distance>
          </system-layout>
        <staff-layout number="2">
          <staff-distance>65</staff-distance>
          </staff-layout>
        </print>
      <attributes>
        <staff-details print-object="yes" />
        </attributes>
      <note>
        <pitch>
          <step>E</step>
          <octave>3</octave>
          </pitch>
        <duration>10080</duration>
        <type>quarter</type>
        <stem>down</stem>
        </note>
      <note>
        <pitch>
          <step>E</step>
          <octave>3</octave>
          </pitch>
        <duration>10080</duration>
        <type>quarter</type>
        <stem>down</stem>
        </note>
      <note>
        <pitch>
          <step>E</step>
          <alter>-1</alter>
          <octave>3</octave>
          </pitch>
        <duration>10080</duration>
        <type>quarter</type>
        <accidental>flat</accidental>
        <stem>down</stem>
        </note>
      <note>
        <pitch>
          <step>D</step>
          <octave>2</octave>
          </pitch>
        <duration>10080</duration>
        <type>quarter</type>
        <stem>up</stem>
        </note>
      </measure>
    <measure number="36" width="169.14">
      <attributes />
      <note>
        <pitch>
          <step>G</step>
          <octave>1</octave>
          </pitch>
        <duration>10080</duration>
        <type>quarter</type>
        <stem>up</stem>
        </note>
      <note>
        <pitch>
          <step>G</step>
          <octave>1</octave>
          </pitch>
        <duration>10080</duration>
        <type>quarter</type>
        <stem>up</stem>
        </note>
      <note>
        <pitch>
          <step>G</step>
          <octave>1</octave>
          </pitch>
        <duration>10080</duration>
        <type>quarter</type>
        <stem>up</stem>
        </note>
      <note>
        <pitch>
          <step>G</step>
          <octave>1</octave>
          </pitch>
        <duration>10080</duration>
        <type>quarter</type>
        <stem>up</stem>
        </note>
      </measure>
    </part>
  </score-partwise>
